ISO-10303-21;
HEADER;
/* Generated by software containing ST-Developer
 * from STEP Tools, Inc. (www.steptools.com) 
 */

FILE_DESCRIPTION(
/* description */ (''),
/* implementation_level */ '2;1');

FILE_NAME(
/* name */ '0ea3b67e-3f9f-459e-ba5f-dc9cf5968d53.stp',
/* time_stamp */ '2026-04-25T01:56:39Z',
/* author */ (''),
/* organization */ (''),
/* preprocessor_version */ 'ST-DEVELOPER v20.1',
/* originating_system */ 'Autodesk Translation Framework v15.8.0.0',
/* authorisation */ '');

FILE_SCHEMA (('AUTOMOTIVE_DESIGN { 1 0 10303 214 3 1 1 }'));
ENDSEC;

DATA;
#10=MECHANICAL_DESIGN_GEOMETRIC_PRESENTATION_REPRESENTATION('',(#13),#957);
#11=SHAPE_REPRESENTATION_RELATIONSHIP('SRR','None',#963,#12);
#12=ADVANCED_BREP_SHAPE_REPRESENTATION('',(#14),#956);
#13=STYLED_ITEM('',(#972),#14);
#14=MANIFOLD_SOLID_BREP('Top',#605);
#15=FACE_OUTER_BOUND('',#47,.T.);
#16=FACE_OUTER_BOUND('',#48,.T.);
#17=FACE_OUTER_BOUND('',#49,.T.);
#18=FACE_OUTER_BOUND('',#50,.T.);
#19=FACE_OUTER_BOUND('',#51,.T.);
#20=FACE_OUTER_BOUND('',#52,.T.);
#21=FACE_OUTER_BOUND('',#53,.T.);
#22=FACE_OUTER_BOUND('',#54,.T.);
#23=FACE_OUTER_BOUND('',#55,.T.);
#24=FACE_OUTER_BOUND('',#56,.T.);
#25=FACE_OUTER_BOUND('',#57,.T.);
#26=FACE_OUTER_BOUND('',#58,.T.);
#27=FACE_OUTER_BOUND('',#59,.T.);
#28=FACE_OUTER_BOUND('',#60,.T.);
#29=FACE_OUTER_BOUND('',#61,.T.);
#30=FACE_OUTER_BOUND('',#62,.T.);
#31=FACE_OUTER_BOUND('',#63,.T.);
#32=FACE_OUTER_BOUND('',#64,.T.);
#33=FACE_OUTER_BOUND('',#65,.T.);
#34=FACE_OUTER_BOUND('',#66,.T.);
#35=FACE_OUTER_BOUND('',#67,.T.);
#36=FACE_OUTER_BOUND('',#68,.T.);
#37=FACE_OUTER_BOUND('',#69,.T.);
#38=FACE_OUTER_BOUND('',#70,.T.);
#39=FACE_OUTER_BOUND('',#71,.T.);
#40=FACE_OUTER_BOUND('',#72,.T.);
#41=FACE_OUTER_BOUND('',#73,.T.);
#42=FACE_OUTER_BOUND('',#74,.T.);
#43=FACE_OUTER_BOUND('',#75,.T.);
#44=FACE_OUTER_BOUND('',#76,.T.);
#45=FACE_OUTER_BOUND('',#77,.T.);
#46=FACE_OUTER_BOUND('',#78,.T.);
#47=EDGE_LOOP('',(#377,#378,#379,#380));
#48=EDGE_LOOP('',(#381,#382,#383,#384));
#49=EDGE_LOOP('',(#385,#386,#387,#388,#389));
#50=EDGE_LOOP('',(#390,#391,#392,#393));
#51=EDGE_LOOP('',(#394,#395,#396,#397));
#52=EDGE_LOOP('',(#398,#399,#400,#401,#402));
#53=EDGE_LOOP('',(#403,#404,#405,#406));
#54=EDGE_LOOP('',(#407,#408,#409,#410));
#55=EDGE_LOOP('',(#411,#412,#413,#414,#415));
#56=EDGE_LOOP('',(#416,#417,#418,#419));
#57=EDGE_LOOP('',(#420,#421,#422,#423));
#58=EDGE_LOOP('',(#424,#425,#426,#427,#428));
#59=EDGE_LOOP('',(#429,#430,#431,#432));
#60=EDGE_LOOP('',(#433,#434,#435,#436));
#61=EDGE_LOOP('',(#437,#438,#439,#440));
#62=EDGE_LOOP('',(#441,#442,#443,#444));
#63=EDGE_LOOP('',(#445,#446,#447,#448,#449));
#64=EDGE_LOOP('',(#450,#451,#452,#453,#454));
#65=EDGE_LOOP('',(#455,#456,#457,#458));
#66=EDGE_LOOP('',(#459,#460,#461,#462));
#67=EDGE_LOOP('',(#463,#464,#465,#466));
#68=EDGE_LOOP('',(#467,#468,#469,#470,#471,#472,#473,#474));
#69=EDGE_LOOP('',(#475,#476,#477,#478));
#70=EDGE_LOOP('',(#479,#480,#481,#482,#483));
#71=EDGE_LOOP('',(#484,#485,#486,#487,#488,#489,#490,#491,#492,#493,#494,
#495,#496,#497,#498,#499,#500,#501,#502,#503,#504,#505));
#72=EDGE_LOOP('',(#506,#507,#508,#509,#510));
#73=EDGE_LOOP('',(#511,#512,#513,#514));
#74=EDGE_LOOP('',(#515,#516,#517,#518));
#75=EDGE_LOOP('',(#519,#520,#521,#522,#523,#524,#525,#526));
#76=EDGE_LOOP('',(#527,#528,#529,#530));
#77=EDGE_LOOP('',(#531,#532,#533,#534));
#78=EDGE_LOOP('',(#535,#536,#537,#538,#539,#540));
#79=LINE('',#791,#161);
#80=LINE('',#793,#162);
#81=LINE('',#795,#163);
#82=LINE('',#796,#164);
#83=LINE('',#799,#165);
#84=LINE('',#801,#166);
#85=LINE('',#802,#167);
#86=LINE('',#805,#168);
#87=LINE('',#807,#169);
#88=LINE('',#808,#170);
#89=LINE('',#812,#171);
#90=LINE('',#814,#172);
#91=LINE('',#816,#173);
#92=LINE('',#817,#174);
#93=LINE('',#820,#175);
#94=LINE('',#822,#176);
#95=LINE('',#823,#177);
#96=LINE('',#826,#178);
#97=LINE('',#828,#179);
#98=LINE('',#829,#180);
#99=LINE('',#833,#181);
#100=LINE('',#835,#182);
#101=LINE('',#837,#183);
#102=LINE('',#838,#184);
#103=LINE('',#841,#185);
#104=LINE('',#843,#186);
#105=LINE('',#844,#187);
#106=LINE('',#847,#188);
#107=LINE('',#849,#189);
#108=LINE('',#850,#190);
#109=LINE('',#854,#191);
#110=LINE('',#856,#192);
#111=LINE('',#858,#193);
#112=LINE('',#859,#194);
#113=LINE('',#862,#195);
#114=LINE('',#864,#196);
#115=LINE('',#865,#197);
#116=LINE('',#868,#198);
#117=LINE('',#870,#199);
#118=LINE('',#871,#200);
#119=LINE('',#874,#201);
#120=LINE('',#875,#202);
#121=LINE('',#878,#203);
#122=LINE('',#879,#204);
#123=LINE('',#882,#205);
#124=LINE('',#883,#206);
#125=LINE('',#886,#207);
#126=LINE('',#887,#208);
#127=LINE('',#889,#209);
#128=LINE('',#891,#210);
#129=LINE('',#894,#211);
#130=LINE('',#895,#212);
#131=LINE('',#898,#213);
#132=LINE('',#899,#214);
#133=LINE('',#902,#215);
#134=LINE('',#903,#216);
#135=LINE('',#906,#217);
#136=LINE('',#908,#218);
#137=LINE('',#910,#219);
#138=LINE('',#912,#220);
#139=LINE('',#913,#221);
#140=LINE('',#915,#222);
#141=LINE('',#916,#223);
#142=LINE('',#918,#224);
#143=LINE('',#920,#225);
#144=LINE('',#923,#226);
#145=LINE('',#925,#227);
#146=LINE('',#926,#228);
#147=LINE('',#927,#229);
#148=LINE('',#929,#230);
#149=LINE('',#931,#231);
#150=LINE('',#932,#232);
#151=LINE('',#933,#233);
#152=LINE('',#937,#234);
#153=LINE('',#938,#235);
#154=LINE('',#941,#236);
#155=LINE('',#942,#237);
#156=LINE('',#945,#238);
#157=LINE('',#946,#239);
#158=LINE('',#949,#240);
#159=LINE('',#950,#241);
#160=LINE('',#952,#242);
#161=VECTOR('',#643,10.);
#162=VECTOR('',#644,10.);
#163=VECTOR('',#645,10.);
#164=VECTOR('',#646,10.);
#165=VECTOR('',#649,10.);
#166=VECTOR('',#650,10.);
#167=VECTOR('',#651,10.);
#168=VECTOR('',#654,10.);
#169=VECTOR('',#655,10.);
#170=VECTOR('',#656,10.);
#171=VECTOR('',#659,10.);
#172=VECTOR('',#660,10.);
#173=VECTOR('',#661,10.);
#174=VECTOR('',#662,10.);
#175=VECTOR('',#665,10.);
#176=VECTOR('',#666,10.);
#177=VECTOR('',#667,10.);
#178=VECTOR('',#670,10.);
#179=VECTOR('',#671,10.);
#180=VECTOR('',#672,10.);
#181=VECTOR('',#675,10.);
#182=VECTOR('',#676,10.);
#183=VECTOR('',#677,10.);
#184=VECTOR('',#678,10.);
#185=VECTOR('',#681,10.);
#186=VECTOR('',#682,10.);
#187=VECTOR('',#683,10.);
#188=VECTOR('',#686,10.);
#189=VECTOR('',#687,10.);
#190=VECTOR('',#688,10.);
#191=VECTOR('',#691,10.);
#192=VECTOR('',#692,10.);
#193=VECTOR('',#693,10.);
#194=VECTOR('',#694,10.);
#195=VECTOR('',#697,10.);
#196=VECTOR('',#698,10.);
#197=VECTOR('',#699,10.);
#198=VECTOR('',#702,10.);
#199=VECTOR('',#703,10.);
#200=VECTOR('',#704,10.);
#201=VECTOR('',#707,10.);
#202=VECTOR('',#708,10.);
#203=VECTOR('',#711,10.);
#204=VECTOR('',#712,10.);
#205=VECTOR('',#715,10.);
#206=VECTOR('',#716,10.);
#207=VECTOR('',#719,10.);
#208=VECTOR('',#720,10.);
#209=VECTOR('',#723,10.);
#210=VECTOR('',#726,10.);
#211=VECTOR('',#729,10.);
#212=VECTOR('',#730,10.);
#213=VECTOR('',#733,10.);
#214=VECTOR('',#734,10.);
#215=VECTOR('',#737,10.);
#216=VECTOR('',#738,10.);
#217=VECTOR('',#741,10.);
#218=VECTOR('',#742,10.);
#219=VECTOR('',#743,10.);
#220=VECTOR('',#744,10.);
#221=VECTOR('',#745,10.);
#222=VECTOR('',#746,10.);
#223=VECTOR('',#747,10.);
#224=VECTOR('',#750,10.);
#225=VECTOR('',#753,10.);
#226=VECTOR('',#756,10.);
#227=VECTOR('',#757,10.);
#228=VECTOR('',#758,10.);
#229=VECTOR('',#759,10.);
#230=VECTOR('',#760,10.);
#231=VECTOR('',#761,10.);
#232=VECTOR('',#762,10.);
#233=VECTOR('',#763,10.);
#234=VECTOR('',#768,10.);
#235=VECTOR('',#769,10.);
#236=VECTOR('',#772,10.);
#237=VECTOR('',#773,10.);
#238=VECTOR('',#776,10.);
#239=VECTOR('',#777,10.);
#240=VECTOR('',#780,10.);
#241=VECTOR('',#781,10.);
#242=VECTOR('',#784,10.);
#243=VERTEX_POINT('',#789);
#244=VERTEX_POINT('',#790);
#245=VERTEX_POINT('',#792);
#246=VERTEX_POINT('',#794);
#247=VERTEX_POINT('',#798);
#248=VERTEX_POINT('',#800);
#249=VERTEX_POINT('',#804);
#250=VERTEX_POINT('',#806);
#251=VERTEX_POINT('',#810);
#252=VERTEX_POINT('',#811);
#253=VERTEX_POINT('',#813);
#254=VERTEX_POINT('',#815);
#255=VERTEX_POINT('',#819);
#256=VERTEX_POINT('',#821);
#257=VERTEX_POINT('',#825);
#258=VERTEX_POINT('',#827);
#259=VERTEX_POINT('',#831);
#260=VERTEX_POINT('',#832);
#261=VERTEX_POINT('',#834);
#262=VERTEX_POINT('',#836);
#263=VERTEX_POINT('',#840);
#264=VERTEX_POINT('',#842);
#265=VERTEX_POINT('',#846);
#266=VERTEX_POINT('',#848);
#267=VERTEX_POINT('',#852);
#268=VERTEX_POINT('',#853);
#269=VERTEX_POINT('',#855);
#270=VERTEX_POINT('',#857);
#271=VERTEX_POINT('',#861);
#272=VERTEX_POINT('',#863);
#273=VERTEX_POINT('',#867);
#274=VERTEX_POINT('',#869);
#275=VERTEX_POINT('',#873);
#276=VERTEX_POINT('',#877);
#277=VERTEX_POINT('',#881);
#278=VERTEX_POINT('',#885);
#279=VERTEX_POINT('',#893);
#280=VERTEX_POINT('',#897);
#281=VERTEX_POINT('',#901);
#282=VERTEX_POINT('',#905);
#283=VERTEX_POINT('',#907);
#284=VERTEX_POINT('',#909);
#285=VERTEX_POINT('',#911);
#286=VERTEX_POINT('',#914);
#287=VERTEX_POINT('',#922);
#288=VERTEX_POINT('',#924);
#289=VERTEX_POINT('',#928);
#290=VERTEX_POINT('',#930);
#291=VERTEX_POINT('',#936);
#292=VERTEX_POINT('',#940);
#293=VERTEX_POINT('',#944);
#294=VERTEX_POINT('',#948);
#295=EDGE_CURVE('',#243,#244,#79,.T.);
#296=EDGE_CURVE('',#244,#245,#80,.T.);
#297=EDGE_CURVE('',#245,#246,#81,.T.);
#298=EDGE_CURVE('',#246,#243,#82,.T.);
#299=EDGE_CURVE('',#247,#246,#83,.T.);
#300=EDGE_CURVE('',#247,#248,#84,.T.);
#301=EDGE_CURVE('',#248,#243,#85,.T.);
#302=EDGE_CURVE('',#249,#245,#86,.T.);
#303=EDGE_CURVE('',#250,#249,#87,.T.);
#304=EDGE_CURVE('',#247,#250,#88,.T.);
#305=EDGE_CURVE('',#251,#252,#89,.T.);
#306=EDGE_CURVE('',#252,#253,#90,.T.);
#307=EDGE_CURVE('',#253,#254,#91,.T.);
#308=EDGE_CURVE('',#254,#251,#92,.T.);
#309=EDGE_CURVE('',#255,#254,#93,.T.);
#310=EDGE_CURVE('',#255,#256,#94,.T.);
#311=EDGE_CURVE('',#256,#251,#95,.T.);
#312=EDGE_CURVE('',#257,#253,#96,.T.);
#313=EDGE_CURVE('',#258,#257,#97,.T.);
#314=EDGE_CURVE('',#255,#258,#98,.T.);
#315=EDGE_CURVE('',#259,#260,#99,.T.);
#316=EDGE_CURVE('',#260,#261,#100,.T.);
#317=EDGE_CURVE('',#261,#262,#101,.T.);
#318=EDGE_CURVE('',#262,#259,#102,.T.);
#319=EDGE_CURVE('',#263,#262,#103,.T.);
#320=EDGE_CURVE('',#263,#264,#104,.T.);
#321=EDGE_CURVE('',#264,#259,#105,.T.);
#322=EDGE_CURVE('',#265,#261,#106,.T.);
#323=EDGE_CURVE('',#266,#265,#107,.T.);
#324=EDGE_CURVE('',#263,#266,#108,.T.);
#325=EDGE_CURVE('',#267,#268,#109,.T.);
#326=EDGE_CURVE('',#268,#269,#110,.T.);
#327=EDGE_CURVE('',#269,#270,#111,.T.);
#328=EDGE_CURVE('',#270,#267,#112,.T.);
#329=EDGE_CURVE('',#271,#270,#113,.T.);
#330=EDGE_CURVE('',#271,#272,#114,.T.);
#331=EDGE_CURVE('',#272,#267,#115,.T.);
#332=EDGE_CURVE('',#273,#269,#116,.T.);
#333=EDGE_CURVE('',#274,#273,#117,.T.);
#334=EDGE_CURVE('',#271,#274,#118,.T.);
#335=EDGE_CURVE('',#275,#272,#119,.T.);
#336=EDGE_CURVE('',#274,#275,#120,.T.);
#337=EDGE_CURVE('',#276,#264,#121,.T.);
#338=EDGE_CURVE('',#266,#276,#122,.T.);
#339=EDGE_CURVE('',#273,#277,#123,.T.);
#340=EDGE_CURVE('',#277,#268,#124,.T.);
#341=EDGE_CURVE('',#265,#278,#125,.T.);
#342=EDGE_CURVE('',#278,#260,#126,.T.);
#343=EDGE_CURVE('',#277,#275,#127,.T.);
#344=EDGE_CURVE('',#278,#276,#128,.T.);
#345=EDGE_CURVE('',#279,#256,#129,.T.);
#346=EDGE_CURVE('',#258,#279,#130,.T.);
#347=EDGE_CURVE('',#280,#248,#131,.T.);
#348=EDGE_CURVE('',#250,#280,#132,.T.);
#349=EDGE_CURVE('',#249,#281,#133,.T.);
#350=EDGE_CURVE('',#281,#244,#134,.T.);
#351=EDGE_CURVE('',#281,#282,#135,.T.);
#352=EDGE_CURVE('',#282,#283,#136,.T.);
#353=EDGE_CURVE('',#284,#283,#137,.T.);
#354=EDGE_CURVE('',#285,#284,#138,.T.);
#355=EDGE_CURVE('',#285,#257,#139,.T.);
#356=EDGE_CURVE('',#257,#286,#140,.T.);
#357=EDGE_CURVE('',#286,#249,#141,.T.);
#358=EDGE_CURVE('',#286,#252,#142,.T.);
#359=EDGE_CURVE('',#281,#280,#143,.T.);
#360=EDGE_CURVE('',#287,#273,#144,.T.);
#361=EDGE_CURVE('',#288,#287,#145,.T.);
#362=EDGE_CURVE('',#282,#288,#146,.T.);
#363=EDGE_CURVE('',#286,#279,#147,.T.);
#364=EDGE_CURVE('',#289,#285,#148,.T.);
#365=EDGE_CURVE('',#290,#289,#149,.T.);
#366=EDGE_CURVE('',#278,#290,#150,.T.);
#367=EDGE_CURVE('',#277,#265,#151,.T.);
#368=EDGE_CURVE('',#291,#284,#152,.T.);
#369=EDGE_CURVE('',#289,#291,#153,.T.);
#370=EDGE_CURVE('',#292,#291,#154,.T.);
#371=EDGE_CURVE('',#290,#292,#155,.T.);
#372=EDGE_CURVE('',#293,#292,#156,.T.);
#373=EDGE_CURVE('',#287,#293,#157,.T.);
#374=EDGE_CURVE('',#294,#293,#158,.T.);
#375=EDGE_CURVE('',#288,#294,#159,.T.);
#376=EDGE_CURVE('',#283,#294,#160,.T.);
#377=ORIENTED_EDGE('',*,*,#295,.T.);
#378=ORIENTED_EDGE('',*,*,#296,.T.);
#379=ORIENTED_EDGE('',*,*,#297,.T.);
#380=ORIENTED_EDGE('',*,*,#298,.T.);
#381=ORIENTED_EDGE('',*,*,#298,.F.);
#382=ORIENTED_EDGE('',*,*,#299,.F.);
#383=ORIENTED_EDGE('',*,*,#300,.T.);
#384=ORIENTED_EDGE('',*,*,#301,.T.);
#385=ORIENTED_EDGE('',*,*,#297,.F.);
#386=ORIENTED_EDGE('',*,*,#302,.F.);
#387=ORIENTED_EDGE('',*,*,#303,.F.);
#388=ORIENTED_EDGE('',*,*,#304,.F.);
#389=ORIENTED_EDGE('',*,*,#299,.T.);
#390=ORIENTED_EDGE('',*,*,#305,.T.);
#391=ORIENTED_EDGE('',*,*,#306,.T.);
#392=ORIENTED_EDGE('',*,*,#307,.T.);
#393=ORIENTED_EDGE('',*,*,#308,.T.);
#394=ORIENTED_EDGE('',*,*,#308,.F.);
#395=ORIENTED_EDGE('',*,*,#309,.F.);
#396=ORIENTED_EDGE('',*,*,#310,.T.);
#397=ORIENTED_EDGE('',*,*,#311,.T.);
#398=ORIENTED_EDGE('',*,*,#307,.F.);
#399=ORIENTED_EDGE('',*,*,#312,.F.);
#400=ORIENTED_EDGE('',*,*,#313,.F.);
#401=ORIENTED_EDGE('',*,*,#314,.F.);
#402=ORIENTED_EDGE('',*,*,#309,.T.);
#403=ORIENTED_EDGE('',*,*,#315,.T.);
#404=ORIENTED_EDGE('',*,*,#316,.T.);
#405=ORIENTED_EDGE('',*,*,#317,.T.);
#406=ORIENTED_EDGE('',*,*,#318,.T.);
#407=ORIENTED_EDGE('',*,*,#318,.F.);
#408=ORIENTED_EDGE('',*,*,#319,.F.);
#409=ORIENTED_EDGE('',*,*,#320,.T.);
#410=ORIENTED_EDGE('',*,*,#321,.T.);
#411=ORIENTED_EDGE('',*,*,#317,.F.);
#412=ORIENTED_EDGE('',*,*,#322,.F.);
#413=ORIENTED_EDGE('',*,*,#323,.F.);
#414=ORIENTED_EDGE('',*,*,#324,.F.);
#415=ORIENTED_EDGE('',*,*,#319,.T.);
#416=ORIENTED_EDGE('',*,*,#325,.T.);
#417=ORIENTED_EDGE('',*,*,#326,.T.);
#418=ORIENTED_EDGE('',*,*,#327,.T.);
#419=ORIENTED_EDGE('',*,*,#328,.T.);
#420=ORIENTED_EDGE('',*,*,#328,.F.);
#421=ORIENTED_EDGE('',*,*,#329,.F.);
#422=ORIENTED_EDGE('',*,*,#330,.T.);
#423=ORIENTED_EDGE('',*,*,#331,.T.);
#424=ORIENTED_EDGE('',*,*,#327,.F.);
#425=ORIENTED_EDGE('',*,*,#332,.F.);
#426=ORIENTED_EDGE('',*,*,#333,.F.);
#427=ORIENTED_EDGE('',*,*,#334,.F.);
#428=ORIENTED_EDGE('',*,*,#329,.T.);
#429=ORIENTED_EDGE('',*,*,#335,.T.);
#430=ORIENTED_EDGE('',*,*,#330,.F.);
#431=ORIENTED_EDGE('',*,*,#334,.T.);
#432=ORIENTED_EDGE('',*,*,#336,.T.);
#433=ORIENTED_EDGE('',*,*,#337,.T.);
#434=ORIENTED_EDGE('',*,*,#320,.F.);
#435=ORIENTED_EDGE('',*,*,#324,.T.);
#436=ORIENTED_EDGE('',*,*,#338,.T.);
#437=ORIENTED_EDGE('',*,*,#339,.F.);
#438=ORIENTED_EDGE('',*,*,#332,.T.);
#439=ORIENTED_EDGE('',*,*,#326,.F.);
#440=ORIENTED_EDGE('',*,*,#340,.F.);
#441=ORIENTED_EDGE('',*,*,#341,.F.);
#442=ORIENTED_EDGE('',*,*,#322,.T.);
#443=ORIENTED_EDGE('',*,*,#316,.F.);
#444=ORIENTED_EDGE('',*,*,#342,.F.);
#445=ORIENTED_EDGE('',*,*,#325,.F.);
#446=ORIENTED_EDGE('',*,*,#331,.F.);
#447=ORIENTED_EDGE('',*,*,#335,.F.);
#448=ORIENTED_EDGE('',*,*,#343,.F.);
#449=ORIENTED_EDGE('',*,*,#340,.T.);
#450=ORIENTED_EDGE('',*,*,#315,.F.);
#451=ORIENTED_EDGE('',*,*,#321,.F.);
#452=ORIENTED_EDGE('',*,*,#337,.F.);
#453=ORIENTED_EDGE('',*,*,#344,.F.);
#454=ORIENTED_EDGE('',*,*,#342,.T.);
#455=ORIENTED_EDGE('',*,*,#345,.T.);
#456=ORIENTED_EDGE('',*,*,#310,.F.);
#457=ORIENTED_EDGE('',*,*,#314,.T.);
#458=ORIENTED_EDGE('',*,*,#346,.T.);
#459=ORIENTED_EDGE('',*,*,#347,.T.);
#460=ORIENTED_EDGE('',*,*,#300,.F.);
#461=ORIENTED_EDGE('',*,*,#304,.T.);
#462=ORIENTED_EDGE('',*,*,#348,.T.);
#463=ORIENTED_EDGE('',*,*,#349,.F.);
#464=ORIENTED_EDGE('',*,*,#302,.T.);
#465=ORIENTED_EDGE('',*,*,#296,.F.);
#466=ORIENTED_EDGE('',*,*,#350,.F.);
#467=ORIENTED_EDGE('',*,*,#349,.T.);
#468=ORIENTED_EDGE('',*,*,#351,.T.);
#469=ORIENTED_EDGE('',*,*,#352,.T.);
#470=ORIENTED_EDGE('',*,*,#353,.F.);
#471=ORIENTED_EDGE('',*,*,#354,.F.);
#472=ORIENTED_EDGE('',*,*,#355,.T.);
#473=ORIENTED_EDGE('',*,*,#356,.T.);
#474=ORIENTED_EDGE('',*,*,#357,.T.);
#475=ORIENTED_EDGE('',*,*,#356,.F.);
#476=ORIENTED_EDGE('',*,*,#312,.T.);
#477=ORIENTED_EDGE('',*,*,#306,.F.);
#478=ORIENTED_EDGE('',*,*,#358,.F.);
#479=ORIENTED_EDGE('',*,*,#295,.F.);
#480=ORIENTED_EDGE('',*,*,#301,.F.);
#481=ORIENTED_EDGE('',*,*,#347,.F.);
#482=ORIENTED_EDGE('',*,*,#359,.F.);
#483=ORIENTED_EDGE('',*,*,#350,.T.);
#484=ORIENTED_EDGE('',*,*,#333,.T.);
#485=ORIENTED_EDGE('',*,*,#360,.F.);
#486=ORIENTED_EDGE('',*,*,#361,.F.);
#487=ORIENTED_EDGE('',*,*,#362,.F.);
#488=ORIENTED_EDGE('',*,*,#351,.F.);
#489=ORIENTED_EDGE('',*,*,#359,.T.);
#490=ORIENTED_EDGE('',*,*,#348,.F.);
#491=ORIENTED_EDGE('',*,*,#303,.T.);
#492=ORIENTED_EDGE('',*,*,#357,.F.);
#493=ORIENTED_EDGE('',*,*,#363,.T.);
#494=ORIENTED_EDGE('',*,*,#346,.F.);
#495=ORIENTED_EDGE('',*,*,#313,.T.);
#496=ORIENTED_EDGE('',*,*,#355,.F.);
#497=ORIENTED_EDGE('',*,*,#364,.F.);
#498=ORIENTED_EDGE('',*,*,#365,.F.);
#499=ORIENTED_EDGE('',*,*,#366,.F.);
#500=ORIENTED_EDGE('',*,*,#344,.T.);
#501=ORIENTED_EDGE('',*,*,#338,.F.);
#502=ORIENTED_EDGE('',*,*,#323,.T.);
#503=ORIENTED_EDGE('',*,*,#367,.F.);
#504=ORIENTED_EDGE('',*,*,#343,.T.);
#505=ORIENTED_EDGE('',*,*,#336,.F.);
#506=ORIENTED_EDGE('',*,*,#305,.F.);
#507=ORIENTED_EDGE('',*,*,#311,.F.);
#508=ORIENTED_EDGE('',*,*,#345,.F.);
#509=ORIENTED_EDGE('',*,*,#363,.F.);
#510=ORIENTED_EDGE('',*,*,#358,.T.);
#511=ORIENTED_EDGE('',*,*,#364,.T.);
#512=ORIENTED_EDGE('',*,*,#354,.T.);
#513=ORIENTED_EDGE('',*,*,#368,.F.);
#514=ORIENTED_EDGE('',*,*,#369,.F.);
#515=ORIENTED_EDGE('',*,*,#365,.T.);
#516=ORIENTED_EDGE('',*,*,#369,.T.);
#517=ORIENTED_EDGE('',*,*,#370,.F.);
#518=ORIENTED_EDGE('',*,*,#371,.F.);
#519=ORIENTED_EDGE('',*,*,#360,.T.);
#520=ORIENTED_EDGE('',*,*,#339,.T.);
#521=ORIENTED_EDGE('',*,*,#367,.T.);
#522=ORIENTED_EDGE('',*,*,#341,.T.);
#523=ORIENTED_EDGE('',*,*,#366,.T.);
#524=ORIENTED_EDGE('',*,*,#371,.T.);
#525=ORIENTED_EDGE('',*,*,#372,.F.);
#526=ORIENTED_EDGE('',*,*,#373,.F.);
#527=ORIENTED_EDGE('',*,*,#361,.T.);
#528=ORIENTED_EDGE('',*,*,#373,.T.);
#529=ORIENTED_EDGE('',*,*,#374,.F.);
#530=ORIENTED_EDGE('',*,*,#375,.F.);
#531=ORIENTED_EDGE('',*,*,#362,.T.);
#532=ORIENTED_EDGE('',*,*,#375,.T.);
#533=ORIENTED_EDGE('',*,*,#376,.F.);
#534=ORIENTED_EDGE('',*,*,#352,.F.);
#535=ORIENTED_EDGE('',*,*,#353,.T.);
#536=ORIENTED_EDGE('',*,*,#376,.T.);
#537=ORIENTED_EDGE('',*,*,#374,.T.);
#538=ORIENTED_EDGE('',*,*,#372,.T.);
#539=ORIENTED_EDGE('',*,*,#370,.T.);
#540=ORIENTED_EDGE('',*,*,#368,.T.);
#541=PLANE('',#607);
#542=PLANE('',#608);
#543=PLANE('',#609);
#544=PLANE('',#610);
#545=PLANE('',#611);
#546=PLANE('',#612);
#547=PLANE('',#613);
#548=PLANE('',#614);
#549=PLANE('',#615);
#550=PLANE('',#616);
#551=PLANE('',#617);
#552=PLANE('',#618);
#553=PLANE('',#619);
#554=PLANE('',#620);
#555=PLANE('',#621);
#556=PLANE('',#622);
#557=PLANE('',#623);
#558=PLANE('',#624);
#559=PLANE('',#625);
#560=PLANE('',#626);
#561=PLANE('',#627);
#562=PLANE('',#628);
#563=PLANE('',#629);
#564=PLANE('',#630);
#565=PLANE('',#631);
#566=PLANE('',#632);
#567=PLANE('',#633);
#568=PLANE('',#634);
#569=PLANE('',#635);
#570=PLANE('',#636);
#571=PLANE('',#637);
#572=PLANE('',#638);
#573=ADVANCED_FACE('',(#15),#541,.T.);
#574=ADVANCED_FACE('',(#16),#542,.T.);
#575=ADVANCED_FACE('',(#17),#543,.T.);
#576=ADVANCED_FACE('',(#18),#544,.T.);
#577=ADVANCED_FACE('',(#19),#545,.T.);
#578=ADVANCED_FACE('',(#20),#546,.T.);
#579=ADVANCED_FACE('',(#21),#547,.T.);
#580=ADVANCED_FACE('',(#22),#548,.T.);
#581=ADVANCED_FACE('',(#23),#549,.T.);
#582=ADVANCED_FACE('',(#24),#550,.T.);
#583=ADVANCED_FACE('',(#25),#551,.T.);
#584=ADVANCED_FACE('',(#26),#552,.T.);
#585=ADVANCED_FACE('',(#27),#553,.T.);
#586=ADVANCED_FACE('',(#28),#554,.T.);
#587=ADVANCED_FACE('',(#29),#555,.T.);
#588=ADVANCED_FACE('',(#30),#556,.T.);
#589=ADVANCED_FACE('',(#31),#557,.T.);
#590=ADVANCED_FACE('',(#32),#558,.T.);
#591=ADVANCED_FACE('',(#33),#559,.T.);
#592=ADVANCED_FACE('',(#34),#560,.T.);
#593=ADVANCED_FACE('',(#35),#561,.T.);
#594=ADVANCED_FACE('',(#36),#562,.T.);
#595=ADVANCED_FACE('',(#37),#563,.T.);
#596=ADVANCED_FACE('',(#38),#564,.T.);
#597=ADVANCED_FACE('',(#39),#565,.T.);
#598=ADVANCED_FACE('',(#40),#566,.T.);
#599=ADVANCED_FACE('',(#41),#567,.T.);
#600=ADVANCED_FACE('',(#42),#568,.T.);
#601=ADVANCED_FACE('',(#43),#569,.T.);
#602=ADVANCED_FACE('',(#44),#570,.T.);
#603=ADVANCED_FACE('',(#45),#571,.T.);
#604=ADVANCED_FACE('',(#46),#572,.T.);
#605=CLOSED_SHELL('',(#573,#574,#575,#576,#577,#578,#579,#580,#581,#582,
#583,#584,#585,#586,#587,#588,#589,#590,#591,#592,#593,#594,#595,#596,#597,
#598,#599,#600,#601,#602,#603,#604));
#606=AXIS2_PLACEMENT_3D('',#787,#639,#640);
#607=AXIS2_PLACEMENT_3D('',#788,#641,#642);
#608=AXIS2_PLACEMENT_3D('',#797,#647,#648);
#609=AXIS2_PLACEMENT_3D('',#803,#652,#653);
#610=AXIS2_PLACEMENT_3D('',#809,#657,#658);
#611=AXIS2_PLACEMENT_3D('',#818,#663,#664);
#612=AXIS2_PLACEMENT_3D('',#824,#668,#669);
#613=AXIS2_PLACEMENT_3D('',#830,#673,#674);
#614=AXIS2_PLACEMENT_3D('',#839,#679,#680);
#615=AXIS2_PLACEMENT_3D('',#845,#684,#685);
#616=AXIS2_PLACEMENT_3D('',#851,#689,#690);
#617=AXIS2_PLACEMENT_3D('',#860,#695,#696);
#618=AXIS2_PLACEMENT_3D('',#866,#700,#701);
#619=AXIS2_PLACEMENT_3D('',#872,#705,#706);
#620=AXIS2_PLACEMENT_3D('',#876,#709,#710);
#621=AXIS2_PLACEMENT_3D('',#880,#713,#714);
#622=AXIS2_PLACEMENT_3D('',#884,#717,#718);
#623=AXIS2_PLACEMENT_3D('',#888,#721,#722);
#624=AXIS2_PLACEMENT_3D('',#890,#724,#725);
#625=AXIS2_PLACEMENT_3D('',#892,#727,#728);
#626=AXIS2_PLACEMENT_3D('',#896,#731,#732);
#627=AXIS2_PLACEMENT_3D('',#900,#735,#736);
#628=AXIS2_PLACEMENT_3D('',#904,#739,#740);
#629=AXIS2_PLACEMENT_3D('',#917,#748,#749);
#630=AXIS2_PLACEMENT_3D('',#919,#751,#752);
#631=AXIS2_PLACEMENT_3D('',#921,#754,#755);
#632=AXIS2_PLACEMENT_3D('',#934,#764,#765);
#633=AXIS2_PLACEMENT_3D('',#935,#766,#767);
#634=AXIS2_PLACEMENT_3D('',#939,#770,#771);
#635=AXIS2_PLACEMENT_3D('',#943,#774,#775);
#636=AXIS2_PLACEMENT_3D('',#947,#778,#779);
#637=AXIS2_PLACEMENT_3D('',#951,#782,#783);
#638=AXIS2_PLACEMENT_3D('',#953,#785,#786);
#639=DIRECTION('axis',(0.,0.,1.));
#640=DIRECTION('refdir',(1.,0.,0.));
#641=DIRECTION('center_axis',(0.,-0.707106781186543,0.707106781186553));
#642=DIRECTION('ref_axis',(1.,0.,0.));
#643=DIRECTION('',(0.,-0.707106781186553,-0.707106781186543));
#644=DIRECTION('',(1.,0.,0.));
#645=DIRECTION('',(0.,0.707106781186553,0.707106781186543));
#646=DIRECTION('',(-1.,0.,0.));
#647=DIRECTION('center_axis',(0.,0.,1.));
#648=DIRECTION('ref_axis',(1.,0.,0.));
#649=DIRECTION('',(0.,-1.,0.));
#650=DIRECTION('',(-1.,0.,0.));
#651=DIRECTION('',(0.,-1.,0.));
#652=DIRECTION('center_axis',(1.,0.,0.));
#653=DIRECTION('ref_axis',(0.,1.,0.));
#654=DIRECTION('',(0.,-1.,0.));
#655=DIRECTION('',(0.,-1.,0.));
#656=DIRECTION('',(0.,0.707106781186553,-0.707106781186543));
#657=DIRECTION('center_axis',(0.,-0.707106781186543,0.707106781186553));
#658=DIRECTION('ref_axis',(1.,0.,0.));
#659=DIRECTION('',(0.,-0.707106781186553,-0.707106781186543));
#660=DIRECTION('',(1.,0.,0.));
#661=DIRECTION('',(0.,0.707106781186553,0.707106781186543));
#662=DIRECTION('',(-1.,0.,0.));
#663=DIRECTION('center_axis',(0.,0.,1.));
#664=DIRECTION('ref_axis',(1.,0.,0.));
#665=DIRECTION('',(0.,-1.,0.));
#666=DIRECTION('',(-1.,0.,0.));
#667=DIRECTION('',(0.,-1.,0.));
#668=DIRECTION('center_axis',(1.,0.,0.));
#669=DIRECTION('ref_axis',(0.,1.,0.));
#670=DIRECTION('',(0.,-1.,0.));
#671=DIRECTION('',(0.,-1.,0.));
#672=DIRECTION('',(0.,0.707106781186553,-0.707106781186543));
#673=DIRECTION('center_axis',(-0.000116716517509457,0.707106771553804,0.707106781186555));
#674=DIRECTION('ref_axis',(0.999999986377255,0.,0.00016506207976623));
#675=DIRECTION('',(-0.000116716517507104,0.707106771553819,-0.70710678118654));
#676=DIRECTION('',(-0.999999986377254,-0.000165062082011502,0.));
#677=DIRECTION('',(0.000116716517507106,-0.707106771553819,0.70710678118654));
#678=DIRECTION('',(0.999999986377254,0.000165062082014832,0.));
#679=DIRECTION('center_axis',(0.,0.,1.));
#680=DIRECTION('ref_axis',(1.,0.,0.));
#681=DIRECTION('',(-0.000165062082014832,0.999999986377254,0.));
#682=DIRECTION('',(0.999999986377254,0.00016506208200795,0.));
#683=DIRECTION('',(-0.000165062082011502,0.999999986377254,0.));
#684=DIRECTION('center_axis',(-0.999999986377255,-0.000165062082011505,
0.));
#685=DIRECTION('ref_axis',(0.000165062082011505,-0.999999986377254,0.));
#686=DIRECTION('',(-0.000165062082014832,0.999999986377254,0.));
#687=DIRECTION('',(-0.000165062082011505,0.999999986377254,0.));
#688=DIRECTION('',(0.000116716517507105,-0.707106771553813,-0.707106781186546));
#689=DIRECTION('center_axis',(-0.000116716517510243,0.707106771553811,0.707106781186549));
#690=DIRECTION('ref_axis',(0.999999986377255,0.,0.000165062079767343));
#691=DIRECTION('',(-0.000116716517507103,0.707106771553813,-0.707106781186546));
#692=DIRECTION('',(-0.999999986377254,-0.000165062082015055,0.));
#693=DIRECTION('',(0.000116716517507103,-0.707106771553813,0.707106781186546));
#694=DIRECTION('',(0.999999986377254,0.000165062082015943,0.));
#695=DIRECTION('center_axis',(0.,0.,1.));
#696=DIRECTION('ref_axis',(1.,0.,0.));
#697=DIRECTION('',(-0.000165062082015943,0.999999986377254,0.));
#698=DIRECTION('',(0.999999986377254,0.000165062082015055,0.));
#699=DIRECTION('',(-0.000165062082011502,0.999999986377254,0.));
#700=DIRECTION('center_axis',(-0.999999986377255,-0.000165062082011502,
0.));
#701=DIRECTION('ref_axis',(0.000165062082011502,-0.999999986377254,0.));
#702=DIRECTION('',(-0.000165062082015943,0.999999986377254,0.));
#703=DIRECTION('',(-0.000165062082011502,0.999999986377254,0.));
#704=DIRECTION('',(0.000116716517507103,-0.707106771553813,-0.707106781186546));
#705=DIRECTION('center_axis',(0.000116716517509615,-0.707106771553811,0.707106781186549));
#706=DIRECTION('ref_axis',(0.999999986377255,0.,-0.000165062079766456));
#707=DIRECTION('',(-0.000116716517507103,0.707106771553813,0.707106781186546));
#708=DIRECTION('',(0.999999986377254,0.000165062082015055,0.));
#709=DIRECTION('center_axis',(0.000116716517504591,-0.707106771553811,0.707106781186549));
#710=DIRECTION('ref_axis',(0.999999986377255,0.,-0.00016506207975935));
#711=DIRECTION('',(-0.000116716517507103,0.707106771553813,0.707106781186546));
#712=DIRECTION('',(0.999999986377254,0.00016506208200795,0.));
#713=DIRECTION('center_axis',(0.,0.,-1.));
#714=DIRECTION('ref_axis',(-0.999999986377254,-0.000165062082015055,0.));
#715=DIRECTION('',(1.,0.,0.));
#716=DIRECTION('',(-0.000165062082015943,0.999999986377254,0.));
#717=DIRECTION('center_axis',(0.,0.,-1.));
#718=DIRECTION('ref_axis',(-0.999999986377254,-0.000165062082011502,0.));
#719=DIRECTION('',(1.,0.,0.));
#720=DIRECTION('',(-0.000165062082014832,0.999999986377254,0.));
#721=DIRECTION('center_axis',(0.999999986377255,0.000165062082011502,0.));
#722=DIRECTION('ref_axis',(-0.000165062082011502,0.999999986377254,0.));
#723=DIRECTION('',(0.000165062082011502,-0.999999986377254,0.));
#724=DIRECTION('center_axis',(0.999999986377255,0.000165062082011502,0.));
#725=DIRECTION('ref_axis',(-0.000165062082011502,0.999999986377254,0.));
#726=DIRECTION('',(0.000165062082014832,-0.999999986377254,0.));
#727=DIRECTION('center_axis',(0.,0.707106781186543,0.707106781186553));
#728=DIRECTION('ref_axis',(1.,0.,0.));
#729=DIRECTION('',(0.,-0.707106781186553,0.707106781186543));
#730=DIRECTION('',(-1.,0.,0.));
#731=DIRECTION('center_axis',(0.,0.707106781186543,0.707106781186553));
#732=DIRECTION('ref_axis',(1.,0.,0.));
#733=DIRECTION('',(0.,-0.707106781186553,0.707106781186543));
#734=DIRECTION('',(-1.,0.,0.));
#735=DIRECTION('center_axis',(0.,0.,-1.));
#736=DIRECTION('ref_axis',(1.,0.,0.));
#737=DIRECTION('',(-1.,0.,0.));
#738=DIRECTION('',(0.,-1.,0.));
#739=DIRECTION('center_axis',(0.,-1.,0.));
#740=DIRECTION('ref_axis',(-1.,0.,0.));
#741=DIRECTION('',(-1.,0.,0.));
#742=DIRECTION('',(0.,0.,-1.));
#743=DIRECTION('',(-1.,0.,0.));
#744=DIRECTION('',(0.,0.,-1.));
#745=DIRECTION('',(-1.,0.,0.));
#746=DIRECTION('',(-1.,0.,0.));
#747=DIRECTION('',(-1.,0.,0.));
#748=DIRECTION('center_axis',(0.,0.,-1.));
#749=DIRECTION('ref_axis',(1.,0.,0.));
#750=DIRECTION('',(0.,-1.,0.));
#751=DIRECTION('center_axis',(-1.,0.,0.));
#752=DIRECTION('ref_axis',(0.,-1.,0.));
#753=DIRECTION('',(0.,1.,0.));
#754=DIRECTION('center_axis',(0.,0.,1.));
#755=DIRECTION('ref_axis',(1.,0.,0.));
#756=DIRECTION('',(1.,0.,0.));
#757=DIRECTION('',(0.500212273372429,0.865902813003622,0.));
#758=DIRECTION('',(-0.500365406775466,0.865814333273839,0.));
#759=DIRECTION('',(0.,1.,0.));
#760=DIRECTION('',(-0.500040776823437,-0.866001859994431,0.));
#761=DIRECTION('',(0.500023348040736,-0.866011923367186,0.));
#762=DIRECTION('',(1.,0.,0.));
#763=DIRECTION('',(1.,0.,0.));
#764=DIRECTION('center_axis',(-1.,0.,0.));
#765=DIRECTION('ref_axis',(0.,-1.,0.));
#766=DIRECTION('center_axis',(0.866001859994431,-0.500040776823437,0.));
#767=DIRECTION('ref_axis',(-0.500040776823437,-0.866001859994431,0.));
#768=DIRECTION('',(-0.500040776823437,-0.866001859994431,0.));
#769=DIRECTION('',(0.,0.,-1.));
#770=DIRECTION('center_axis',(0.866011923367186,0.500023348040736,0.));
#771=DIRECTION('ref_axis',(0.500023348040736,-0.866011923367186,0.));
#772=DIRECTION('',(0.500023348040736,-0.866011923367186,0.));
#773=DIRECTION('',(0.,0.,-1.));
#774=DIRECTION('center_axis',(0.,1.,0.));
#775=DIRECTION('ref_axis',(1.,0.,0.));
#776=DIRECTION('',(1.,0.,0.));
#777=DIRECTION('',(0.,0.,-1.));
#778=DIRECTION('center_axis',(-0.865902813003622,0.500212273372429,0.));
#779=DIRECTION('ref_axis',(0.500212273372429,0.865902813003622,0.));
#780=DIRECTION('',(0.500212273372429,0.865902813003622,0.));
#781=DIRECTION('',(0.,0.,-1.));
#782=DIRECTION('center_axis',(-0.865814333273839,-0.500365406775466,0.));
#783=DIRECTION('ref_axis',(-0.500365406775466,0.865814333273839,0.));
#784=DIRECTION('',(-0.500365406775466,0.865814333273839,0.));
#785=DIRECTION('center_axis',(0.,0.,-1.));
#786=DIRECTION('ref_axis',(-1.,0.,0.));
#787=CARTESIAN_POINT('',(0.,0.,0.));
#788=CARTESIAN_POINT('Origin',(-7.50000007450581,-190.082991743523,0.5));
#789=CARTESIAN_POINT('',(-10.0000000745058,-189.582991743523,1.));
#790=CARTESIAN_POINT('',(-10.0000000745058,-190.582991743523,0.));
#791=CARTESIAN_POINT('',(-10.0000000745058,-189.832991743523,0.750000000000007));
#792=CARTESIAN_POINT('',(-5.00000007450581,-190.582991743523,0.));
#793=CARTESIAN_POINT('',(-10.0000000745058,-190.582991743523,0.));
#794=CARTESIAN_POINT('',(-5.00000007450581,-189.582991743523,1.));
#795=CARTESIAN_POINT('',(-5.00000007450581,-190.082991743523,0.500000000000004));
#796=CARTESIAN_POINT('',(-7.50000007450581,-189.582991743523,1.));
#797=CARTESIAN_POINT('Origin',(-7.50000007450581,-189.082991743523,1.));
#798=CARTESIAN_POINT('',(-5.00000007450581,-188.582991743523,1.));
#799=CARTESIAN_POINT('',(-5.00000007450581,-189.582991743523,1.));
#800=CARTESIAN_POINT('',(-10.0000000745058,-188.582991743523,1.));
#801=CARTESIAN_POINT('',(-5.00000007450581,-188.582991743523,1.));
#802=CARTESIAN_POINT('',(-10.0000000745058,-188.582991743523,1.));
#803=CARTESIAN_POINT('Origin',(-5.00000007450581,-189.582991743523,0.));
#804=CARTESIAN_POINT('',(-5.00000007450581,-189.582991743523,0.));
#805=CARTESIAN_POINT('',(-5.00000007450581,-189.582991743523,0.));
#806=CARTESIAN_POINT('',(-5.00000007450581,-187.582991743523,0.));
#807=CARTESIAN_POINT('',(-5.00000007450581,-159.584122126088,0.));
#808=CARTESIAN_POINT('',(-5.00000007450581,-188.332991743523,0.750000000000007));
#809=CARTESIAN_POINT('Origin',(7.50000007450581,-190.082991743523,0.5));
#810=CARTESIAN_POINT('',(5.00000007450581,-189.582991743523,1.));
#811=CARTESIAN_POINT('',(5.00000007450581,-190.582991743523,0.));
#812=CARTESIAN_POINT('',(5.00000007450581,-189.832991743523,0.750000000000007));
#813=CARTESIAN_POINT('',(10.0000000745058,-190.582991743523,0.));
#814=CARTESIAN_POINT('',(5.00000007450581,-190.582991743523,0.));
#815=CARTESIAN_POINT('',(10.0000000745058,-189.582991743523,1.));
#816=CARTESIAN_POINT('',(10.0000000745058,-190.082991743523,0.500000000000004));
#817=CARTESIAN_POINT('',(7.50000007450581,-189.582991743523,1.));
#818=CARTESIAN_POINT('Origin',(7.50000007450581,-189.082991743523,1.));
#819=CARTESIAN_POINT('',(10.0000000745058,-188.582991743523,1.));
#820=CARTESIAN_POINT('',(10.0000000745058,-189.582991743523,1.));
#821=CARTESIAN_POINT('',(5.00000007450581,-188.582991743523,1.));
#822=CARTESIAN_POINT('',(5.00000007450581,-188.582991743523,1.));
#823=CARTESIAN_POINT('',(5.00000007450581,-189.582991743523,1.));
#824=CARTESIAN_POINT('Origin',(10.0000000745058,-189.582991743523,0.));
#825=CARTESIAN_POINT('',(10.0000000745058,-189.582991743523,0.));
#826=CARTESIAN_POINT('',(10.0000000745058,-189.582991743523,0.));
#827=CARTESIAN_POINT('',(10.0000000745058,-187.582991743523,0.));
#828=CARTESIAN_POINT('',(10.0000000745058,-159.584122126088,0.));
#829=CARTESIAN_POINT('',(10.0000000745058,-188.332991743523,0.750000000000007));
#830=CARTESIAN_POINT('Origin',(8.74001525613694,-69.1004113818017,0.5));
#831=CARTESIAN_POINT('',(9.99009777014951,-69.6002050473879,1.));
#832=CARTESIAN_POINT('',(9.9899327080675,-68.6002050610106,0.));
#833=CARTESIAN_POINT('',(9.99005650462901,-69.3502050507936,0.750000000000008));
#834=CARTESIAN_POINT('',(4.98993277618122,-68.6010303714207,0.));
#835=CARTESIAN_POINT('',(5.33875914131214,-68.6009727934138,0.));
#836=CARTESIAN_POINT('',(4.99009783826324,-69.6010303577979,1.));
#837=CARTESIAN_POINT('',(4.99001530722223,-69.1010303646093,0.499999999999999));
#838=CARTESIAN_POINT('',(8.74009778717794,-69.6004113749904,1.));
#839=CARTESIAN_POINT('Origin',(7.49018033524738,-70.1006176957815,1.));
#840=CARTESIAN_POINT('',(4.99026290034525,-70.6010303441752,1.));
#841=CARTESIAN_POINT('',(4.99009783826324,-69.6010303577979,1.));
#842=CARTESIAN_POINT('',(9.99026283223152,-70.6002050337651,1.));
#843=CARTESIAN_POINT('',(4.99026290034525,-70.6010303441752,1.));
#844=CARTESIAN_POINT('',(9.99026283223152,-70.6002050337651,1.));
#845=CARTESIAN_POINT('Origin',(4.99009783826324,-69.6010303577979,0.));
#846=CARTESIAN_POINT('',(4.99009560710518,-69.587513273784,0.));
#847=CARTESIAN_POINT('',(4.99009783826324,-69.6010303577979,0.));
#848=CARTESIAN_POINT('',(4.99042796242726,-71.6010303305524,0.));
#849=CARTESIAN_POINT('',(4.99504834001893,-99.5927863560275,0.));
#850=CARTESIAN_POINT('',(4.99030416586575,-70.8510303407695,0.75));
#851=CARTESIAN_POINT('Origin',(-6.25998468853349,-69.1028873130565,0.5));
#852=CARTESIAN_POINT('',(-5.00990217452092,-69.6026809786426,1.));
#853=CARTESIAN_POINT('',(-5.01006723660293,-68.6026809922654,0.));
#854=CARTESIAN_POINT('',(-5.00994344004142,-69.3526809820483,0.750000000000002));
#855=CARTESIAN_POINT('',(-10.0100671684892,-68.6035063026755,0.));
#856=CARTESIAN_POINT('',(-2.16124083102318,-68.6022107590412,0.));
#857=CARTESIAN_POINT('',(-10.0099021064072,-69.6035062890527,1.));
#858=CARTESIAN_POINT('',(-10.0099846374482,-69.1035062958641,0.499999999999995));
#859=CARTESIAN_POINT('',(-6.25990215749249,-69.6028873062452,1.));
#860=CARTESIAN_POINT('Origin',(-7.50981960942305,-70.1030936270363,1.));
#861=CARTESIAN_POINT('',(-10.0097370443252,-70.60350627543,1.));
#862=CARTESIAN_POINT('',(-10.0099021064072,-69.6035062890527,1.));
#863=CARTESIAN_POINT('',(-5.00973711243891,-70.6026809650199,1.));
#864=CARTESIAN_POINT('',(-5.00973711243891,-70.6026809650199,1.));
#865=CARTESIAN_POINT('',(-5.00990217452092,-69.6026809786426,1.));
#866=CARTESIAN_POINT('Origin',(-10.0099021064072,-69.6035062890527,0.));
#867=CARTESIAN_POINT('',(-10.0099047462476,-69.587513273784,0.));
#868=CARTESIAN_POINT('',(-10.0099021064072,-69.6035062890527,0.));
#869=CARTESIAN_POINT('',(-10.0095719822432,-71.6035062618072,0.));
#870=CARTESIAN_POINT('',(-10.0049516046515,-99.5952622872823,0.));
#871=CARTESIAN_POINT('',(-10.0096957788047,-70.8535062720243,0.750000000000007));
#872=CARTESIAN_POINT('Origin',(-4.66082814176128,-71.1026233801894,0.5));
#873=CARTESIAN_POINT('',(-5.00957205035689,-71.6026809513971,0.));
#874=CARTESIAN_POINT('',(-5.0096545813979,-71.1026809582085,0.500000000000002));
#875=CARTESIAN_POINT('',(-4.66074561072027,-71.602623373378,0.));
#876=CARTESIAN_POINT('Origin',(2.83917183057414,-71.101385414562,0.5));
#877=CARTESIAN_POINT('',(9.99042789431354,-71.6002050201424,0.));
#878=CARTESIAN_POINT('',(9.99034536327253,-71.1002050269538,0.500000000000008));
#879=CARTESIAN_POINT('',(2.83925436161514,-71.6013854077506,0.));
#880=CARTESIAN_POINT('Origin',(-5.00990217452092,-69.6026809786426,0.));
#881=CARTESIAN_POINT('',(-5.0099046781339,-69.587513273784,0.));
#882=CARTESIAN_POINT('',(-33.9306349023874,-69.587513273784,0.));
#883=CARTESIAN_POINT('',(-5.00990217452092,-69.6026809786426,0.));
#884=CARTESIAN_POINT('Origin',(9.99009777014951,-69.6002050473879,0.));
#885=CARTESIAN_POINT('',(9.9900956752189,-69.587513273784,0.));
#886=CARTESIAN_POINT('',(-33.9306349023874,-69.587513273784,0.));
#887=CARTESIAN_POINT('',(9.99009777014951,-69.6002050473879,0.));
#888=CARTESIAN_POINT('Origin',(-5.00973711243891,-70.6026809650199,0.));
#889=CARTESIAN_POINT('',(-5.00486914172422,-100.094436970061,0.));
#890=CARTESIAN_POINT('Origin',(9.99026283223152,-70.6002050337651,0.));
#891=CARTESIAN_POINT('',(9.9950482719053,-99.5919610456174,6.93889390390723E-17));
#892=CARTESIAN_POINT('Origin',(5.34882585732799,-188.082991743523,0.5));
#893=CARTESIAN_POINT('',(5.00000007450581,-187.582991743523,0.));
#894=CARTESIAN_POINT('',(5.00000007450581,-188.082991743523,0.500000000000004));
#895=CARTESIAN_POINT('',(5.34882585732799,-187.582991743523,0.));
#896=CARTESIAN_POINT('Origin',(-2.15117421717781,-188.082991743523,0.5));
#897=CARTESIAN_POINT('',(-10.0000000745058,-187.582991743523,0.));
#898=CARTESIAN_POINT('',(-10.0000000745058,-188.082991743523,0.500000000000004));
#899=CARTESIAN_POINT('',(-2.15117421717781,-187.582991743523,0.));
#900=CARTESIAN_POINT('Origin',(-10.0000000745058,-189.582991743523,0.));
#901=CARTESIAN_POINT('',(-10.0000000745058,-189.582991743523,0.));
#902=CARTESIAN_POINT('',(12.6750008022645,-189.582991743523,0.));
#903=CARTESIAN_POINT('',(-10.0000000745058,-189.582991743523,0.));
#904=CARTESIAN_POINT('Origin',(35.3500016790349,-189.582991743523,0.));
#905=CARTESIAN_POINT('',(-33.9313101655894,-189.582991743523,0.));
#906=CARTESIAN_POINT('',(35.3500016790349,-189.582991743523,0.));
#907=CARTESIAN_POINT('',(-33.9313101655894,-189.582991743523,-1.));
#908=CARTESIAN_POINT('',(-33.9313101655894,-189.582991743523,0.));
#909=CARTESIAN_POINT('',(35.3500016790349,-189.582991743523,-1.));
#910=CARTESIAN_POINT('',(35.3500016790349,-189.582991743523,-1.));
#911=CARTESIAN_POINT('',(35.3500016790349,-189.582991743523,0.));
#912=CARTESIAN_POINT('',(35.3500016790349,-189.582991743523,0.));
#913=CARTESIAN_POINT('',(35.3500016790349,-189.582991743523,0.));
#914=CARTESIAN_POINT('',(5.00000007450581,-189.582991743523,0.));
#915=CARTESIAN_POINT('',(20.1750008767704,-189.582991743523,0.));
#916=CARTESIAN_POINT('',(35.3500016790349,-189.582991743523,0.));
#917=CARTESIAN_POINT('Origin',(5.00000007450581,-189.582991743523,0.));
#918=CARTESIAN_POINT('',(5.00000007450581,-189.582991743523,0.));
#919=CARTESIAN_POINT('Origin',(-10.0000000745058,-188.582991743523,0.));
#920=CARTESIAN_POINT('',(-10.0000000745058,-159.084122126088,0.));
#921=CARTESIAN_POINT('Origin',(0.697651640150179,-129.585252508653,0.));
#922=CARTESIAN_POINT('',(-33.9306349023874,-69.587513273784,0.));
#923=CARTESIAN_POINT('',(-33.9306349023874,-69.587513273784,0.));
#924=CARTESIAN_POINT('',(-68.5973710690371,-129.598084709737,0.));
#925=CARTESIAN_POINT('',(-68.5973710690371,-129.598084709737,0.));
#926=CARTESIAN_POINT('',(-33.9313101655894,-189.582991743523,0.));
#927=CARTESIAN_POINT('',(5.00000007450581,-159.084122126088,0.));
#928=CARTESIAN_POINT('',(69.9926743493375,-129.586646728937,0.));
#929=CARTESIAN_POINT('',(69.9926743493375,-129.586646728937,0.));
#930=CARTESIAN_POINT('',(35.3500016790349,-69.587513273784,0.));
#931=CARTESIAN_POINT('',(35.3500016790349,-69.587513273784,0.));
#932=CARTESIAN_POINT('',(-33.9306349023874,-69.587513273784,0.));
#933=CARTESIAN_POINT('',(-33.9306349023874,-69.587513273784,0.));
#934=CARTESIAN_POINT('Origin',(5.00000007450581,-188.582991743523,0.));
#935=CARTESIAN_POINT('Origin',(69.9926743493375,-129.586646728937,0.));
#936=CARTESIAN_POINT('',(69.9926743493375,-129.586646728937,-1.));
#937=CARTESIAN_POINT('',(69.9926743493375,-129.586646728937,-1.));
#938=CARTESIAN_POINT('',(69.9926743493375,-129.586646728937,0.));
#939=CARTESIAN_POINT('Origin',(35.3500016790349,-69.587513273784,0.));
#940=CARTESIAN_POINT('',(35.3500016790349,-69.587513273784,-1.));
#941=CARTESIAN_POINT('',(35.3500016790349,-69.587513273784,-1.));
#942=CARTESIAN_POINT('',(35.3500016790349,-69.587513273784,0.));
#943=CARTESIAN_POINT('Origin',(-33.9306349023874,-69.587513273784,0.));
#944=CARTESIAN_POINT('',(-33.9306349023874,-69.587513273784,-1.));
#945=CARTESIAN_POINT('',(-33.9306349023874,-69.587513273784,-1.));
#946=CARTESIAN_POINT('',(-33.9306349023874,-69.587513273784,0.));
#947=CARTESIAN_POINT('Origin',(-68.5973710690371,-129.598084709737,0.));
#948=CARTESIAN_POINT('',(-68.5973710690372,-129.598084709737,-1.));
#949=CARTESIAN_POINT('',(-68.5973710690371,-129.598084709737,-1.));
#950=CARTESIAN_POINT('',(-68.5973710690371,-129.598084709737,0.));
#951=CARTESIAN_POINT('Origin',(-33.9313101655894,-189.582991743523,0.));
#952=CARTESIAN_POINT('',(-33.9313101655894,-189.582991743523,-1.));
#953=CARTESIAN_POINT('Origin',(0.697651640150179,-129.585252508653,-1.));
#954=UNCERTAINTY_MEASURE_WITH_UNIT(LENGTH_MEASURE(0.01),#958,
'DISTANCE_ACCURACY_VALUE',
'Maximum model space distance between geometric entities at asserted c
onnectivities');
#955=UNCERTAINTY_MEASURE_WITH_UNIT(LENGTH_MEASURE(0.01),#958,
'DISTANCE_ACCURACY_VALUE',
'Maximum model space distance between geometric entities at asserted c
onnectivities');
#956=(
GEOMETRIC_REPRESENTATION_CONTEXT(3)
GLOBAL_UNCERTAINTY_ASSIGNED_CONTEXT((#954))
GLOBAL_UNIT_ASSIGNED_CONTEXT((#958,#959,#960))
REPRESENTATION_CONTEXT('','3D')
);
#957=(
GEOMETRIC_REPRESENTATION_CONTEXT(3)
GLOBAL_UNCERTAINTY_ASSIGNED_CONTEXT((#955))
GLOBAL_UNIT_ASSIGNED_CONTEXT((#958,#959,#960))
REPRESENTATION_CONTEXT('','3D')
);
#958=(
LENGTH_UNIT()
NAMED_UNIT(*)
SI_UNIT(.MILLI.,.METRE.)
);
#959=(
NAMED_UNIT(*)
PLANE_ANGLE_UNIT()
SI_UNIT($,.RADIAN.)
);
#960=(
NAMED_UNIT(*)
SI_UNIT($,.STERADIAN.)
SOLID_ANGLE_UNIT()
);
#961=SHAPE_DEFINITION_REPRESENTATION(#962,#963);
#962=PRODUCT_DEFINITION_SHAPE('',$,#965);
#963=SHAPE_REPRESENTATION('',(#606),#956);
#964=PRODUCT_DEFINITION_CONTEXT('part definition',#969,'design');
#965=PRODUCT_DEFINITION('2026-04-24-20-56-13-155','HexiLux v10',#966,#964);
#966=PRODUCT_DEFINITION_FORMATION('',$,#971);
#967=PRODUCT_RELATED_PRODUCT_CATEGORY('HexiLux v10','HexiLux v10',(#971));
#968=APPLICATION_PROTOCOL_DEFINITION('international standard',
'automotive_design',2009,#969);
#969=APPLICATION_CONTEXT(
'Core Data for Automotive Mechanical Design Process');
#970=PRODUCT_CONTEXT('part definition',#969,'mechanical');
#971=PRODUCT('2026-04-24-20-56-13-155','HexiLux v10',$,(#970));
#972=PRESENTATION_STYLE_ASSIGNMENT((#973));
#973=SURFACE_STYLE_USAGE(.BOTH.,#974);
#974=SURFACE_SIDE_STYLE('',(#975));
#975=SURFACE_STYLE_FILL_AREA(#976);
#976=FILL_AREA_STYLE('Steel - Satin',(#977));
#977=FILL_AREA_STYLE_COLOUR('Steel - Satin',#978);
#978=COLOUR_RGB('Steel - Satin',0.627450980392157,0.627450980392157,0.627450980392157);
ENDSEC;
END-ISO-10303-21;
