ISO-10303-21;
HEADER;
/* Generated by software containing ST-Developer
 * from STEP Tools, Inc. (www.steptools.com) 
 */

FILE_DESCRIPTION(
/* description */ (''),
/* implementation_level */ '2;1');

FILE_NAME(
/* name */ 'f687f568-6307-4c6c-be7b-d2fc9def2028.stp',
/* time_stamp */ '2026-04-25T01:54:37Z',
/* author */ (''),
/* organization */ (''),
/* preprocessor_version */ 'ST-DEVELOPER v20.1',
/* originating_system */ 'Autodesk Translation Framework v15.8.0.0',
/* authorisation */ '');

FILE_SCHEMA (('AUTOMOTIVE_DESIGN { 1 0 10303 214 3 1 1 }'));
ENDSEC;

DATA;
#10=MECHANICAL_DESIGN_GEOMETRIC_PRESENTATION_REPRESENTATION('',(#13),#1439);
#11=SHAPE_REPRESENTATION_RELATIONSHIP('SRR','None',#1445,#12);
#12=ADVANCED_BREP_SHAPE_REPRESENTATION('',(#14),#1438);
#13=STYLED_ITEM('',(#1454),#14);
#14=MANIFOLD_SOLID_BREP('Bottom',#911);
#15=FACE_BOUND('',#95,.T.);
#16=FACE_BOUND('',#96,.T.);
#17=FACE_BOUND('',#100,.T.);
#18=FACE_BOUND('',#101,.T.);
#19=FACE_BOUND('',#104,.T.);
#20=FACE_BOUND('',#118,.T.);
#21=FACE_BOUND('',#119,.T.);
#22=FACE_BOUND('',#120,.T.);
#23=FACE_OUTER_BOUND('',#73,.T.);
#24=FACE_OUTER_BOUND('',#74,.T.);
#25=FACE_OUTER_BOUND('',#75,.T.);
#26=FACE_OUTER_BOUND('',#76,.T.);
#27=FACE_OUTER_BOUND('',#77,.T.);
#28=FACE_OUTER_BOUND('',#78,.T.);
#29=FACE_OUTER_BOUND('',#79,.T.);
#30=FACE_OUTER_BOUND('',#80,.T.);
#31=FACE_OUTER_BOUND('',#81,.T.);
#32=FACE_OUTER_BOUND('',#82,.T.);
#33=FACE_OUTER_BOUND('',#83,.T.);
#34=FACE_OUTER_BOUND('',#84,.T.);
#35=FACE_OUTER_BOUND('',#85,.T.);
#36=FACE_OUTER_BOUND('',#86,.T.);
#37=FACE_OUTER_BOUND('',#87,.T.);
#38=FACE_OUTER_BOUND('',#88,.T.);
#39=FACE_OUTER_BOUND('',#89,.T.);
#40=FACE_OUTER_BOUND('',#90,.T.);
#41=FACE_OUTER_BOUND('',#91,.T.);
#42=FACE_OUTER_BOUND('',#92,.T.);
#43=FACE_OUTER_BOUND('',#93,.T.);
#44=FACE_OUTER_BOUND('',#94,.T.);
#45=FACE_OUTER_BOUND('',#97,.T.);
#46=FACE_OUTER_BOUND('',#98,.T.);
#47=FACE_OUTER_BOUND('',#99,.T.);
#48=FACE_OUTER_BOUND('',#102,.T.);
#49=FACE_OUTER_BOUND('',#103,.T.);
#50=FACE_OUTER_BOUND('',#105,.T.);
#51=FACE_OUTER_BOUND('',#106,.T.);
#52=FACE_OUTER_BOUND('',#107,.T.);
#53=FACE_OUTER_BOUND('',#108,.T.);
#54=FACE_OUTER_BOUND('',#109,.T.);
#55=FACE_OUTER_BOUND('',#110,.T.);
#56=FACE_OUTER_BOUND('',#111,.T.);
#57=FACE_OUTER_BOUND('',#112,.T.);
#58=FACE_OUTER_BOUND('',#113,.T.);
#59=FACE_OUTER_BOUND('',#114,.T.);
#60=FACE_OUTER_BOUND('',#115,.T.);
#61=FACE_OUTER_BOUND('',#116,.T.);
#62=FACE_OUTER_BOUND('',#117,.T.);
#63=FACE_OUTER_BOUND('',#121,.T.);
#64=FACE_OUTER_BOUND('',#122,.T.);
#65=FACE_OUTER_BOUND('',#123,.T.);
#66=FACE_OUTER_BOUND('',#124,.T.);
#67=FACE_OUTER_BOUND('',#125,.T.);
#68=FACE_OUTER_BOUND('',#126,.T.);
#69=FACE_OUTER_BOUND('',#127,.T.);
#70=FACE_OUTER_BOUND('',#128,.T.);
#71=FACE_OUTER_BOUND('',#129,.T.);
#72=FACE_OUTER_BOUND('',#130,.T.);
#73=EDGE_LOOP('',(#571,#572,#573,#574));
#74=EDGE_LOOP('',(#575,#576,#577,#578));
#75=EDGE_LOOP('',(#579,#580,#581,#582));
#76=EDGE_LOOP('',(#583,#584,#585,#586));
#77=EDGE_LOOP('',(#587,#588,#589,#590));
#78=EDGE_LOOP('',(#591,#592,#593,#594));
#79=EDGE_LOOP('',(#595,#596,#597,#598));
#80=EDGE_LOOP('',(#599,#600,#601,#602));
#81=EDGE_LOOP('',(#603,#604,#605,#606));
#82=EDGE_LOOP('',(#607,#608,#609,#610));
#83=EDGE_LOOP('',(#611,#612,#613,#614));
#84=EDGE_LOOP('',(#615,#616,#617,#618));
#85=EDGE_LOOP('',(#619,#620,#621,#622));
#86=EDGE_LOOP('',(#623,#624,#625,#626));
#87=EDGE_LOOP('',(#627,#628,#629,#630));
#88=EDGE_LOOP('',(#631,#632,#633,#634));
#89=EDGE_LOOP('',(#635,#636,#637,#638));
#90=EDGE_LOOP('',(#639,#640,#641,#642));
#91=EDGE_LOOP('',(#643,#644,#645,#646));
#92=EDGE_LOOP('',(#647,#648,#649,#650));
#93=EDGE_LOOP('',(#651,#652,#653,#654));
#94=EDGE_LOOP('',(#655,#656,#657,#658));
#95=EDGE_LOOP('',(#659,#660,#661,#662));
#96=EDGE_LOOP('',(#663,#664,#665,#666));
#97=EDGE_LOOP('',(#667,#668,#669,#670));
#98=EDGE_LOOP('',(#671,#672,#673,#674));
#99=EDGE_LOOP('',(#675,#676,#677,#678));
#100=EDGE_LOOP('',(#679,#680,#681,#682));
#101=EDGE_LOOP('',(#683,#684,#685,#686));
#102=EDGE_LOOP('',(#687,#688,#689,#690));
#103=EDGE_LOOP('',(#691,#692,#693,#694,#695,#696));
#104=EDGE_LOOP('',(#697,#698,#699,#700,#701,#702));
#105=EDGE_LOOP('',(#703,#704,#705,#706));
#106=EDGE_LOOP('',(#707,#708,#709,#710));
#107=EDGE_LOOP('',(#711,#712,#713,#714));
#108=EDGE_LOOP('',(#715,#716,#717,#718));
#109=EDGE_LOOP('',(#719,#720,#721,#722));
#110=EDGE_LOOP('',(#723,#724,#725,#726));
#111=EDGE_LOOP('',(#727,#728,#729,#730));
#112=EDGE_LOOP('',(#731,#732,#733,#734));
#113=EDGE_LOOP('',(#735,#736,#737,#738));
#114=EDGE_LOOP('',(#739,#740,#741,#742));
#115=EDGE_LOOP('',(#743,#744,#745,#746));
#116=EDGE_LOOP('',(#747,#748,#749,#750));
#117=EDGE_LOOP('',(#751,#752,#753,#754,#755,#756));
#118=EDGE_LOOP('',(#757,#758,#759,#760));
#119=EDGE_LOOP('',(#761,#762,#763,#764));
#120=EDGE_LOOP('',(#765,#766,#767,#768));
#121=EDGE_LOOP('',(#769,#770,#771,#772));
#122=EDGE_LOOP('',(#773,#774,#775,#776));
#123=EDGE_LOOP('',(#777,#778,#779,#780));
#124=EDGE_LOOP('',(#781,#782,#783,#784));
#125=EDGE_LOOP('',(#785,#786,#787,#788));
#126=EDGE_LOOP('',(#789,#790,#791,#792));
#127=EDGE_LOOP('',(#793,#794,#795,#796));
#128=EDGE_LOOP('',(#797,#798,#799,#800));
#129=EDGE_LOOP('',(#801,#802,#803,#804));
#130=EDGE_LOOP('',(#805,#806,#807,#808,#809,#810));
#131=LINE('',#1189,#251);
#132=LINE('',#1191,#252);
#133=LINE('',#1193,#253);
#134=LINE('',#1194,#254);
#135=LINE('',#1197,#255);
#136=LINE('',#1199,#256);
#137=LINE('',#1200,#257);
#138=LINE('',#1203,#258);
#139=LINE('',#1205,#259);
#140=LINE('',#1206,#260);
#141=LINE('',#1208,#261);
#142=LINE('',#1209,#262);
#143=LINE('',#1214,#263);
#144=LINE('',#1216,#264);
#145=LINE('',#1218,#265);
#146=LINE('',#1219,#266);
#147=LINE('',#1222,#267);
#148=LINE('',#1224,#268);
#149=LINE('',#1225,#269);
#150=LINE('',#1228,#270);
#151=LINE('',#1230,#271);
#152=LINE('',#1231,#272);
#153=LINE('',#1233,#273);
#154=LINE('',#1234,#274);
#155=LINE('',#1239,#275);
#156=LINE('',#1241,#276);
#157=LINE('',#1243,#277);
#158=LINE('',#1244,#278);
#159=LINE('',#1247,#279);
#160=LINE('',#1249,#280);
#161=LINE('',#1250,#281);
#162=LINE('',#1253,#282);
#163=LINE('',#1255,#283);
#164=LINE('',#1256,#284);
#165=LINE('',#1258,#285);
#166=LINE('',#1259,#286);
#167=LINE('',#1264,#287);
#168=LINE('',#1266,#288);
#169=LINE('',#1268,#289);
#170=LINE('',#1269,#290);
#171=LINE('',#1272,#291);
#172=LINE('',#1274,#292);
#173=LINE('',#1275,#293);
#174=LINE('',#1278,#294);
#175=LINE('',#1280,#295);
#176=LINE('',#1281,#296);
#177=LINE('',#1283,#297);
#178=LINE('',#1284,#298);
#179=LINE('',#1289,#299);
#180=LINE('',#1291,#300);
#181=LINE('',#1293,#301);
#182=LINE('',#1294,#302);
#183=LINE('',#1297,#303);
#184=LINE('',#1299,#304);
#185=LINE('',#1300,#305);
#186=LINE('',#1303,#306);
#187=LINE('',#1305,#307);
#188=LINE('',#1306,#308);
#189=LINE('',#1309,#309);
#190=LINE('',#1311,#310);
#191=LINE('',#1312,#311);
#192=LINE('',#1315,#312);
#193=LINE('',#1317,#313);
#194=LINE('',#1318,#314);
#195=LINE('',#1320,#315);
#196=LINE('',#1321,#316);
#197=LINE('',#1325,#317);
#198=LINE('',#1327,#318);
#199=LINE('',#1329,#319);
#200=LINE('',#1331,#320);
#201=LINE('',#1333,#321);
#202=LINE('',#1334,#322);
#203=LINE('',#1337,#323);
#204=LINE('',#1339,#324);
#205=LINE('',#1340,#325);
#206=LINE('',#1343,#326);
#207=LINE('',#1344,#327);
#208=LINE('',#1347,#328);
#209=LINE('',#1348,#329);
#210=LINE('',#1351,#330);
#211=LINE('',#1352,#331);
#212=LINE('',#1355,#332);
#213=LINE('',#1356,#333);
#214=LINE('',#1358,#334);
#215=LINE('',#1362,#335);
#216=LINE('',#1364,#336);
#217=LINE('',#1366,#337);
#218=LINE('',#1367,#338);
#219=LINE('',#1371,#339);
#220=LINE('',#1373,#340);
#221=LINE('',#1375,#341);
#222=LINE('',#1376,#342);
#223=LINE('',#1379,#343);
#224=LINE('',#1381,#344);
#225=LINE('',#1382,#345);
#226=LINE('',#1385,#346);
#227=LINE('',#1387,#347);
#228=LINE('',#1388,#348);
#229=LINE('',#1390,#349);
#230=LINE('',#1391,#350);
#231=LINE('',#1395,#351);
#232=LINE('',#1397,#352);
#233=LINE('',#1398,#353);
#234=LINE('',#1401,#354);
#235=LINE('',#1403,#355);
#236=LINE('',#1405,#356);
#237=LINE('',#1406,#357);
#238=LINE('',#1409,#358);
#239=LINE('',#1411,#359);
#240=LINE('',#1412,#360);
#241=LINE('',#1415,#361);
#242=LINE('',#1416,#362);
#243=LINE('',#1419,#363);
#244=LINE('',#1420,#364);
#245=LINE('',#1422,#365);
#246=LINE('',#1425,#366);
#247=LINE('',#1426,#367);
#248=LINE('',#1429,#368);
#249=LINE('',#1430,#369);
#250=LINE('',#1432,#370);
#251=VECTOR('',#967,10.);
#252=VECTOR('',#968,10.);
#253=VECTOR('',#969,10.);
#254=VECTOR('',#970,10.);
#255=VECTOR('',#973,10.);
#256=VECTOR('',#974,10.);
#257=VECTOR('',#975,10.);
#258=VECTOR('',#978,10.);
#259=VECTOR('',#979,10.);
#260=VECTOR('',#980,10.);
#261=VECTOR('',#983,10.);
#262=VECTOR('',#984,10.);
#263=VECTOR('',#989,10.);
#264=VECTOR('',#990,10.);
#265=VECTOR('',#991,10.);
#266=VECTOR('',#992,10.);
#267=VECTOR('',#995,10.);
#268=VECTOR('',#996,10.);
#269=VECTOR('',#997,10.);
#270=VECTOR('',#1000,10.);
#271=VECTOR('',#1001,10.);
#272=VECTOR('',#1002,10.);
#273=VECTOR('',#1005,10.);
#274=VECTOR('',#1006,10.);
#275=VECTOR('',#1011,10.);
#276=VECTOR('',#1012,10.);
#277=VECTOR('',#1013,10.);
#278=VECTOR('',#1014,10.);
#279=VECTOR('',#1017,10.);
#280=VECTOR('',#1018,10.);
#281=VECTOR('',#1019,10.);
#282=VECTOR('',#1022,10.);
#283=VECTOR('',#1023,10.);
#284=VECTOR('',#1024,10.);
#285=VECTOR('',#1027,10.);
#286=VECTOR('',#1028,10.);
#287=VECTOR('',#1033,10.);
#288=VECTOR('',#1034,10.);
#289=VECTOR('',#1035,10.);
#290=VECTOR('',#1036,10.);
#291=VECTOR('',#1039,10.);
#292=VECTOR('',#1040,10.);
#293=VECTOR('',#1041,10.);
#294=VECTOR('',#1044,10.);
#295=VECTOR('',#1045,10.);
#296=VECTOR('',#1046,10.);
#297=VECTOR('',#1049,10.);
#298=VECTOR('',#1050,10.);
#299=VECTOR('',#1055,10.);
#300=VECTOR('',#1056,10.);
#301=VECTOR('',#1057,10.);
#302=VECTOR('',#1058,10.);
#303=VECTOR('',#1061,10.);
#304=VECTOR('',#1062,10.);
#305=VECTOR('',#1063,10.);
#306=VECTOR('',#1066,10.);
#307=VECTOR('',#1067,10.);
#308=VECTOR('',#1068,10.);
#309=VECTOR('',#1071,10.);
#310=VECTOR('',#1072,10.);
#311=VECTOR('',#1073,10.);
#312=VECTOR('',#1076,10.);
#313=VECTOR('',#1077,10.);
#314=VECTOR('',#1078,10.);
#315=VECTOR('',#1081,10.);
#316=VECTOR('',#1082,10.);
#317=VECTOR('',#1085,10.);
#318=VECTOR('',#1086,10.);
#319=VECTOR('',#1087,10.);
#320=VECTOR('',#1088,10.);
#321=VECTOR('',#1089,10.);
#322=VECTOR('',#1090,10.);
#323=VECTOR('',#1093,10.);
#324=VECTOR('',#1094,10.);
#325=VECTOR('',#1095,10.);
#326=VECTOR('',#1098,10.);
#327=VECTOR('',#1099,10.);
#328=VECTOR('',#1102,10.);
#329=VECTOR('',#1103,10.);
#330=VECTOR('',#1106,10.);
#331=VECTOR('',#1107,10.);
#332=VECTOR('',#1110,10.);
#333=VECTOR('',#1111,10.);
#334=VECTOR('',#1114,10.);
#335=VECTOR('',#1117,10.);
#336=VECTOR('',#1118,10.);
#337=VECTOR('',#1119,10.);
#338=VECTOR('',#1120,10.);
#339=VECTOR('',#1123,10.);
#340=VECTOR('',#1124,10.);
#341=VECTOR('',#1125,10.);
#342=VECTOR('',#1126,10.);
#343=VECTOR('',#1129,10.);
#344=VECTOR('',#1130,10.);
#345=VECTOR('',#1131,10.);
#346=VECTOR('',#1134,10.);
#347=VECTOR('',#1135,10.);
#348=VECTOR('',#1136,10.);
#349=VECTOR('',#1139,10.);
#350=VECTOR('',#1140,10.);
#351=VECTOR('',#1145,10.);
#352=VECTOR('',#1146,10.);
#353=VECTOR('',#1147,10.);
#354=VECTOR('',#1148,10.);
#355=VECTOR('',#1149,10.);
#356=VECTOR('',#1150,10.);
#357=VECTOR('',#1151,10.);
#358=VECTOR('',#1154,10.);
#359=VECTOR('',#1155,10.);
#360=VECTOR('',#1156,10.);
#361=VECTOR('',#1159,10.);
#362=VECTOR('',#1160,10.);
#363=VECTOR('',#1163,10.);
#364=VECTOR('',#1164,10.);
#365=VECTOR('',#1167,10.);
#366=VECTOR('',#1170,10.);
#367=VECTOR('',#1171,10.);
#368=VECTOR('',#1174,10.);
#369=VECTOR('',#1175,10.);
#370=VECTOR('',#1178,10.);
#371=VERTEX_POINT('',#1187);
#372=VERTEX_POINT('',#1188);
#373=VERTEX_POINT('',#1190);
#374=VERTEX_POINT('',#1192);
#375=VERTEX_POINT('',#1196);
#376=VERTEX_POINT('',#1198);
#377=VERTEX_POINT('',#1202);
#378=VERTEX_POINT('',#1204);
#379=VERTEX_POINT('',#1212);
#380=VERTEX_POINT('',#1213);
#381=VERTEX_POINT('',#1215);
#382=VERTEX_POINT('',#1217);
#383=VERTEX_POINT('',#1221);
#384=VERTEX_POINT('',#1223);
#385=VERTEX_POINT('',#1227);
#386=VERTEX_POINT('',#1229);
#387=VERTEX_POINT('',#1237);
#388=VERTEX_POINT('',#1238);
#389=VERTEX_POINT('',#1240);
#390=VERTEX_POINT('',#1242);
#391=VERTEX_POINT('',#1246);
#392=VERTEX_POINT('',#1248);
#393=VERTEX_POINT('',#1252);
#394=VERTEX_POINT('',#1254);
#395=VERTEX_POINT('',#1262);
#396=VERTEX_POINT('',#1263);
#397=VERTEX_POINT('',#1265);
#398=VERTEX_POINT('',#1267);
#399=VERTEX_POINT('',#1271);
#400=VERTEX_POINT('',#1273);
#401=VERTEX_POINT('',#1277);
#402=VERTEX_POINT('',#1279);
#403=VERTEX_POINT('',#1287);
#404=VERTEX_POINT('',#1288);
#405=VERTEX_POINT('',#1290);
#406=VERTEX_POINT('',#1292);
#407=VERTEX_POINT('',#1296);
#408=VERTEX_POINT('',#1298);
#409=VERTEX_POINT('',#1302);
#410=VERTEX_POINT('',#1304);
#411=VERTEX_POINT('',#1308);
#412=VERTEX_POINT('',#1310);
#413=VERTEX_POINT('',#1314);
#414=VERTEX_POINT('',#1316);
#415=VERTEX_POINT('',#1323);
#416=VERTEX_POINT('',#1324);
#417=VERTEX_POINT('',#1326);
#418=VERTEX_POINT('',#1328);
#419=VERTEX_POINT('',#1330);
#420=VERTEX_POINT('',#1332);
#421=VERTEX_POINT('',#1336);
#422=VERTEX_POINT('',#1338);
#423=VERTEX_POINT('',#1342);
#424=VERTEX_POINT('',#1346);
#425=VERTEX_POINT('',#1350);
#426=VERTEX_POINT('',#1354);
#427=VERTEX_POINT('',#1360);
#428=VERTEX_POINT('',#1361);
#429=VERTEX_POINT('',#1363);
#430=VERTEX_POINT('',#1365);
#431=VERTEX_POINT('',#1369);
#432=VERTEX_POINT('',#1370);
#433=VERTEX_POINT('',#1372);
#434=VERTEX_POINT('',#1374);
#435=VERTEX_POINT('',#1378);
#436=VERTEX_POINT('',#1380);
#437=VERTEX_POINT('',#1384);
#438=VERTEX_POINT('',#1386);
#439=VERTEX_POINT('',#1394);
#440=VERTEX_POINT('',#1396);
#441=VERTEX_POINT('',#1399);
#442=VERTEX_POINT('',#1400);
#443=VERTEX_POINT('',#1402);
#444=VERTEX_POINT('',#1404);
#445=VERTEX_POINT('',#1408);
#446=VERTEX_POINT('',#1410);
#447=VERTEX_POINT('',#1414);
#448=VERTEX_POINT('',#1418);
#449=VERTEX_POINT('',#1424);
#450=VERTEX_POINT('',#1428);
#451=EDGE_CURVE('',#371,#372,#131,.T.);
#452=EDGE_CURVE('',#371,#373,#132,.T.);
#453=EDGE_CURVE('',#373,#374,#133,.T.);
#454=EDGE_CURVE('',#372,#374,#134,.T.);
#455=EDGE_CURVE('',#375,#371,#135,.T.);
#456=EDGE_CURVE('',#375,#376,#136,.T.);
#457=EDGE_CURVE('',#376,#373,#137,.T.);
#458=EDGE_CURVE('',#377,#375,#138,.T.);
#459=EDGE_CURVE('',#377,#378,#139,.T.);
#460=EDGE_CURVE('',#378,#376,#140,.T.);
#461=EDGE_CURVE('',#372,#377,#141,.T.);
#462=EDGE_CURVE('',#374,#378,#142,.T.);
#463=EDGE_CURVE('',#379,#380,#143,.T.);
#464=EDGE_CURVE('',#379,#381,#144,.T.);
#465=EDGE_CURVE('',#381,#382,#145,.T.);
#466=EDGE_CURVE('',#380,#382,#146,.T.);
#467=EDGE_CURVE('',#383,#379,#147,.T.);
#468=EDGE_CURVE('',#383,#384,#148,.T.);
#469=EDGE_CURVE('',#384,#381,#149,.T.);
#470=EDGE_CURVE('',#385,#383,#150,.T.);
#471=EDGE_CURVE('',#385,#386,#151,.T.);
#472=EDGE_CURVE('',#386,#384,#152,.T.);
#473=EDGE_CURVE('',#380,#385,#153,.T.);
#474=EDGE_CURVE('',#382,#386,#154,.T.);
#475=EDGE_CURVE('',#387,#388,#155,.T.);
#476=EDGE_CURVE('',#387,#389,#156,.T.);
#477=EDGE_CURVE('',#389,#390,#157,.T.);
#478=EDGE_CURVE('',#388,#390,#158,.T.);
#479=EDGE_CURVE('',#391,#387,#159,.T.);
#480=EDGE_CURVE('',#391,#392,#160,.T.);
#481=EDGE_CURVE('',#392,#389,#161,.T.);
#482=EDGE_CURVE('',#393,#391,#162,.T.);
#483=EDGE_CURVE('',#393,#394,#163,.T.);
#484=EDGE_CURVE('',#394,#392,#164,.T.);
#485=EDGE_CURVE('',#388,#393,#165,.T.);
#486=EDGE_CURVE('',#390,#394,#166,.T.);
#487=EDGE_CURVE('',#395,#396,#167,.T.);
#488=EDGE_CURVE('',#395,#397,#168,.T.);
#489=EDGE_CURVE('',#397,#398,#169,.T.);
#490=EDGE_CURVE('',#396,#398,#170,.T.);
#491=EDGE_CURVE('',#399,#395,#171,.T.);
#492=EDGE_CURVE('',#399,#400,#172,.T.);
#493=EDGE_CURVE('',#400,#397,#173,.T.);
#494=EDGE_CURVE('',#401,#399,#174,.T.);
#495=EDGE_CURVE('',#401,#402,#175,.T.);
#496=EDGE_CURVE('',#402,#400,#176,.T.);
#497=EDGE_CURVE('',#396,#401,#177,.T.);
#498=EDGE_CURVE('',#398,#402,#178,.T.);
#499=EDGE_CURVE('',#403,#404,#179,.T.);
#500=EDGE_CURVE('',#403,#405,#180,.T.);
#501=EDGE_CURVE('',#406,#405,#181,.T.);
#502=EDGE_CURVE('',#404,#406,#182,.T.);
#503=EDGE_CURVE('',#404,#407,#183,.T.);
#504=EDGE_CURVE('',#408,#406,#184,.T.);
#505=EDGE_CURVE('',#407,#408,#185,.T.);
#506=EDGE_CURVE('',#407,#409,#186,.T.);
#507=EDGE_CURVE('',#410,#408,#187,.T.);
#508=EDGE_CURVE('',#409,#410,#188,.T.);
#509=EDGE_CURVE('',#409,#411,#189,.T.);
#510=EDGE_CURVE('',#412,#410,#190,.T.);
#511=EDGE_CURVE('',#411,#412,#191,.T.);
#512=EDGE_CURVE('',#411,#413,#192,.T.);
#513=EDGE_CURVE('',#414,#412,#193,.T.);
#514=EDGE_CURVE('',#413,#414,#194,.T.);
#515=EDGE_CURVE('',#413,#403,#195,.T.);
#516=EDGE_CURVE('',#405,#414,#196,.T.);
#517=EDGE_CURVE('',#415,#416,#197,.T.);
#518=EDGE_CURVE('',#416,#417,#198,.T.);
#519=EDGE_CURVE('',#417,#418,#199,.T.);
#520=EDGE_CURVE('',#418,#419,#200,.T.);
#521=EDGE_CURVE('',#419,#420,#201,.T.);
#522=EDGE_CURVE('',#420,#415,#202,.T.);
#523=EDGE_CURVE('',#421,#416,#203,.T.);
#524=EDGE_CURVE('',#422,#421,#204,.T.);
#525=EDGE_CURVE('',#422,#417,#205,.T.);
#526=EDGE_CURVE('',#423,#422,#206,.T.);
#527=EDGE_CURVE('',#423,#418,#207,.T.);
#528=EDGE_CURVE('',#424,#423,#208,.T.);
#529=EDGE_CURVE('',#424,#419,#209,.T.);
#530=EDGE_CURVE('',#425,#424,#210,.T.);
#531=EDGE_CURVE('',#425,#420,#211,.T.);
#532=EDGE_CURVE('',#426,#425,#212,.T.);
#533=EDGE_CURVE('',#415,#426,#213,.T.);
#534=EDGE_CURVE('',#421,#426,#214,.T.);
#535=EDGE_CURVE('',#427,#428,#215,.T.);
#536=EDGE_CURVE('',#428,#429,#216,.T.);
#537=EDGE_CURVE('',#430,#429,#217,.T.);
#538=EDGE_CURVE('',#427,#430,#218,.T.);
#539=EDGE_CURVE('',#431,#432,#219,.T.);
#540=EDGE_CURVE('',#432,#433,#220,.T.);
#541=EDGE_CURVE('',#434,#433,#221,.T.);
#542=EDGE_CURVE('',#431,#434,#222,.T.);
#543=EDGE_CURVE('',#435,#428,#223,.T.);
#544=EDGE_CURVE('',#435,#436,#224,.T.);
#545=EDGE_CURVE('',#429,#436,#225,.T.);
#546=EDGE_CURVE('',#427,#437,#226,.T.);
#547=EDGE_CURVE('',#438,#430,#227,.T.);
#548=EDGE_CURVE('',#437,#438,#228,.T.);
#549=EDGE_CURVE('',#437,#435,#229,.T.);
#550=EDGE_CURVE('',#436,#438,#230,.T.);
#551=EDGE_CURVE('',#431,#439,#231,.T.);
#552=EDGE_CURVE('',#439,#440,#232,.T.);
#553=EDGE_CURVE('',#440,#432,#233,.T.);
#554=EDGE_CURVE('',#441,#442,#234,.T.);
#555=EDGE_CURVE('',#441,#443,#235,.T.);
#556=EDGE_CURVE('',#443,#444,#236,.T.);
#557=EDGE_CURVE('',#444,#442,#237,.T.);
#558=EDGE_CURVE('',#443,#445,#238,.T.);
#559=EDGE_CURVE('',#446,#445,#239,.T.);
#560=EDGE_CURVE('',#444,#446,#240,.T.);
#561=EDGE_CURVE('',#447,#446,#241,.T.);
#562=EDGE_CURVE('',#442,#447,#242,.T.);
#563=EDGE_CURVE('',#441,#448,#243,.T.);
#564=EDGE_CURVE('',#445,#448,#244,.T.);
#565=EDGE_CURVE('',#448,#447,#245,.T.);
#566=EDGE_CURVE('',#449,#434,#246,.T.);
#567=EDGE_CURVE('',#439,#449,#247,.T.);
#568=EDGE_CURVE('',#450,#449,#248,.T.);
#569=EDGE_CURVE('',#440,#450,#249,.T.);
#570=EDGE_CURVE('',#433,#450,#250,.T.);
#571=ORIENTED_EDGE('',*,*,#451,.F.);
#572=ORIENTED_EDGE('',*,*,#452,.T.);
#573=ORIENTED_EDGE('',*,*,#453,.T.);
#574=ORIENTED_EDGE('',*,*,#454,.F.);
#575=ORIENTED_EDGE('',*,*,#455,.F.);
#576=ORIENTED_EDGE('',*,*,#456,.T.);
#577=ORIENTED_EDGE('',*,*,#457,.T.);
#578=ORIENTED_EDGE('',*,*,#452,.F.);
#579=ORIENTED_EDGE('',*,*,#458,.F.);
#580=ORIENTED_EDGE('',*,*,#459,.T.);
#581=ORIENTED_EDGE('',*,*,#460,.T.);
#582=ORIENTED_EDGE('',*,*,#456,.F.);
#583=ORIENTED_EDGE('',*,*,#461,.F.);
#584=ORIENTED_EDGE('',*,*,#454,.T.);
#585=ORIENTED_EDGE('',*,*,#462,.T.);
#586=ORIENTED_EDGE('',*,*,#459,.F.);
#587=ORIENTED_EDGE('',*,*,#462,.F.);
#588=ORIENTED_EDGE('',*,*,#453,.F.);
#589=ORIENTED_EDGE('',*,*,#457,.F.);
#590=ORIENTED_EDGE('',*,*,#460,.F.);
#591=ORIENTED_EDGE('',*,*,#463,.F.);
#592=ORIENTED_EDGE('',*,*,#464,.T.);
#593=ORIENTED_EDGE('',*,*,#465,.T.);
#594=ORIENTED_EDGE('',*,*,#466,.F.);
#595=ORIENTED_EDGE('',*,*,#467,.F.);
#596=ORIENTED_EDGE('',*,*,#468,.T.);
#597=ORIENTED_EDGE('',*,*,#469,.T.);
#598=ORIENTED_EDGE('',*,*,#464,.F.);
#599=ORIENTED_EDGE('',*,*,#470,.F.);
#600=ORIENTED_EDGE('',*,*,#471,.T.);
#601=ORIENTED_EDGE('',*,*,#472,.T.);
#602=ORIENTED_EDGE('',*,*,#468,.F.);
#603=ORIENTED_EDGE('',*,*,#473,.F.);
#604=ORIENTED_EDGE('',*,*,#466,.T.);
#605=ORIENTED_EDGE('',*,*,#474,.T.);
#606=ORIENTED_EDGE('',*,*,#471,.F.);
#607=ORIENTED_EDGE('',*,*,#474,.F.);
#608=ORIENTED_EDGE('',*,*,#465,.F.);
#609=ORIENTED_EDGE('',*,*,#469,.F.);
#610=ORIENTED_EDGE('',*,*,#472,.F.);
#611=ORIENTED_EDGE('',*,*,#475,.F.);
#612=ORIENTED_EDGE('',*,*,#476,.T.);
#613=ORIENTED_EDGE('',*,*,#477,.T.);
#614=ORIENTED_EDGE('',*,*,#478,.F.);
#615=ORIENTED_EDGE('',*,*,#479,.F.);
#616=ORIENTED_EDGE('',*,*,#480,.T.);
#617=ORIENTED_EDGE('',*,*,#481,.T.);
#618=ORIENTED_EDGE('',*,*,#476,.F.);
#619=ORIENTED_EDGE('',*,*,#482,.F.);
#620=ORIENTED_EDGE('',*,*,#483,.T.);
#621=ORIENTED_EDGE('',*,*,#484,.T.);
#622=ORIENTED_EDGE('',*,*,#480,.F.);
#623=ORIENTED_EDGE('',*,*,#485,.F.);
#624=ORIENTED_EDGE('',*,*,#478,.T.);
#625=ORIENTED_EDGE('',*,*,#486,.T.);
#626=ORIENTED_EDGE('',*,*,#483,.F.);
#627=ORIENTED_EDGE('',*,*,#486,.F.);
#628=ORIENTED_EDGE('',*,*,#477,.F.);
#629=ORIENTED_EDGE('',*,*,#481,.F.);
#630=ORIENTED_EDGE('',*,*,#484,.F.);
#631=ORIENTED_EDGE('',*,*,#487,.F.);
#632=ORIENTED_EDGE('',*,*,#488,.T.);
#633=ORIENTED_EDGE('',*,*,#489,.T.);
#634=ORIENTED_EDGE('',*,*,#490,.F.);
#635=ORIENTED_EDGE('',*,*,#491,.F.);
#636=ORIENTED_EDGE('',*,*,#492,.T.);
#637=ORIENTED_EDGE('',*,*,#493,.T.);
#638=ORIENTED_EDGE('',*,*,#488,.F.);
#639=ORIENTED_EDGE('',*,*,#494,.F.);
#640=ORIENTED_EDGE('',*,*,#495,.T.);
#641=ORIENTED_EDGE('',*,*,#496,.T.);
#642=ORIENTED_EDGE('',*,*,#492,.F.);
#643=ORIENTED_EDGE('',*,*,#497,.F.);
#644=ORIENTED_EDGE('',*,*,#490,.T.);
#645=ORIENTED_EDGE('',*,*,#498,.T.);
#646=ORIENTED_EDGE('',*,*,#495,.F.);
#647=ORIENTED_EDGE('',*,*,#498,.F.);
#648=ORIENTED_EDGE('',*,*,#489,.F.);
#649=ORIENTED_EDGE('',*,*,#493,.F.);
#650=ORIENTED_EDGE('',*,*,#496,.F.);
#651=ORIENTED_EDGE('',*,*,#499,.F.);
#652=ORIENTED_EDGE('',*,*,#500,.T.);
#653=ORIENTED_EDGE('',*,*,#501,.F.);
#654=ORIENTED_EDGE('',*,*,#502,.F.);
#655=ORIENTED_EDGE('',*,*,#503,.F.);
#656=ORIENTED_EDGE('',*,*,#502,.T.);
#657=ORIENTED_EDGE('',*,*,#504,.F.);
#658=ORIENTED_EDGE('',*,*,#505,.F.);
#659=ORIENTED_EDGE('',*,*,#475,.T.);
#660=ORIENTED_EDGE('',*,*,#485,.T.);
#661=ORIENTED_EDGE('',*,*,#482,.T.);
#662=ORIENTED_EDGE('',*,*,#479,.T.);
#663=ORIENTED_EDGE('',*,*,#487,.T.);
#664=ORIENTED_EDGE('',*,*,#497,.T.);
#665=ORIENTED_EDGE('',*,*,#494,.T.);
#666=ORIENTED_EDGE('',*,*,#491,.T.);
#667=ORIENTED_EDGE('',*,*,#506,.F.);
#668=ORIENTED_EDGE('',*,*,#505,.T.);
#669=ORIENTED_EDGE('',*,*,#507,.F.);
#670=ORIENTED_EDGE('',*,*,#508,.F.);
#671=ORIENTED_EDGE('',*,*,#509,.F.);
#672=ORIENTED_EDGE('',*,*,#508,.T.);
#673=ORIENTED_EDGE('',*,*,#510,.F.);
#674=ORIENTED_EDGE('',*,*,#511,.F.);
#675=ORIENTED_EDGE('',*,*,#512,.F.);
#676=ORIENTED_EDGE('',*,*,#511,.T.);
#677=ORIENTED_EDGE('',*,*,#513,.F.);
#678=ORIENTED_EDGE('',*,*,#514,.F.);
#679=ORIENTED_EDGE('',*,*,#451,.T.);
#680=ORIENTED_EDGE('',*,*,#461,.T.);
#681=ORIENTED_EDGE('',*,*,#458,.T.);
#682=ORIENTED_EDGE('',*,*,#455,.T.);
#683=ORIENTED_EDGE('',*,*,#463,.T.);
#684=ORIENTED_EDGE('',*,*,#473,.T.);
#685=ORIENTED_EDGE('',*,*,#470,.T.);
#686=ORIENTED_EDGE('',*,*,#467,.T.);
#687=ORIENTED_EDGE('',*,*,#515,.F.);
#688=ORIENTED_EDGE('',*,*,#514,.T.);
#689=ORIENTED_EDGE('',*,*,#516,.F.);
#690=ORIENTED_EDGE('',*,*,#500,.F.);
#691=ORIENTED_EDGE('',*,*,#517,.T.);
#692=ORIENTED_EDGE('',*,*,#518,.T.);
#693=ORIENTED_EDGE('',*,*,#519,.T.);
#694=ORIENTED_EDGE('',*,*,#520,.T.);
#695=ORIENTED_EDGE('',*,*,#521,.T.);
#696=ORIENTED_EDGE('',*,*,#522,.T.);
#697=ORIENTED_EDGE('',*,*,#516,.T.);
#698=ORIENTED_EDGE('',*,*,#513,.T.);
#699=ORIENTED_EDGE('',*,*,#510,.T.);
#700=ORIENTED_EDGE('',*,*,#507,.T.);
#701=ORIENTED_EDGE('',*,*,#504,.T.);
#702=ORIENTED_EDGE('',*,*,#501,.T.);
#703=ORIENTED_EDGE('',*,*,#523,.F.);
#704=ORIENTED_EDGE('',*,*,#524,.F.);
#705=ORIENTED_EDGE('',*,*,#525,.T.);
#706=ORIENTED_EDGE('',*,*,#518,.F.);
#707=ORIENTED_EDGE('',*,*,#525,.F.);
#708=ORIENTED_EDGE('',*,*,#526,.F.);
#709=ORIENTED_EDGE('',*,*,#527,.T.);
#710=ORIENTED_EDGE('',*,*,#519,.F.);
#711=ORIENTED_EDGE('',*,*,#527,.F.);
#712=ORIENTED_EDGE('',*,*,#528,.F.);
#713=ORIENTED_EDGE('',*,*,#529,.T.);
#714=ORIENTED_EDGE('',*,*,#520,.F.);
#715=ORIENTED_EDGE('',*,*,#529,.F.);
#716=ORIENTED_EDGE('',*,*,#530,.F.);
#717=ORIENTED_EDGE('',*,*,#531,.T.);
#718=ORIENTED_EDGE('',*,*,#521,.F.);
#719=ORIENTED_EDGE('',*,*,#531,.F.);
#720=ORIENTED_EDGE('',*,*,#532,.F.);
#721=ORIENTED_EDGE('',*,*,#533,.F.);
#722=ORIENTED_EDGE('',*,*,#522,.F.);
#723=ORIENTED_EDGE('',*,*,#533,.T.);
#724=ORIENTED_EDGE('',*,*,#534,.F.);
#725=ORIENTED_EDGE('',*,*,#523,.T.);
#726=ORIENTED_EDGE('',*,*,#517,.F.);
#727=ORIENTED_EDGE('',*,*,#535,.T.);
#728=ORIENTED_EDGE('',*,*,#536,.T.);
#729=ORIENTED_EDGE('',*,*,#537,.F.);
#730=ORIENTED_EDGE('',*,*,#538,.F.);
#731=ORIENTED_EDGE('',*,*,#539,.T.);
#732=ORIENTED_EDGE('',*,*,#540,.T.);
#733=ORIENTED_EDGE('',*,*,#541,.F.);
#734=ORIENTED_EDGE('',*,*,#542,.F.);
#735=ORIENTED_EDGE('',*,*,#543,.F.);
#736=ORIENTED_EDGE('',*,*,#544,.T.);
#737=ORIENTED_EDGE('',*,*,#545,.F.);
#738=ORIENTED_EDGE('',*,*,#536,.F.);
#739=ORIENTED_EDGE('',*,*,#546,.F.);
#740=ORIENTED_EDGE('',*,*,#538,.T.);
#741=ORIENTED_EDGE('',*,*,#547,.F.);
#742=ORIENTED_EDGE('',*,*,#548,.F.);
#743=ORIENTED_EDGE('',*,*,#549,.F.);
#744=ORIENTED_EDGE('',*,*,#548,.T.);
#745=ORIENTED_EDGE('',*,*,#550,.F.);
#746=ORIENTED_EDGE('',*,*,#544,.F.);
#747=ORIENTED_EDGE('',*,*,#550,.T.);
#748=ORIENTED_EDGE('',*,*,#547,.T.);
#749=ORIENTED_EDGE('',*,*,#537,.T.);
#750=ORIENTED_EDGE('',*,*,#545,.T.);
#751=ORIENTED_EDGE('',*,*,#499,.T.);
#752=ORIENTED_EDGE('',*,*,#503,.T.);
#753=ORIENTED_EDGE('',*,*,#506,.T.);
#754=ORIENTED_EDGE('',*,*,#509,.T.);
#755=ORIENTED_EDGE('',*,*,#512,.T.);
#756=ORIENTED_EDGE('',*,*,#515,.T.);
#757=ORIENTED_EDGE('',*,*,#551,.T.);
#758=ORIENTED_EDGE('',*,*,#552,.T.);
#759=ORIENTED_EDGE('',*,*,#553,.T.);
#760=ORIENTED_EDGE('',*,*,#539,.F.);
#761=ORIENTED_EDGE('',*,*,#535,.F.);
#762=ORIENTED_EDGE('',*,*,#546,.T.);
#763=ORIENTED_EDGE('',*,*,#549,.T.);
#764=ORIENTED_EDGE('',*,*,#543,.T.);
#765=ORIENTED_EDGE('',*,*,#554,.F.);
#766=ORIENTED_EDGE('',*,*,#555,.T.);
#767=ORIENTED_EDGE('',*,*,#556,.T.);
#768=ORIENTED_EDGE('',*,*,#557,.T.);
#769=ORIENTED_EDGE('',*,*,#556,.F.);
#770=ORIENTED_EDGE('',*,*,#558,.T.);
#771=ORIENTED_EDGE('',*,*,#559,.F.);
#772=ORIENTED_EDGE('',*,*,#560,.F.);
#773=ORIENTED_EDGE('',*,*,#557,.F.);
#774=ORIENTED_EDGE('',*,*,#560,.T.);
#775=ORIENTED_EDGE('',*,*,#561,.F.);
#776=ORIENTED_EDGE('',*,*,#562,.F.);
#777=ORIENTED_EDGE('',*,*,#555,.F.);
#778=ORIENTED_EDGE('',*,*,#563,.T.);
#779=ORIENTED_EDGE('',*,*,#564,.F.);
#780=ORIENTED_EDGE('',*,*,#558,.F.);
#781=ORIENTED_EDGE('',*,*,#564,.T.);
#782=ORIENTED_EDGE('',*,*,#565,.T.);
#783=ORIENTED_EDGE('',*,*,#561,.T.);
#784=ORIENTED_EDGE('',*,*,#559,.T.);
#785=ORIENTED_EDGE('',*,*,#551,.F.);
#786=ORIENTED_EDGE('',*,*,#542,.T.);
#787=ORIENTED_EDGE('',*,*,#566,.F.);
#788=ORIENTED_EDGE('',*,*,#567,.F.);
#789=ORIENTED_EDGE('',*,*,#552,.F.);
#790=ORIENTED_EDGE('',*,*,#567,.T.);
#791=ORIENTED_EDGE('',*,*,#568,.F.);
#792=ORIENTED_EDGE('',*,*,#569,.F.);
#793=ORIENTED_EDGE('',*,*,#553,.F.);
#794=ORIENTED_EDGE('',*,*,#569,.T.);
#795=ORIENTED_EDGE('',*,*,#570,.F.);
#796=ORIENTED_EDGE('',*,*,#540,.F.);
#797=ORIENTED_EDGE('',*,*,#541,.T.);
#798=ORIENTED_EDGE('',*,*,#570,.T.);
#799=ORIENTED_EDGE('',*,*,#568,.T.);
#800=ORIENTED_EDGE('',*,*,#566,.T.);
#801=ORIENTED_EDGE('',*,*,#554,.T.);
#802=ORIENTED_EDGE('',*,*,#562,.T.);
#803=ORIENTED_EDGE('',*,*,#565,.F.);
#804=ORIENTED_EDGE('',*,*,#563,.F.);
#805=ORIENTED_EDGE('',*,*,#534,.T.);
#806=ORIENTED_EDGE('',*,*,#532,.T.);
#807=ORIENTED_EDGE('',*,*,#530,.T.);
#808=ORIENTED_EDGE('',*,*,#528,.T.);
#809=ORIENTED_EDGE('',*,*,#526,.T.);
#810=ORIENTED_EDGE('',*,*,#524,.T.);
#811=PLANE('',#913);
#812=PLANE('',#914);
#813=PLANE('',#915);
#814=PLANE('',#916);
#815=PLANE('',#917);
#816=PLANE('',#918);
#817=PLANE('',#919);
#818=PLANE('',#920);
#819=PLANE('',#921);
#820=PLANE('',#922);
#821=PLANE('',#923);
#822=PLANE('',#924);
#823=PLANE('',#925);
#824=PLANE('',#926);
#825=PLANE('',#927);
#826=PLANE('',#928);
#827=PLANE('',#929);
#828=PLANE('',#930);
#829=PLANE('',#931);
#830=PLANE('',#932);
#831=PLANE('',#933);
#832=PLANE('',#934);
#833=PLANE('',#935);
#834=PLANE('',#936);
#835=PLANE('',#937);
#836=PLANE('',#938);
#837=PLANE('',#939);
#838=PLANE('',#940);
#839=PLANE('',#941);
#840=PLANE('',#942);
#841=PLANE('',#943);
#842=PLANE('',#944);
#843=PLANE('',#945);
#844=PLANE('',#946);
#845=PLANE('',#947);
#846=PLANE('',#948);
#847=PLANE('',#949);
#848=PLANE('',#950);
#849=PLANE('',#951);
#850=PLANE('',#952);
#851=PLANE('',#953);
#852=PLANE('',#954);
#853=PLANE('',#955);
#854=PLANE('',#956);
#855=PLANE('',#957);
#856=PLANE('',#958);
#857=PLANE('',#959);
#858=PLANE('',#960);
#859=PLANE('',#961);
#860=PLANE('',#962);
#861=ADVANCED_FACE('',(#23),#811,.F.);
#862=ADVANCED_FACE('',(#24),#812,.F.);
#863=ADVANCED_FACE('',(#25),#813,.F.);
#864=ADVANCED_FACE('',(#26),#814,.F.);
#865=ADVANCED_FACE('',(#27),#815,.F.);
#866=ADVANCED_FACE('',(#28),#816,.F.);
#867=ADVANCED_FACE('',(#29),#817,.F.);
#868=ADVANCED_FACE('',(#30),#818,.F.);
#869=ADVANCED_FACE('',(#31),#819,.F.);
#870=ADVANCED_FACE('',(#32),#820,.F.);
#871=ADVANCED_FACE('',(#33),#821,.F.);
#872=ADVANCED_FACE('',(#34),#822,.F.);
#873=ADVANCED_FACE('',(#35),#823,.F.);
#874=ADVANCED_FACE('',(#36),#824,.F.);
#875=ADVANCED_FACE('',(#37),#825,.F.);
#876=ADVANCED_FACE('',(#38),#826,.F.);
#877=ADVANCED_FACE('',(#39),#827,.F.);
#878=ADVANCED_FACE('',(#40),#828,.F.);
#879=ADVANCED_FACE('',(#41),#829,.F.);
#880=ADVANCED_FACE('',(#42),#830,.F.);
#881=ADVANCED_FACE('',(#43),#831,.T.);
#882=ADVANCED_FACE('',(#44,#15,#16),#832,.T.);
#883=ADVANCED_FACE('',(#45),#833,.T.);
#884=ADVANCED_FACE('',(#46),#834,.T.);
#885=ADVANCED_FACE('',(#47,#17,#18),#835,.T.);
#886=ADVANCED_FACE('',(#48),#836,.T.);
#887=ADVANCED_FACE('',(#49,#19),#837,.T.);
#888=ADVANCED_FACE('',(#50),#838,.T.);
#889=ADVANCED_FACE('',(#51),#839,.T.);
#890=ADVANCED_FACE('',(#52),#840,.T.);
#891=ADVANCED_FACE('',(#53),#841,.T.);
#892=ADVANCED_FACE('',(#54),#842,.T.);
#893=ADVANCED_FACE('',(#55),#843,.T.);
#894=ADVANCED_FACE('',(#56),#844,.T.);
#895=ADVANCED_FACE('',(#57),#845,.T.);
#896=ADVANCED_FACE('',(#58),#846,.T.);
#897=ADVANCED_FACE('',(#59),#847,.T.);
#898=ADVANCED_FACE('',(#60),#848,.T.);
#899=ADVANCED_FACE('',(#61),#849,.T.);
#900=ADVANCED_FACE('',(#62,#20,#21,#22),#850,.T.);
#901=ADVANCED_FACE('',(#63),#851,.T.);
#902=ADVANCED_FACE('',(#64),#852,.T.);
#903=ADVANCED_FACE('',(#65),#853,.T.);
#904=ADVANCED_FACE('',(#66),#854,.T.);
#905=ADVANCED_FACE('',(#67),#855,.T.);
#906=ADVANCED_FACE('',(#68),#856,.T.);
#907=ADVANCED_FACE('',(#69),#857,.T.);
#908=ADVANCED_FACE('',(#70),#858,.T.);
#909=ADVANCED_FACE('',(#71),#859,.T.);
#910=ADVANCED_FACE('',(#72),#860,.T.);
#911=CLOSED_SHELL('',(#861,#862,#863,#864,#865,#866,#867,#868,#869,#870,
#871,#872,#873,#874,#875,#876,#877,#878,#879,#880,#881,#882,#883,#884,#885,
#886,#887,#888,#889,#890,#891,#892,#893,#894,#895,#896,#897,#898,#899,#900,
#901,#902,#903,#904,#905,#906,#907,#908,#909,#910));
#912=AXIS2_PLACEMENT_3D('',#1185,#963,#964);
#913=AXIS2_PLACEMENT_3D('',#1186,#965,#966);
#914=AXIS2_PLACEMENT_3D('',#1195,#971,#972);
#915=AXIS2_PLACEMENT_3D('',#1201,#976,#977);
#916=AXIS2_PLACEMENT_3D('',#1207,#981,#982);
#917=AXIS2_PLACEMENT_3D('',#1210,#985,#986);
#918=AXIS2_PLACEMENT_3D('',#1211,#987,#988);
#919=AXIS2_PLACEMENT_3D('',#1220,#993,#994);
#920=AXIS2_PLACEMENT_3D('',#1226,#998,#999);
#921=AXIS2_PLACEMENT_3D('',#1232,#1003,#1004);
#922=AXIS2_PLACEMENT_3D('',#1235,#1007,#1008);
#923=AXIS2_PLACEMENT_3D('',#1236,#1009,#1010);
#924=AXIS2_PLACEMENT_3D('',#1245,#1015,#1016);
#925=AXIS2_PLACEMENT_3D('',#1251,#1020,#1021);
#926=AXIS2_PLACEMENT_3D('',#1257,#1025,#1026);
#927=AXIS2_PLACEMENT_3D('',#1260,#1029,#1030);
#928=AXIS2_PLACEMENT_3D('',#1261,#1031,#1032);
#929=AXIS2_PLACEMENT_3D('',#1270,#1037,#1038);
#930=AXIS2_PLACEMENT_3D('',#1276,#1042,#1043);
#931=AXIS2_PLACEMENT_3D('',#1282,#1047,#1048);
#932=AXIS2_PLACEMENT_3D('',#1285,#1051,#1052);
#933=AXIS2_PLACEMENT_3D('',#1286,#1053,#1054);
#934=AXIS2_PLACEMENT_3D('',#1295,#1059,#1060);
#935=AXIS2_PLACEMENT_3D('',#1301,#1064,#1065);
#936=AXIS2_PLACEMENT_3D('',#1307,#1069,#1070);
#937=AXIS2_PLACEMENT_3D('',#1313,#1074,#1075);
#938=AXIS2_PLACEMENT_3D('',#1319,#1079,#1080);
#939=AXIS2_PLACEMENT_3D('',#1322,#1083,#1084);
#940=AXIS2_PLACEMENT_3D('',#1335,#1091,#1092);
#941=AXIS2_PLACEMENT_3D('',#1341,#1096,#1097);
#942=AXIS2_PLACEMENT_3D('',#1345,#1100,#1101);
#943=AXIS2_PLACEMENT_3D('',#1349,#1104,#1105);
#944=AXIS2_PLACEMENT_3D('',#1353,#1108,#1109);
#945=AXIS2_PLACEMENT_3D('',#1357,#1112,#1113);
#946=AXIS2_PLACEMENT_3D('',#1359,#1115,#1116);
#947=AXIS2_PLACEMENT_3D('',#1368,#1121,#1122);
#948=AXIS2_PLACEMENT_3D('',#1377,#1127,#1128);
#949=AXIS2_PLACEMENT_3D('',#1383,#1132,#1133);
#950=AXIS2_PLACEMENT_3D('',#1389,#1137,#1138);
#951=AXIS2_PLACEMENT_3D('',#1392,#1141,#1142);
#952=AXIS2_PLACEMENT_3D('',#1393,#1143,#1144);
#953=AXIS2_PLACEMENT_3D('',#1407,#1152,#1153);
#954=AXIS2_PLACEMENT_3D('',#1413,#1157,#1158);
#955=AXIS2_PLACEMENT_3D('',#1417,#1161,#1162);
#956=AXIS2_PLACEMENT_3D('',#1421,#1165,#1166);
#957=AXIS2_PLACEMENT_3D('',#1423,#1168,#1169);
#958=AXIS2_PLACEMENT_3D('',#1427,#1172,#1173);
#959=AXIS2_PLACEMENT_3D('',#1431,#1176,#1177);
#960=AXIS2_PLACEMENT_3D('',#1433,#1179,#1180);
#961=AXIS2_PLACEMENT_3D('',#1434,#1181,#1182);
#962=AXIS2_PLACEMENT_3D('',#1435,#1183,#1184);
#963=DIRECTION('axis',(0.,0.,1.));
#964=DIRECTION('refdir',(1.,0.,0.));
#965=DIRECTION('center_axis',(0.,0.,1.));
#966=DIRECTION('ref_axis',(-1.,0.,0.));
#967=DIRECTION('',(-1.,0.,0.));
#968=DIRECTION('',(0.,-1.,0.));
#969=DIRECTION('',(-1.,0.,0.));
#970=DIRECTION('',(0.,-1.,0.));
#971=DIRECTION('center_axis',(1.,0.,0.));
#972=DIRECTION('ref_axis',(0.,0.,1.));
#973=DIRECTION('',(0.,0.,1.));
#974=DIRECTION('',(0.,-1.,0.));
#975=DIRECTION('',(0.,0.,1.));
#976=DIRECTION('center_axis',(0.,0.,-1.));
#977=DIRECTION('ref_axis',(1.,0.,0.));
#978=DIRECTION('',(1.,0.,0.));
#979=DIRECTION('',(0.,-1.,0.));
#980=DIRECTION('',(1.,0.,0.));
#981=DIRECTION('center_axis',(-1.,0.,0.));
#982=DIRECTION('ref_axis',(0.,0.,-1.));
#983=DIRECTION('',(0.,0.,-1.));
#984=DIRECTION('',(0.,0.,-1.));
#985=DIRECTION('center_axis',(0.,-1.,0.));
#986=DIRECTION('ref_axis',(0.,0.,-1.));
#987=DIRECTION('center_axis',(-1.,0.,0.));
#988=DIRECTION('ref_axis',(0.,0.,-1.));
#989=DIRECTION('',(0.,0.,-1.));
#990=DIRECTION('',(0.,-1.,0.));
#991=DIRECTION('',(0.,0.,-1.));
#992=DIRECTION('',(0.,-1.,0.));
#993=DIRECTION('center_axis',(0.,0.,1.));
#994=DIRECTION('ref_axis',(-1.,0.,0.));
#995=DIRECTION('',(-1.,0.,0.));
#996=DIRECTION('',(0.,-1.,0.));
#997=DIRECTION('',(-1.,0.,0.));
#998=DIRECTION('center_axis',(1.,0.,0.));
#999=DIRECTION('ref_axis',(0.,0.,1.));
#1000=DIRECTION('',(0.,0.,1.));
#1001=DIRECTION('',(0.,-1.,0.));
#1002=DIRECTION('',(0.,0.,1.));
#1003=DIRECTION('center_axis',(0.,0.,-1.));
#1004=DIRECTION('ref_axis',(1.,0.,0.));
#1005=DIRECTION('',(1.,0.,0.));
#1006=DIRECTION('',(1.,0.,0.));
#1007=DIRECTION('center_axis',(0.,-1.,0.));
#1008=DIRECTION('ref_axis',(0.,0.,-1.));
#1009=DIRECTION('center_axis',(1.,0.,0.));
#1010=DIRECTION('ref_axis',(0.,0.,-1.));
#1011=DIRECTION('',(0.,0.,-1.));
#1012=DIRECTION('',(0.,1.,0.));
#1013=DIRECTION('',(0.,0.,-1.));
#1014=DIRECTION('',(0.,1.,0.));
#1015=DIRECTION('center_axis',(0.,0.,1.));
#1016=DIRECTION('ref_axis',(1.,0.,0.));
#1017=DIRECTION('',(1.,1.27140734050639E-16,0.));
#1018=DIRECTION('',(0.,1.,0.));
#1019=DIRECTION('',(1.,0.,0.));
#1020=DIRECTION('center_axis',(-1.,0.,0.));
#1021=DIRECTION('ref_axis',(0.,0.,1.));
#1022=DIRECTION('',(0.,0.,1.));
#1023=DIRECTION('',(0.,1.,0.));
#1024=DIRECTION('',(0.,0.,1.));
#1025=DIRECTION('center_axis',(0.,0.,-1.));
#1026=DIRECTION('ref_axis',(-1.,0.,0.));
#1027=DIRECTION('',(-1.,-1.27140734050639E-16,0.));
#1028=DIRECTION('',(-1.,0.,0.));
#1029=DIRECTION('center_axis',(0.,1.,0.));
#1030=DIRECTION('ref_axis',(0.,0.,1.));
#1031=DIRECTION('center_axis',(1.,0.,0.));
#1032=DIRECTION('ref_axis',(0.,0.,-1.));
#1033=DIRECTION('',(0.,0.,-1.));
#1034=DIRECTION('',(0.,1.,0.));
#1035=DIRECTION('',(0.,0.,-1.));
#1036=DIRECTION('',(0.,1.,0.));
#1037=DIRECTION('center_axis',(0.,0.,1.));
#1038=DIRECTION('ref_axis',(1.,0.,0.));
#1039=DIRECTION('',(1.,1.27140734050639E-16,0.));
#1040=DIRECTION('',(0.,1.,0.));
#1041=DIRECTION('',(1.,0.,0.));
#1042=DIRECTION('center_axis',(-1.,0.,0.));
#1043=DIRECTION('ref_axis',(0.,0.,1.));
#1044=DIRECTION('',(0.,0.,1.));
#1045=DIRECTION('',(0.,1.,0.));
#1046=DIRECTION('',(0.,0.,1.));
#1047=DIRECTION('center_axis',(0.,0.,-1.));
#1048=DIRECTION('ref_axis',(-1.,0.,0.));
#1049=DIRECTION('',(-1.,-1.27140734050639E-16,0.));
#1050=DIRECTION('',(-1.,0.,0.));
#1051=DIRECTION('center_axis',(0.,1.,0.));
#1052=DIRECTION('ref_axis',(0.,0.,1.));
#1053=DIRECTION('center_axis',(-0.866011923367186,-0.500023348040735,0.));
#1054=DIRECTION('ref_axis',(0.500023348040735,-0.866011923367186,0.));
#1055=DIRECTION('',(-0.500023348040735,0.866011923367186,0.));
#1056=DIRECTION('',(0.,0.,1.));
#1057=DIRECTION('',(0.500023348040735,-0.866011923367186,0.));
#1058=DIRECTION('',(0.,0.,1.));
#1059=DIRECTION('center_axis',(1.27140734050639E-16,-1.,0.));
#1060=DIRECTION('ref_axis',(1.,1.27140734050639E-16,0.));
#1061=DIRECTION('',(-1.,-1.27140734050639E-16,0.));
#1062=DIRECTION('',(1.,1.27140734050639E-16,0.));
#1063=DIRECTION('',(0.,0.,1.));
#1064=DIRECTION('center_axis',(0.865902813003622,-0.500212273372429,0.));
#1065=DIRECTION('ref_axis',(0.500212273372429,0.865902813003622,0.));
#1066=DIRECTION('',(-0.500212273372429,-0.865902813003622,0.));
#1067=DIRECTION('',(0.500212273372429,0.865902813003622,0.));
#1068=DIRECTION('',(0.,0.,1.));
#1069=DIRECTION('center_axis',(0.865814333273839,0.500365406775465,0.));
#1070=DIRECTION('ref_axis',(-0.500365406775465,0.865814333273839,0.));
#1071=DIRECTION('',(0.500365406775465,-0.865814333273839,0.));
#1072=DIRECTION('',(-0.500365406775465,0.865814333273839,0.));
#1073=DIRECTION('',(0.,0.,1.));
#1074=DIRECTION('center_axis',(0.,1.,0.));
#1075=DIRECTION('ref_axis',(-1.,0.,0.));
#1076=DIRECTION('',(1.,0.,0.));
#1077=DIRECTION('',(-1.,0.,0.));
#1078=DIRECTION('',(0.,0.,1.));
#1079=DIRECTION('center_axis',(-0.866001859994431,0.500040776823437,0.));
#1080=DIRECTION('ref_axis',(-0.500040776823437,-0.866001859994431,0.));
#1081=DIRECTION('',(0.500040776823437,0.866001859994431,0.));
#1082=DIRECTION('',(-0.500040776823437,-0.866001859994431,0.));
#1083=DIRECTION('center_axis',(0.,0.,1.));
#1084=DIRECTION('ref_axis',(1.,0.,0.));
#1085=DIRECTION('',(-1.,-1.23072765412157E-16,0.));
#1086=DIRECTION('',(-0.500212273372429,-0.865902813003622,0.));
#1087=DIRECTION('',(0.500365406775465,-0.865814333273839,0.));
#1088=DIRECTION('',(1.,0.,0.));
#1089=DIRECTION('',(0.500040776823437,0.866001859994431,0.));
#1090=DIRECTION('',(-0.500023348040736,0.866011923367186,0.));
#1091=DIRECTION('center_axis',(-0.865902813003622,0.500212273372429,0.));
#1092=DIRECTION('ref_axis',(0.500212273372429,0.865902813003622,0.));
#1093=DIRECTION('',(0.,0.,1.));
#1094=DIRECTION('',(0.500212273372429,0.865902813003622,0.));
#1095=DIRECTION('',(0.,0.,1.));
#1096=DIRECTION('center_axis',(-0.865814333273839,-0.500365406775465,0.));
#1097=DIRECTION('ref_axis',(-0.500365406775465,0.865814333273839,0.));
#1098=DIRECTION('',(-0.500365406775465,0.865814333273839,0.));
#1099=DIRECTION('',(0.,0.,1.));
#1100=DIRECTION('center_axis',(0.,-1.,0.));
#1101=DIRECTION('ref_axis',(-1.,0.,0.));
#1102=DIRECTION('',(-1.,0.,0.));
#1103=DIRECTION('',(0.,0.,1.));
#1104=DIRECTION('center_axis',(0.866001859994431,-0.500040776823437,0.));
#1105=DIRECTION('ref_axis',(-0.500040776823437,-0.866001859994431,0.));
#1106=DIRECTION('',(-0.500040776823437,-0.866001859994431,0.));
#1107=DIRECTION('',(0.,0.,1.));
#1108=DIRECTION('center_axis',(0.866011923367186,0.500023348040736,0.));
#1109=DIRECTION('ref_axis',(0.500023348040736,-0.866011923367186,0.));
#1110=DIRECTION('',(0.500023348040736,-0.866011923367186,0.));
#1111=DIRECTION('',(0.,0.,-1.));
#1112=DIRECTION('center_axis',(-1.23072765412157E-16,1.,0.));
#1113=DIRECTION('ref_axis',(1.,1.23072765412157E-16,0.));
#1114=DIRECTION('',(1.,1.23072765412157E-16,0.));
#1115=DIRECTION('center_axis',(0.866001859994431,-0.500040776823437,0.));
#1116=DIRECTION('ref_axis',(-0.500040776823437,-0.866001859994431,0.));
#1117=DIRECTION('',(0.500040776823437,0.866001859994431,0.));
#1118=DIRECTION('',(0.,0.,1.));
#1119=DIRECTION('',(0.500040776823437,0.866001859994431,0.));
#1120=DIRECTION('',(0.,0.,1.));
#1121=DIRECTION('center_axis',(0.,1.,0.));
#1122=DIRECTION('ref_axis',(1.,0.,0.));
#1123=DIRECTION('',(-1.,0.,0.));
#1124=DIRECTION('',(0.,0.,1.));
#1125=DIRECTION('',(-1.,0.,0.));
#1126=DIRECTION('',(0.,0.,1.));
#1127=DIRECTION('center_axis',(0.500040776823437,0.866001859994431,0.));
#1128=DIRECTION('ref_axis',(-0.866001859994431,0.500040776823437,0.));
#1129=DIRECTION('',(0.866001859994431,-0.500040776823437,0.));
#1130=DIRECTION('',(0.,0.,1.));
#1131=DIRECTION('',(-0.866001859994431,0.500040776823437,0.));
#1132=DIRECTION('center_axis',(-0.500040776823437,-0.866001859994431,0.));
#1133=DIRECTION('ref_axis',(0.866001859994431,-0.500040776823437,0.));
#1134=DIRECTION('',(-0.866001859994431,0.500040776823437,0.));
#1135=DIRECTION('',(0.866001859994431,-0.500040776823437,0.));
#1136=DIRECTION('',(0.,0.,1.));
#1137=DIRECTION('center_axis',(-0.866001859994431,0.500040776823436,0.));
#1138=DIRECTION('ref_axis',(-0.500040776823436,-0.866001859994431,0.));
#1139=DIRECTION('',(0.500040776823436,0.866001859994431,0.));
#1140=DIRECTION('',(-0.500040776823436,-0.866001859994431,0.));
#1141=DIRECTION('center_axis',(0.,0.,1.));
#1142=DIRECTION('ref_axis',(1.,0.,0.));
#1143=DIRECTION('center_axis',(0.,0.,1.));
#1144=DIRECTION('ref_axis',(1.,0.,0.));
#1145=DIRECTION('',(0.,-1.,0.));
#1146=DIRECTION('',(-1.,0.,0.));
#1147=DIRECTION('',(0.,1.,0.));
#1148=DIRECTION('',(0.500365406775465,-0.865814333273839,0.));
#1149=DIRECTION('',(0.86581433327384,0.500365406775465,0.));
#1150=DIRECTION('',(0.500365406775465,-0.86581433327384,0.));
#1151=DIRECTION('',(-0.865814333273839,-0.500365406775465,0.));
#1152=DIRECTION('center_axis',(0.86581433327384,0.500365406775465,0.));
#1153=DIRECTION('ref_axis',(-0.500365406775465,0.86581433327384,0.));
#1154=DIRECTION('',(0.,0.,1.));
#1155=DIRECTION('',(-0.500365406775465,0.86581433327384,0.));
#1156=DIRECTION('',(0.,0.,1.));
#1157=DIRECTION('center_axis',(0.500365406775465,-0.865814333273839,0.));
#1158=DIRECTION('ref_axis',(0.865814333273839,0.500365406775465,0.));
#1159=DIRECTION('',(0.865814333273839,0.500365406775465,0.));
#1160=DIRECTION('',(0.,0.,1.));
#1161=DIRECTION('center_axis',(-0.500365406775465,0.86581433327384,0.));
#1162=DIRECTION('ref_axis',(-0.86581433327384,-0.500365406775465,0.));
#1163=DIRECTION('',(0.,0.,1.));
#1164=DIRECTION('',(-0.86581433327384,-0.500365406775465,0.));
#1165=DIRECTION('center_axis',(0.,0.,1.));
#1166=DIRECTION('ref_axis',(1.,0.,0.));
#1167=DIRECTION('',(0.500365406775465,-0.865814333273839,0.));
#1168=DIRECTION('center_axis',(1.,0.,0.));
#1169=DIRECTION('ref_axis',(0.,1.,0.));
#1170=DIRECTION('',(0.,1.,0.));
#1171=DIRECTION('',(0.,0.,1.));
#1172=DIRECTION('center_axis',(0.,-1.,0.));
#1173=DIRECTION('ref_axis',(1.,0.,0.));
#1174=DIRECTION('',(1.,0.,0.));
#1175=DIRECTION('',(0.,0.,1.));
#1176=DIRECTION('center_axis',(-1.,0.,0.));
#1177=DIRECTION('ref_axis',(0.,-1.,0.));
#1178=DIRECTION('',(0.,-1.,0.));
#1179=DIRECTION('center_axis',(0.,0.,1.));
#1180=DIRECTION('ref_axis',(1.,0.,0.));
#1181=DIRECTION('center_axis',(-0.865814333273839,-0.500365406775466,0.));
#1182=DIRECTION('ref_axis',(-0.500365406775465,0.865814333273839,0.));
#1183=DIRECTION('center_axis',(0.,0.,-1.));
#1184=DIRECTION('ref_axis',(-1.,0.,0.));
#1185=CARTESIAN_POINT('',(0.,0.,0.));
#1186=CARTESIAN_POINT('Origin',(10.0000001490116,-60.0829917435228,9.00000013411045));
#1187=CARTESIAN_POINT('',(10.0000001490116,-60.0829917435228,9.00000013411045));
#1188=CARTESIAN_POINT('',(5.00000007450581,-60.0829917435228,9.00000013411045));
#1189=CARTESIAN_POINT('',(22.8193306338173,-60.0829917435228,9.00000013411045));
#1190=CARTESIAN_POINT('',(10.0000001490116,-61.0829917435228,9.00000013411045));
#1191=CARTESIAN_POINT('',(10.0000001490116,-60.0829917435228,9.00000013411045));
#1192=CARTESIAN_POINT('',(5.00000007450581,-61.0829917435228,9.00000013411045));
#1193=CARTESIAN_POINT('',(5.00000007450581,-61.0829917435228,9.00000013411045));
#1194=CARTESIAN_POINT('',(5.00000007450581,-60.0829917435228,9.00000013411045));
#1195=CARTESIAN_POINT('Origin',(10.0000001490116,-60.0829917435228,8.00000011920929));
#1196=CARTESIAN_POINT('',(10.0000001490116,-60.0829917435228,8.00000011920929));
#1197=CARTESIAN_POINT('',(10.0000001490116,-60.0829917435228,4.00000005960464));
#1198=CARTESIAN_POINT('',(10.0000001490116,-61.0829917435228,8.00000011920929));
#1199=CARTESIAN_POINT('',(10.0000001490116,-60.0829917435228,8.00000011920929));
#1200=CARTESIAN_POINT('',(10.0000001490116,-61.0829917435228,9.00000013411045));
#1201=CARTESIAN_POINT('Origin',(5.00000007450581,-60.0829917435228,8.00000011920929));
#1202=CARTESIAN_POINT('',(5.00000007450581,-60.0829917435228,8.00000011920929));
#1203=CARTESIAN_POINT('',(20.3193305965644,-60.0829917435228,8.00000011920929));
#1204=CARTESIAN_POINT('',(5.00000007450581,-61.0829917435228,8.00000011920929));
#1205=CARTESIAN_POINT('',(5.00000007450581,-60.0829917435228,8.00000011920929));
#1206=CARTESIAN_POINT('',(10.0000001490116,-61.0829917435228,8.00000011920929));
#1207=CARTESIAN_POINT('Origin',(5.00000007450581,-60.0829917435228,9.00000013411045));
#1208=CARTESIAN_POINT('',(5.0000000745058,-60.0829917435228,4.50000006705523));
#1209=CARTESIAN_POINT('',(5.00000007450581,-61.0829917435228,8.00000011920929));
#1210=CARTESIAN_POINT('Origin',(7.50000011175871,-61.0829917435228,8.50000012665987));
#1211=CARTESIAN_POINT('Origin',(-10.0000001490116,-60.0829917435228,9.00000013411045));
#1212=CARTESIAN_POINT('',(-10.0000001490116,-60.0829917435228,9.00000013411045));
#1213=CARTESIAN_POINT('',(-10.0000001490116,-60.0829917435228,8.00000011920929));
#1214=CARTESIAN_POINT('',(-10.0000001490116,-60.0829917435228,4.50000006705523));
#1215=CARTESIAN_POINT('',(-10.0000001490116,-61.0829917435228,9.00000013411045));
#1216=CARTESIAN_POINT('',(-10.0000001490116,-60.0829917435228,9.00000013411045));
#1217=CARTESIAN_POINT('',(-10.0000001490116,-61.0829917435228,8.00000011920929));
#1218=CARTESIAN_POINT('',(-10.0000001490116,-61.0829917435228,9.00000013411045));
#1219=CARTESIAN_POINT('',(-10.0000001490116,-60.0829917435228,8.00000011920929));
#1220=CARTESIAN_POINT('Origin',(-5.00000007450581,-60.0829917435228,9.00000013411045));
#1221=CARTESIAN_POINT('',(-5.00000007450581,-60.0829917435228,9.00000013411045));
#1222=CARTESIAN_POINT('',(15.3193305220586,-60.0829917435228,9.00000013411045));
#1223=CARTESIAN_POINT('',(-5.00000007450581,-61.0829917435228,9.00000013411045));
#1224=CARTESIAN_POINT('',(-5.00000007450581,-60.0829917435228,9.00000013411045));
#1225=CARTESIAN_POINT('',(-5.00000007450581,-61.0829917435228,9.00000013411045));
#1226=CARTESIAN_POINT('Origin',(-5.00000007450581,-60.0829917435228,8.00000011920929));
#1227=CARTESIAN_POINT('',(-5.00000007450581,-60.0829917435228,8.00000011920929));
#1228=CARTESIAN_POINT('',(-5.0000000745058,-60.0829917435228,4.00000005960464));
#1229=CARTESIAN_POINT('',(-5.00000007450581,-61.0829917435228,8.00000011920929));
#1230=CARTESIAN_POINT('',(-5.00000007450581,-60.0829917435228,8.00000011920929));
#1231=CARTESIAN_POINT('',(-5.00000007450581,-61.0829917435228,8.00000011920929));
#1232=CARTESIAN_POINT('Origin',(-10.0000001490116,-60.0829917435228,8.00000011920929));
#1233=CARTESIAN_POINT('',(12.8193304848057,-60.0829917435228,8.00000011920929));
#1234=CARTESIAN_POINT('',(-10.0000001490116,-61.0829917435228,8.00000011920929));
#1235=CARTESIAN_POINT('Origin',(-7.50000011175871,-61.0829917435228,8.50000012665987));
#1236=CARTESIAN_POINT('Origin',(-5.00000007450581,60.912486726216,9.00000013411045));
#1237=CARTESIAN_POINT('',(-5.00000007450581,60.912486726216,9.00000013411045));
#1238=CARTESIAN_POINT('',(-5.00000007450581,60.912486726216,8.00000011920929));
#1239=CARTESIAN_POINT('',(-5.00000007450581,60.912486726216,4.50000006705523));
#1240=CARTESIAN_POINT('',(-5.00000007450581,61.912486726216,9.00000013411045));
#1241=CARTESIAN_POINT('',(-5.00000007450581,60.912486726216,9.00000013411045));
#1242=CARTESIAN_POINT('',(-5.00000007450581,61.912486726216,8.00000011920929));
#1243=CARTESIAN_POINT('',(-5.00000007450581,61.912486726216,9.00000013411045));
#1244=CARTESIAN_POINT('',(-5.00000007450581,60.912486726216,8.00000011920929));
#1245=CARTESIAN_POINT('Origin',(-10.0000001490116,60.912486726216,9.00000013411045));
#1246=CARTESIAN_POINT('',(-10.0000001490116,60.912486726216,9.00000013411045));
#1247=CARTESIAN_POINT('',(-22.1096142409665,60.912486726216,9.00000013411045));
#1248=CARTESIAN_POINT('',(-10.0000001490116,61.912486726216,9.00000013411045));
#1249=CARTESIAN_POINT('',(-10.0000001490116,60.912486726216,9.00000013411045));
#1250=CARTESIAN_POINT('',(-10.0000001490116,61.912486726216,9.00000013411045));
#1251=CARTESIAN_POINT('Origin',(-10.0000001490116,60.912486726216,8.00000011920929));
#1252=CARTESIAN_POINT('',(-10.0000001490116,60.912486726216,8.00000011920929));
#1253=CARTESIAN_POINT('',(-10.0000001490116,60.912486726216,4.00000005960464));
#1254=CARTESIAN_POINT('',(-10.0000001490116,61.912486726216,8.00000011920929));
#1255=CARTESIAN_POINT('',(-10.0000001490116,60.912486726216,8.00000011920929));
#1256=CARTESIAN_POINT('',(-10.0000001490116,61.912486726216,8.00000011920929));
#1257=CARTESIAN_POINT('Origin',(-5.00000007450581,60.912486726216,8.00000011920929));
#1258=CARTESIAN_POINT('',(-19.6096142037136,60.912486726216,8.00000011920929));
#1259=CARTESIAN_POINT('',(-5.00000007450581,61.912486726216,8.00000011920929));
#1260=CARTESIAN_POINT('Origin',(-7.50000011175871,61.912486726216,8.50000012665987));
#1261=CARTESIAN_POINT('Origin',(10.0000001490116,60.912486726216,9.00000013411045));
#1262=CARTESIAN_POINT('',(10.0000001490116,60.912486726216,9.00000013411045));
#1263=CARTESIAN_POINT('',(10.0000001490116,60.912486726216,8.00000011920929));
#1264=CARTESIAN_POINT('',(10.0000001490116,60.912486726216,4.50000006705523));
#1265=CARTESIAN_POINT('',(10.0000001490116,61.912486726216,9.00000013411045));
#1266=CARTESIAN_POINT('',(10.0000001490116,60.912486726216,9.00000013411045));
#1267=CARTESIAN_POINT('',(10.0000001490116,61.912486726216,8.00000011920929));
#1268=CARTESIAN_POINT('',(10.0000001490116,61.912486726216,9.00000013411045));
#1269=CARTESIAN_POINT('',(10.0000001490116,60.912486726216,8.00000011920929));
#1270=CARTESIAN_POINT('Origin',(5.00000007450581,60.912486726216,9.00000013411045));
#1271=CARTESIAN_POINT('',(5.00000007450581,60.912486726216,9.00000013411045));
#1272=CARTESIAN_POINT('',(-14.6096141292078,60.912486726216,9.00000013411045));
#1273=CARTESIAN_POINT('',(5.00000007450581,61.912486726216,9.00000013411045));
#1274=CARTESIAN_POINT('',(5.00000007450581,60.912486726216,9.00000013411045));
#1275=CARTESIAN_POINT('',(5.00000007450581,61.912486726216,9.00000013411045));
#1276=CARTESIAN_POINT('Origin',(5.00000007450581,60.912486726216,8.00000011920929));
#1277=CARTESIAN_POINT('',(5.00000007450581,60.912486726216,8.00000011920929));
#1278=CARTESIAN_POINT('',(5.00000007450581,60.912486726216,4.00000005960464));
#1279=CARTESIAN_POINT('',(5.00000007450581,61.912486726216,8.00000011920929));
#1280=CARTESIAN_POINT('',(5.00000007450581,60.912486726216,8.00000011920929));
#1281=CARTESIAN_POINT('',(5.00000007450581,61.912486726216,8.00000011920929));
#1282=CARTESIAN_POINT('Origin',(10.0000001490116,60.912486726216,8.00000011920929));
#1283=CARTESIAN_POINT('',(-12.1096140919549,60.912486726216,8.00000011920929));
#1284=CARTESIAN_POINT('',(10.0000001490116,61.912486726216,8.00000011920929));
#1285=CARTESIAN_POINT('Origin',(7.50000011175871,61.912486726216,8.50000012665987));
#1286=CARTESIAN_POINT('Origin',(35.6386678269646,60.912486726216,0.));
#1287=CARTESIAN_POINT('',(70.5700369601349,0.413347461220184,0.));
#1288=CARTESIAN_POINT('',(35.6386678269646,60.912486726216,0.));
#1289=CARTESIAN_POINT('',(44.3691853930078,45.7917281876686,0.));
#1290=CARTESIAN_POINT('',(70.5700369601349,0.413347461220184,10.));
#1291=CARTESIAN_POINT('',(70.5700369601349,0.413347461220184,0.));
#1292=CARTESIAN_POINT('',(35.6386678269646,60.912486726216,10.));
#1293=CARTESIAN_POINT('',(35.6386678269646,60.912486726216,10.));
#1294=CARTESIAN_POINT('',(35.6386678269646,60.912486726216,0.));
#1295=CARTESIAN_POINT('Origin',(-34.2192283329215,60.912486726216,0.));
#1296=CARTESIAN_POINT('',(-34.2192283329215,60.912486726216,0.));
#1297=CARTESIAN_POINT('',(-16.7607883463856,60.912486726216,0.));
#1298=CARTESIAN_POINT('',(-34.2192283329214,60.912486726216,10.));
#1299=CARTESIAN_POINT('',(-34.2192283329215,60.912486726216,10.));
#1300=CARTESIAN_POINT('',(-34.2192283329215,60.912486726216,0.));
#1301=CARTESIAN_POINT('Origin',(-69.1748325755713,0.401864226124111,0.));
#1302=CARTESIAN_POINT('',(-69.1748325755713,0.401864226124111,0.));
#1303=CARTESIAN_POINT('',(-60.4305643425238,15.5388108060346,0.));
#1304=CARTESIAN_POINT('',(-69.1748325755713,0.401864226124111,10.));
#1305=CARTESIAN_POINT('',(-69.1748325755713,0.401864226124111,10.));
#1306=CARTESIAN_POINT('',(-69.1748325755713,0.401864226124111,0.));
#1307=CARTESIAN_POINT('Origin',(-34.2198446550424,-60.0829917435228,0.));
#1308=CARTESIAN_POINT('',(-34.2198446550424,-60.0829917435228,0.));
#1309=CARTESIAN_POINT('',(-42.9532981508954,-44.9709374062348,0.));
#1310=CARTESIAN_POINT('',(-34.2198446550424,-60.0829917435228,10.));
#1311=CARTESIAN_POINT('',(-34.2198446550424,-60.0829917435228,10.));
#1312=CARTESIAN_POINT('',(-34.2198446550424,-60.0829917435228,0.));
#1313=CARTESIAN_POINT('Origin',(35.638661118623,-60.0829917435228,0.));
#1314=CARTESIAN_POINT('',(35.638661118623,-60.0829917435228,0.));
#1315=CARTESIAN_POINT('',(18.1681563793866,-60.0829917435228,0.));
#1316=CARTESIAN_POINT('',(35.638661118623,-60.0829917435228,10.));
#1317=CARTESIAN_POINT('',(35.638661118623,-60.0829917435228,10.));
#1318=CARTESIAN_POINT('',(35.638661118623,-60.0829917435228,0.));
#1319=CARTESIAN_POINT('Origin',(70.5700369601349,0.413347461220184,0.));
#1320=CARTESIAN_POINT('',(61.8348672819799,-14.7147651633233,0.));
#1321=CARTESIAN_POINT('',(70.5700369601349,0.413347461220184,10.));
#1322=CARTESIAN_POINT('Origin',(0.697404400808344,0.414747491346628,10.));
#1323=CARTESIAN_POINT('',(36.7933324186836,62.912486726216,10.));
#1324=CARTESIAN_POINT('',(-35.3736020550576,62.912486726216,10.));
#1325=CARTESIAN_POINT('',(-35.3736020550576,62.912486726216,10.));
#1326=CARTESIAN_POINT('',(-71.4846786017078,0.401659969566834,10.));
#1327=CARTESIAN_POINT('',(-71.4846786017078,0.401659969566834,10.));
#1328=CARTESIAN_POINT('',(-35.3739826128544,-62.0829917435228,10.));
#1329=CARTESIAN_POINT('',(-35.3739826128545,-62.0829917435228,10.));
#1330=CARTESIAN_POINT('',(36.7932988769756,-62.0829917435228,10.));
#1331=CARTESIAN_POINT('',(36.7932988769756,-62.0829917435228,10.));
#1332=CARTESIAN_POINT('',(72.8794874033245,0.413324221849729,10.));
#1333=CARTESIAN_POINT('',(72.8794874033245,0.413324221849731,10.));
#1334=CARTESIAN_POINT('',(36.7933324186836,62.912486726216,10.));
#1335=CARTESIAN_POINT('Origin',(-71.4846786017078,0.401659969566834,0.));
#1336=CARTESIAN_POINT('',(-35.3736020550576,62.912486726216,-2.));
#1337=CARTESIAN_POINT('',(-35.3736020550576,62.912486726216,0.));
#1338=CARTESIAN_POINT('',(-71.4846786017078,0.401659969566834,-2.));
#1339=CARTESIAN_POINT('',(-71.4846786017078,0.401659969566834,-2.));
#1340=CARTESIAN_POINT('',(-71.4846786017078,0.401659969566834,0.));
#1341=CARTESIAN_POINT('Origin',(-35.3739826128545,-62.0829917435228,0.));
#1342=CARTESIAN_POINT('',(-35.3739826128545,-62.0829917435228,-2.));
#1343=CARTESIAN_POINT('',(-35.3739826128545,-62.0829917435228,-2.));
#1344=CARTESIAN_POINT('',(-35.3739826128545,-62.0829917435228,0.));
#1345=CARTESIAN_POINT('Origin',(36.7932988769756,-62.0829917435228,0.));
#1346=CARTESIAN_POINT('',(36.7932988769756,-62.0829917435228,-2.));
#1347=CARTESIAN_POINT('',(36.7932988769756,-62.0829917435228,-2.));
#1348=CARTESIAN_POINT('',(36.7932988769756,-62.0829917435228,0.));
#1349=CARTESIAN_POINT('Origin',(72.8794874033245,0.41332422184973,0.));
#1350=CARTESIAN_POINT('',(72.8794874033245,0.413324221849729,-2.));
#1351=CARTESIAN_POINT('',(72.8794874033245,0.413324221849731,-2.));
#1352=CARTESIAN_POINT('',(72.8794874033245,0.413324221849729,0.));
#1353=CARTESIAN_POINT('Origin',(36.7933324186836,62.912486726216,0.));
#1354=CARTESIAN_POINT('',(36.7933324186836,62.912486726216,-2.));
#1355=CARTESIAN_POINT('',(36.7933324186836,62.912486726216,-2.));
#1356=CARTESIAN_POINT('',(36.7933324186836,62.912486726216,0.));
#1357=CARTESIAN_POINT('Origin',(-35.3736020550576,62.912486726216,0.));
#1358=CARTESIAN_POINT('',(-35.3736020550576,62.912486726216,-2.));
#1359=CARTESIAN_POINT('Origin',(69.9926743493375,0.413353271062795,0.));
#1360=CARTESIAN_POINT('',(59.9918588128688,-16.9066839288258,0.));
#1361=CARTESIAN_POINT('',(69.9926743493375,0.413353271062797,0.));
#1362=CARTESIAN_POINT('',(61.3296546016239,-14.589805595994,0.));
#1363=CARTESIAN_POINT('',(69.9926743493375,0.413353271062795,5.));
#1364=CARTESIAN_POINT('',(69.9926743493375,0.413353271062796,0.));
#1365=CARTESIAN_POINT('',(59.9918588128688,-16.9066839288258,5.));
#1366=CARTESIAN_POINT('',(69.9926743493375,0.413353271062797,5.));
#1367=CARTESIAN_POINT('',(59.9918588128688,-16.9066839288258,0.));
#1368=CARTESIAN_POINT('Origin',(-33.9306349023874,60.412486726216,0.));
#1369=CARTESIAN_POINT('',(20.,60.412486726216,0.));
#1370=CARTESIAN_POINT('',(-20.,60.412486726216,0.));
#1371=CARTESIAN_POINT('',(-16.6166152507895,60.412486726216,0.));
#1372=CARTESIAN_POINT('',(-20.,60.412486726216,5.));
#1373=CARTESIAN_POINT('',(-20.,60.412486726216,0.));
#1374=CARTESIAN_POINT('',(20.,60.412486726216,5.));
#1375=CARTESIAN_POINT('',(0.,60.412486726216,5.));
#1376=CARTESIAN_POINT('',(20.,60.412486726216,0.));
#1377=CARTESIAN_POINT('Origin',(69.9926743493375,0.413353271062796,0.));
#1378=CARTESIAN_POINT('',(61.3326557493932,5.41376103929717,0.));
#1379=CARTESIAN_POINT('',(44.0081518324988,15.4171557164637,0.));
#1380=CARTESIAN_POINT('',(61.3326557493932,5.41376103929717,5.));
#1381=CARTESIAN_POINT('',(61.3326557493932,5.41376103929717,0.));
#1382=CARTESIAN_POINT('',(61.3326557493932,5.41376103929717,5.));
#1383=CARTESIAN_POINT('Origin',(51.3318402129245,-11.9062761605915,0.));
#1384=CARTESIAN_POINT('',(51.3318402129245,-11.9062761605915,0.));
#1385=CARTESIAN_POINT('',(29.6773269960579,0.597322400692233,0.));
#1386=CARTESIAN_POINT('',(51.3318402129245,-11.9062761605915,5.));
#1387=CARTESIAN_POINT('',(59.9918588128688,-16.9066839288258,5.));
#1388=CARTESIAN_POINT('',(51.3318402129245,-11.9062761605915,0.));
#1389=CARTESIAN_POINT('Origin',(61.3326557493932,5.41376103929717,0.));
#1390=CARTESIAN_POINT('',(52.6696669116383,-9.58934429596177,0.));
#1391=CARTESIAN_POINT('',(51.3318402129245,-11.9062761605915,5.));
#1392=CARTESIAN_POINT('Origin',(60.662257281131,-5.74646144476432,5.));
#1393=CARTESIAN_POINT('Origin',(0.697651640150179,0.414747491346619,0.));
#1394=CARTESIAN_POINT('',(20.,50.412486726216,0.));
#1395=CARTESIAN_POINT('',(20.,25.4136171087813,0.));
#1396=CARTESIAN_POINT('',(-20.,50.412486726216,0.));
#1397=CARTESIAN_POINT('',(-9.65117417992491,50.412486726216,0.));
#1398=CARTESIAN_POINT('',(-20.,30.4136171087813,0.));
#1399=CARTESIAN_POINT('',(-68.5973710690371,0.401915290263427,0.));
#1400=CARTESIAN_POINT('',(-58.5900629335278,-16.9143713752134,0.));
#1401=CARTESIAN_POINT('',(-42.5926082729561,-44.5957924995894,0.));
#1402=CARTESIAN_POINT('',(-59.9392277362987,5.40556935801809,0.));
#1403=CARTESIAN_POINT('',(-38.2925513425371,17.9154662525936,0.));
#1404=CARTESIAN_POINT('',(-49.9319196007894,-11.9107173074587,0.));
#1405=CARTESIAN_POINT('',(-46.2638103740813,-18.2578818026316,0.));
#1406=CARTESIAN_POINT('',(-32.614314873397,-1.90264744676049,0.));
#1407=CARTESIAN_POINT('Origin',(-49.9319196007894,-11.9107173074587,0.));
#1408=CARTESIAN_POINT('',(-59.9392277362987,5.40556935801809,5.));
#1409=CARTESIAN_POINT('',(-59.9392277362987,5.40556935801809,0.));
#1410=CARTESIAN_POINT('',(-49.9319196007894,-11.9107173074587,5.));
#1411=CARTESIAN_POINT('',(-49.9319196007894,-11.9107173074587,5.));
#1412=CARTESIAN_POINT('',(-49.9319196007894,-11.9107173074587,0.));
#1413=CARTESIAN_POINT('Origin',(-58.5900629335278,-16.9143713752134,0.));
#1414=CARTESIAN_POINT('',(-58.5900629335278,-16.9143713752134,5.));
#1415=CARTESIAN_POINT('',(-58.5900629335278,-16.9143713752134,5.));
#1416=CARTESIAN_POINT('',(-58.5900629335278,-16.9143713752134,0.));
#1417=CARTESIAN_POINT('Origin',(-59.9392277362987,5.40556935801809,0.));
#1418=CARTESIAN_POINT('',(-68.5973710690371,0.401915290263427,5.));
#1419=CARTESIAN_POINT('',(-68.5973710690371,0.401915290263427,0.));
#1420=CARTESIAN_POINT('',(-59.9392277362987,5.40556935801809,5.));
#1421=CARTESIAN_POINT('Origin',(-59.2646453349133,-5.75440100859764,5.));
#1422=CARTESIAN_POINT('',(-68.5973710690371,0.401915290263427,5.));
#1423=CARTESIAN_POINT('Origin',(20.,50.412486726216,0.));
#1424=CARTESIAN_POINT('',(20.,50.412486726216,5.));
#1425=CARTESIAN_POINT('',(20.,60.412486726216,5.));
#1426=CARTESIAN_POINT('',(20.,50.412486726216,0.));
#1427=CARTESIAN_POINT('Origin',(-20.,50.412486726216,0.));
#1428=CARTESIAN_POINT('',(-20.,50.412486726216,5.));
#1429=CARTESIAN_POINT('',(-20.,50.412486726216,5.));
#1430=CARTESIAN_POINT('',(-20.,50.412486726216,0.));
#1431=CARTESIAN_POINT('Origin',(-20.,60.412486726216,0.));
#1432=CARTESIAN_POINT('',(-20.,60.412486726216,5.));
#1433=CARTESIAN_POINT('Origin',(0.,55.412486726216,5.));
#1434=CARTESIAN_POINT('Origin',(-33.9313101655894,-59.5829917435228,0.));
#1435=CARTESIAN_POINT('Origin',(0.697651640150179,0.414747491346619,-2.));
#1436=UNCERTAINTY_MEASURE_WITH_UNIT(LENGTH_MEASURE(0.01),#1440,
'DISTANCE_ACCURACY_VALUE',
'Maximum model space distance between geometric entities at asserted c
onnectivities');
#1437=UNCERTAINTY_MEASURE_WITH_UNIT(LENGTH_MEASURE(0.01),#1440,
'DISTANCE_ACCURACY_VALUE',
'Maximum model space distance between geometric entities at asserted c
onnectivities');
#1438=(
GEOMETRIC_REPRESENTATION_CONTEXT(3)
GLOBAL_UNCERTAINTY_ASSIGNED_CONTEXT((#1436))
GLOBAL_UNIT_ASSIGNED_CONTEXT((#1440,#1441,#1442))
REPRESENTATION_CONTEXT('','3D')
);
#1439=(
GEOMETRIC_REPRESENTATION_CONTEXT(3)
GLOBAL_UNCERTAINTY_ASSIGNED_CONTEXT((#1437))
GLOBAL_UNIT_ASSIGNED_CONTEXT((#1440,#1441,#1442))
REPRESENTATION_CONTEXT('','3D')
);
#1440=(
LENGTH_UNIT()
NAMED_UNIT(*)
SI_UNIT(.MILLI.,.METRE.)
);
#1441=(
NAMED_UNIT(*)
PLANE_ANGLE_UNIT()
SI_UNIT($,.RADIAN.)
);
#1442=(
NAMED_UNIT(*)
SI_UNIT($,.STERADIAN.)
SOLID_ANGLE_UNIT()
);
#1443=SHAPE_DEFINITION_REPRESENTATION(#1444,#1445);
#1444=PRODUCT_DEFINITION_SHAPE('',$,#1447);
#1445=SHAPE_REPRESENTATION('',(#912),#1438);
#1446=PRODUCT_DEFINITION_CONTEXT('part definition',#1451,'design');
#1447=PRODUCT_DEFINITION('2026-04-24-20-56-13-155','HexiLux v9',#1448,#1446);
#1448=PRODUCT_DEFINITION_FORMATION('',$,#1453);
#1449=PRODUCT_RELATED_PRODUCT_CATEGORY('HexiLux v9','HexiLux v9',(#1453));
#1450=APPLICATION_PROTOCOL_DEFINITION('international standard',
'automotive_design',2009,#1451);
#1451=APPLICATION_CONTEXT(
'Core Data for Automotive Mechanical Design Process');
#1452=PRODUCT_CONTEXT('part definition',#1451,'mechanical');
#1453=PRODUCT('2026-04-24-20-56-13-155','HexiLux v9',$,(#1452));
#1454=PRESENTATION_STYLE_ASSIGNMENT((#1455));
#1455=SURFACE_STYLE_USAGE(.BOTH.,#1456);
#1456=SURFACE_SIDE_STYLE('',(#1457));
#1457=SURFACE_STYLE_FILL_AREA(#1458);
#1458=FILL_AREA_STYLE('Steel - Satin',(#1459));
#1459=FILL_AREA_STYLE_COLOUR('Steel - Satin',#1460);
#1460=COLOUR_RGB('Steel - Satin',0.627450980392157,0.627450980392157,0.627450980392157);
ENDSEC;
END-ISO-10303-21;
