M48
; DRILL file {KiCad 9.0.6} date 2026-04-24T20:54:10+0800
; FORMAT={-:-/ absolute / metric / decimal}
; #@! TF.CreationDate,2026-04-24T20:54:10+08:00
; #@! TF.GenerationSoftware,Kicad,Pcbnew,9.0.6
; #@! TF.FileFunction,Plated,1,2,PTH
FMAT,2
METRIC
; #@! TA.AperFunction,Plated,PTH,ViaDrill
T1C0.300
; #@! TA.AperFunction,Plated,PTH,ComponentDrill
T2C0.650
; #@! TA.AperFunction,Plated,PTH,ComponentDrill
T3C0.813
; #@! TA.AperFunction,Plated,PTH,ComponentDrill
T4C0.864
; #@! TA.AperFunction,Plated,PTH,ComponentDrill
T5C0.889
; #@! TA.AperFunction,Plated,PTH,ComponentDrill
T6C1.000
; #@! TA.AperFunction,Plated,PTH,ComponentDrill
T7C1.250
%
G90
G05
T1
X67.846Y-90.075
X72.746Y-70.775
X72.746Y-115.775
X90.346Y-45.075
X90.346Y-90.075
X95.246Y-70.775
X95.246Y-115.775
X98.84Y-140.8
X101.76Y-140.8
X112.846Y-90.075
X112.846Y-45.075
X112.846Y-135.175
X117.746Y-70.775
X117.746Y-115.775
X117.746Y-135.175
X135.346Y-45.075
X135.346Y-90.075
X135.346Y-138.275
X140.246Y-70.775
X140.246Y-115.775
X157.846Y-90.075
X162.746Y-70.775
X162.746Y-115.775
T3
X89.5Y-143.0
X92.0Y-143.0
X100.246Y-127.275
X100.246Y-132.275
X128.25Y-128.0
X130.75Y-128.0
T4
X83.007Y-147.775
X97.485Y-147.775
X148.0Y-133.761
X148.0Y-148.239
T5
X107.626Y-131.535
X107.626Y-134.075
X107.626Y-136.615
X107.626Y-139.155
X107.626Y-141.695
X107.626Y-144.235
X107.626Y-146.775
X122.866Y-131.535
X122.866Y-134.075
X122.866Y-136.615
X122.866Y-139.155
X122.866Y-141.695
X122.866Y-144.235
X122.866Y-146.775
T6
X76.246Y-122.235
X76.246Y-124.775
X76.246Y-127.315
X84.246Y-122.235
X84.246Y-124.775
X84.246Y-127.315
T7
X141.75Y-123.0
X141.75Y-128.0
X154.25Y-123.0
X154.25Y-128.0
T2
X132.18Y-143.837G85X132.18Y-144.937
G05
X132.18Y-148.167G85X132.18Y-148.967
G05
X140.82Y-143.837G85X140.82Y-144.937
G05
X140.82Y-148.167G85X140.82Y-148.967
G05
M30
