%TF.GenerationSoftware,KiCad,Pcbnew,9.0.6*%
%TF.CreationDate,2026-04-25T11:40:18+08:00*%
%TF.ProjectId,HexiLux-v1,48657869-4c75-4782-9d76-312e6b696361,rev?*%
%TF.SameCoordinates,Original*%
%TF.FileFunction,Drillmap*%
%TF.FilePolarity,Positive*%
%FSLAX45Y45*%
G04 Gerber Fmt 4.5, Leading zero omitted, Abs format (unit mm)*
G04 Created by KiCad (PCBNEW 9.0.6) date 2026-04-25 11:40:18*
%MOMM*%
%LPD*%
G01*
G04 APERTURE LIST*
%ADD10C,0.050000*%
%ADD11C,0.200000*%
%ADD12C,0.100000*%
%ADD13C,0.125000*%
G04 APERTURE END LIST*
D10*
X8065453Y-3167470D02*
X14993653Y-3167470D01*
X18457753Y-9167467D02*
X14993653Y-15167465D01*
X4601353Y-9167467D02*
X8065453Y-3167470D01*
X14993653Y-15167465D02*
X8065453Y-15167465D01*
X14993653Y-3167470D02*
X18457753Y-9167467D01*
X8065453Y-15167465D02*
X4601353Y-9167467D01*
D11*
D12*
X6769553Y-8992467D02*
X6799553Y-9022467D01*
X6799553Y-8992467D02*
X6769553Y-9022467D01*
X7259553Y-7062467D02*
X7289553Y-7092467D01*
X7289553Y-7062467D02*
X7259553Y-7092467D01*
X7259553Y-11562467D02*
X7289553Y-11592467D01*
X7289553Y-11562467D02*
X7259553Y-11592467D01*
X9019553Y-4492468D02*
X9049553Y-4522468D01*
X9049553Y-4492468D02*
X9019553Y-4522468D01*
X9019553Y-8992468D02*
X9049553Y-9022468D01*
X9049553Y-8992468D02*
X9019553Y-9022468D01*
X9509553Y-7062467D02*
X9539553Y-7092467D01*
X9539553Y-7062467D02*
X9509553Y-7092467D01*
X9509553Y-11562467D02*
X9539553Y-11592467D01*
X9539553Y-11562467D02*
X9509553Y-11592467D01*
X9869000Y-14065000D02*
X9899000Y-14095000D01*
X9899000Y-14065000D02*
X9869000Y-14095000D01*
X10161000Y-14065000D02*
X10191000Y-14095000D01*
X10191000Y-14065000D02*
X10161000Y-14095000D01*
X11269553Y-8992467D02*
X11299553Y-9022467D01*
X11299553Y-8992467D02*
X11269553Y-9022467D01*
X11269553Y-4492468D02*
X11299553Y-4522468D01*
X11299553Y-4492468D02*
X11269553Y-4522468D01*
X11269553Y-13502467D02*
X11299553Y-13532467D01*
X11299553Y-13502467D02*
X11269553Y-13532467D01*
X11759553Y-7062467D02*
X11789553Y-7092467D01*
X11789553Y-7062467D02*
X11759553Y-7092467D01*
X11759553Y-11562467D02*
X11789553Y-11592467D01*
X11789553Y-11562467D02*
X11759553Y-11592467D01*
X11759553Y-13502467D02*
X11789553Y-13532467D01*
X11789553Y-13502467D02*
X11759553Y-13532467D01*
X13519553Y-4492467D02*
X13549553Y-4522467D01*
X13549553Y-4492467D02*
X13519553Y-4522467D01*
X13519553Y-8992467D02*
X13549553Y-9022467D01*
X13549553Y-8992467D02*
X13519553Y-9022467D01*
X13519553Y-13812467D02*
X13549553Y-13842467D01*
X13549553Y-13812467D02*
X13519553Y-13842467D01*
X14009553Y-7062467D02*
X14039553Y-7092467D01*
X14039553Y-7062467D02*
X14009553Y-7092467D01*
X14009553Y-11562467D02*
X14039553Y-11592467D01*
X14039553Y-11562467D02*
X14009553Y-11592467D01*
X15769553Y-8992467D02*
X15799553Y-9022467D01*
X15799553Y-8992467D02*
X15769553Y-9022467D01*
X16259553Y-7062467D02*
X16289553Y-7092467D01*
X16289553Y-7062467D02*
X16259553Y-7092467D01*
X16259553Y-11562467D02*
X16289553Y-11592467D01*
X16289553Y-11562467D02*
X16259553Y-11592467D01*
X13250500Y-14438700D02*
G75*
G02*
X13185500Y-14438700I-32500J0D01*
G01*
X13185500Y-14438700D02*
G75*
G02*
X13250500Y-14438700I32500J0D01*
G01*
X13185500Y-14383700D02*
X13185500Y-14493700D01*
X13250500Y-14493700D02*
G75*
G02*
X13185500Y-14493700I-32500J0D01*
G01*
X13250500Y-14493700D02*
X13250500Y-14383700D01*
X13250500Y-14383700D02*
G75*
G03*
X13185500Y-14383700I-32500J0D01*
G01*
X13250500Y-14856700D02*
G75*
G02*
X13185500Y-14856700I-32500J0D01*
G01*
X13185500Y-14856700D02*
G75*
G02*
X13250500Y-14856700I32500J0D01*
G01*
X13185500Y-14816700D02*
X13185500Y-14896700D01*
X13250500Y-14896700D02*
G75*
G02*
X13185500Y-14896700I-32500J0D01*
G01*
X13250500Y-14896700D02*
X13250500Y-14816700D01*
X13250500Y-14816700D02*
G75*
G03*
X13185500Y-14816700I-32500J0D01*
G01*
X14114500Y-14438700D02*
G75*
G02*
X14049500Y-14438700I-32500J0D01*
G01*
X14049500Y-14438700D02*
G75*
G02*
X14114500Y-14438700I32500J0D01*
G01*
X14049500Y-14383700D02*
X14049500Y-14493700D01*
X14114500Y-14493700D02*
G75*
G02*
X14049500Y-14493700I-32500J0D01*
G01*
X14114500Y-14493700D02*
X14114500Y-14383700D01*
X14114500Y-14383700D02*
G75*
G03*
X14049500Y-14383700I-32500J0D01*
G01*
X14114500Y-14856700D02*
G75*
G02*
X14049500Y-14856700I-32500J0D01*
G01*
X14049500Y-14856700D02*
G75*
G02*
X14114500Y-14856700I32500J0D01*
G01*
X14049500Y-14816700D02*
X14049500Y-14896700D01*
X14114500Y-14896700D02*
G75*
G02*
X14049500Y-14896700I-32500J0D01*
G01*
X14114500Y-14896700D02*
X14114500Y-14816700D01*
X14114500Y-14816700D02*
G75*
G03*
X14049500Y-14816700I-32500J0D01*
G01*
X8950000Y-14259360D02*
X8950000Y-14340640D01*
X8909360Y-14300000D02*
X8990640Y-14300000D01*
X9200000Y-14259360D02*
X9200000Y-14340640D01*
X9159360Y-14300000D02*
X9240640Y-14300000D01*
X10024553Y-12686827D02*
X10024553Y-12768107D01*
X9983913Y-12727467D02*
X10065193Y-12727467D01*
X10024553Y-13186827D02*
X10024553Y-13268107D01*
X9983913Y-13227467D02*
X10065193Y-13227467D01*
X12825000Y-12759360D02*
X12825000Y-12840640D01*
X12784360Y-12800000D02*
X12865640Y-12800000D01*
X13075000Y-12759360D02*
X13075000Y-12840640D01*
X13034360Y-12800000D02*
X13115640Y-12800000D01*
X8331186Y-14808000D02*
X8331186Y-14746934D01*
X8270120Y-14746934D01*
X8270120Y-14808000D01*
X8331186Y-14808000D01*
X9778986Y-14808000D02*
X9778986Y-14746934D01*
X9717920Y-14746934D01*
X9717920Y-14808000D01*
X9778986Y-14808000D01*
X14830533Y-13406633D02*
X14830533Y-13345567D01*
X14769467Y-13345567D01*
X14769467Y-13406633D01*
X14830533Y-13406633D01*
X14830533Y-14854433D02*
X14830533Y-14793367D01*
X14769467Y-14793367D01*
X14769467Y-14854433D01*
X14830533Y-14854433D01*
X10762553Y-13197917D02*
X10807003Y-13153467D01*
X10762553Y-13109017D01*
X10718103Y-13153467D01*
X10762553Y-13197917D01*
X10762553Y-13451917D02*
X10807003Y-13407467D01*
X10762553Y-13363017D01*
X10718103Y-13407467D01*
X10762553Y-13451917D01*
X10762553Y-13705917D02*
X10807003Y-13661467D01*
X10762553Y-13617017D01*
X10718103Y-13661467D01*
X10762553Y-13705917D01*
X10762553Y-13959917D02*
X10807003Y-13915467D01*
X10762553Y-13871017D01*
X10718103Y-13915467D01*
X10762553Y-13959917D01*
X10762553Y-14213917D02*
X10807003Y-14169467D01*
X10762553Y-14125017D01*
X10718103Y-14169467D01*
X10762553Y-14213917D01*
X10762553Y-14467917D02*
X10807003Y-14423467D01*
X10762553Y-14379017D01*
X10718103Y-14423467D01*
X10762553Y-14467917D01*
X10762553Y-14721917D02*
X10807003Y-14677467D01*
X10762553Y-14633017D01*
X10718103Y-14677467D01*
X10762553Y-14721917D01*
X12286553Y-13197917D02*
X12331003Y-13153467D01*
X12286553Y-13109017D01*
X12242103Y-13153467D01*
X12286553Y-13197917D01*
X12286553Y-13451917D02*
X12331003Y-13407467D01*
X12286553Y-13363017D01*
X12242103Y-13407467D01*
X12286553Y-13451917D01*
X12286553Y-13705917D02*
X12331003Y-13661467D01*
X12286553Y-13617017D01*
X12242103Y-13661467D01*
X12286553Y-13705917D01*
X12286553Y-13959917D02*
X12331003Y-13915467D01*
X12286553Y-13871017D01*
X12242103Y-13915467D01*
X12286553Y-13959917D01*
X12286553Y-14213917D02*
X12331003Y-14169467D01*
X12286553Y-14125017D01*
X12242103Y-14169467D01*
X12286553Y-14213917D01*
X12286553Y-14467917D02*
X12331003Y-14423467D01*
X12286553Y-14379017D01*
X12242103Y-14423467D01*
X12286553Y-14467917D01*
X12286553Y-14721917D02*
X12331003Y-14677467D01*
X12286553Y-14633017D01*
X12242103Y-14677467D01*
X12286553Y-14721917D01*
X7574553Y-12173467D02*
X7674553Y-12273467D01*
X7674553Y-12173467D02*
X7574553Y-12273467D01*
X7674553Y-12223467D02*
G75*
G02*
X7574553Y-12223467I-50000J0D01*
G01*
X7574553Y-12223467D02*
G75*
G02*
X7674553Y-12223467I50000J0D01*
G01*
X7574553Y-12427467D02*
X7674553Y-12527467D01*
X7674553Y-12427467D02*
X7574553Y-12527467D01*
X7674553Y-12477467D02*
G75*
G02*
X7574553Y-12477467I-50000J0D01*
G01*
X7574553Y-12477467D02*
G75*
G02*
X7674553Y-12477467I50000J0D01*
G01*
X7574553Y-12681467D02*
X7674553Y-12781467D01*
X7674553Y-12681467D02*
X7574553Y-12781467D01*
X7674553Y-12731467D02*
G75*
G02*
X7574553Y-12731467I-50000J0D01*
G01*
X7574553Y-12731467D02*
G75*
G02*
X7674553Y-12731467I50000J0D01*
G01*
X8374553Y-12173467D02*
X8474553Y-12273467D01*
X8474553Y-12173467D02*
X8374553Y-12273467D01*
X8474553Y-12223467D02*
G75*
G02*
X8374553Y-12223467I-50000J0D01*
G01*
X8374553Y-12223467D02*
G75*
G02*
X8474553Y-12223467I50000J0D01*
G01*
X8374553Y-12427467D02*
X8474553Y-12527467D01*
X8474553Y-12427467D02*
X8374553Y-12527467D01*
X8474553Y-12477467D02*
G75*
G02*
X8374553Y-12477467I-50000J0D01*
G01*
X8374553Y-12477467D02*
G75*
G02*
X8474553Y-12477467I50000J0D01*
G01*
X8374553Y-12681467D02*
X8474553Y-12781467D01*
X8474553Y-12681467D02*
X8374553Y-12781467D01*
X8474553Y-12731467D02*
G75*
G02*
X8374553Y-12731467I-50000J0D01*
G01*
X8374553Y-12731467D02*
G75*
G02*
X8474553Y-12731467I50000J0D01*
G01*
D13*
X14112500Y-12237500D02*
X14237500Y-12362500D01*
X14237500Y-12237500D02*
X14112500Y-12362500D01*
X14175000Y-12237500D02*
X14175000Y-12362500D01*
X14112500Y-12300000D02*
X14237500Y-12300000D01*
X14112500Y-12737500D02*
X14237500Y-12862500D01*
X14237500Y-12737500D02*
X14112500Y-12862500D01*
X14175000Y-12737500D02*
X14175000Y-12862500D01*
X14112500Y-12800000D02*
X14237500Y-12800000D01*
X15362500Y-12237500D02*
X15487500Y-12362500D01*
X15487500Y-12237500D02*
X15362500Y-12362500D01*
X15425000Y-12237500D02*
X15425000Y-12362500D01*
X15362500Y-12300000D02*
X15487500Y-12300000D01*
X15362500Y-12737500D02*
X15487500Y-12862500D01*
X15487500Y-12737500D02*
X15362500Y-12862500D01*
X15425000Y-12737500D02*
X15425000Y-12862500D01*
X15362500Y-12800000D02*
X15487500Y-12800000D01*
D11*
X4859630Y-15481448D02*
X4859630Y-15281448D01*
X4859630Y-15281448D02*
X4907249Y-15281448D01*
X4907249Y-15281448D02*
X4935820Y-15290972D01*
X4935820Y-15290972D02*
X4954868Y-15310020D01*
X4954868Y-15310020D02*
X4964392Y-15329067D01*
X4964392Y-15329067D02*
X4973915Y-15367163D01*
X4973915Y-15367163D02*
X4973915Y-15395734D01*
X4973915Y-15395734D02*
X4964392Y-15433829D01*
X4964392Y-15433829D02*
X4954868Y-15452877D01*
X4954868Y-15452877D02*
X4935820Y-15471925D01*
X4935820Y-15471925D02*
X4907249Y-15481448D01*
X4907249Y-15481448D02*
X4859630Y-15481448D01*
X5059630Y-15481448D02*
X5059630Y-15348115D01*
X5059630Y-15386210D02*
X5069154Y-15367163D01*
X5069154Y-15367163D02*
X5078677Y-15357639D01*
X5078677Y-15357639D02*
X5097725Y-15348115D01*
X5097725Y-15348115D02*
X5116773Y-15348115D01*
X5183439Y-15481448D02*
X5183439Y-15348115D01*
X5183439Y-15281448D02*
X5173915Y-15290972D01*
X5173915Y-15290972D02*
X5183439Y-15300496D01*
X5183439Y-15300496D02*
X5192963Y-15290972D01*
X5192963Y-15290972D02*
X5183439Y-15281448D01*
X5183439Y-15281448D02*
X5183439Y-15300496D01*
X5307249Y-15481448D02*
X5288201Y-15471925D01*
X5288201Y-15471925D02*
X5278677Y-15452877D01*
X5278677Y-15452877D02*
X5278677Y-15281448D01*
X5412011Y-15481448D02*
X5392963Y-15471925D01*
X5392963Y-15471925D02*
X5383439Y-15452877D01*
X5383439Y-15452877D02*
X5383439Y-15281448D01*
X5640582Y-15481448D02*
X5640582Y-15281448D01*
X5640582Y-15281448D02*
X5707249Y-15424306D01*
X5707249Y-15424306D02*
X5773915Y-15281448D01*
X5773915Y-15281448D02*
X5773915Y-15481448D01*
X5954868Y-15481448D02*
X5954868Y-15376687D01*
X5954868Y-15376687D02*
X5945344Y-15357639D01*
X5945344Y-15357639D02*
X5926296Y-15348115D01*
X5926296Y-15348115D02*
X5888201Y-15348115D01*
X5888201Y-15348115D02*
X5869153Y-15357639D01*
X5954868Y-15471925D02*
X5935820Y-15481448D01*
X5935820Y-15481448D02*
X5888201Y-15481448D01*
X5888201Y-15481448D02*
X5869153Y-15471925D01*
X5869153Y-15471925D02*
X5859630Y-15452877D01*
X5859630Y-15452877D02*
X5859630Y-15433829D01*
X5859630Y-15433829D02*
X5869153Y-15414782D01*
X5869153Y-15414782D02*
X5888201Y-15405258D01*
X5888201Y-15405258D02*
X5935820Y-15405258D01*
X5935820Y-15405258D02*
X5954868Y-15395734D01*
X6050106Y-15348115D02*
X6050106Y-15548115D01*
X6050106Y-15357639D02*
X6069153Y-15348115D01*
X6069153Y-15348115D02*
X6107249Y-15348115D01*
X6107249Y-15348115D02*
X6126296Y-15357639D01*
X6126296Y-15357639D02*
X6135820Y-15367163D01*
X6135820Y-15367163D02*
X6145344Y-15386210D01*
X6145344Y-15386210D02*
X6145344Y-15443353D01*
X6145344Y-15443353D02*
X6135820Y-15462401D01*
X6135820Y-15462401D02*
X6126296Y-15471925D01*
X6126296Y-15471925D02*
X6107249Y-15481448D01*
X6107249Y-15481448D02*
X6069153Y-15481448D01*
X6069153Y-15481448D02*
X6050106Y-15471925D01*
X6231058Y-15462401D02*
X6240582Y-15471925D01*
X6240582Y-15471925D02*
X6231058Y-15481448D01*
X6231058Y-15481448D02*
X6221534Y-15471925D01*
X6221534Y-15471925D02*
X6231058Y-15462401D01*
X6231058Y-15462401D02*
X6231058Y-15481448D01*
X6231058Y-15357639D02*
X6240582Y-15367163D01*
X6240582Y-15367163D02*
X6231058Y-15376687D01*
X6231058Y-15376687D02*
X6221534Y-15367163D01*
X6221534Y-15367163D02*
X6231058Y-15357639D01*
X6231058Y-15357639D02*
X6231058Y-15376687D01*
D12*
X4568853Y-15794965D02*
X4598853Y-15824965D01*
X4598853Y-15794965D02*
X4568853Y-15824965D01*
D11*
X4897725Y-15701448D02*
X4916773Y-15701448D01*
X4916773Y-15701448D02*
X4935820Y-15710972D01*
X4935820Y-15710972D02*
X4945344Y-15720496D01*
X4945344Y-15720496D02*
X4954868Y-15739544D01*
X4954868Y-15739544D02*
X4964392Y-15777639D01*
X4964392Y-15777639D02*
X4964392Y-15825258D01*
X4964392Y-15825258D02*
X4954868Y-15863353D01*
X4954868Y-15863353D02*
X4945344Y-15882401D01*
X4945344Y-15882401D02*
X4935820Y-15891925D01*
X4935820Y-15891925D02*
X4916773Y-15901448D01*
X4916773Y-15901448D02*
X4897725Y-15901448D01*
X4897725Y-15901448D02*
X4878677Y-15891925D01*
X4878677Y-15891925D02*
X4869154Y-15882401D01*
X4869154Y-15882401D02*
X4859630Y-15863353D01*
X4859630Y-15863353D02*
X4850106Y-15825258D01*
X4850106Y-15825258D02*
X4850106Y-15777639D01*
X4850106Y-15777639D02*
X4859630Y-15739544D01*
X4859630Y-15739544D02*
X4869154Y-15720496D01*
X4869154Y-15720496D02*
X4878677Y-15710972D01*
X4878677Y-15710972D02*
X4897725Y-15701448D01*
X5050106Y-15882401D02*
X5059630Y-15891925D01*
X5059630Y-15891925D02*
X5050106Y-15901448D01*
X5050106Y-15901448D02*
X5040582Y-15891925D01*
X5040582Y-15891925D02*
X5050106Y-15882401D01*
X5050106Y-15882401D02*
X5050106Y-15901448D01*
X5126296Y-15701448D02*
X5250106Y-15701448D01*
X5250106Y-15701448D02*
X5183439Y-15777639D01*
X5183439Y-15777639D02*
X5212011Y-15777639D01*
X5212011Y-15777639D02*
X5231058Y-15787163D01*
X5231058Y-15787163D02*
X5240582Y-15796687D01*
X5240582Y-15796687D02*
X5250106Y-15815734D01*
X5250106Y-15815734D02*
X5250106Y-15863353D01*
X5250106Y-15863353D02*
X5240582Y-15882401D01*
X5240582Y-15882401D02*
X5231058Y-15891925D01*
X5231058Y-15891925D02*
X5212011Y-15901448D01*
X5212011Y-15901448D02*
X5154868Y-15901448D01*
X5154868Y-15901448D02*
X5135820Y-15891925D01*
X5135820Y-15891925D02*
X5126296Y-15882401D01*
X5373915Y-15701448D02*
X5392963Y-15701448D01*
X5392963Y-15701448D02*
X5412011Y-15710972D01*
X5412011Y-15710972D02*
X5421535Y-15720496D01*
X5421535Y-15720496D02*
X5431058Y-15739544D01*
X5431058Y-15739544D02*
X5440582Y-15777639D01*
X5440582Y-15777639D02*
X5440582Y-15825258D01*
X5440582Y-15825258D02*
X5431058Y-15863353D01*
X5431058Y-15863353D02*
X5421535Y-15882401D01*
X5421535Y-15882401D02*
X5412011Y-15891925D01*
X5412011Y-15891925D02*
X5392963Y-15901448D01*
X5392963Y-15901448D02*
X5373915Y-15901448D01*
X5373915Y-15901448D02*
X5354868Y-15891925D01*
X5354868Y-15891925D02*
X5345344Y-15882401D01*
X5345344Y-15882401D02*
X5335820Y-15863353D01*
X5335820Y-15863353D02*
X5326296Y-15825258D01*
X5326296Y-15825258D02*
X5326296Y-15777639D01*
X5326296Y-15777639D02*
X5335820Y-15739544D01*
X5335820Y-15739544D02*
X5345344Y-15720496D01*
X5345344Y-15720496D02*
X5354868Y-15710972D01*
X5354868Y-15710972D02*
X5373915Y-15701448D01*
X5564392Y-15701448D02*
X5583439Y-15701448D01*
X5583439Y-15701448D02*
X5602487Y-15710972D01*
X5602487Y-15710972D02*
X5612011Y-15720496D01*
X5612011Y-15720496D02*
X5621534Y-15739544D01*
X5621534Y-15739544D02*
X5631058Y-15777639D01*
X5631058Y-15777639D02*
X5631058Y-15825258D01*
X5631058Y-15825258D02*
X5621534Y-15863353D01*
X5621534Y-15863353D02*
X5612011Y-15882401D01*
X5612011Y-15882401D02*
X5602487Y-15891925D01*
X5602487Y-15891925D02*
X5583439Y-15901448D01*
X5583439Y-15901448D02*
X5564392Y-15901448D01*
X5564392Y-15901448D02*
X5545344Y-15891925D01*
X5545344Y-15891925D02*
X5535820Y-15882401D01*
X5535820Y-15882401D02*
X5526296Y-15863353D01*
X5526296Y-15863353D02*
X5516773Y-15825258D01*
X5516773Y-15825258D02*
X5516773Y-15777639D01*
X5516773Y-15777639D02*
X5526296Y-15739544D01*
X5526296Y-15739544D02*
X5535820Y-15720496D01*
X5535820Y-15720496D02*
X5545344Y-15710972D01*
X5545344Y-15710972D02*
X5564392Y-15701448D01*
X5716773Y-15901448D02*
X5716773Y-15768115D01*
X5716773Y-15787163D02*
X5726296Y-15777639D01*
X5726296Y-15777639D02*
X5745344Y-15768115D01*
X5745344Y-15768115D02*
X5773915Y-15768115D01*
X5773915Y-15768115D02*
X5792963Y-15777639D01*
X5792963Y-15777639D02*
X5802487Y-15796687D01*
X5802487Y-15796687D02*
X5802487Y-15901448D01*
X5802487Y-15796687D02*
X5812011Y-15777639D01*
X5812011Y-15777639D02*
X5831058Y-15768115D01*
X5831058Y-15768115D02*
X5859630Y-15768115D01*
X5859630Y-15768115D02*
X5878677Y-15777639D01*
X5878677Y-15777639D02*
X5888201Y-15796687D01*
X5888201Y-15796687D02*
X5888201Y-15901448D01*
X5983439Y-15901448D02*
X5983439Y-15768115D01*
X5983439Y-15787163D02*
X5992963Y-15777639D01*
X5992963Y-15777639D02*
X6012011Y-15768115D01*
X6012011Y-15768115D02*
X6040582Y-15768115D01*
X6040582Y-15768115D02*
X6059630Y-15777639D01*
X6059630Y-15777639D02*
X6069154Y-15796687D01*
X6069154Y-15796687D02*
X6069154Y-15901448D01*
X6069154Y-15796687D02*
X6078677Y-15777639D01*
X6078677Y-15777639D02*
X6097725Y-15768115D01*
X6097725Y-15768115D02*
X6126296Y-15768115D01*
X6126296Y-15768115D02*
X6145344Y-15777639D01*
X6145344Y-15777639D02*
X6154868Y-15796687D01*
X6154868Y-15796687D02*
X6154868Y-15901448D01*
X6545344Y-15691925D02*
X6373916Y-15949067D01*
X6802487Y-15701448D02*
X6821535Y-15701448D01*
X6821535Y-15701448D02*
X6840582Y-15710972D01*
X6840582Y-15710972D02*
X6850106Y-15720496D01*
X6850106Y-15720496D02*
X6859630Y-15739544D01*
X6859630Y-15739544D02*
X6869154Y-15777639D01*
X6869154Y-15777639D02*
X6869154Y-15825258D01*
X6869154Y-15825258D02*
X6859630Y-15863353D01*
X6859630Y-15863353D02*
X6850106Y-15882401D01*
X6850106Y-15882401D02*
X6840582Y-15891925D01*
X6840582Y-15891925D02*
X6821535Y-15901448D01*
X6821535Y-15901448D02*
X6802487Y-15901448D01*
X6802487Y-15901448D02*
X6783439Y-15891925D01*
X6783439Y-15891925D02*
X6773916Y-15882401D01*
X6773916Y-15882401D02*
X6764392Y-15863353D01*
X6764392Y-15863353D02*
X6754868Y-15825258D01*
X6754868Y-15825258D02*
X6754868Y-15777639D01*
X6754868Y-15777639D02*
X6764392Y-15739544D01*
X6764392Y-15739544D02*
X6773916Y-15720496D01*
X6773916Y-15720496D02*
X6783439Y-15710972D01*
X6783439Y-15710972D02*
X6802487Y-15701448D01*
X6954868Y-15882401D02*
X6964392Y-15891925D01*
X6964392Y-15891925D02*
X6954868Y-15901448D01*
X6954868Y-15901448D02*
X6945344Y-15891925D01*
X6945344Y-15891925D02*
X6954868Y-15882401D01*
X6954868Y-15882401D02*
X6954868Y-15901448D01*
X7088201Y-15701448D02*
X7107249Y-15701448D01*
X7107249Y-15701448D02*
X7126297Y-15710972D01*
X7126297Y-15710972D02*
X7135820Y-15720496D01*
X7135820Y-15720496D02*
X7145344Y-15739544D01*
X7145344Y-15739544D02*
X7154868Y-15777639D01*
X7154868Y-15777639D02*
X7154868Y-15825258D01*
X7154868Y-15825258D02*
X7145344Y-15863353D01*
X7145344Y-15863353D02*
X7135820Y-15882401D01*
X7135820Y-15882401D02*
X7126297Y-15891925D01*
X7126297Y-15891925D02*
X7107249Y-15901448D01*
X7107249Y-15901448D02*
X7088201Y-15901448D01*
X7088201Y-15901448D02*
X7069154Y-15891925D01*
X7069154Y-15891925D02*
X7059630Y-15882401D01*
X7059630Y-15882401D02*
X7050106Y-15863353D01*
X7050106Y-15863353D02*
X7040582Y-15825258D01*
X7040582Y-15825258D02*
X7040582Y-15777639D01*
X7040582Y-15777639D02*
X7050106Y-15739544D01*
X7050106Y-15739544D02*
X7059630Y-15720496D01*
X7059630Y-15720496D02*
X7069154Y-15710972D01*
X7069154Y-15710972D02*
X7088201Y-15701448D01*
X7345344Y-15901448D02*
X7231058Y-15901448D01*
X7288201Y-15901448D02*
X7288201Y-15701448D01*
X7288201Y-15701448D02*
X7269154Y-15730020D01*
X7269154Y-15730020D02*
X7250106Y-15749067D01*
X7250106Y-15749067D02*
X7231058Y-15758591D01*
X7535820Y-15901448D02*
X7421535Y-15901448D01*
X7478677Y-15901448D02*
X7478677Y-15701448D01*
X7478677Y-15701448D02*
X7459630Y-15730020D01*
X7459630Y-15730020D02*
X7440582Y-15749067D01*
X7440582Y-15749067D02*
X7421535Y-15758591D01*
X7650106Y-15787163D02*
X7631058Y-15777639D01*
X7631058Y-15777639D02*
X7621535Y-15768115D01*
X7621535Y-15768115D02*
X7612011Y-15749067D01*
X7612011Y-15749067D02*
X7612011Y-15739544D01*
X7612011Y-15739544D02*
X7621535Y-15720496D01*
X7621535Y-15720496D02*
X7631058Y-15710972D01*
X7631058Y-15710972D02*
X7650106Y-15701448D01*
X7650106Y-15701448D02*
X7688201Y-15701448D01*
X7688201Y-15701448D02*
X7707249Y-15710972D01*
X7707249Y-15710972D02*
X7716773Y-15720496D01*
X7716773Y-15720496D02*
X7726297Y-15739544D01*
X7726297Y-15739544D02*
X7726297Y-15749067D01*
X7726297Y-15749067D02*
X7716773Y-15768115D01*
X7716773Y-15768115D02*
X7707249Y-15777639D01*
X7707249Y-15777639D02*
X7688201Y-15787163D01*
X7688201Y-15787163D02*
X7650106Y-15787163D01*
X7650106Y-15787163D02*
X7631058Y-15796687D01*
X7631058Y-15796687D02*
X7621535Y-15806210D01*
X7621535Y-15806210D02*
X7612011Y-15825258D01*
X7612011Y-15825258D02*
X7612011Y-15863353D01*
X7612011Y-15863353D02*
X7621535Y-15882401D01*
X7621535Y-15882401D02*
X7631058Y-15891925D01*
X7631058Y-15891925D02*
X7650106Y-15901448D01*
X7650106Y-15901448D02*
X7688201Y-15901448D01*
X7688201Y-15901448D02*
X7707249Y-15891925D01*
X7707249Y-15891925D02*
X7716773Y-15882401D01*
X7716773Y-15882401D02*
X7726297Y-15863353D01*
X7726297Y-15863353D02*
X7726297Y-15825258D01*
X7726297Y-15825258D02*
X7716773Y-15806210D01*
X7716773Y-15806210D02*
X7707249Y-15796687D01*
X7707249Y-15796687D02*
X7688201Y-15787163D01*
X7802487Y-15701448D02*
X7802487Y-15739544D01*
X7878678Y-15701448D02*
X7878678Y-15739544D01*
X8173916Y-15977639D02*
X8164392Y-15968115D01*
X8164392Y-15968115D02*
X8145344Y-15939544D01*
X8145344Y-15939544D02*
X8135820Y-15920496D01*
X8135820Y-15920496D02*
X8126297Y-15891925D01*
X8126297Y-15891925D02*
X8116773Y-15844306D01*
X8116773Y-15844306D02*
X8116773Y-15806210D01*
X8116773Y-15806210D02*
X8126297Y-15758591D01*
X8126297Y-15758591D02*
X8135820Y-15730020D01*
X8135820Y-15730020D02*
X8145344Y-15710972D01*
X8145344Y-15710972D02*
X8164392Y-15682401D01*
X8164392Y-15682401D02*
X8173916Y-15672877D01*
X8240582Y-15720496D02*
X8250106Y-15710972D01*
X8250106Y-15710972D02*
X8269154Y-15701448D01*
X8269154Y-15701448D02*
X8316773Y-15701448D01*
X8316773Y-15701448D02*
X8335820Y-15710972D01*
X8335820Y-15710972D02*
X8345344Y-15720496D01*
X8345344Y-15720496D02*
X8354868Y-15739544D01*
X8354868Y-15739544D02*
X8354868Y-15758591D01*
X8354868Y-15758591D02*
X8345344Y-15787163D01*
X8345344Y-15787163D02*
X8231059Y-15901448D01*
X8231059Y-15901448D02*
X8354868Y-15901448D01*
X8421535Y-15701448D02*
X8545344Y-15701448D01*
X8545344Y-15701448D02*
X8478678Y-15777639D01*
X8478678Y-15777639D02*
X8507249Y-15777639D01*
X8507249Y-15777639D02*
X8526297Y-15787163D01*
X8526297Y-15787163D02*
X8535821Y-15796687D01*
X8535821Y-15796687D02*
X8545344Y-15815734D01*
X8545344Y-15815734D02*
X8545344Y-15863353D01*
X8545344Y-15863353D02*
X8535821Y-15882401D01*
X8535821Y-15882401D02*
X8526297Y-15891925D01*
X8526297Y-15891925D02*
X8507249Y-15901448D01*
X8507249Y-15901448D02*
X8450106Y-15901448D01*
X8450106Y-15901448D02*
X8431059Y-15891925D01*
X8431059Y-15891925D02*
X8421535Y-15882401D01*
X8783440Y-15901448D02*
X8783440Y-15701448D01*
X8869154Y-15901448D02*
X8869154Y-15796687D01*
X8869154Y-15796687D02*
X8859630Y-15777639D01*
X8859630Y-15777639D02*
X8840583Y-15768115D01*
X8840583Y-15768115D02*
X8812011Y-15768115D01*
X8812011Y-15768115D02*
X8792963Y-15777639D01*
X8792963Y-15777639D02*
X8783440Y-15787163D01*
X8992963Y-15901448D02*
X8973916Y-15891925D01*
X8973916Y-15891925D02*
X8964392Y-15882401D01*
X8964392Y-15882401D02*
X8954868Y-15863353D01*
X8954868Y-15863353D02*
X8954868Y-15806210D01*
X8954868Y-15806210D02*
X8964392Y-15787163D01*
X8964392Y-15787163D02*
X8973916Y-15777639D01*
X8973916Y-15777639D02*
X8992963Y-15768115D01*
X8992963Y-15768115D02*
X9021535Y-15768115D01*
X9021535Y-15768115D02*
X9040583Y-15777639D01*
X9040583Y-15777639D02*
X9050106Y-15787163D01*
X9050106Y-15787163D02*
X9059630Y-15806210D01*
X9059630Y-15806210D02*
X9059630Y-15863353D01*
X9059630Y-15863353D02*
X9050106Y-15882401D01*
X9050106Y-15882401D02*
X9040583Y-15891925D01*
X9040583Y-15891925D02*
X9021535Y-15901448D01*
X9021535Y-15901448D02*
X8992963Y-15901448D01*
X9173916Y-15901448D02*
X9154868Y-15891925D01*
X9154868Y-15891925D02*
X9145344Y-15872877D01*
X9145344Y-15872877D02*
X9145344Y-15701448D01*
X9326297Y-15891925D02*
X9307249Y-15901448D01*
X9307249Y-15901448D02*
X9269154Y-15901448D01*
X9269154Y-15901448D02*
X9250106Y-15891925D01*
X9250106Y-15891925D02*
X9240583Y-15872877D01*
X9240583Y-15872877D02*
X9240583Y-15796687D01*
X9240583Y-15796687D02*
X9250106Y-15777639D01*
X9250106Y-15777639D02*
X9269154Y-15768115D01*
X9269154Y-15768115D02*
X9307249Y-15768115D01*
X9307249Y-15768115D02*
X9326297Y-15777639D01*
X9326297Y-15777639D02*
X9335821Y-15796687D01*
X9335821Y-15796687D02*
X9335821Y-15815734D01*
X9335821Y-15815734D02*
X9240583Y-15834782D01*
X9412011Y-15891925D02*
X9431059Y-15901448D01*
X9431059Y-15901448D02*
X9469154Y-15901448D01*
X9469154Y-15901448D02*
X9488202Y-15891925D01*
X9488202Y-15891925D02*
X9497725Y-15872877D01*
X9497725Y-15872877D02*
X9497725Y-15863353D01*
X9497725Y-15863353D02*
X9488202Y-15844306D01*
X9488202Y-15844306D02*
X9469154Y-15834782D01*
X9469154Y-15834782D02*
X9440583Y-15834782D01*
X9440583Y-15834782D02*
X9421535Y-15825258D01*
X9421535Y-15825258D02*
X9412011Y-15806210D01*
X9412011Y-15806210D02*
X9412011Y-15796687D01*
X9412011Y-15796687D02*
X9421535Y-15777639D01*
X9421535Y-15777639D02*
X9440583Y-15768115D01*
X9440583Y-15768115D02*
X9469154Y-15768115D01*
X9469154Y-15768115D02*
X9488202Y-15777639D01*
X9564392Y-15977639D02*
X9573916Y-15968115D01*
X9573916Y-15968115D02*
X9592964Y-15939544D01*
X9592964Y-15939544D02*
X9602487Y-15920496D01*
X9602487Y-15920496D02*
X9612011Y-15891925D01*
X9612011Y-15891925D02*
X9621535Y-15844306D01*
X9621535Y-15844306D02*
X9621535Y-15806210D01*
X9621535Y-15806210D02*
X9612011Y-15758591D01*
X9612011Y-15758591D02*
X9602487Y-15730020D01*
X9602487Y-15730020D02*
X9592964Y-15710972D01*
X9592964Y-15710972D02*
X9573916Y-15682401D01*
X9573916Y-15682401D02*
X9564392Y-15672877D01*
D12*
X4598853Y-16073965D02*
G75*
G02*
X4533853Y-16073965I-32500J0D01*
G01*
X4533853Y-16073965D02*
G75*
G02*
X4598853Y-16073965I32500J0D01*
G01*
D11*
X4897725Y-15965448D02*
X4916773Y-15965448D01*
X4916773Y-15965448D02*
X4935820Y-15974972D01*
X4935820Y-15974972D02*
X4945344Y-15984496D01*
X4945344Y-15984496D02*
X4954868Y-16003544D01*
X4954868Y-16003544D02*
X4964392Y-16041639D01*
X4964392Y-16041639D02*
X4964392Y-16089258D01*
X4964392Y-16089258D02*
X4954868Y-16127353D01*
X4954868Y-16127353D02*
X4945344Y-16146401D01*
X4945344Y-16146401D02*
X4935820Y-16155925D01*
X4935820Y-16155925D02*
X4916773Y-16165448D01*
X4916773Y-16165448D02*
X4897725Y-16165448D01*
X4897725Y-16165448D02*
X4878677Y-16155925D01*
X4878677Y-16155925D02*
X4869154Y-16146401D01*
X4869154Y-16146401D02*
X4859630Y-16127353D01*
X4859630Y-16127353D02*
X4850106Y-16089258D01*
X4850106Y-16089258D02*
X4850106Y-16041639D01*
X4850106Y-16041639D02*
X4859630Y-16003544D01*
X4859630Y-16003544D02*
X4869154Y-15984496D01*
X4869154Y-15984496D02*
X4878677Y-15974972D01*
X4878677Y-15974972D02*
X4897725Y-15965448D01*
X5050106Y-16146401D02*
X5059630Y-16155925D01*
X5059630Y-16155925D02*
X5050106Y-16165448D01*
X5050106Y-16165448D02*
X5040582Y-16155925D01*
X5040582Y-16155925D02*
X5050106Y-16146401D01*
X5050106Y-16146401D02*
X5050106Y-16165448D01*
X5231058Y-15965448D02*
X5192963Y-15965448D01*
X5192963Y-15965448D02*
X5173915Y-15974972D01*
X5173915Y-15974972D02*
X5164392Y-15984496D01*
X5164392Y-15984496D02*
X5145344Y-16013067D01*
X5145344Y-16013067D02*
X5135820Y-16051163D01*
X5135820Y-16051163D02*
X5135820Y-16127353D01*
X5135820Y-16127353D02*
X5145344Y-16146401D01*
X5145344Y-16146401D02*
X5154868Y-16155925D01*
X5154868Y-16155925D02*
X5173915Y-16165448D01*
X5173915Y-16165448D02*
X5212011Y-16165448D01*
X5212011Y-16165448D02*
X5231058Y-16155925D01*
X5231058Y-16155925D02*
X5240582Y-16146401D01*
X5240582Y-16146401D02*
X5250106Y-16127353D01*
X5250106Y-16127353D02*
X5250106Y-16079734D01*
X5250106Y-16079734D02*
X5240582Y-16060687D01*
X5240582Y-16060687D02*
X5231058Y-16051163D01*
X5231058Y-16051163D02*
X5212011Y-16041639D01*
X5212011Y-16041639D02*
X5173915Y-16041639D01*
X5173915Y-16041639D02*
X5154868Y-16051163D01*
X5154868Y-16051163D02*
X5145344Y-16060687D01*
X5145344Y-16060687D02*
X5135820Y-16079734D01*
X5431058Y-15965448D02*
X5335820Y-15965448D01*
X5335820Y-15965448D02*
X5326296Y-16060687D01*
X5326296Y-16060687D02*
X5335820Y-16051163D01*
X5335820Y-16051163D02*
X5354868Y-16041639D01*
X5354868Y-16041639D02*
X5402487Y-16041639D01*
X5402487Y-16041639D02*
X5421535Y-16051163D01*
X5421535Y-16051163D02*
X5431058Y-16060687D01*
X5431058Y-16060687D02*
X5440582Y-16079734D01*
X5440582Y-16079734D02*
X5440582Y-16127353D01*
X5440582Y-16127353D02*
X5431058Y-16146401D01*
X5431058Y-16146401D02*
X5421535Y-16155925D01*
X5421535Y-16155925D02*
X5402487Y-16165448D01*
X5402487Y-16165448D02*
X5354868Y-16165448D01*
X5354868Y-16165448D02*
X5335820Y-16155925D01*
X5335820Y-16155925D02*
X5326296Y-16146401D01*
X5564392Y-15965448D02*
X5583439Y-15965448D01*
X5583439Y-15965448D02*
X5602487Y-15974972D01*
X5602487Y-15974972D02*
X5612011Y-15984496D01*
X5612011Y-15984496D02*
X5621534Y-16003544D01*
X5621534Y-16003544D02*
X5631058Y-16041639D01*
X5631058Y-16041639D02*
X5631058Y-16089258D01*
X5631058Y-16089258D02*
X5621534Y-16127353D01*
X5621534Y-16127353D02*
X5612011Y-16146401D01*
X5612011Y-16146401D02*
X5602487Y-16155925D01*
X5602487Y-16155925D02*
X5583439Y-16165448D01*
X5583439Y-16165448D02*
X5564392Y-16165448D01*
X5564392Y-16165448D02*
X5545344Y-16155925D01*
X5545344Y-16155925D02*
X5535820Y-16146401D01*
X5535820Y-16146401D02*
X5526296Y-16127353D01*
X5526296Y-16127353D02*
X5516773Y-16089258D01*
X5516773Y-16089258D02*
X5516773Y-16041639D01*
X5516773Y-16041639D02*
X5526296Y-16003544D01*
X5526296Y-16003544D02*
X5535820Y-15984496D01*
X5535820Y-15984496D02*
X5545344Y-15974972D01*
X5545344Y-15974972D02*
X5564392Y-15965448D01*
X5716773Y-16165448D02*
X5716773Y-16032115D01*
X5716773Y-16051163D02*
X5726296Y-16041639D01*
X5726296Y-16041639D02*
X5745344Y-16032115D01*
X5745344Y-16032115D02*
X5773915Y-16032115D01*
X5773915Y-16032115D02*
X5792963Y-16041639D01*
X5792963Y-16041639D02*
X5802487Y-16060687D01*
X5802487Y-16060687D02*
X5802487Y-16165448D01*
X5802487Y-16060687D02*
X5812011Y-16041639D01*
X5812011Y-16041639D02*
X5831058Y-16032115D01*
X5831058Y-16032115D02*
X5859630Y-16032115D01*
X5859630Y-16032115D02*
X5878677Y-16041639D01*
X5878677Y-16041639D02*
X5888201Y-16060687D01*
X5888201Y-16060687D02*
X5888201Y-16165448D01*
X5983439Y-16165448D02*
X5983439Y-16032115D01*
X5983439Y-16051163D02*
X5992963Y-16041639D01*
X5992963Y-16041639D02*
X6012011Y-16032115D01*
X6012011Y-16032115D02*
X6040582Y-16032115D01*
X6040582Y-16032115D02*
X6059630Y-16041639D01*
X6059630Y-16041639D02*
X6069154Y-16060687D01*
X6069154Y-16060687D02*
X6069154Y-16165448D01*
X6069154Y-16060687D02*
X6078677Y-16041639D01*
X6078677Y-16041639D02*
X6097725Y-16032115D01*
X6097725Y-16032115D02*
X6126296Y-16032115D01*
X6126296Y-16032115D02*
X6145344Y-16041639D01*
X6145344Y-16041639D02*
X6154868Y-16060687D01*
X6154868Y-16060687D02*
X6154868Y-16165448D01*
X6545344Y-15955925D02*
X6373916Y-16213067D01*
X6802487Y-15965448D02*
X6821535Y-15965448D01*
X6821535Y-15965448D02*
X6840582Y-15974972D01*
X6840582Y-15974972D02*
X6850106Y-15984496D01*
X6850106Y-15984496D02*
X6859630Y-16003544D01*
X6859630Y-16003544D02*
X6869154Y-16041639D01*
X6869154Y-16041639D02*
X6869154Y-16089258D01*
X6869154Y-16089258D02*
X6859630Y-16127353D01*
X6859630Y-16127353D02*
X6850106Y-16146401D01*
X6850106Y-16146401D02*
X6840582Y-16155925D01*
X6840582Y-16155925D02*
X6821535Y-16165448D01*
X6821535Y-16165448D02*
X6802487Y-16165448D01*
X6802487Y-16165448D02*
X6783439Y-16155925D01*
X6783439Y-16155925D02*
X6773916Y-16146401D01*
X6773916Y-16146401D02*
X6764392Y-16127353D01*
X6764392Y-16127353D02*
X6754868Y-16089258D01*
X6754868Y-16089258D02*
X6754868Y-16041639D01*
X6754868Y-16041639D02*
X6764392Y-16003544D01*
X6764392Y-16003544D02*
X6773916Y-15984496D01*
X6773916Y-15984496D02*
X6783439Y-15974972D01*
X6783439Y-15974972D02*
X6802487Y-15965448D01*
X6954868Y-16146401D02*
X6964392Y-16155925D01*
X6964392Y-16155925D02*
X6954868Y-16165448D01*
X6954868Y-16165448D02*
X6945344Y-16155925D01*
X6945344Y-16155925D02*
X6954868Y-16146401D01*
X6954868Y-16146401D02*
X6954868Y-16165448D01*
X7088201Y-15965448D02*
X7107249Y-15965448D01*
X7107249Y-15965448D02*
X7126297Y-15974972D01*
X7126297Y-15974972D02*
X7135820Y-15984496D01*
X7135820Y-15984496D02*
X7145344Y-16003544D01*
X7145344Y-16003544D02*
X7154868Y-16041639D01*
X7154868Y-16041639D02*
X7154868Y-16089258D01*
X7154868Y-16089258D02*
X7145344Y-16127353D01*
X7145344Y-16127353D02*
X7135820Y-16146401D01*
X7135820Y-16146401D02*
X7126297Y-16155925D01*
X7126297Y-16155925D02*
X7107249Y-16165448D01*
X7107249Y-16165448D02*
X7088201Y-16165448D01*
X7088201Y-16165448D02*
X7069154Y-16155925D01*
X7069154Y-16155925D02*
X7059630Y-16146401D01*
X7059630Y-16146401D02*
X7050106Y-16127353D01*
X7050106Y-16127353D02*
X7040582Y-16089258D01*
X7040582Y-16089258D02*
X7040582Y-16041639D01*
X7040582Y-16041639D02*
X7050106Y-16003544D01*
X7050106Y-16003544D02*
X7059630Y-15984496D01*
X7059630Y-15984496D02*
X7069154Y-15974972D01*
X7069154Y-15974972D02*
X7088201Y-15965448D01*
X7231058Y-15984496D02*
X7240582Y-15974972D01*
X7240582Y-15974972D02*
X7259630Y-15965448D01*
X7259630Y-15965448D02*
X7307249Y-15965448D01*
X7307249Y-15965448D02*
X7326297Y-15974972D01*
X7326297Y-15974972D02*
X7335820Y-15984496D01*
X7335820Y-15984496D02*
X7345344Y-16003544D01*
X7345344Y-16003544D02*
X7345344Y-16022591D01*
X7345344Y-16022591D02*
X7335820Y-16051163D01*
X7335820Y-16051163D02*
X7221535Y-16165448D01*
X7221535Y-16165448D02*
X7345344Y-16165448D01*
X7526297Y-15965448D02*
X7431058Y-15965448D01*
X7431058Y-15965448D02*
X7421535Y-16060687D01*
X7421535Y-16060687D02*
X7431058Y-16051163D01*
X7431058Y-16051163D02*
X7450106Y-16041639D01*
X7450106Y-16041639D02*
X7497725Y-16041639D01*
X7497725Y-16041639D02*
X7516773Y-16051163D01*
X7516773Y-16051163D02*
X7526297Y-16060687D01*
X7526297Y-16060687D02*
X7535820Y-16079734D01*
X7535820Y-16079734D02*
X7535820Y-16127353D01*
X7535820Y-16127353D02*
X7526297Y-16146401D01*
X7526297Y-16146401D02*
X7516773Y-16155925D01*
X7516773Y-16155925D02*
X7497725Y-16165448D01*
X7497725Y-16165448D02*
X7450106Y-16165448D01*
X7450106Y-16165448D02*
X7431058Y-16155925D01*
X7431058Y-16155925D02*
X7421535Y-16146401D01*
X7707249Y-15965448D02*
X7669154Y-15965448D01*
X7669154Y-15965448D02*
X7650106Y-15974972D01*
X7650106Y-15974972D02*
X7640582Y-15984496D01*
X7640582Y-15984496D02*
X7621535Y-16013067D01*
X7621535Y-16013067D02*
X7612011Y-16051163D01*
X7612011Y-16051163D02*
X7612011Y-16127353D01*
X7612011Y-16127353D02*
X7621535Y-16146401D01*
X7621535Y-16146401D02*
X7631058Y-16155925D01*
X7631058Y-16155925D02*
X7650106Y-16165448D01*
X7650106Y-16165448D02*
X7688201Y-16165448D01*
X7688201Y-16165448D02*
X7707249Y-16155925D01*
X7707249Y-16155925D02*
X7716773Y-16146401D01*
X7716773Y-16146401D02*
X7726297Y-16127353D01*
X7726297Y-16127353D02*
X7726297Y-16079734D01*
X7726297Y-16079734D02*
X7716773Y-16060687D01*
X7716773Y-16060687D02*
X7707249Y-16051163D01*
X7707249Y-16051163D02*
X7688201Y-16041639D01*
X7688201Y-16041639D02*
X7650106Y-16041639D01*
X7650106Y-16041639D02*
X7631058Y-16051163D01*
X7631058Y-16051163D02*
X7621535Y-16060687D01*
X7621535Y-16060687D02*
X7612011Y-16079734D01*
X7802487Y-15965448D02*
X7802487Y-16003544D01*
X7878678Y-15965448D02*
X7878678Y-16003544D01*
X8173916Y-16241639D02*
X8164392Y-16232115D01*
X8164392Y-16232115D02*
X8145344Y-16203544D01*
X8145344Y-16203544D02*
X8135820Y-16184496D01*
X8135820Y-16184496D02*
X8126297Y-16155925D01*
X8126297Y-16155925D02*
X8116773Y-16108306D01*
X8116773Y-16108306D02*
X8116773Y-16070210D01*
X8116773Y-16070210D02*
X8126297Y-16022591D01*
X8126297Y-16022591D02*
X8135820Y-15994020D01*
X8135820Y-15994020D02*
X8145344Y-15974972D01*
X8145344Y-15974972D02*
X8164392Y-15946401D01*
X8164392Y-15946401D02*
X8173916Y-15936877D01*
X8288201Y-15965448D02*
X8307249Y-15965448D01*
X8307249Y-15965448D02*
X8326297Y-15974972D01*
X8326297Y-15974972D02*
X8335820Y-15984496D01*
X8335820Y-15984496D02*
X8345344Y-16003544D01*
X8345344Y-16003544D02*
X8354868Y-16041639D01*
X8354868Y-16041639D02*
X8354868Y-16089258D01*
X8354868Y-16089258D02*
X8345344Y-16127353D01*
X8345344Y-16127353D02*
X8335820Y-16146401D01*
X8335820Y-16146401D02*
X8326297Y-16155925D01*
X8326297Y-16155925D02*
X8307249Y-16165448D01*
X8307249Y-16165448D02*
X8288201Y-16165448D01*
X8288201Y-16165448D02*
X8269154Y-16155925D01*
X8269154Y-16155925D02*
X8259630Y-16146401D01*
X8259630Y-16146401D02*
X8250106Y-16127353D01*
X8250106Y-16127353D02*
X8240582Y-16089258D01*
X8240582Y-16089258D02*
X8240582Y-16041639D01*
X8240582Y-16041639D02*
X8250106Y-16003544D01*
X8250106Y-16003544D02*
X8259630Y-15984496D01*
X8259630Y-15984496D02*
X8269154Y-15974972D01*
X8269154Y-15974972D02*
X8288201Y-15965448D01*
X8592963Y-16165448D02*
X8592963Y-15965448D01*
X8678678Y-16165448D02*
X8678678Y-16060687D01*
X8678678Y-16060687D02*
X8669154Y-16041639D01*
X8669154Y-16041639D02*
X8650106Y-16032115D01*
X8650106Y-16032115D02*
X8621535Y-16032115D01*
X8621535Y-16032115D02*
X8602487Y-16041639D01*
X8602487Y-16041639D02*
X8592963Y-16051163D01*
X8802487Y-16165448D02*
X8783440Y-16155925D01*
X8783440Y-16155925D02*
X8773916Y-16146401D01*
X8773916Y-16146401D02*
X8764392Y-16127353D01*
X8764392Y-16127353D02*
X8764392Y-16070210D01*
X8764392Y-16070210D02*
X8773916Y-16051163D01*
X8773916Y-16051163D02*
X8783440Y-16041639D01*
X8783440Y-16041639D02*
X8802487Y-16032115D01*
X8802487Y-16032115D02*
X8831059Y-16032115D01*
X8831059Y-16032115D02*
X8850106Y-16041639D01*
X8850106Y-16041639D02*
X8859630Y-16051163D01*
X8859630Y-16051163D02*
X8869154Y-16070210D01*
X8869154Y-16070210D02*
X8869154Y-16127353D01*
X8869154Y-16127353D02*
X8859630Y-16146401D01*
X8859630Y-16146401D02*
X8850106Y-16155925D01*
X8850106Y-16155925D02*
X8831059Y-16165448D01*
X8831059Y-16165448D02*
X8802487Y-16165448D01*
X8983440Y-16165448D02*
X8964392Y-16155925D01*
X8964392Y-16155925D02*
X8954868Y-16136877D01*
X8954868Y-16136877D02*
X8954868Y-15965448D01*
X9135821Y-16155925D02*
X9116773Y-16165448D01*
X9116773Y-16165448D02*
X9078678Y-16165448D01*
X9078678Y-16165448D02*
X9059630Y-16155925D01*
X9059630Y-16155925D02*
X9050106Y-16136877D01*
X9050106Y-16136877D02*
X9050106Y-16060687D01*
X9050106Y-16060687D02*
X9059630Y-16041639D01*
X9059630Y-16041639D02*
X9078678Y-16032115D01*
X9078678Y-16032115D02*
X9116773Y-16032115D01*
X9116773Y-16032115D02*
X9135821Y-16041639D01*
X9135821Y-16041639D02*
X9145344Y-16060687D01*
X9145344Y-16060687D02*
X9145344Y-16079734D01*
X9145344Y-16079734D02*
X9050106Y-16098782D01*
X9221535Y-16155925D02*
X9240583Y-16165448D01*
X9240583Y-16165448D02*
X9278678Y-16165448D01*
X9278678Y-16165448D02*
X9297725Y-16155925D01*
X9297725Y-16155925D02*
X9307249Y-16136877D01*
X9307249Y-16136877D02*
X9307249Y-16127353D01*
X9307249Y-16127353D02*
X9297725Y-16108306D01*
X9297725Y-16108306D02*
X9278678Y-16098782D01*
X9278678Y-16098782D02*
X9250106Y-16098782D01*
X9250106Y-16098782D02*
X9231059Y-16089258D01*
X9231059Y-16089258D02*
X9221535Y-16070210D01*
X9221535Y-16070210D02*
X9221535Y-16060687D01*
X9221535Y-16060687D02*
X9231059Y-16041639D01*
X9231059Y-16041639D02*
X9250106Y-16032115D01*
X9250106Y-16032115D02*
X9278678Y-16032115D01*
X9278678Y-16032115D02*
X9297725Y-16041639D01*
X9545345Y-16089258D02*
X9697726Y-16089258D01*
X9621535Y-16165448D02*
X9621535Y-16013067D01*
X10031059Y-16032115D02*
X10031059Y-16165448D01*
X9983440Y-15955925D02*
X9935821Y-16098782D01*
X9935821Y-16098782D02*
X10059630Y-16098782D01*
X10278678Y-16155925D02*
X10297726Y-16165448D01*
X10297726Y-16165448D02*
X10335821Y-16165448D01*
X10335821Y-16165448D02*
X10354868Y-16155925D01*
X10354868Y-16155925D02*
X10364392Y-16136877D01*
X10364392Y-16136877D02*
X10364392Y-16127353D01*
X10364392Y-16127353D02*
X10354868Y-16108306D01*
X10354868Y-16108306D02*
X10335821Y-16098782D01*
X10335821Y-16098782D02*
X10307249Y-16098782D01*
X10307249Y-16098782D02*
X10288202Y-16089258D01*
X10288202Y-16089258D02*
X10278678Y-16070210D01*
X10278678Y-16070210D02*
X10278678Y-16060687D01*
X10278678Y-16060687D02*
X10288202Y-16041639D01*
X10288202Y-16041639D02*
X10307249Y-16032115D01*
X10307249Y-16032115D02*
X10335821Y-16032115D01*
X10335821Y-16032115D02*
X10354868Y-16041639D01*
X10478678Y-16165448D02*
X10459630Y-16155925D01*
X10459630Y-16155925D02*
X10450107Y-16136877D01*
X10450107Y-16136877D02*
X10450107Y-15965448D01*
X10583440Y-16165448D02*
X10564392Y-16155925D01*
X10564392Y-16155925D02*
X10554868Y-16146401D01*
X10554868Y-16146401D02*
X10545345Y-16127353D01*
X10545345Y-16127353D02*
X10545345Y-16070210D01*
X10545345Y-16070210D02*
X10554868Y-16051163D01*
X10554868Y-16051163D02*
X10564392Y-16041639D01*
X10564392Y-16041639D02*
X10583440Y-16032115D01*
X10583440Y-16032115D02*
X10612011Y-16032115D01*
X10612011Y-16032115D02*
X10631059Y-16041639D01*
X10631059Y-16041639D02*
X10640583Y-16051163D01*
X10640583Y-16051163D02*
X10650107Y-16070210D01*
X10650107Y-16070210D02*
X10650107Y-16127353D01*
X10650107Y-16127353D02*
X10640583Y-16146401D01*
X10640583Y-16146401D02*
X10631059Y-16155925D01*
X10631059Y-16155925D02*
X10612011Y-16165448D01*
X10612011Y-16165448D02*
X10583440Y-16165448D01*
X10707249Y-16032115D02*
X10783440Y-16032115D01*
X10735821Y-15965448D02*
X10735821Y-16136877D01*
X10735821Y-16136877D02*
X10745345Y-16155925D01*
X10745345Y-16155925D02*
X10764392Y-16165448D01*
X10764392Y-16165448D02*
X10783440Y-16165448D01*
X10840583Y-16155925D02*
X10859630Y-16165448D01*
X10859630Y-16165448D02*
X10897726Y-16165448D01*
X10897726Y-16165448D02*
X10916773Y-16155925D01*
X10916773Y-16155925D02*
X10926297Y-16136877D01*
X10926297Y-16136877D02*
X10926297Y-16127353D01*
X10926297Y-16127353D02*
X10916773Y-16108306D01*
X10916773Y-16108306D02*
X10897726Y-16098782D01*
X10897726Y-16098782D02*
X10869154Y-16098782D01*
X10869154Y-16098782D02*
X10850107Y-16089258D01*
X10850107Y-16089258D02*
X10840583Y-16070210D01*
X10840583Y-16070210D02*
X10840583Y-16060687D01*
X10840583Y-16060687D02*
X10850107Y-16041639D01*
X10850107Y-16041639D02*
X10869154Y-16032115D01*
X10869154Y-16032115D02*
X10897726Y-16032115D01*
X10897726Y-16032115D02*
X10916773Y-16041639D01*
X10992964Y-16241639D02*
X11002488Y-16232115D01*
X11002488Y-16232115D02*
X11021535Y-16203544D01*
X11021535Y-16203544D02*
X11031059Y-16184496D01*
X11031059Y-16184496D02*
X11040583Y-16155925D01*
X11040583Y-16155925D02*
X11050107Y-16108306D01*
X11050107Y-16108306D02*
X11050107Y-16070210D01*
X11050107Y-16070210D02*
X11040583Y-16022591D01*
X11040583Y-16022591D02*
X11031059Y-15994020D01*
X11031059Y-15994020D02*
X11021535Y-15974972D01*
X11021535Y-15974972D02*
X11002488Y-15946401D01*
X11002488Y-15946401D02*
X10992964Y-15936877D01*
D12*
X4558213Y-16297325D02*
X4558213Y-16378605D01*
X4517573Y-16337965D02*
X4598853Y-16337965D01*
D11*
X4897725Y-16229448D02*
X4916773Y-16229448D01*
X4916773Y-16229448D02*
X4935820Y-16238972D01*
X4935820Y-16238972D02*
X4945344Y-16248496D01*
X4945344Y-16248496D02*
X4954868Y-16267544D01*
X4954868Y-16267544D02*
X4964392Y-16305639D01*
X4964392Y-16305639D02*
X4964392Y-16353258D01*
X4964392Y-16353258D02*
X4954868Y-16391353D01*
X4954868Y-16391353D02*
X4945344Y-16410401D01*
X4945344Y-16410401D02*
X4935820Y-16419925D01*
X4935820Y-16419925D02*
X4916773Y-16429448D01*
X4916773Y-16429448D02*
X4897725Y-16429448D01*
X4897725Y-16429448D02*
X4878677Y-16419925D01*
X4878677Y-16419925D02*
X4869154Y-16410401D01*
X4869154Y-16410401D02*
X4859630Y-16391353D01*
X4859630Y-16391353D02*
X4850106Y-16353258D01*
X4850106Y-16353258D02*
X4850106Y-16305639D01*
X4850106Y-16305639D02*
X4859630Y-16267544D01*
X4859630Y-16267544D02*
X4869154Y-16248496D01*
X4869154Y-16248496D02*
X4878677Y-16238972D01*
X4878677Y-16238972D02*
X4897725Y-16229448D01*
X5050106Y-16410401D02*
X5059630Y-16419925D01*
X5059630Y-16419925D02*
X5050106Y-16429448D01*
X5050106Y-16429448D02*
X5040582Y-16419925D01*
X5040582Y-16419925D02*
X5050106Y-16410401D01*
X5050106Y-16410401D02*
X5050106Y-16429448D01*
X5173915Y-16315163D02*
X5154868Y-16305639D01*
X5154868Y-16305639D02*
X5145344Y-16296115D01*
X5145344Y-16296115D02*
X5135820Y-16277067D01*
X5135820Y-16277067D02*
X5135820Y-16267544D01*
X5135820Y-16267544D02*
X5145344Y-16248496D01*
X5145344Y-16248496D02*
X5154868Y-16238972D01*
X5154868Y-16238972D02*
X5173915Y-16229448D01*
X5173915Y-16229448D02*
X5212011Y-16229448D01*
X5212011Y-16229448D02*
X5231058Y-16238972D01*
X5231058Y-16238972D02*
X5240582Y-16248496D01*
X5240582Y-16248496D02*
X5250106Y-16267544D01*
X5250106Y-16267544D02*
X5250106Y-16277067D01*
X5250106Y-16277067D02*
X5240582Y-16296115D01*
X5240582Y-16296115D02*
X5231058Y-16305639D01*
X5231058Y-16305639D02*
X5212011Y-16315163D01*
X5212011Y-16315163D02*
X5173915Y-16315163D01*
X5173915Y-16315163D02*
X5154868Y-16324687D01*
X5154868Y-16324687D02*
X5145344Y-16334210D01*
X5145344Y-16334210D02*
X5135820Y-16353258D01*
X5135820Y-16353258D02*
X5135820Y-16391353D01*
X5135820Y-16391353D02*
X5145344Y-16410401D01*
X5145344Y-16410401D02*
X5154868Y-16419925D01*
X5154868Y-16419925D02*
X5173915Y-16429448D01*
X5173915Y-16429448D02*
X5212011Y-16429448D01*
X5212011Y-16429448D02*
X5231058Y-16419925D01*
X5231058Y-16419925D02*
X5240582Y-16410401D01*
X5240582Y-16410401D02*
X5250106Y-16391353D01*
X5250106Y-16391353D02*
X5250106Y-16353258D01*
X5250106Y-16353258D02*
X5240582Y-16334210D01*
X5240582Y-16334210D02*
X5231058Y-16324687D01*
X5231058Y-16324687D02*
X5212011Y-16315163D01*
X5440582Y-16429448D02*
X5326296Y-16429448D01*
X5383439Y-16429448D02*
X5383439Y-16229448D01*
X5383439Y-16229448D02*
X5364392Y-16258020D01*
X5364392Y-16258020D02*
X5345344Y-16277067D01*
X5345344Y-16277067D02*
X5326296Y-16286591D01*
X5507249Y-16229448D02*
X5631058Y-16229448D01*
X5631058Y-16229448D02*
X5564392Y-16305639D01*
X5564392Y-16305639D02*
X5592963Y-16305639D01*
X5592963Y-16305639D02*
X5612011Y-16315163D01*
X5612011Y-16315163D02*
X5621534Y-16324687D01*
X5621534Y-16324687D02*
X5631058Y-16343734D01*
X5631058Y-16343734D02*
X5631058Y-16391353D01*
X5631058Y-16391353D02*
X5621534Y-16410401D01*
X5621534Y-16410401D02*
X5612011Y-16419925D01*
X5612011Y-16419925D02*
X5592963Y-16429448D01*
X5592963Y-16429448D02*
X5535820Y-16429448D01*
X5535820Y-16429448D02*
X5516773Y-16419925D01*
X5516773Y-16419925D02*
X5507249Y-16410401D01*
X5716773Y-16429448D02*
X5716773Y-16296115D01*
X5716773Y-16315163D02*
X5726296Y-16305639D01*
X5726296Y-16305639D02*
X5745344Y-16296115D01*
X5745344Y-16296115D02*
X5773915Y-16296115D01*
X5773915Y-16296115D02*
X5792963Y-16305639D01*
X5792963Y-16305639D02*
X5802487Y-16324687D01*
X5802487Y-16324687D02*
X5802487Y-16429448D01*
X5802487Y-16324687D02*
X5812011Y-16305639D01*
X5812011Y-16305639D02*
X5831058Y-16296115D01*
X5831058Y-16296115D02*
X5859630Y-16296115D01*
X5859630Y-16296115D02*
X5878677Y-16305639D01*
X5878677Y-16305639D02*
X5888201Y-16324687D01*
X5888201Y-16324687D02*
X5888201Y-16429448D01*
X5983439Y-16429448D02*
X5983439Y-16296115D01*
X5983439Y-16315163D02*
X5992963Y-16305639D01*
X5992963Y-16305639D02*
X6012011Y-16296115D01*
X6012011Y-16296115D02*
X6040582Y-16296115D01*
X6040582Y-16296115D02*
X6059630Y-16305639D01*
X6059630Y-16305639D02*
X6069154Y-16324687D01*
X6069154Y-16324687D02*
X6069154Y-16429448D01*
X6069154Y-16324687D02*
X6078677Y-16305639D01*
X6078677Y-16305639D02*
X6097725Y-16296115D01*
X6097725Y-16296115D02*
X6126296Y-16296115D01*
X6126296Y-16296115D02*
X6145344Y-16305639D01*
X6145344Y-16305639D02*
X6154868Y-16324687D01*
X6154868Y-16324687D02*
X6154868Y-16429448D01*
X6545344Y-16219925D02*
X6373916Y-16477067D01*
X6802487Y-16229448D02*
X6821535Y-16229448D01*
X6821535Y-16229448D02*
X6840582Y-16238972D01*
X6840582Y-16238972D02*
X6850106Y-16248496D01*
X6850106Y-16248496D02*
X6859630Y-16267544D01*
X6859630Y-16267544D02*
X6869154Y-16305639D01*
X6869154Y-16305639D02*
X6869154Y-16353258D01*
X6869154Y-16353258D02*
X6859630Y-16391353D01*
X6859630Y-16391353D02*
X6850106Y-16410401D01*
X6850106Y-16410401D02*
X6840582Y-16419925D01*
X6840582Y-16419925D02*
X6821535Y-16429448D01*
X6821535Y-16429448D02*
X6802487Y-16429448D01*
X6802487Y-16429448D02*
X6783439Y-16419925D01*
X6783439Y-16419925D02*
X6773916Y-16410401D01*
X6773916Y-16410401D02*
X6764392Y-16391353D01*
X6764392Y-16391353D02*
X6754868Y-16353258D01*
X6754868Y-16353258D02*
X6754868Y-16305639D01*
X6754868Y-16305639D02*
X6764392Y-16267544D01*
X6764392Y-16267544D02*
X6773916Y-16248496D01*
X6773916Y-16248496D02*
X6783439Y-16238972D01*
X6783439Y-16238972D02*
X6802487Y-16229448D01*
X6954868Y-16410401D02*
X6964392Y-16419925D01*
X6964392Y-16419925D02*
X6954868Y-16429448D01*
X6954868Y-16429448D02*
X6945344Y-16419925D01*
X6945344Y-16419925D02*
X6954868Y-16410401D01*
X6954868Y-16410401D02*
X6954868Y-16429448D01*
X7088201Y-16229448D02*
X7107249Y-16229448D01*
X7107249Y-16229448D02*
X7126297Y-16238972D01*
X7126297Y-16238972D02*
X7135820Y-16248496D01*
X7135820Y-16248496D02*
X7145344Y-16267544D01*
X7145344Y-16267544D02*
X7154868Y-16305639D01*
X7154868Y-16305639D02*
X7154868Y-16353258D01*
X7154868Y-16353258D02*
X7145344Y-16391353D01*
X7145344Y-16391353D02*
X7135820Y-16410401D01*
X7135820Y-16410401D02*
X7126297Y-16419925D01*
X7126297Y-16419925D02*
X7107249Y-16429448D01*
X7107249Y-16429448D02*
X7088201Y-16429448D01*
X7088201Y-16429448D02*
X7069154Y-16419925D01*
X7069154Y-16419925D02*
X7059630Y-16410401D01*
X7059630Y-16410401D02*
X7050106Y-16391353D01*
X7050106Y-16391353D02*
X7040582Y-16353258D01*
X7040582Y-16353258D02*
X7040582Y-16305639D01*
X7040582Y-16305639D02*
X7050106Y-16267544D01*
X7050106Y-16267544D02*
X7059630Y-16248496D01*
X7059630Y-16248496D02*
X7069154Y-16238972D01*
X7069154Y-16238972D02*
X7088201Y-16229448D01*
X7221535Y-16229448D02*
X7345344Y-16229448D01*
X7345344Y-16229448D02*
X7278677Y-16305639D01*
X7278677Y-16305639D02*
X7307249Y-16305639D01*
X7307249Y-16305639D02*
X7326297Y-16315163D01*
X7326297Y-16315163D02*
X7335820Y-16324687D01*
X7335820Y-16324687D02*
X7345344Y-16343734D01*
X7345344Y-16343734D02*
X7345344Y-16391353D01*
X7345344Y-16391353D02*
X7335820Y-16410401D01*
X7335820Y-16410401D02*
X7326297Y-16419925D01*
X7326297Y-16419925D02*
X7307249Y-16429448D01*
X7307249Y-16429448D02*
X7250106Y-16429448D01*
X7250106Y-16429448D02*
X7231058Y-16419925D01*
X7231058Y-16419925D02*
X7221535Y-16410401D01*
X7421535Y-16248496D02*
X7431058Y-16238972D01*
X7431058Y-16238972D02*
X7450106Y-16229448D01*
X7450106Y-16229448D02*
X7497725Y-16229448D01*
X7497725Y-16229448D02*
X7516773Y-16238972D01*
X7516773Y-16238972D02*
X7526297Y-16248496D01*
X7526297Y-16248496D02*
X7535820Y-16267544D01*
X7535820Y-16267544D02*
X7535820Y-16286591D01*
X7535820Y-16286591D02*
X7526297Y-16315163D01*
X7526297Y-16315163D02*
X7412011Y-16429448D01*
X7412011Y-16429448D02*
X7535820Y-16429448D01*
X7659630Y-16229448D02*
X7678678Y-16229448D01*
X7678678Y-16229448D02*
X7697725Y-16238972D01*
X7697725Y-16238972D02*
X7707249Y-16248496D01*
X7707249Y-16248496D02*
X7716773Y-16267544D01*
X7716773Y-16267544D02*
X7726297Y-16305639D01*
X7726297Y-16305639D02*
X7726297Y-16353258D01*
X7726297Y-16353258D02*
X7716773Y-16391353D01*
X7716773Y-16391353D02*
X7707249Y-16410401D01*
X7707249Y-16410401D02*
X7697725Y-16419925D01*
X7697725Y-16419925D02*
X7678678Y-16429448D01*
X7678678Y-16429448D02*
X7659630Y-16429448D01*
X7659630Y-16429448D02*
X7640582Y-16419925D01*
X7640582Y-16419925D02*
X7631058Y-16410401D01*
X7631058Y-16410401D02*
X7621535Y-16391353D01*
X7621535Y-16391353D02*
X7612011Y-16353258D01*
X7612011Y-16353258D02*
X7612011Y-16305639D01*
X7612011Y-16305639D02*
X7621535Y-16267544D01*
X7621535Y-16267544D02*
X7631058Y-16248496D01*
X7631058Y-16248496D02*
X7640582Y-16238972D01*
X7640582Y-16238972D02*
X7659630Y-16229448D01*
X7802487Y-16229448D02*
X7802487Y-16267544D01*
X7878678Y-16229448D02*
X7878678Y-16267544D01*
X8173916Y-16505639D02*
X8164392Y-16496115D01*
X8164392Y-16496115D02*
X8145344Y-16467544D01*
X8145344Y-16467544D02*
X8135820Y-16448496D01*
X8135820Y-16448496D02*
X8126297Y-16419925D01*
X8126297Y-16419925D02*
X8116773Y-16372306D01*
X8116773Y-16372306D02*
X8116773Y-16334210D01*
X8116773Y-16334210D02*
X8126297Y-16286591D01*
X8126297Y-16286591D02*
X8135820Y-16258020D01*
X8135820Y-16258020D02*
X8145344Y-16238972D01*
X8145344Y-16238972D02*
X8164392Y-16210401D01*
X8164392Y-16210401D02*
X8173916Y-16200877D01*
X8335820Y-16229448D02*
X8297725Y-16229448D01*
X8297725Y-16229448D02*
X8278678Y-16238972D01*
X8278678Y-16238972D02*
X8269154Y-16248496D01*
X8269154Y-16248496D02*
X8250106Y-16277067D01*
X8250106Y-16277067D02*
X8240582Y-16315163D01*
X8240582Y-16315163D02*
X8240582Y-16391353D01*
X8240582Y-16391353D02*
X8250106Y-16410401D01*
X8250106Y-16410401D02*
X8259630Y-16419925D01*
X8259630Y-16419925D02*
X8278678Y-16429448D01*
X8278678Y-16429448D02*
X8316773Y-16429448D01*
X8316773Y-16429448D02*
X8335820Y-16419925D01*
X8335820Y-16419925D02*
X8345344Y-16410401D01*
X8345344Y-16410401D02*
X8354868Y-16391353D01*
X8354868Y-16391353D02*
X8354868Y-16343734D01*
X8354868Y-16343734D02*
X8345344Y-16324687D01*
X8345344Y-16324687D02*
X8335820Y-16315163D01*
X8335820Y-16315163D02*
X8316773Y-16305639D01*
X8316773Y-16305639D02*
X8278678Y-16305639D01*
X8278678Y-16305639D02*
X8259630Y-16315163D01*
X8259630Y-16315163D02*
X8250106Y-16324687D01*
X8250106Y-16324687D02*
X8240582Y-16343734D01*
X8592963Y-16429448D02*
X8592963Y-16229448D01*
X8678678Y-16429448D02*
X8678678Y-16324687D01*
X8678678Y-16324687D02*
X8669154Y-16305639D01*
X8669154Y-16305639D02*
X8650106Y-16296115D01*
X8650106Y-16296115D02*
X8621535Y-16296115D01*
X8621535Y-16296115D02*
X8602487Y-16305639D01*
X8602487Y-16305639D02*
X8592963Y-16315163D01*
X8802487Y-16429448D02*
X8783440Y-16419925D01*
X8783440Y-16419925D02*
X8773916Y-16410401D01*
X8773916Y-16410401D02*
X8764392Y-16391353D01*
X8764392Y-16391353D02*
X8764392Y-16334210D01*
X8764392Y-16334210D02*
X8773916Y-16315163D01*
X8773916Y-16315163D02*
X8783440Y-16305639D01*
X8783440Y-16305639D02*
X8802487Y-16296115D01*
X8802487Y-16296115D02*
X8831059Y-16296115D01*
X8831059Y-16296115D02*
X8850106Y-16305639D01*
X8850106Y-16305639D02*
X8859630Y-16315163D01*
X8859630Y-16315163D02*
X8869154Y-16334210D01*
X8869154Y-16334210D02*
X8869154Y-16391353D01*
X8869154Y-16391353D02*
X8859630Y-16410401D01*
X8859630Y-16410401D02*
X8850106Y-16419925D01*
X8850106Y-16419925D02*
X8831059Y-16429448D01*
X8831059Y-16429448D02*
X8802487Y-16429448D01*
X8983440Y-16429448D02*
X8964392Y-16419925D01*
X8964392Y-16419925D02*
X8954868Y-16400877D01*
X8954868Y-16400877D02*
X8954868Y-16229448D01*
X9135821Y-16419925D02*
X9116773Y-16429448D01*
X9116773Y-16429448D02*
X9078678Y-16429448D01*
X9078678Y-16429448D02*
X9059630Y-16419925D01*
X9059630Y-16419925D02*
X9050106Y-16400877D01*
X9050106Y-16400877D02*
X9050106Y-16324687D01*
X9050106Y-16324687D02*
X9059630Y-16305639D01*
X9059630Y-16305639D02*
X9078678Y-16296115D01*
X9078678Y-16296115D02*
X9116773Y-16296115D01*
X9116773Y-16296115D02*
X9135821Y-16305639D01*
X9135821Y-16305639D02*
X9145344Y-16324687D01*
X9145344Y-16324687D02*
X9145344Y-16343734D01*
X9145344Y-16343734D02*
X9050106Y-16362782D01*
X9221535Y-16419925D02*
X9240583Y-16429448D01*
X9240583Y-16429448D02*
X9278678Y-16429448D01*
X9278678Y-16429448D02*
X9297725Y-16419925D01*
X9297725Y-16419925D02*
X9307249Y-16400877D01*
X9307249Y-16400877D02*
X9307249Y-16391353D01*
X9307249Y-16391353D02*
X9297725Y-16372306D01*
X9297725Y-16372306D02*
X9278678Y-16362782D01*
X9278678Y-16362782D02*
X9250106Y-16362782D01*
X9250106Y-16362782D02*
X9231059Y-16353258D01*
X9231059Y-16353258D02*
X9221535Y-16334210D01*
X9221535Y-16334210D02*
X9221535Y-16324687D01*
X9221535Y-16324687D02*
X9231059Y-16305639D01*
X9231059Y-16305639D02*
X9250106Y-16296115D01*
X9250106Y-16296115D02*
X9278678Y-16296115D01*
X9278678Y-16296115D02*
X9297725Y-16305639D01*
X9373916Y-16505639D02*
X9383440Y-16496115D01*
X9383440Y-16496115D02*
X9402487Y-16467544D01*
X9402487Y-16467544D02*
X9412011Y-16448496D01*
X9412011Y-16448496D02*
X9421535Y-16419925D01*
X9421535Y-16419925D02*
X9431059Y-16372306D01*
X9431059Y-16372306D02*
X9431059Y-16334210D01*
X9431059Y-16334210D02*
X9421535Y-16286591D01*
X9421535Y-16286591D02*
X9412011Y-16258020D01*
X9412011Y-16258020D02*
X9402487Y-16238972D01*
X9402487Y-16238972D02*
X9383440Y-16210401D01*
X9383440Y-16210401D02*
X9373916Y-16200877D01*
D12*
X4586206Y-16632498D02*
X4586206Y-16571431D01*
X4525140Y-16571431D01*
X4525140Y-16632498D01*
X4586206Y-16632498D01*
D11*
X4897725Y-16493448D02*
X4916773Y-16493448D01*
X4916773Y-16493448D02*
X4935820Y-16502972D01*
X4935820Y-16502972D02*
X4945344Y-16512496D01*
X4945344Y-16512496D02*
X4954868Y-16531544D01*
X4954868Y-16531544D02*
X4964392Y-16569639D01*
X4964392Y-16569639D02*
X4964392Y-16617258D01*
X4964392Y-16617258D02*
X4954868Y-16655353D01*
X4954868Y-16655353D02*
X4945344Y-16674401D01*
X4945344Y-16674401D02*
X4935820Y-16683925D01*
X4935820Y-16683925D02*
X4916773Y-16693448D01*
X4916773Y-16693448D02*
X4897725Y-16693448D01*
X4897725Y-16693448D02*
X4878677Y-16683925D01*
X4878677Y-16683925D02*
X4869154Y-16674401D01*
X4869154Y-16674401D02*
X4859630Y-16655353D01*
X4859630Y-16655353D02*
X4850106Y-16617258D01*
X4850106Y-16617258D02*
X4850106Y-16569639D01*
X4850106Y-16569639D02*
X4859630Y-16531544D01*
X4859630Y-16531544D02*
X4869154Y-16512496D01*
X4869154Y-16512496D02*
X4878677Y-16502972D01*
X4878677Y-16502972D02*
X4897725Y-16493448D01*
X5050106Y-16674401D02*
X5059630Y-16683925D01*
X5059630Y-16683925D02*
X5050106Y-16693448D01*
X5050106Y-16693448D02*
X5040582Y-16683925D01*
X5040582Y-16683925D02*
X5050106Y-16674401D01*
X5050106Y-16674401D02*
X5050106Y-16693448D01*
X5173915Y-16579163D02*
X5154868Y-16569639D01*
X5154868Y-16569639D02*
X5145344Y-16560115D01*
X5145344Y-16560115D02*
X5135820Y-16541067D01*
X5135820Y-16541067D02*
X5135820Y-16531544D01*
X5135820Y-16531544D02*
X5145344Y-16512496D01*
X5145344Y-16512496D02*
X5154868Y-16502972D01*
X5154868Y-16502972D02*
X5173915Y-16493448D01*
X5173915Y-16493448D02*
X5212011Y-16493448D01*
X5212011Y-16493448D02*
X5231058Y-16502972D01*
X5231058Y-16502972D02*
X5240582Y-16512496D01*
X5240582Y-16512496D02*
X5250106Y-16531544D01*
X5250106Y-16531544D02*
X5250106Y-16541067D01*
X5250106Y-16541067D02*
X5240582Y-16560115D01*
X5240582Y-16560115D02*
X5231058Y-16569639D01*
X5231058Y-16569639D02*
X5212011Y-16579163D01*
X5212011Y-16579163D02*
X5173915Y-16579163D01*
X5173915Y-16579163D02*
X5154868Y-16588687D01*
X5154868Y-16588687D02*
X5145344Y-16598210D01*
X5145344Y-16598210D02*
X5135820Y-16617258D01*
X5135820Y-16617258D02*
X5135820Y-16655353D01*
X5135820Y-16655353D02*
X5145344Y-16674401D01*
X5145344Y-16674401D02*
X5154868Y-16683925D01*
X5154868Y-16683925D02*
X5173915Y-16693448D01*
X5173915Y-16693448D02*
X5212011Y-16693448D01*
X5212011Y-16693448D02*
X5231058Y-16683925D01*
X5231058Y-16683925D02*
X5240582Y-16674401D01*
X5240582Y-16674401D02*
X5250106Y-16655353D01*
X5250106Y-16655353D02*
X5250106Y-16617258D01*
X5250106Y-16617258D02*
X5240582Y-16598210D01*
X5240582Y-16598210D02*
X5231058Y-16588687D01*
X5231058Y-16588687D02*
X5212011Y-16579163D01*
X5421535Y-16493448D02*
X5383439Y-16493448D01*
X5383439Y-16493448D02*
X5364392Y-16502972D01*
X5364392Y-16502972D02*
X5354868Y-16512496D01*
X5354868Y-16512496D02*
X5335820Y-16541067D01*
X5335820Y-16541067D02*
X5326296Y-16579163D01*
X5326296Y-16579163D02*
X5326296Y-16655353D01*
X5326296Y-16655353D02*
X5335820Y-16674401D01*
X5335820Y-16674401D02*
X5345344Y-16683925D01*
X5345344Y-16683925D02*
X5364392Y-16693448D01*
X5364392Y-16693448D02*
X5402487Y-16693448D01*
X5402487Y-16693448D02*
X5421535Y-16683925D01*
X5421535Y-16683925D02*
X5431058Y-16674401D01*
X5431058Y-16674401D02*
X5440582Y-16655353D01*
X5440582Y-16655353D02*
X5440582Y-16607734D01*
X5440582Y-16607734D02*
X5431058Y-16588687D01*
X5431058Y-16588687D02*
X5421535Y-16579163D01*
X5421535Y-16579163D02*
X5402487Y-16569639D01*
X5402487Y-16569639D02*
X5364392Y-16569639D01*
X5364392Y-16569639D02*
X5345344Y-16579163D01*
X5345344Y-16579163D02*
X5335820Y-16588687D01*
X5335820Y-16588687D02*
X5326296Y-16607734D01*
X5612011Y-16560115D02*
X5612011Y-16693448D01*
X5564392Y-16483925D02*
X5516773Y-16626782D01*
X5516773Y-16626782D02*
X5640582Y-16626782D01*
X5716773Y-16693448D02*
X5716773Y-16560115D01*
X5716773Y-16579163D02*
X5726296Y-16569639D01*
X5726296Y-16569639D02*
X5745344Y-16560115D01*
X5745344Y-16560115D02*
X5773915Y-16560115D01*
X5773915Y-16560115D02*
X5792963Y-16569639D01*
X5792963Y-16569639D02*
X5802487Y-16588687D01*
X5802487Y-16588687D02*
X5802487Y-16693448D01*
X5802487Y-16588687D02*
X5812011Y-16569639D01*
X5812011Y-16569639D02*
X5831058Y-16560115D01*
X5831058Y-16560115D02*
X5859630Y-16560115D01*
X5859630Y-16560115D02*
X5878677Y-16569639D01*
X5878677Y-16569639D02*
X5888201Y-16588687D01*
X5888201Y-16588687D02*
X5888201Y-16693448D01*
X5983439Y-16693448D02*
X5983439Y-16560115D01*
X5983439Y-16579163D02*
X5992963Y-16569639D01*
X5992963Y-16569639D02*
X6012011Y-16560115D01*
X6012011Y-16560115D02*
X6040582Y-16560115D01*
X6040582Y-16560115D02*
X6059630Y-16569639D01*
X6059630Y-16569639D02*
X6069154Y-16588687D01*
X6069154Y-16588687D02*
X6069154Y-16693448D01*
X6069154Y-16588687D02*
X6078677Y-16569639D01*
X6078677Y-16569639D02*
X6097725Y-16560115D01*
X6097725Y-16560115D02*
X6126296Y-16560115D01*
X6126296Y-16560115D02*
X6145344Y-16569639D01*
X6145344Y-16569639D02*
X6154868Y-16588687D01*
X6154868Y-16588687D02*
X6154868Y-16693448D01*
X6545344Y-16483925D02*
X6373916Y-16741067D01*
X6802487Y-16493448D02*
X6821535Y-16493448D01*
X6821535Y-16493448D02*
X6840582Y-16502972D01*
X6840582Y-16502972D02*
X6850106Y-16512496D01*
X6850106Y-16512496D02*
X6859630Y-16531544D01*
X6859630Y-16531544D02*
X6869154Y-16569639D01*
X6869154Y-16569639D02*
X6869154Y-16617258D01*
X6869154Y-16617258D02*
X6859630Y-16655353D01*
X6859630Y-16655353D02*
X6850106Y-16674401D01*
X6850106Y-16674401D02*
X6840582Y-16683925D01*
X6840582Y-16683925D02*
X6821535Y-16693448D01*
X6821535Y-16693448D02*
X6802487Y-16693448D01*
X6802487Y-16693448D02*
X6783439Y-16683925D01*
X6783439Y-16683925D02*
X6773916Y-16674401D01*
X6773916Y-16674401D02*
X6764392Y-16655353D01*
X6764392Y-16655353D02*
X6754868Y-16617258D01*
X6754868Y-16617258D02*
X6754868Y-16569639D01*
X6754868Y-16569639D02*
X6764392Y-16531544D01*
X6764392Y-16531544D02*
X6773916Y-16512496D01*
X6773916Y-16512496D02*
X6783439Y-16502972D01*
X6783439Y-16502972D02*
X6802487Y-16493448D01*
X6954868Y-16674401D02*
X6964392Y-16683925D01*
X6964392Y-16683925D02*
X6954868Y-16693448D01*
X6954868Y-16693448D02*
X6945344Y-16683925D01*
X6945344Y-16683925D02*
X6954868Y-16674401D01*
X6954868Y-16674401D02*
X6954868Y-16693448D01*
X7088201Y-16493448D02*
X7107249Y-16493448D01*
X7107249Y-16493448D02*
X7126297Y-16502972D01*
X7126297Y-16502972D02*
X7135820Y-16512496D01*
X7135820Y-16512496D02*
X7145344Y-16531544D01*
X7145344Y-16531544D02*
X7154868Y-16569639D01*
X7154868Y-16569639D02*
X7154868Y-16617258D01*
X7154868Y-16617258D02*
X7145344Y-16655353D01*
X7145344Y-16655353D02*
X7135820Y-16674401D01*
X7135820Y-16674401D02*
X7126297Y-16683925D01*
X7126297Y-16683925D02*
X7107249Y-16693448D01*
X7107249Y-16693448D02*
X7088201Y-16693448D01*
X7088201Y-16693448D02*
X7069154Y-16683925D01*
X7069154Y-16683925D02*
X7059630Y-16674401D01*
X7059630Y-16674401D02*
X7050106Y-16655353D01*
X7050106Y-16655353D02*
X7040582Y-16617258D01*
X7040582Y-16617258D02*
X7040582Y-16569639D01*
X7040582Y-16569639D02*
X7050106Y-16531544D01*
X7050106Y-16531544D02*
X7059630Y-16512496D01*
X7059630Y-16512496D02*
X7069154Y-16502972D01*
X7069154Y-16502972D02*
X7088201Y-16493448D01*
X7221535Y-16493448D02*
X7345344Y-16493448D01*
X7345344Y-16493448D02*
X7278677Y-16569639D01*
X7278677Y-16569639D02*
X7307249Y-16569639D01*
X7307249Y-16569639D02*
X7326297Y-16579163D01*
X7326297Y-16579163D02*
X7335820Y-16588687D01*
X7335820Y-16588687D02*
X7345344Y-16607734D01*
X7345344Y-16607734D02*
X7345344Y-16655353D01*
X7345344Y-16655353D02*
X7335820Y-16674401D01*
X7335820Y-16674401D02*
X7326297Y-16683925D01*
X7326297Y-16683925D02*
X7307249Y-16693448D01*
X7307249Y-16693448D02*
X7250106Y-16693448D01*
X7250106Y-16693448D02*
X7231058Y-16683925D01*
X7231058Y-16683925D02*
X7221535Y-16674401D01*
X7516773Y-16560115D02*
X7516773Y-16693448D01*
X7469154Y-16483925D02*
X7421535Y-16626782D01*
X7421535Y-16626782D02*
X7545344Y-16626782D01*
X7659630Y-16493448D02*
X7678678Y-16493448D01*
X7678678Y-16493448D02*
X7697725Y-16502972D01*
X7697725Y-16502972D02*
X7707249Y-16512496D01*
X7707249Y-16512496D02*
X7716773Y-16531544D01*
X7716773Y-16531544D02*
X7726297Y-16569639D01*
X7726297Y-16569639D02*
X7726297Y-16617258D01*
X7726297Y-16617258D02*
X7716773Y-16655353D01*
X7716773Y-16655353D02*
X7707249Y-16674401D01*
X7707249Y-16674401D02*
X7697725Y-16683925D01*
X7697725Y-16683925D02*
X7678678Y-16693448D01*
X7678678Y-16693448D02*
X7659630Y-16693448D01*
X7659630Y-16693448D02*
X7640582Y-16683925D01*
X7640582Y-16683925D02*
X7631058Y-16674401D01*
X7631058Y-16674401D02*
X7621535Y-16655353D01*
X7621535Y-16655353D02*
X7612011Y-16617258D01*
X7612011Y-16617258D02*
X7612011Y-16569639D01*
X7612011Y-16569639D02*
X7621535Y-16531544D01*
X7621535Y-16531544D02*
X7631058Y-16512496D01*
X7631058Y-16512496D02*
X7640582Y-16502972D01*
X7640582Y-16502972D02*
X7659630Y-16493448D01*
X7802487Y-16493448D02*
X7802487Y-16531544D01*
X7878678Y-16493448D02*
X7878678Y-16531544D01*
X8173916Y-16769639D02*
X8164392Y-16760115D01*
X8164392Y-16760115D02*
X8145344Y-16731544D01*
X8145344Y-16731544D02*
X8135820Y-16712496D01*
X8135820Y-16712496D02*
X8126297Y-16683925D01*
X8126297Y-16683925D02*
X8116773Y-16636306D01*
X8116773Y-16636306D02*
X8116773Y-16598210D01*
X8116773Y-16598210D02*
X8126297Y-16550591D01*
X8126297Y-16550591D02*
X8135820Y-16522020D01*
X8135820Y-16522020D02*
X8145344Y-16502972D01*
X8145344Y-16502972D02*
X8164392Y-16474401D01*
X8164392Y-16474401D02*
X8173916Y-16464877D01*
X8335820Y-16560115D02*
X8335820Y-16693448D01*
X8288201Y-16483925D02*
X8240582Y-16626782D01*
X8240582Y-16626782D02*
X8364392Y-16626782D01*
X8592963Y-16693448D02*
X8592963Y-16493448D01*
X8678678Y-16693448D02*
X8678678Y-16588687D01*
X8678678Y-16588687D02*
X8669154Y-16569639D01*
X8669154Y-16569639D02*
X8650106Y-16560115D01*
X8650106Y-16560115D02*
X8621535Y-16560115D01*
X8621535Y-16560115D02*
X8602487Y-16569639D01*
X8602487Y-16569639D02*
X8592963Y-16579163D01*
X8802487Y-16693448D02*
X8783440Y-16683925D01*
X8783440Y-16683925D02*
X8773916Y-16674401D01*
X8773916Y-16674401D02*
X8764392Y-16655353D01*
X8764392Y-16655353D02*
X8764392Y-16598210D01*
X8764392Y-16598210D02*
X8773916Y-16579163D01*
X8773916Y-16579163D02*
X8783440Y-16569639D01*
X8783440Y-16569639D02*
X8802487Y-16560115D01*
X8802487Y-16560115D02*
X8831059Y-16560115D01*
X8831059Y-16560115D02*
X8850106Y-16569639D01*
X8850106Y-16569639D02*
X8859630Y-16579163D01*
X8859630Y-16579163D02*
X8869154Y-16598210D01*
X8869154Y-16598210D02*
X8869154Y-16655353D01*
X8869154Y-16655353D02*
X8859630Y-16674401D01*
X8859630Y-16674401D02*
X8850106Y-16683925D01*
X8850106Y-16683925D02*
X8831059Y-16693448D01*
X8831059Y-16693448D02*
X8802487Y-16693448D01*
X8983440Y-16693448D02*
X8964392Y-16683925D01*
X8964392Y-16683925D02*
X8954868Y-16664877D01*
X8954868Y-16664877D02*
X8954868Y-16493448D01*
X9135821Y-16683925D02*
X9116773Y-16693448D01*
X9116773Y-16693448D02*
X9078678Y-16693448D01*
X9078678Y-16693448D02*
X9059630Y-16683925D01*
X9059630Y-16683925D02*
X9050106Y-16664877D01*
X9050106Y-16664877D02*
X9050106Y-16588687D01*
X9050106Y-16588687D02*
X9059630Y-16569639D01*
X9059630Y-16569639D02*
X9078678Y-16560115D01*
X9078678Y-16560115D02*
X9116773Y-16560115D01*
X9116773Y-16560115D02*
X9135821Y-16569639D01*
X9135821Y-16569639D02*
X9145344Y-16588687D01*
X9145344Y-16588687D02*
X9145344Y-16607734D01*
X9145344Y-16607734D02*
X9050106Y-16626782D01*
X9221535Y-16683925D02*
X9240583Y-16693448D01*
X9240583Y-16693448D02*
X9278678Y-16693448D01*
X9278678Y-16693448D02*
X9297725Y-16683925D01*
X9297725Y-16683925D02*
X9307249Y-16664877D01*
X9307249Y-16664877D02*
X9307249Y-16655353D01*
X9307249Y-16655353D02*
X9297725Y-16636306D01*
X9297725Y-16636306D02*
X9278678Y-16626782D01*
X9278678Y-16626782D02*
X9250106Y-16626782D01*
X9250106Y-16626782D02*
X9231059Y-16617258D01*
X9231059Y-16617258D02*
X9221535Y-16598210D01*
X9221535Y-16598210D02*
X9221535Y-16588687D01*
X9221535Y-16588687D02*
X9231059Y-16569639D01*
X9231059Y-16569639D02*
X9250106Y-16560115D01*
X9250106Y-16560115D02*
X9278678Y-16560115D01*
X9278678Y-16560115D02*
X9297725Y-16569639D01*
X9373916Y-16769639D02*
X9383440Y-16760115D01*
X9383440Y-16760115D02*
X9402487Y-16731544D01*
X9402487Y-16731544D02*
X9412011Y-16712496D01*
X9412011Y-16712496D02*
X9421535Y-16683925D01*
X9421535Y-16683925D02*
X9431059Y-16636306D01*
X9431059Y-16636306D02*
X9431059Y-16598210D01*
X9431059Y-16598210D02*
X9421535Y-16550591D01*
X9421535Y-16550591D02*
X9412011Y-16522020D01*
X9412011Y-16522020D02*
X9402487Y-16502972D01*
X9402487Y-16502972D02*
X9383440Y-16474401D01*
X9383440Y-16474401D02*
X9373916Y-16464877D01*
D12*
X4554403Y-16910415D02*
X4598853Y-16865965D01*
X4554403Y-16821515D01*
X4509953Y-16865965D01*
X4554403Y-16910415D01*
D11*
X4897725Y-16757448D02*
X4916773Y-16757448D01*
X4916773Y-16757448D02*
X4935820Y-16766972D01*
X4935820Y-16766972D02*
X4945344Y-16776496D01*
X4945344Y-16776496D02*
X4954868Y-16795544D01*
X4954868Y-16795544D02*
X4964392Y-16833639D01*
X4964392Y-16833639D02*
X4964392Y-16881258D01*
X4964392Y-16881258D02*
X4954868Y-16919353D01*
X4954868Y-16919353D02*
X4945344Y-16938401D01*
X4945344Y-16938401D02*
X4935820Y-16947925D01*
X4935820Y-16947925D02*
X4916773Y-16957449D01*
X4916773Y-16957449D02*
X4897725Y-16957449D01*
X4897725Y-16957449D02*
X4878677Y-16947925D01*
X4878677Y-16947925D02*
X4869154Y-16938401D01*
X4869154Y-16938401D02*
X4859630Y-16919353D01*
X4859630Y-16919353D02*
X4850106Y-16881258D01*
X4850106Y-16881258D02*
X4850106Y-16833639D01*
X4850106Y-16833639D02*
X4859630Y-16795544D01*
X4859630Y-16795544D02*
X4869154Y-16776496D01*
X4869154Y-16776496D02*
X4878677Y-16766972D01*
X4878677Y-16766972D02*
X4897725Y-16757448D01*
X5050106Y-16938401D02*
X5059630Y-16947925D01*
X5059630Y-16947925D02*
X5050106Y-16957449D01*
X5050106Y-16957449D02*
X5040582Y-16947925D01*
X5040582Y-16947925D02*
X5050106Y-16938401D01*
X5050106Y-16938401D02*
X5050106Y-16957449D01*
X5173915Y-16843163D02*
X5154868Y-16833639D01*
X5154868Y-16833639D02*
X5145344Y-16824115D01*
X5145344Y-16824115D02*
X5135820Y-16805068D01*
X5135820Y-16805068D02*
X5135820Y-16795544D01*
X5135820Y-16795544D02*
X5145344Y-16776496D01*
X5145344Y-16776496D02*
X5154868Y-16766972D01*
X5154868Y-16766972D02*
X5173915Y-16757448D01*
X5173915Y-16757448D02*
X5212011Y-16757448D01*
X5212011Y-16757448D02*
X5231058Y-16766972D01*
X5231058Y-16766972D02*
X5240582Y-16776496D01*
X5240582Y-16776496D02*
X5250106Y-16795544D01*
X5250106Y-16795544D02*
X5250106Y-16805068D01*
X5250106Y-16805068D02*
X5240582Y-16824115D01*
X5240582Y-16824115D02*
X5231058Y-16833639D01*
X5231058Y-16833639D02*
X5212011Y-16843163D01*
X5212011Y-16843163D02*
X5173915Y-16843163D01*
X5173915Y-16843163D02*
X5154868Y-16852687D01*
X5154868Y-16852687D02*
X5145344Y-16862210D01*
X5145344Y-16862210D02*
X5135820Y-16881258D01*
X5135820Y-16881258D02*
X5135820Y-16919353D01*
X5135820Y-16919353D02*
X5145344Y-16938401D01*
X5145344Y-16938401D02*
X5154868Y-16947925D01*
X5154868Y-16947925D02*
X5173915Y-16957449D01*
X5173915Y-16957449D02*
X5212011Y-16957449D01*
X5212011Y-16957449D02*
X5231058Y-16947925D01*
X5231058Y-16947925D02*
X5240582Y-16938401D01*
X5240582Y-16938401D02*
X5250106Y-16919353D01*
X5250106Y-16919353D02*
X5250106Y-16881258D01*
X5250106Y-16881258D02*
X5240582Y-16862210D01*
X5240582Y-16862210D02*
X5231058Y-16852687D01*
X5231058Y-16852687D02*
X5212011Y-16843163D01*
X5364392Y-16843163D02*
X5345344Y-16833639D01*
X5345344Y-16833639D02*
X5335820Y-16824115D01*
X5335820Y-16824115D02*
X5326296Y-16805068D01*
X5326296Y-16805068D02*
X5326296Y-16795544D01*
X5326296Y-16795544D02*
X5335820Y-16776496D01*
X5335820Y-16776496D02*
X5345344Y-16766972D01*
X5345344Y-16766972D02*
X5364392Y-16757448D01*
X5364392Y-16757448D02*
X5402487Y-16757448D01*
X5402487Y-16757448D02*
X5421535Y-16766972D01*
X5421535Y-16766972D02*
X5431058Y-16776496D01*
X5431058Y-16776496D02*
X5440582Y-16795544D01*
X5440582Y-16795544D02*
X5440582Y-16805068D01*
X5440582Y-16805068D02*
X5431058Y-16824115D01*
X5431058Y-16824115D02*
X5421535Y-16833639D01*
X5421535Y-16833639D02*
X5402487Y-16843163D01*
X5402487Y-16843163D02*
X5364392Y-16843163D01*
X5364392Y-16843163D02*
X5345344Y-16852687D01*
X5345344Y-16852687D02*
X5335820Y-16862210D01*
X5335820Y-16862210D02*
X5326296Y-16881258D01*
X5326296Y-16881258D02*
X5326296Y-16919353D01*
X5326296Y-16919353D02*
X5335820Y-16938401D01*
X5335820Y-16938401D02*
X5345344Y-16947925D01*
X5345344Y-16947925D02*
X5364392Y-16957449D01*
X5364392Y-16957449D02*
X5402487Y-16957449D01*
X5402487Y-16957449D02*
X5421535Y-16947925D01*
X5421535Y-16947925D02*
X5431058Y-16938401D01*
X5431058Y-16938401D02*
X5440582Y-16919353D01*
X5440582Y-16919353D02*
X5440582Y-16881258D01*
X5440582Y-16881258D02*
X5431058Y-16862210D01*
X5431058Y-16862210D02*
X5421535Y-16852687D01*
X5421535Y-16852687D02*
X5402487Y-16843163D01*
X5535820Y-16957449D02*
X5573915Y-16957449D01*
X5573915Y-16957449D02*
X5592963Y-16947925D01*
X5592963Y-16947925D02*
X5602487Y-16938401D01*
X5602487Y-16938401D02*
X5621534Y-16909829D01*
X5621534Y-16909829D02*
X5631058Y-16871734D01*
X5631058Y-16871734D02*
X5631058Y-16795544D01*
X5631058Y-16795544D02*
X5621534Y-16776496D01*
X5621534Y-16776496D02*
X5612011Y-16766972D01*
X5612011Y-16766972D02*
X5592963Y-16757448D01*
X5592963Y-16757448D02*
X5554868Y-16757448D01*
X5554868Y-16757448D02*
X5535820Y-16766972D01*
X5535820Y-16766972D02*
X5526296Y-16776496D01*
X5526296Y-16776496D02*
X5516773Y-16795544D01*
X5516773Y-16795544D02*
X5516773Y-16843163D01*
X5516773Y-16843163D02*
X5526296Y-16862210D01*
X5526296Y-16862210D02*
X5535820Y-16871734D01*
X5535820Y-16871734D02*
X5554868Y-16881258D01*
X5554868Y-16881258D02*
X5592963Y-16881258D01*
X5592963Y-16881258D02*
X5612011Y-16871734D01*
X5612011Y-16871734D02*
X5621534Y-16862210D01*
X5621534Y-16862210D02*
X5631058Y-16843163D01*
X5716773Y-16957449D02*
X5716773Y-16824115D01*
X5716773Y-16843163D02*
X5726296Y-16833639D01*
X5726296Y-16833639D02*
X5745344Y-16824115D01*
X5745344Y-16824115D02*
X5773915Y-16824115D01*
X5773915Y-16824115D02*
X5792963Y-16833639D01*
X5792963Y-16833639D02*
X5802487Y-16852687D01*
X5802487Y-16852687D02*
X5802487Y-16957449D01*
X5802487Y-16852687D02*
X5812011Y-16833639D01*
X5812011Y-16833639D02*
X5831058Y-16824115D01*
X5831058Y-16824115D02*
X5859630Y-16824115D01*
X5859630Y-16824115D02*
X5878677Y-16833639D01*
X5878677Y-16833639D02*
X5888201Y-16852687D01*
X5888201Y-16852687D02*
X5888201Y-16957449D01*
X5983439Y-16957449D02*
X5983439Y-16824115D01*
X5983439Y-16843163D02*
X5992963Y-16833639D01*
X5992963Y-16833639D02*
X6012011Y-16824115D01*
X6012011Y-16824115D02*
X6040582Y-16824115D01*
X6040582Y-16824115D02*
X6059630Y-16833639D01*
X6059630Y-16833639D02*
X6069154Y-16852687D01*
X6069154Y-16852687D02*
X6069154Y-16957449D01*
X6069154Y-16852687D02*
X6078677Y-16833639D01*
X6078677Y-16833639D02*
X6097725Y-16824115D01*
X6097725Y-16824115D02*
X6126296Y-16824115D01*
X6126296Y-16824115D02*
X6145344Y-16833639D01*
X6145344Y-16833639D02*
X6154868Y-16852687D01*
X6154868Y-16852687D02*
X6154868Y-16957449D01*
X6545344Y-16747925D02*
X6373916Y-17005068D01*
X6802487Y-16757448D02*
X6821535Y-16757448D01*
X6821535Y-16757448D02*
X6840582Y-16766972D01*
X6840582Y-16766972D02*
X6850106Y-16776496D01*
X6850106Y-16776496D02*
X6859630Y-16795544D01*
X6859630Y-16795544D02*
X6869154Y-16833639D01*
X6869154Y-16833639D02*
X6869154Y-16881258D01*
X6869154Y-16881258D02*
X6859630Y-16919353D01*
X6859630Y-16919353D02*
X6850106Y-16938401D01*
X6850106Y-16938401D02*
X6840582Y-16947925D01*
X6840582Y-16947925D02*
X6821535Y-16957449D01*
X6821535Y-16957449D02*
X6802487Y-16957449D01*
X6802487Y-16957449D02*
X6783439Y-16947925D01*
X6783439Y-16947925D02*
X6773916Y-16938401D01*
X6773916Y-16938401D02*
X6764392Y-16919353D01*
X6764392Y-16919353D02*
X6754868Y-16881258D01*
X6754868Y-16881258D02*
X6754868Y-16833639D01*
X6754868Y-16833639D02*
X6764392Y-16795544D01*
X6764392Y-16795544D02*
X6773916Y-16776496D01*
X6773916Y-16776496D02*
X6783439Y-16766972D01*
X6783439Y-16766972D02*
X6802487Y-16757448D01*
X6954868Y-16938401D02*
X6964392Y-16947925D01*
X6964392Y-16947925D02*
X6954868Y-16957449D01*
X6954868Y-16957449D02*
X6945344Y-16947925D01*
X6945344Y-16947925D02*
X6954868Y-16938401D01*
X6954868Y-16938401D02*
X6954868Y-16957449D01*
X7088201Y-16757448D02*
X7107249Y-16757448D01*
X7107249Y-16757448D02*
X7126297Y-16766972D01*
X7126297Y-16766972D02*
X7135820Y-16776496D01*
X7135820Y-16776496D02*
X7145344Y-16795544D01*
X7145344Y-16795544D02*
X7154868Y-16833639D01*
X7154868Y-16833639D02*
X7154868Y-16881258D01*
X7154868Y-16881258D02*
X7145344Y-16919353D01*
X7145344Y-16919353D02*
X7135820Y-16938401D01*
X7135820Y-16938401D02*
X7126297Y-16947925D01*
X7126297Y-16947925D02*
X7107249Y-16957449D01*
X7107249Y-16957449D02*
X7088201Y-16957449D01*
X7088201Y-16957449D02*
X7069154Y-16947925D01*
X7069154Y-16947925D02*
X7059630Y-16938401D01*
X7059630Y-16938401D02*
X7050106Y-16919353D01*
X7050106Y-16919353D02*
X7040582Y-16881258D01*
X7040582Y-16881258D02*
X7040582Y-16833639D01*
X7040582Y-16833639D02*
X7050106Y-16795544D01*
X7050106Y-16795544D02*
X7059630Y-16776496D01*
X7059630Y-16776496D02*
X7069154Y-16766972D01*
X7069154Y-16766972D02*
X7088201Y-16757448D01*
X7221535Y-16757448D02*
X7345344Y-16757448D01*
X7345344Y-16757448D02*
X7278677Y-16833639D01*
X7278677Y-16833639D02*
X7307249Y-16833639D01*
X7307249Y-16833639D02*
X7326297Y-16843163D01*
X7326297Y-16843163D02*
X7335820Y-16852687D01*
X7335820Y-16852687D02*
X7345344Y-16871734D01*
X7345344Y-16871734D02*
X7345344Y-16919353D01*
X7345344Y-16919353D02*
X7335820Y-16938401D01*
X7335820Y-16938401D02*
X7326297Y-16947925D01*
X7326297Y-16947925D02*
X7307249Y-16957449D01*
X7307249Y-16957449D02*
X7250106Y-16957449D01*
X7250106Y-16957449D02*
X7231058Y-16947925D01*
X7231058Y-16947925D02*
X7221535Y-16938401D01*
X7526297Y-16757448D02*
X7431058Y-16757448D01*
X7431058Y-16757448D02*
X7421535Y-16852687D01*
X7421535Y-16852687D02*
X7431058Y-16843163D01*
X7431058Y-16843163D02*
X7450106Y-16833639D01*
X7450106Y-16833639D02*
X7497725Y-16833639D01*
X7497725Y-16833639D02*
X7516773Y-16843163D01*
X7516773Y-16843163D02*
X7526297Y-16852687D01*
X7526297Y-16852687D02*
X7535820Y-16871734D01*
X7535820Y-16871734D02*
X7535820Y-16919353D01*
X7535820Y-16919353D02*
X7526297Y-16938401D01*
X7526297Y-16938401D02*
X7516773Y-16947925D01*
X7516773Y-16947925D02*
X7497725Y-16957449D01*
X7497725Y-16957449D02*
X7450106Y-16957449D01*
X7450106Y-16957449D02*
X7431058Y-16947925D01*
X7431058Y-16947925D02*
X7421535Y-16938401D01*
X7659630Y-16757448D02*
X7678678Y-16757448D01*
X7678678Y-16757448D02*
X7697725Y-16766972D01*
X7697725Y-16766972D02*
X7707249Y-16776496D01*
X7707249Y-16776496D02*
X7716773Y-16795544D01*
X7716773Y-16795544D02*
X7726297Y-16833639D01*
X7726297Y-16833639D02*
X7726297Y-16881258D01*
X7726297Y-16881258D02*
X7716773Y-16919353D01*
X7716773Y-16919353D02*
X7707249Y-16938401D01*
X7707249Y-16938401D02*
X7697725Y-16947925D01*
X7697725Y-16947925D02*
X7678678Y-16957449D01*
X7678678Y-16957449D02*
X7659630Y-16957449D01*
X7659630Y-16957449D02*
X7640582Y-16947925D01*
X7640582Y-16947925D02*
X7631058Y-16938401D01*
X7631058Y-16938401D02*
X7621535Y-16919353D01*
X7621535Y-16919353D02*
X7612011Y-16881258D01*
X7612011Y-16881258D02*
X7612011Y-16833639D01*
X7612011Y-16833639D02*
X7621535Y-16795544D01*
X7621535Y-16795544D02*
X7631058Y-16776496D01*
X7631058Y-16776496D02*
X7640582Y-16766972D01*
X7640582Y-16766972D02*
X7659630Y-16757448D01*
X7802487Y-16757448D02*
X7802487Y-16795544D01*
X7878678Y-16757448D02*
X7878678Y-16795544D01*
X8173916Y-17033639D02*
X8164392Y-17024115D01*
X8164392Y-17024115D02*
X8145344Y-16995544D01*
X8145344Y-16995544D02*
X8135820Y-16976496D01*
X8135820Y-16976496D02*
X8126297Y-16947925D01*
X8126297Y-16947925D02*
X8116773Y-16900306D01*
X8116773Y-16900306D02*
X8116773Y-16862210D01*
X8116773Y-16862210D02*
X8126297Y-16814591D01*
X8126297Y-16814591D02*
X8135820Y-16786020D01*
X8135820Y-16786020D02*
X8145344Y-16766972D01*
X8145344Y-16766972D02*
X8164392Y-16738401D01*
X8164392Y-16738401D02*
X8173916Y-16728877D01*
X8354868Y-16957449D02*
X8240582Y-16957449D01*
X8297725Y-16957449D02*
X8297725Y-16757448D01*
X8297725Y-16757448D02*
X8278678Y-16786020D01*
X8278678Y-16786020D02*
X8259630Y-16805068D01*
X8259630Y-16805068D02*
X8240582Y-16814591D01*
X8526297Y-16824115D02*
X8526297Y-16957449D01*
X8478678Y-16747925D02*
X8431059Y-16890782D01*
X8431059Y-16890782D02*
X8554868Y-16890782D01*
X8783440Y-16957449D02*
X8783440Y-16757448D01*
X8869154Y-16957449D02*
X8869154Y-16852687D01*
X8869154Y-16852687D02*
X8859630Y-16833639D01*
X8859630Y-16833639D02*
X8840583Y-16824115D01*
X8840583Y-16824115D02*
X8812011Y-16824115D01*
X8812011Y-16824115D02*
X8792963Y-16833639D01*
X8792963Y-16833639D02*
X8783440Y-16843163D01*
X8992963Y-16957449D02*
X8973916Y-16947925D01*
X8973916Y-16947925D02*
X8964392Y-16938401D01*
X8964392Y-16938401D02*
X8954868Y-16919353D01*
X8954868Y-16919353D02*
X8954868Y-16862210D01*
X8954868Y-16862210D02*
X8964392Y-16843163D01*
X8964392Y-16843163D02*
X8973916Y-16833639D01*
X8973916Y-16833639D02*
X8992963Y-16824115D01*
X8992963Y-16824115D02*
X9021535Y-16824115D01*
X9021535Y-16824115D02*
X9040583Y-16833639D01*
X9040583Y-16833639D02*
X9050106Y-16843163D01*
X9050106Y-16843163D02*
X9059630Y-16862210D01*
X9059630Y-16862210D02*
X9059630Y-16919353D01*
X9059630Y-16919353D02*
X9050106Y-16938401D01*
X9050106Y-16938401D02*
X9040583Y-16947925D01*
X9040583Y-16947925D02*
X9021535Y-16957449D01*
X9021535Y-16957449D02*
X8992963Y-16957449D01*
X9173916Y-16957449D02*
X9154868Y-16947925D01*
X9154868Y-16947925D02*
X9145344Y-16928877D01*
X9145344Y-16928877D02*
X9145344Y-16757448D01*
X9326297Y-16947925D02*
X9307249Y-16957449D01*
X9307249Y-16957449D02*
X9269154Y-16957449D01*
X9269154Y-16957449D02*
X9250106Y-16947925D01*
X9250106Y-16947925D02*
X9240583Y-16928877D01*
X9240583Y-16928877D02*
X9240583Y-16852687D01*
X9240583Y-16852687D02*
X9250106Y-16833639D01*
X9250106Y-16833639D02*
X9269154Y-16824115D01*
X9269154Y-16824115D02*
X9307249Y-16824115D01*
X9307249Y-16824115D02*
X9326297Y-16833639D01*
X9326297Y-16833639D02*
X9335821Y-16852687D01*
X9335821Y-16852687D02*
X9335821Y-16871734D01*
X9335821Y-16871734D02*
X9240583Y-16890782D01*
X9412011Y-16947925D02*
X9431059Y-16957449D01*
X9431059Y-16957449D02*
X9469154Y-16957449D01*
X9469154Y-16957449D02*
X9488202Y-16947925D01*
X9488202Y-16947925D02*
X9497725Y-16928877D01*
X9497725Y-16928877D02*
X9497725Y-16919353D01*
X9497725Y-16919353D02*
X9488202Y-16900306D01*
X9488202Y-16900306D02*
X9469154Y-16890782D01*
X9469154Y-16890782D02*
X9440583Y-16890782D01*
X9440583Y-16890782D02*
X9421535Y-16881258D01*
X9421535Y-16881258D02*
X9412011Y-16862210D01*
X9412011Y-16862210D02*
X9412011Y-16852687D01*
X9412011Y-16852687D02*
X9421535Y-16833639D01*
X9421535Y-16833639D02*
X9440583Y-16824115D01*
X9440583Y-16824115D02*
X9469154Y-16824115D01*
X9469154Y-16824115D02*
X9488202Y-16833639D01*
X9564392Y-17033639D02*
X9573916Y-17024115D01*
X9573916Y-17024115D02*
X9592964Y-16995544D01*
X9592964Y-16995544D02*
X9602487Y-16976496D01*
X9602487Y-16976496D02*
X9612011Y-16947925D01*
X9612011Y-16947925D02*
X9621535Y-16900306D01*
X9621535Y-16900306D02*
X9621535Y-16862210D01*
X9621535Y-16862210D02*
X9612011Y-16814591D01*
X9612011Y-16814591D02*
X9602487Y-16786020D01*
X9602487Y-16786020D02*
X9592964Y-16766972D01*
X9592964Y-16766972D02*
X9573916Y-16738401D01*
X9573916Y-16738401D02*
X9564392Y-16728877D01*
D12*
X4498853Y-17079965D02*
X4598853Y-17179965D01*
X4598853Y-17079965D02*
X4498853Y-17179965D01*
X4598853Y-17129965D02*
G75*
G02*
X4498853Y-17129965I-50000J0D01*
G01*
X4498853Y-17129965D02*
G75*
G02*
X4598853Y-17129965I50000J0D01*
G01*
D11*
X4964392Y-17221449D02*
X4850106Y-17221449D01*
X4907249Y-17221449D02*
X4907249Y-17021449D01*
X4907249Y-17021449D02*
X4888201Y-17050020D01*
X4888201Y-17050020D02*
X4869154Y-17069068D01*
X4869154Y-17069068D02*
X4850106Y-17078591D01*
X5050106Y-17202401D02*
X5059630Y-17211925D01*
X5059630Y-17211925D02*
X5050106Y-17221449D01*
X5050106Y-17221449D02*
X5040582Y-17211925D01*
X5040582Y-17211925D02*
X5050106Y-17202401D01*
X5050106Y-17202401D02*
X5050106Y-17221449D01*
X5183439Y-17021449D02*
X5202487Y-17021449D01*
X5202487Y-17021449D02*
X5221535Y-17030972D01*
X5221535Y-17030972D02*
X5231058Y-17040496D01*
X5231058Y-17040496D02*
X5240582Y-17059544D01*
X5240582Y-17059544D02*
X5250106Y-17097639D01*
X5250106Y-17097639D02*
X5250106Y-17145258D01*
X5250106Y-17145258D02*
X5240582Y-17183353D01*
X5240582Y-17183353D02*
X5231058Y-17202401D01*
X5231058Y-17202401D02*
X5221535Y-17211925D01*
X5221535Y-17211925D02*
X5202487Y-17221449D01*
X5202487Y-17221449D02*
X5183439Y-17221449D01*
X5183439Y-17221449D02*
X5164392Y-17211925D01*
X5164392Y-17211925D02*
X5154868Y-17202401D01*
X5154868Y-17202401D02*
X5145344Y-17183353D01*
X5145344Y-17183353D02*
X5135820Y-17145258D01*
X5135820Y-17145258D02*
X5135820Y-17097639D01*
X5135820Y-17097639D02*
X5145344Y-17059544D01*
X5145344Y-17059544D02*
X5154868Y-17040496D01*
X5154868Y-17040496D02*
X5164392Y-17030972D01*
X5164392Y-17030972D02*
X5183439Y-17021449D01*
X5373915Y-17021449D02*
X5392963Y-17021449D01*
X5392963Y-17021449D02*
X5412011Y-17030972D01*
X5412011Y-17030972D02*
X5421535Y-17040496D01*
X5421535Y-17040496D02*
X5431058Y-17059544D01*
X5431058Y-17059544D02*
X5440582Y-17097639D01*
X5440582Y-17097639D02*
X5440582Y-17145258D01*
X5440582Y-17145258D02*
X5431058Y-17183353D01*
X5431058Y-17183353D02*
X5421535Y-17202401D01*
X5421535Y-17202401D02*
X5412011Y-17211925D01*
X5412011Y-17211925D02*
X5392963Y-17221449D01*
X5392963Y-17221449D02*
X5373915Y-17221449D01*
X5373915Y-17221449D02*
X5354868Y-17211925D01*
X5354868Y-17211925D02*
X5345344Y-17202401D01*
X5345344Y-17202401D02*
X5335820Y-17183353D01*
X5335820Y-17183353D02*
X5326296Y-17145258D01*
X5326296Y-17145258D02*
X5326296Y-17097639D01*
X5326296Y-17097639D02*
X5335820Y-17059544D01*
X5335820Y-17059544D02*
X5345344Y-17040496D01*
X5345344Y-17040496D02*
X5354868Y-17030972D01*
X5354868Y-17030972D02*
X5373915Y-17021449D01*
X5564392Y-17021449D02*
X5583439Y-17021449D01*
X5583439Y-17021449D02*
X5602487Y-17030972D01*
X5602487Y-17030972D02*
X5612011Y-17040496D01*
X5612011Y-17040496D02*
X5621534Y-17059544D01*
X5621534Y-17059544D02*
X5631058Y-17097639D01*
X5631058Y-17097639D02*
X5631058Y-17145258D01*
X5631058Y-17145258D02*
X5621534Y-17183353D01*
X5621534Y-17183353D02*
X5612011Y-17202401D01*
X5612011Y-17202401D02*
X5602487Y-17211925D01*
X5602487Y-17211925D02*
X5583439Y-17221449D01*
X5583439Y-17221449D02*
X5564392Y-17221449D01*
X5564392Y-17221449D02*
X5545344Y-17211925D01*
X5545344Y-17211925D02*
X5535820Y-17202401D01*
X5535820Y-17202401D02*
X5526296Y-17183353D01*
X5526296Y-17183353D02*
X5516773Y-17145258D01*
X5516773Y-17145258D02*
X5516773Y-17097639D01*
X5516773Y-17097639D02*
X5526296Y-17059544D01*
X5526296Y-17059544D02*
X5535820Y-17040496D01*
X5535820Y-17040496D02*
X5545344Y-17030972D01*
X5545344Y-17030972D02*
X5564392Y-17021449D01*
X5716773Y-17221449D02*
X5716773Y-17088115D01*
X5716773Y-17107163D02*
X5726296Y-17097639D01*
X5726296Y-17097639D02*
X5745344Y-17088115D01*
X5745344Y-17088115D02*
X5773915Y-17088115D01*
X5773915Y-17088115D02*
X5792963Y-17097639D01*
X5792963Y-17097639D02*
X5802487Y-17116687D01*
X5802487Y-17116687D02*
X5802487Y-17221449D01*
X5802487Y-17116687D02*
X5812011Y-17097639D01*
X5812011Y-17097639D02*
X5831058Y-17088115D01*
X5831058Y-17088115D02*
X5859630Y-17088115D01*
X5859630Y-17088115D02*
X5878677Y-17097639D01*
X5878677Y-17097639D02*
X5888201Y-17116687D01*
X5888201Y-17116687D02*
X5888201Y-17221449D01*
X5983439Y-17221449D02*
X5983439Y-17088115D01*
X5983439Y-17107163D02*
X5992963Y-17097639D01*
X5992963Y-17097639D02*
X6012011Y-17088115D01*
X6012011Y-17088115D02*
X6040582Y-17088115D01*
X6040582Y-17088115D02*
X6059630Y-17097639D01*
X6059630Y-17097639D02*
X6069154Y-17116687D01*
X6069154Y-17116687D02*
X6069154Y-17221449D01*
X6069154Y-17116687D02*
X6078677Y-17097639D01*
X6078677Y-17097639D02*
X6097725Y-17088115D01*
X6097725Y-17088115D02*
X6126296Y-17088115D01*
X6126296Y-17088115D02*
X6145344Y-17097639D01*
X6145344Y-17097639D02*
X6154868Y-17116687D01*
X6154868Y-17116687D02*
X6154868Y-17221449D01*
X6545344Y-17011925D02*
X6373916Y-17269068D01*
X6802487Y-17021449D02*
X6821535Y-17021449D01*
X6821535Y-17021449D02*
X6840582Y-17030972D01*
X6840582Y-17030972D02*
X6850106Y-17040496D01*
X6850106Y-17040496D02*
X6859630Y-17059544D01*
X6859630Y-17059544D02*
X6869154Y-17097639D01*
X6869154Y-17097639D02*
X6869154Y-17145258D01*
X6869154Y-17145258D02*
X6859630Y-17183353D01*
X6859630Y-17183353D02*
X6850106Y-17202401D01*
X6850106Y-17202401D02*
X6840582Y-17211925D01*
X6840582Y-17211925D02*
X6821535Y-17221449D01*
X6821535Y-17221449D02*
X6802487Y-17221449D01*
X6802487Y-17221449D02*
X6783439Y-17211925D01*
X6783439Y-17211925D02*
X6773916Y-17202401D01*
X6773916Y-17202401D02*
X6764392Y-17183353D01*
X6764392Y-17183353D02*
X6754868Y-17145258D01*
X6754868Y-17145258D02*
X6754868Y-17097639D01*
X6754868Y-17097639D02*
X6764392Y-17059544D01*
X6764392Y-17059544D02*
X6773916Y-17040496D01*
X6773916Y-17040496D02*
X6783439Y-17030972D01*
X6783439Y-17030972D02*
X6802487Y-17021449D01*
X6954868Y-17202401D02*
X6964392Y-17211925D01*
X6964392Y-17211925D02*
X6954868Y-17221449D01*
X6954868Y-17221449D02*
X6945344Y-17211925D01*
X6945344Y-17211925D02*
X6954868Y-17202401D01*
X6954868Y-17202401D02*
X6954868Y-17221449D01*
X7088201Y-17021449D02*
X7107249Y-17021449D01*
X7107249Y-17021449D02*
X7126297Y-17030972D01*
X7126297Y-17030972D02*
X7135820Y-17040496D01*
X7135820Y-17040496D02*
X7145344Y-17059544D01*
X7145344Y-17059544D02*
X7154868Y-17097639D01*
X7154868Y-17097639D02*
X7154868Y-17145258D01*
X7154868Y-17145258D02*
X7145344Y-17183353D01*
X7145344Y-17183353D02*
X7135820Y-17202401D01*
X7135820Y-17202401D02*
X7126297Y-17211925D01*
X7126297Y-17211925D02*
X7107249Y-17221449D01*
X7107249Y-17221449D02*
X7088201Y-17221449D01*
X7088201Y-17221449D02*
X7069154Y-17211925D01*
X7069154Y-17211925D02*
X7059630Y-17202401D01*
X7059630Y-17202401D02*
X7050106Y-17183353D01*
X7050106Y-17183353D02*
X7040582Y-17145258D01*
X7040582Y-17145258D02*
X7040582Y-17097639D01*
X7040582Y-17097639D02*
X7050106Y-17059544D01*
X7050106Y-17059544D02*
X7059630Y-17040496D01*
X7059630Y-17040496D02*
X7069154Y-17030972D01*
X7069154Y-17030972D02*
X7088201Y-17021449D01*
X7221535Y-17021449D02*
X7345344Y-17021449D01*
X7345344Y-17021449D02*
X7278677Y-17097639D01*
X7278677Y-17097639D02*
X7307249Y-17097639D01*
X7307249Y-17097639D02*
X7326297Y-17107163D01*
X7326297Y-17107163D02*
X7335820Y-17116687D01*
X7335820Y-17116687D02*
X7345344Y-17135734D01*
X7345344Y-17135734D02*
X7345344Y-17183353D01*
X7345344Y-17183353D02*
X7335820Y-17202401D01*
X7335820Y-17202401D02*
X7326297Y-17211925D01*
X7326297Y-17211925D02*
X7307249Y-17221449D01*
X7307249Y-17221449D02*
X7250106Y-17221449D01*
X7250106Y-17221449D02*
X7231058Y-17211925D01*
X7231058Y-17211925D02*
X7221535Y-17202401D01*
X7440582Y-17221449D02*
X7478677Y-17221449D01*
X7478677Y-17221449D02*
X7497725Y-17211925D01*
X7497725Y-17211925D02*
X7507249Y-17202401D01*
X7507249Y-17202401D02*
X7526297Y-17173829D01*
X7526297Y-17173829D02*
X7535820Y-17135734D01*
X7535820Y-17135734D02*
X7535820Y-17059544D01*
X7535820Y-17059544D02*
X7526297Y-17040496D01*
X7526297Y-17040496D02*
X7516773Y-17030972D01*
X7516773Y-17030972D02*
X7497725Y-17021449D01*
X7497725Y-17021449D02*
X7459630Y-17021449D01*
X7459630Y-17021449D02*
X7440582Y-17030972D01*
X7440582Y-17030972D02*
X7431058Y-17040496D01*
X7431058Y-17040496D02*
X7421535Y-17059544D01*
X7421535Y-17059544D02*
X7421535Y-17107163D01*
X7421535Y-17107163D02*
X7431058Y-17126210D01*
X7431058Y-17126210D02*
X7440582Y-17135734D01*
X7440582Y-17135734D02*
X7459630Y-17145258D01*
X7459630Y-17145258D02*
X7497725Y-17145258D01*
X7497725Y-17145258D02*
X7516773Y-17135734D01*
X7516773Y-17135734D02*
X7526297Y-17126210D01*
X7526297Y-17126210D02*
X7535820Y-17107163D01*
X7707249Y-17088115D02*
X7707249Y-17221449D01*
X7659630Y-17011925D02*
X7612011Y-17154782D01*
X7612011Y-17154782D02*
X7735820Y-17154782D01*
X7802487Y-17021449D02*
X7802487Y-17059544D01*
X7878678Y-17021449D02*
X7878678Y-17059544D01*
X8173916Y-17297639D02*
X8164392Y-17288115D01*
X8164392Y-17288115D02*
X8145344Y-17259544D01*
X8145344Y-17259544D02*
X8135820Y-17240496D01*
X8135820Y-17240496D02*
X8126297Y-17211925D01*
X8126297Y-17211925D02*
X8116773Y-17164306D01*
X8116773Y-17164306D02*
X8116773Y-17126210D01*
X8116773Y-17126210D02*
X8126297Y-17078591D01*
X8126297Y-17078591D02*
X8135820Y-17050020D01*
X8135820Y-17050020D02*
X8145344Y-17030972D01*
X8145344Y-17030972D02*
X8164392Y-17002401D01*
X8164392Y-17002401D02*
X8173916Y-16992877D01*
X8335820Y-17021449D02*
X8297725Y-17021449D01*
X8297725Y-17021449D02*
X8278678Y-17030972D01*
X8278678Y-17030972D02*
X8269154Y-17040496D01*
X8269154Y-17040496D02*
X8250106Y-17069068D01*
X8250106Y-17069068D02*
X8240582Y-17107163D01*
X8240582Y-17107163D02*
X8240582Y-17183353D01*
X8240582Y-17183353D02*
X8250106Y-17202401D01*
X8250106Y-17202401D02*
X8259630Y-17211925D01*
X8259630Y-17211925D02*
X8278678Y-17221449D01*
X8278678Y-17221449D02*
X8316773Y-17221449D01*
X8316773Y-17221449D02*
X8335820Y-17211925D01*
X8335820Y-17211925D02*
X8345344Y-17202401D01*
X8345344Y-17202401D02*
X8354868Y-17183353D01*
X8354868Y-17183353D02*
X8354868Y-17135734D01*
X8354868Y-17135734D02*
X8345344Y-17116687D01*
X8345344Y-17116687D02*
X8335820Y-17107163D01*
X8335820Y-17107163D02*
X8316773Y-17097639D01*
X8316773Y-17097639D02*
X8278678Y-17097639D01*
X8278678Y-17097639D02*
X8259630Y-17107163D01*
X8259630Y-17107163D02*
X8250106Y-17116687D01*
X8250106Y-17116687D02*
X8240582Y-17135734D01*
X8592963Y-17221449D02*
X8592963Y-17021449D01*
X8678678Y-17221449D02*
X8678678Y-17116687D01*
X8678678Y-17116687D02*
X8669154Y-17097639D01*
X8669154Y-17097639D02*
X8650106Y-17088115D01*
X8650106Y-17088115D02*
X8621535Y-17088115D01*
X8621535Y-17088115D02*
X8602487Y-17097639D01*
X8602487Y-17097639D02*
X8592963Y-17107163D01*
X8802487Y-17221449D02*
X8783440Y-17211925D01*
X8783440Y-17211925D02*
X8773916Y-17202401D01*
X8773916Y-17202401D02*
X8764392Y-17183353D01*
X8764392Y-17183353D02*
X8764392Y-17126210D01*
X8764392Y-17126210D02*
X8773916Y-17107163D01*
X8773916Y-17107163D02*
X8783440Y-17097639D01*
X8783440Y-17097639D02*
X8802487Y-17088115D01*
X8802487Y-17088115D02*
X8831059Y-17088115D01*
X8831059Y-17088115D02*
X8850106Y-17097639D01*
X8850106Y-17097639D02*
X8859630Y-17107163D01*
X8859630Y-17107163D02*
X8869154Y-17126210D01*
X8869154Y-17126210D02*
X8869154Y-17183353D01*
X8869154Y-17183353D02*
X8859630Y-17202401D01*
X8859630Y-17202401D02*
X8850106Y-17211925D01*
X8850106Y-17211925D02*
X8831059Y-17221449D01*
X8831059Y-17221449D02*
X8802487Y-17221449D01*
X8983440Y-17221449D02*
X8964392Y-17211925D01*
X8964392Y-17211925D02*
X8954868Y-17192877D01*
X8954868Y-17192877D02*
X8954868Y-17021449D01*
X9135821Y-17211925D02*
X9116773Y-17221449D01*
X9116773Y-17221449D02*
X9078678Y-17221449D01*
X9078678Y-17221449D02*
X9059630Y-17211925D01*
X9059630Y-17211925D02*
X9050106Y-17192877D01*
X9050106Y-17192877D02*
X9050106Y-17116687D01*
X9050106Y-17116687D02*
X9059630Y-17097639D01*
X9059630Y-17097639D02*
X9078678Y-17088115D01*
X9078678Y-17088115D02*
X9116773Y-17088115D01*
X9116773Y-17088115D02*
X9135821Y-17097639D01*
X9135821Y-17097639D02*
X9145344Y-17116687D01*
X9145344Y-17116687D02*
X9145344Y-17135734D01*
X9145344Y-17135734D02*
X9050106Y-17154782D01*
X9221535Y-17211925D02*
X9240583Y-17221449D01*
X9240583Y-17221449D02*
X9278678Y-17221449D01*
X9278678Y-17221449D02*
X9297725Y-17211925D01*
X9297725Y-17211925D02*
X9307249Y-17192877D01*
X9307249Y-17192877D02*
X9307249Y-17183353D01*
X9307249Y-17183353D02*
X9297725Y-17164306D01*
X9297725Y-17164306D02*
X9278678Y-17154782D01*
X9278678Y-17154782D02*
X9250106Y-17154782D01*
X9250106Y-17154782D02*
X9231059Y-17145258D01*
X9231059Y-17145258D02*
X9221535Y-17126210D01*
X9221535Y-17126210D02*
X9221535Y-17116687D01*
X9221535Y-17116687D02*
X9231059Y-17097639D01*
X9231059Y-17097639D02*
X9250106Y-17088115D01*
X9250106Y-17088115D02*
X9278678Y-17088115D01*
X9278678Y-17088115D02*
X9297725Y-17097639D01*
X9373916Y-17297639D02*
X9383440Y-17288115D01*
X9383440Y-17288115D02*
X9402487Y-17259544D01*
X9402487Y-17259544D02*
X9412011Y-17240496D01*
X9412011Y-17240496D02*
X9421535Y-17211925D01*
X9421535Y-17211925D02*
X9431059Y-17164306D01*
X9431059Y-17164306D02*
X9431059Y-17126210D01*
X9431059Y-17126210D02*
X9421535Y-17078591D01*
X9421535Y-17078591D02*
X9412011Y-17050020D01*
X9412011Y-17050020D02*
X9402487Y-17030972D01*
X9402487Y-17030972D02*
X9383440Y-17002401D01*
X9383440Y-17002401D02*
X9373916Y-16992877D01*
D13*
X4473853Y-17331465D02*
X4598853Y-17456465D01*
X4598853Y-17331465D02*
X4473853Y-17456465D01*
X4536353Y-17331465D02*
X4536353Y-17456465D01*
X4473853Y-17393965D02*
X4598853Y-17393965D01*
D11*
X4964392Y-17485449D02*
X4850106Y-17485449D01*
X4907249Y-17485449D02*
X4907249Y-17285449D01*
X4907249Y-17285449D02*
X4888201Y-17314020D01*
X4888201Y-17314020D02*
X4869154Y-17333068D01*
X4869154Y-17333068D02*
X4850106Y-17342591D01*
X5050106Y-17466401D02*
X5059630Y-17475925D01*
X5059630Y-17475925D02*
X5050106Y-17485449D01*
X5050106Y-17485449D02*
X5040582Y-17475925D01*
X5040582Y-17475925D02*
X5050106Y-17466401D01*
X5050106Y-17466401D02*
X5050106Y-17485449D01*
X5135820Y-17304496D02*
X5145344Y-17294972D01*
X5145344Y-17294972D02*
X5164392Y-17285449D01*
X5164392Y-17285449D02*
X5212011Y-17285449D01*
X5212011Y-17285449D02*
X5231058Y-17294972D01*
X5231058Y-17294972D02*
X5240582Y-17304496D01*
X5240582Y-17304496D02*
X5250106Y-17323544D01*
X5250106Y-17323544D02*
X5250106Y-17342591D01*
X5250106Y-17342591D02*
X5240582Y-17371163D01*
X5240582Y-17371163D02*
X5126296Y-17485449D01*
X5126296Y-17485449D02*
X5250106Y-17485449D01*
X5431058Y-17285449D02*
X5335820Y-17285449D01*
X5335820Y-17285449D02*
X5326296Y-17380687D01*
X5326296Y-17380687D02*
X5335820Y-17371163D01*
X5335820Y-17371163D02*
X5354868Y-17361639D01*
X5354868Y-17361639D02*
X5402487Y-17361639D01*
X5402487Y-17361639D02*
X5421535Y-17371163D01*
X5421535Y-17371163D02*
X5431058Y-17380687D01*
X5431058Y-17380687D02*
X5440582Y-17399734D01*
X5440582Y-17399734D02*
X5440582Y-17447353D01*
X5440582Y-17447353D02*
X5431058Y-17466401D01*
X5431058Y-17466401D02*
X5421535Y-17475925D01*
X5421535Y-17475925D02*
X5402487Y-17485449D01*
X5402487Y-17485449D02*
X5354868Y-17485449D01*
X5354868Y-17485449D02*
X5335820Y-17475925D01*
X5335820Y-17475925D02*
X5326296Y-17466401D01*
X5564392Y-17285449D02*
X5583439Y-17285449D01*
X5583439Y-17285449D02*
X5602487Y-17294972D01*
X5602487Y-17294972D02*
X5612011Y-17304496D01*
X5612011Y-17304496D02*
X5621534Y-17323544D01*
X5621534Y-17323544D02*
X5631058Y-17361639D01*
X5631058Y-17361639D02*
X5631058Y-17409258D01*
X5631058Y-17409258D02*
X5621534Y-17447353D01*
X5621534Y-17447353D02*
X5612011Y-17466401D01*
X5612011Y-17466401D02*
X5602487Y-17475925D01*
X5602487Y-17475925D02*
X5583439Y-17485449D01*
X5583439Y-17485449D02*
X5564392Y-17485449D01*
X5564392Y-17485449D02*
X5545344Y-17475925D01*
X5545344Y-17475925D02*
X5535820Y-17466401D01*
X5535820Y-17466401D02*
X5526296Y-17447353D01*
X5526296Y-17447353D02*
X5516773Y-17409258D01*
X5516773Y-17409258D02*
X5516773Y-17361639D01*
X5516773Y-17361639D02*
X5526296Y-17323544D01*
X5526296Y-17323544D02*
X5535820Y-17304496D01*
X5535820Y-17304496D02*
X5545344Y-17294972D01*
X5545344Y-17294972D02*
X5564392Y-17285449D01*
X5716773Y-17485449D02*
X5716773Y-17352115D01*
X5716773Y-17371163D02*
X5726296Y-17361639D01*
X5726296Y-17361639D02*
X5745344Y-17352115D01*
X5745344Y-17352115D02*
X5773915Y-17352115D01*
X5773915Y-17352115D02*
X5792963Y-17361639D01*
X5792963Y-17361639D02*
X5802487Y-17380687D01*
X5802487Y-17380687D02*
X5802487Y-17485449D01*
X5802487Y-17380687D02*
X5812011Y-17361639D01*
X5812011Y-17361639D02*
X5831058Y-17352115D01*
X5831058Y-17352115D02*
X5859630Y-17352115D01*
X5859630Y-17352115D02*
X5878677Y-17361639D01*
X5878677Y-17361639D02*
X5888201Y-17380687D01*
X5888201Y-17380687D02*
X5888201Y-17485449D01*
X5983439Y-17485449D02*
X5983439Y-17352115D01*
X5983439Y-17371163D02*
X5992963Y-17361639D01*
X5992963Y-17361639D02*
X6012011Y-17352115D01*
X6012011Y-17352115D02*
X6040582Y-17352115D01*
X6040582Y-17352115D02*
X6059630Y-17361639D01*
X6059630Y-17361639D02*
X6069154Y-17380687D01*
X6069154Y-17380687D02*
X6069154Y-17485449D01*
X6069154Y-17380687D02*
X6078677Y-17361639D01*
X6078677Y-17361639D02*
X6097725Y-17352115D01*
X6097725Y-17352115D02*
X6126296Y-17352115D01*
X6126296Y-17352115D02*
X6145344Y-17361639D01*
X6145344Y-17361639D02*
X6154868Y-17380687D01*
X6154868Y-17380687D02*
X6154868Y-17485449D01*
X6545344Y-17275925D02*
X6373916Y-17533068D01*
X6802487Y-17285449D02*
X6821535Y-17285449D01*
X6821535Y-17285449D02*
X6840582Y-17294972D01*
X6840582Y-17294972D02*
X6850106Y-17304496D01*
X6850106Y-17304496D02*
X6859630Y-17323544D01*
X6859630Y-17323544D02*
X6869154Y-17361639D01*
X6869154Y-17361639D02*
X6869154Y-17409258D01*
X6869154Y-17409258D02*
X6859630Y-17447353D01*
X6859630Y-17447353D02*
X6850106Y-17466401D01*
X6850106Y-17466401D02*
X6840582Y-17475925D01*
X6840582Y-17475925D02*
X6821535Y-17485449D01*
X6821535Y-17485449D02*
X6802487Y-17485449D01*
X6802487Y-17485449D02*
X6783439Y-17475925D01*
X6783439Y-17475925D02*
X6773916Y-17466401D01*
X6773916Y-17466401D02*
X6764392Y-17447353D01*
X6764392Y-17447353D02*
X6754868Y-17409258D01*
X6754868Y-17409258D02*
X6754868Y-17361639D01*
X6754868Y-17361639D02*
X6764392Y-17323544D01*
X6764392Y-17323544D02*
X6773916Y-17304496D01*
X6773916Y-17304496D02*
X6783439Y-17294972D01*
X6783439Y-17294972D02*
X6802487Y-17285449D01*
X6954868Y-17466401D02*
X6964392Y-17475925D01*
X6964392Y-17475925D02*
X6954868Y-17485449D01*
X6954868Y-17485449D02*
X6945344Y-17475925D01*
X6945344Y-17475925D02*
X6954868Y-17466401D01*
X6954868Y-17466401D02*
X6954868Y-17485449D01*
X7088201Y-17285449D02*
X7107249Y-17285449D01*
X7107249Y-17285449D02*
X7126297Y-17294972D01*
X7126297Y-17294972D02*
X7135820Y-17304496D01*
X7135820Y-17304496D02*
X7145344Y-17323544D01*
X7145344Y-17323544D02*
X7154868Y-17361639D01*
X7154868Y-17361639D02*
X7154868Y-17409258D01*
X7154868Y-17409258D02*
X7145344Y-17447353D01*
X7145344Y-17447353D02*
X7135820Y-17466401D01*
X7135820Y-17466401D02*
X7126297Y-17475925D01*
X7126297Y-17475925D02*
X7107249Y-17485449D01*
X7107249Y-17485449D02*
X7088201Y-17485449D01*
X7088201Y-17485449D02*
X7069154Y-17475925D01*
X7069154Y-17475925D02*
X7059630Y-17466401D01*
X7059630Y-17466401D02*
X7050106Y-17447353D01*
X7050106Y-17447353D02*
X7040582Y-17409258D01*
X7040582Y-17409258D02*
X7040582Y-17361639D01*
X7040582Y-17361639D02*
X7050106Y-17323544D01*
X7050106Y-17323544D02*
X7059630Y-17304496D01*
X7059630Y-17304496D02*
X7069154Y-17294972D01*
X7069154Y-17294972D02*
X7088201Y-17285449D01*
X7326297Y-17352115D02*
X7326297Y-17485449D01*
X7278677Y-17275925D02*
X7231058Y-17418782D01*
X7231058Y-17418782D02*
X7354868Y-17418782D01*
X7440582Y-17485449D02*
X7478677Y-17485449D01*
X7478677Y-17485449D02*
X7497725Y-17475925D01*
X7497725Y-17475925D02*
X7507249Y-17466401D01*
X7507249Y-17466401D02*
X7526297Y-17437829D01*
X7526297Y-17437829D02*
X7535820Y-17399734D01*
X7535820Y-17399734D02*
X7535820Y-17323544D01*
X7535820Y-17323544D02*
X7526297Y-17304496D01*
X7526297Y-17304496D02*
X7516773Y-17294972D01*
X7516773Y-17294972D02*
X7497725Y-17285449D01*
X7497725Y-17285449D02*
X7459630Y-17285449D01*
X7459630Y-17285449D02*
X7440582Y-17294972D01*
X7440582Y-17294972D02*
X7431058Y-17304496D01*
X7431058Y-17304496D02*
X7421535Y-17323544D01*
X7421535Y-17323544D02*
X7421535Y-17371163D01*
X7421535Y-17371163D02*
X7431058Y-17390210D01*
X7431058Y-17390210D02*
X7440582Y-17399734D01*
X7440582Y-17399734D02*
X7459630Y-17409258D01*
X7459630Y-17409258D02*
X7497725Y-17409258D01*
X7497725Y-17409258D02*
X7516773Y-17399734D01*
X7516773Y-17399734D02*
X7526297Y-17390210D01*
X7526297Y-17390210D02*
X7535820Y-17371163D01*
X7612011Y-17304496D02*
X7621535Y-17294972D01*
X7621535Y-17294972D02*
X7640582Y-17285449D01*
X7640582Y-17285449D02*
X7688201Y-17285449D01*
X7688201Y-17285449D02*
X7707249Y-17294972D01*
X7707249Y-17294972D02*
X7716773Y-17304496D01*
X7716773Y-17304496D02*
X7726297Y-17323544D01*
X7726297Y-17323544D02*
X7726297Y-17342591D01*
X7726297Y-17342591D02*
X7716773Y-17371163D01*
X7716773Y-17371163D02*
X7602487Y-17485449D01*
X7602487Y-17485449D02*
X7726297Y-17485449D01*
X7802487Y-17285449D02*
X7802487Y-17323544D01*
X7878678Y-17285449D02*
X7878678Y-17323544D01*
X8173916Y-17561639D02*
X8164392Y-17552115D01*
X8164392Y-17552115D02*
X8145344Y-17523544D01*
X8145344Y-17523544D02*
X8135820Y-17504496D01*
X8135820Y-17504496D02*
X8126297Y-17475925D01*
X8126297Y-17475925D02*
X8116773Y-17428306D01*
X8116773Y-17428306D02*
X8116773Y-17390210D01*
X8116773Y-17390210D02*
X8126297Y-17342591D01*
X8126297Y-17342591D02*
X8135820Y-17314020D01*
X8135820Y-17314020D02*
X8145344Y-17294972D01*
X8145344Y-17294972D02*
X8164392Y-17266401D01*
X8164392Y-17266401D02*
X8173916Y-17256877D01*
X8335820Y-17352115D02*
X8335820Y-17485449D01*
X8288201Y-17275925D02*
X8240582Y-17418782D01*
X8240582Y-17418782D02*
X8364392Y-17418782D01*
X8592963Y-17485449D02*
X8592963Y-17285449D01*
X8678678Y-17485449D02*
X8678678Y-17380687D01*
X8678678Y-17380687D02*
X8669154Y-17361639D01*
X8669154Y-17361639D02*
X8650106Y-17352115D01*
X8650106Y-17352115D02*
X8621535Y-17352115D01*
X8621535Y-17352115D02*
X8602487Y-17361639D01*
X8602487Y-17361639D02*
X8592963Y-17371163D01*
X8802487Y-17485449D02*
X8783440Y-17475925D01*
X8783440Y-17475925D02*
X8773916Y-17466401D01*
X8773916Y-17466401D02*
X8764392Y-17447353D01*
X8764392Y-17447353D02*
X8764392Y-17390210D01*
X8764392Y-17390210D02*
X8773916Y-17371163D01*
X8773916Y-17371163D02*
X8783440Y-17361639D01*
X8783440Y-17361639D02*
X8802487Y-17352115D01*
X8802487Y-17352115D02*
X8831059Y-17352115D01*
X8831059Y-17352115D02*
X8850106Y-17361639D01*
X8850106Y-17361639D02*
X8859630Y-17371163D01*
X8859630Y-17371163D02*
X8869154Y-17390210D01*
X8869154Y-17390210D02*
X8869154Y-17447353D01*
X8869154Y-17447353D02*
X8859630Y-17466401D01*
X8859630Y-17466401D02*
X8850106Y-17475925D01*
X8850106Y-17475925D02*
X8831059Y-17485449D01*
X8831059Y-17485449D02*
X8802487Y-17485449D01*
X8983440Y-17485449D02*
X8964392Y-17475925D01*
X8964392Y-17475925D02*
X8954868Y-17456877D01*
X8954868Y-17456877D02*
X8954868Y-17285449D01*
X9135821Y-17475925D02*
X9116773Y-17485449D01*
X9116773Y-17485449D02*
X9078678Y-17485449D01*
X9078678Y-17485449D02*
X9059630Y-17475925D01*
X9059630Y-17475925D02*
X9050106Y-17456877D01*
X9050106Y-17456877D02*
X9050106Y-17380687D01*
X9050106Y-17380687D02*
X9059630Y-17361639D01*
X9059630Y-17361639D02*
X9078678Y-17352115D01*
X9078678Y-17352115D02*
X9116773Y-17352115D01*
X9116773Y-17352115D02*
X9135821Y-17361639D01*
X9135821Y-17361639D02*
X9145344Y-17380687D01*
X9145344Y-17380687D02*
X9145344Y-17399734D01*
X9145344Y-17399734D02*
X9050106Y-17418782D01*
X9221535Y-17475925D02*
X9240583Y-17485449D01*
X9240583Y-17485449D02*
X9278678Y-17485449D01*
X9278678Y-17485449D02*
X9297725Y-17475925D01*
X9297725Y-17475925D02*
X9307249Y-17456877D01*
X9307249Y-17456877D02*
X9307249Y-17447353D01*
X9307249Y-17447353D02*
X9297725Y-17428306D01*
X9297725Y-17428306D02*
X9278678Y-17418782D01*
X9278678Y-17418782D02*
X9250106Y-17418782D01*
X9250106Y-17418782D02*
X9231059Y-17409258D01*
X9231059Y-17409258D02*
X9221535Y-17390210D01*
X9221535Y-17390210D02*
X9221535Y-17380687D01*
X9221535Y-17380687D02*
X9231059Y-17361639D01*
X9231059Y-17361639D02*
X9250106Y-17352115D01*
X9250106Y-17352115D02*
X9278678Y-17352115D01*
X9278678Y-17352115D02*
X9297725Y-17361639D01*
X9373916Y-17561639D02*
X9383440Y-17552115D01*
X9383440Y-17552115D02*
X9402487Y-17523544D01*
X9402487Y-17523544D02*
X9412011Y-17504496D01*
X9412011Y-17504496D02*
X9421535Y-17475925D01*
X9421535Y-17475925D02*
X9431059Y-17428306D01*
X9431059Y-17428306D02*
X9431059Y-17390210D01*
X9431059Y-17390210D02*
X9421535Y-17342591D01*
X9421535Y-17342591D02*
X9412011Y-17314020D01*
X9412011Y-17314020D02*
X9402487Y-17294972D01*
X9402487Y-17294972D02*
X9383440Y-17266401D01*
X9383440Y-17266401D02*
X9373916Y-17256877D01*
M02*
