%TF.GenerationSoftware,KiCad,Pcbnew,9.0.6*%
%TF.CreationDate,2026-04-25T11:40:17+08:00*%
%TF.ProjectId,HexiLux-v1,48657869-4c75-4782-9d76-312e6b696361,rev?*%
%TF.SameCoordinates,Original*%
%TF.FileFunction,Soldermask,Top*%
%TF.FilePolarity,Negative*%
%FSLAX46Y46*%
G04 Gerber Fmt 4.6, Leading zero omitted, Abs format (unit mm)*
G04 Created by KiCad (PCBNEW 9.0.6) date 2026-04-25 11:40:17*
%MOMM*%
%LPD*%
G01*
G04 APERTURE LIST*
G04 Aperture macros list*
%AMRoundRect*
0 Rectangle with rounded corners*
0 $1 Rounding radius*
0 $2 $3 $4 $5 $6 $7 $8 $9 X,Y pos of 4 corners*
0 Add a 4 corners polygon primitive as box body*
4,1,4,$2,$3,$4,$5,$6,$7,$8,$9,$2,$3,0*
0 Add four circle primitives for the rounded corners*
1,1,$1+$1,$2,$3*
1,1,$1+$1,$4,$5*
1,1,$1+$1,$6,$7*
1,1,$1+$1,$8,$9*
0 Add four rect primitives between the rounded corners*
20,1,$1+$1,$2,$3,$4,$5,0*
20,1,$1+$1,$4,$5,$6,$7,0*
20,1,$1+$1,$6,$7,$8,$9,0*
20,1,$1+$1,$8,$9,$2,$3,0*%
G04 Aperture macros list end*
%ADD10RoundRect,0.102000X0.510000X-0.520000X0.510000X0.520000X-0.510000X0.520000X-0.510000X-0.520000X0*%
%ADD11RoundRect,0.102000X-0.750000X-0.500000X0.750000X-0.500000X0.750000X0.500000X-0.750000X0.500000X0*%
%ADD12RoundRect,0.102000X0.750000X0.500000X-0.750000X0.500000X-0.750000X-0.500000X0.750000X-0.500000X0*%
%ADD13RoundRect,0.102000X-0.645000X-0.955000X0.645000X-0.955000X0.645000X0.955000X-0.645000X0.955000X0*%
%ADD14C,1.500000*%
%ADD15R,1.500000X1.500000*%
%ADD16C,0.650000*%
%ADD17RoundRect,0.102000X-0.300000X-0.575000X0.300000X-0.575000X0.300000X0.575000X-0.300000X0.575000X0*%
%ADD18RoundRect,0.102000X-0.150000X-0.575000X0.150000X-0.575000X0.150000X0.575000X-0.150000X0.575000X0*%
%ADD19O,1.254000X2.354000*%
%ADD20O,1.254000X2.054000*%
%ADD21C,1.850000*%
%ADD22RoundRect,0.102000X0.937500X0.937500X-0.937500X0.937500X-0.937500X-0.937500X0.937500X-0.937500X0*%
%ADD23C,2.079000*%
%ADD24R,1.320800X1.320800*%
%ADD25C,1.320800*%
%ADD26C,1.524000*%
%ADD27R,1.371600X1.371600*%
%ADD28C,1.371600*%
G04 APERTURE END LIST*
D10*
%TO.C,R4*%
X135200000Y-141935000D03*
X135200000Y-140465000D03*
%TD*%
D11*
%TO.C,D40*%
X90345529Y-45074675D03*
X90345529Y-48274675D03*
X95245529Y-48274675D03*
X95245529Y-45074675D03*
%TD*%
D12*
%TO.C,D37*%
X117745529Y-70774673D03*
X117745529Y-67574673D03*
X112845529Y-67574673D03*
X112845529Y-70774673D03*
%TD*%
%TO.C,D25*%
X140245531Y-115774674D03*
X140245531Y-112574674D03*
X135345531Y-112574674D03*
X135345531Y-115774674D03*
%TD*%
D11*
%TO.C,D41*%
X112845531Y-45074675D03*
X112845531Y-48274675D03*
X117745531Y-48274675D03*
X117745531Y-45074675D03*
%TD*%
D12*
%TO.C,D29*%
X72745529Y-115774674D03*
X72745529Y-112574674D03*
X67845529Y-112574674D03*
X67845529Y-115774674D03*
%TD*%
D11*
%TO.C,D34*%
X67845529Y-90074674D03*
X67845529Y-93274674D03*
X72745529Y-93274674D03*
X72745529Y-90074674D03*
%TD*%
D13*
%TO.C,C1*%
X98840000Y-140800000D03*
X101760000Y-140800000D03*
%TD*%
D12*
%TO.C,D35*%
X162745530Y-70774674D03*
X162745530Y-67574674D03*
X157845530Y-67574674D03*
X157845530Y-70774674D03*
%TD*%
D11*
%TO.C,D23*%
X112845531Y-135174675D03*
X112845531Y-138374675D03*
X117745531Y-138374675D03*
X117745531Y-135174675D03*
%TD*%
%TO.C,D24*%
X135345530Y-135074675D03*
X135345530Y-138274675D03*
X140245530Y-138274675D03*
X140245530Y-135074675D03*
%TD*%
%TO.C,D33*%
X90345529Y-90074675D03*
X90345529Y-93274675D03*
X95245529Y-93274675D03*
X95245529Y-90074675D03*
%TD*%
%TO.C,D32*%
X112845530Y-90074673D03*
X112845530Y-93274673D03*
X117745530Y-93274673D03*
X117745530Y-90074673D03*
%TD*%
D12*
%TO.C,D36*%
X140245530Y-70774672D03*
X140245530Y-67574672D03*
X135345530Y-67574672D03*
X135345530Y-70774672D03*
%TD*%
D11*
%TO.C,D22*%
X90345529Y-135074675D03*
X90345529Y-138274675D03*
X95245529Y-138274675D03*
X95245529Y-135074675D03*
%TD*%
%TO.C,D42*%
X135345529Y-45074674D03*
X135345529Y-48274674D03*
X140245529Y-48274674D03*
X140245529Y-45074674D03*
%TD*%
D14*
%TO.C,M1*%
X84245529Y-122234674D03*
D15*
X76245529Y-122234674D03*
D14*
X76245529Y-127314674D03*
X84245529Y-127314674D03*
X84245529Y-124774674D03*
X76245529Y-124774674D03*
%TD*%
D12*
%TO.C,D39*%
X72745529Y-70774674D03*
X72745529Y-67574674D03*
X67845529Y-67574674D03*
X67845529Y-70774674D03*
%TD*%
%TO.C,D27*%
X117745529Y-115774674D03*
X117745529Y-112574674D03*
X112845529Y-112574674D03*
X112845529Y-115774674D03*
%TD*%
D16*
%TO.C,J1*%
X133610000Y-144887000D03*
X139390000Y-144887000D03*
D17*
X133300000Y-143822000D03*
X134100000Y-143822000D03*
D18*
X135250000Y-143822000D03*
X136250000Y-143822000D03*
X136750000Y-143822000D03*
X137750000Y-143822000D03*
D17*
X139700000Y-143822000D03*
X138900000Y-143822000D03*
D18*
X138250000Y-143822000D03*
X137250000Y-143822000D03*
X135750000Y-143822000D03*
X134750000Y-143822000D03*
D19*
X132180000Y-144387000D03*
X140820000Y-144387000D03*
D20*
X132180000Y-148567000D03*
X140820000Y-148567000D03*
%TD*%
D12*
%TO.C,D28*%
X95245529Y-115774674D03*
X95245529Y-112574674D03*
X90345529Y-112574674D03*
X90345529Y-115774674D03*
%TD*%
D10*
%TO.C,R2*%
X138200000Y-141935000D03*
X138200000Y-140465000D03*
%TD*%
D11*
%TO.C,D31*%
X135345529Y-90074674D03*
X135345529Y-93274674D03*
X140245529Y-93274674D03*
X140245529Y-90074674D03*
%TD*%
D12*
%TO.C,D38*%
X95245528Y-70774674D03*
X95245528Y-67574674D03*
X90345528Y-67574674D03*
X90345528Y-70774674D03*
%TD*%
D21*
%TO.C,S1*%
X148000000Y-130000000D03*
X148000000Y-121000000D03*
D22*
X154250000Y-128000001D03*
D23*
X141750000Y-128000001D03*
X154250000Y-122999999D03*
X141750000Y-122999999D03*
%TD*%
D11*
%TO.C,D30*%
X157845531Y-90074674D03*
X157845531Y-93274674D03*
X162745531Y-93274674D03*
X162745531Y-90074674D03*
%TD*%
D12*
%TO.C,D26*%
X162745530Y-115774674D03*
X162745530Y-112574674D03*
X157845530Y-112574674D03*
X157845530Y-115774674D03*
%TD*%
D24*
%TO.C,C2*%
X89500000Y-143000000D03*
D25*
X92000000Y-143000000D03*
%TD*%
D24*
%TO.C,C24*%
X128250000Y-128000000D03*
D25*
X130750000Y-128000000D03*
%TD*%
D26*
%TO.C,U1*%
X107625529Y-146774674D03*
X107625529Y-144234674D03*
X107625529Y-141694674D03*
X107625529Y-139154674D03*
X107625529Y-136614674D03*
X107625529Y-134074674D03*
X107625529Y-131534674D03*
X122865529Y-131534674D03*
X122865529Y-134074674D03*
X122865529Y-136614674D03*
X122865529Y-139154674D03*
X122865529Y-141694674D03*
X122865529Y-144234674D03*
X122865529Y-146774674D03*
%TD*%
D27*
%TO.C,R1*%
X83006529Y-147774673D03*
D28*
X97484529Y-147774673D03*
%TD*%
D27*
%TO.C,R3*%
X148000000Y-133761000D03*
D28*
X148000000Y-148239000D03*
%TD*%
D24*
%TO.C,C23*%
X100245530Y-127274673D03*
D25*
X100245530Y-132274673D03*
%TD*%
M02*
