%TF.GenerationSoftware,KiCad,Pcbnew,9.0.6*%
%TF.CreationDate,2026-04-25T11:46:58+08:00*%
%TF.ProjectId,HexiLux-v1,48657869-4c75-4782-9d76-312e6b696361,rev?*%
%TF.SameCoordinates,Original*%
%TF.FileFunction,Soldermask,Bot*%
%TF.FilePolarity,Negative*%
%FSLAX46Y46*%
G04 Gerber Fmt 4.6, Leading zero omitted, Abs format (unit mm)*
G04 Created by KiCad (PCBNEW 9.0.6) date 2026-04-25 11:46:58*
%MOMM*%
%LPD*%
G01*
G04 APERTURE LIST*
G04 Aperture macros list*
%AMRoundRect*
0 Rectangle with rounded corners*
0 $1 Rounding radius*
0 $2 $3 $4 $5 $6 $7 $8 $9 X,Y pos of 4 corners*
0 Add a 4 corners polygon primitive as box body*
4,1,4,$2,$3,$4,$5,$6,$7,$8,$9,$2,$3,0*
0 Add four circle primitives for the rounded corners*
1,1,$1+$1,$2,$3*
1,1,$1+$1,$4,$5*
1,1,$1+$1,$6,$7*
1,1,$1+$1,$8,$9*
0 Add four rect primitives between the rounded corners*
20,1,$1+$1,$2,$3,$4,$5,0*
20,1,$1+$1,$4,$5,$6,$7,0*
20,1,$1+$1,$6,$7,$8,$9,0*
20,1,$1+$1,$8,$9,$2,$3,0*%
G04 Aperture macros list end*
%ADD10C,1.500000*%
%ADD11R,1.500000X1.500000*%
%ADD12C,0.650000*%
%ADD13O,1.254000X2.354000*%
%ADD14O,1.254000X2.054000*%
%ADD15C,1.850000*%
%ADD16RoundRect,0.102000X0.937500X0.937500X-0.937500X0.937500X-0.937500X-0.937500X0.937500X-0.937500X0*%
%ADD17C,2.079000*%
%ADD18R,1.320800X1.320800*%
%ADD19C,1.320800*%
%ADD20RoundRect,0.198500X0.508500X0.198500X-0.508500X0.198500X-0.508500X-0.198500X0.508500X-0.198500X0*%
%ADD21C,1.524000*%
%ADD22RoundRect,0.152400X1.063600X0.609600X-1.063600X0.609600X-1.063600X-0.609600X1.063600X-0.609600X0*%
%ADD23RoundRect,0.152400X-1.063600X-0.609600X1.063600X-0.609600X1.063600X0.609600X-1.063600X0.609600X0*%
%ADD24R,1.371600X1.371600*%
%ADD25C,1.371600*%
G04 APERTURE END LIST*
D10*
%TO.C,M1*%
X84245529Y-122234674D03*
D11*
X76245529Y-122234674D03*
D10*
X76245529Y-127314674D03*
X84245529Y-127314674D03*
X84245529Y-124774674D03*
X76245529Y-124774674D03*
%TD*%
D12*
%TO.C,J1*%
X133610000Y-144887000D03*
X139390000Y-144887000D03*
D13*
X132180000Y-144387000D03*
X140820000Y-144387000D03*
D14*
X132180000Y-148567000D03*
X140820000Y-148567000D03*
%TD*%
D15*
%TO.C,S1*%
X148000000Y-130000000D03*
X148000000Y-121000000D03*
D16*
X154250000Y-128000001D03*
D17*
X141750000Y-128000001D03*
X154250000Y-122999999D03*
X141750000Y-122999999D03*
%TD*%
D18*
%TO.C,C2*%
X89500000Y-143000000D03*
D19*
X92000000Y-143000000D03*
%TD*%
D20*
%TO.C,U2*%
X103255000Y-146950000D03*
X103255000Y-147900000D03*
X103255000Y-148850000D03*
X100745000Y-148850000D03*
X100745000Y-146950000D03*
%TD*%
D18*
%TO.C,C24*%
X128250000Y-128000000D03*
D19*
X130750000Y-128000000D03*
%TD*%
D21*
%TO.C,U1*%
X107625529Y-146774674D03*
D22*
X106790529Y-146774674D03*
D21*
X107625529Y-144234674D03*
D22*
X106790529Y-144234674D03*
D21*
X107625529Y-141694674D03*
D22*
X106790529Y-141694674D03*
D21*
X107625529Y-139154674D03*
D22*
X106790529Y-139154674D03*
D21*
X107625529Y-136614674D03*
D22*
X106790529Y-136614674D03*
D21*
X107625529Y-134074674D03*
D22*
X106790529Y-134074674D03*
D21*
X107625529Y-131534674D03*
D22*
X106790529Y-131534674D03*
D23*
X123700529Y-131534674D03*
D21*
X122865529Y-131534674D03*
D23*
X123700529Y-134074674D03*
D21*
X122865529Y-134074674D03*
D23*
X123700529Y-136614674D03*
D21*
X122865529Y-136614674D03*
D23*
X123700529Y-139154674D03*
D21*
X122865529Y-139154674D03*
D23*
X123700529Y-141694674D03*
D21*
X122865529Y-141694674D03*
D23*
X123700529Y-144234674D03*
D21*
X122865529Y-144234674D03*
D23*
X123700529Y-146774674D03*
D21*
X122865529Y-146774674D03*
%TD*%
D24*
%TO.C,R1*%
X83006529Y-147774673D03*
D25*
X97484529Y-147774673D03*
%TD*%
D24*
%TO.C,R3*%
X148000000Y-133761000D03*
D25*
X148000000Y-148239000D03*
%TD*%
D18*
%TO.C,C23*%
X100245530Y-127274673D03*
D19*
X100245530Y-132274673D03*
%TD*%
M02*
