%TF.GenerationSoftware,KiCad,Pcbnew,9.0.6*%
%TF.CreationDate,2026-04-25T11:40:16+08:00*%
%TF.ProjectId,HexiLux-v1,48657869-4c75-4782-9d76-312e6b696361,rev?*%
%TF.SameCoordinates,Original*%
%TF.FileFunction,Copper,L2,Bot*%
%TF.FilePolarity,Positive*%
%FSLAX46Y46*%
G04 Gerber Fmt 4.6, Leading zero omitted, Abs format (unit mm)*
G04 Created by KiCad (PCBNEW 9.0.6) date 2026-04-25 11:40:16*
%MOMM*%
%LPD*%
G01*
G04 APERTURE LIST*
G04 Aperture macros list*
%AMRoundRect*
0 Rectangle with rounded corners*
0 $1 Rounding radius*
0 $2 $3 $4 $5 $6 $7 $8 $9 X,Y pos of 4 corners*
0 Add a 4 corners polygon primitive as box body*
4,1,4,$2,$3,$4,$5,$6,$7,$8,$9,$2,$3,0*
0 Add four circle primitives for the rounded corners*
1,1,$1+$1,$2,$3*
1,1,$1+$1,$4,$5*
1,1,$1+$1,$6,$7*
1,1,$1+$1,$8,$9*
0 Add four rect primitives between the rounded corners*
20,1,$1+$1,$2,$3,$4,$5,0*
20,1,$1+$1,$4,$5,$6,$7,0*
20,1,$1+$1,$6,$7,$8,$9,0*
20,1,$1+$1,$8,$9,$2,$3,0*%
G04 Aperture macros list end*
%TA.AperFunction,ComponentPad*%
%ADD10C,1.500000*%
%TD*%
%TA.AperFunction,ComponentPad*%
%ADD11R,1.500000X1.500000*%
%TD*%
%TA.AperFunction,ComponentPad*%
%ADD12O,1.050000X2.150000*%
%TD*%
%TA.AperFunction,ComponentPad*%
%ADD13O,1.050000X1.850000*%
%TD*%
%TA.AperFunction,ComponentPad*%
%ADD14R,1.875000X1.875000*%
%TD*%
%TA.AperFunction,ComponentPad*%
%ADD15C,1.875000*%
%TD*%
%TA.AperFunction,ComponentPad*%
%ADD16R,1.320800X1.320800*%
%TD*%
%TA.AperFunction,ComponentPad*%
%ADD17C,1.320800*%
%TD*%
%TA.AperFunction,SMDPad,CuDef*%
%ADD18RoundRect,0.147500X0.457500X0.147500X-0.457500X0.147500X-0.457500X-0.147500X0.457500X-0.147500X0*%
%TD*%
%TA.AperFunction,ComponentPad*%
%ADD19C,1.524000*%
%TD*%
%TA.AperFunction,SMDPad,CuDef*%
%ADD20RoundRect,0.152400X1.063600X0.609600X-1.063600X0.609600X-1.063600X-0.609600X1.063600X-0.609600X0*%
%TD*%
%TA.AperFunction,SMDPad,CuDef*%
%ADD21RoundRect,0.152400X-1.063600X-0.609600X1.063600X-0.609600X1.063600X0.609600X-1.063600X0.609600X0*%
%TD*%
%TA.AperFunction,ComponentPad*%
%ADD22R,1.371600X1.371600*%
%TD*%
%TA.AperFunction,ComponentPad*%
%ADD23C,1.371600*%
%TD*%
%TA.AperFunction,ViaPad*%
%ADD24C,0.600000*%
%TD*%
%TA.AperFunction,Conductor*%
%ADD25C,0.200000*%
%TD*%
G04 APERTURE END LIST*
D10*
%TO.P,M1,GND*%
%TO.N,GND*%
X84245529Y-122234674D03*
D11*
%TO.P,M1,L/R*%
X76245529Y-122234674D03*
D10*
%TO.P,M1,SCK*%
%TO.N,SCK*%
X76245529Y-127314674D03*
%TO.P,M1,SD*%
%TO.N,SD*%
X84245529Y-127314674D03*
%TO.P,M1,VDD*%
%TO.N,+3.3V*%
X84245529Y-124774674D03*
%TO.P,M1,WS*%
%TO.N,WS*%
X76245529Y-124774674D03*
%TD*%
D12*
%TO.P,J1,SH1,SHIELD*%
%TO.N,GND*%
X132180000Y-144387000D03*
%TO.P,J1,SH2,SHIELD__1*%
X140820000Y-144387000D03*
D13*
%TO.P,J1,SH3,SHIELD__2*%
X132180000Y-148567000D03*
%TO.P,J1,SH4,SHIELD__3*%
X140820000Y-148567000D03*
%TD*%
D14*
%TO.P,S1,1*%
%TO.N,BTN*%
X154250000Y-128000001D03*
D15*
%TO.P,S1,2*%
X141750000Y-128000001D03*
%TO.P,S1,3*%
%TO.N,GND*%
X154250000Y-122999999D03*
%TO.P,S1,4*%
X141750000Y-122999999D03*
%TD*%
D16*
%TO.P,C2,1*%
%TO.N,GND*%
X89500000Y-143000000D03*
D17*
%TO.P,C2,2*%
%TO.N,+5V*%
X92000000Y-143000000D03*
%TD*%
D18*
%TO.P,U2,1,~{OE}*%
%TO.N,GND*%
X103255000Y-146950000D03*
%TO.P,U2,2,A*%
%TO.N,LIGHTSOUT*%
X103255000Y-147900000D03*
%TO.P,U2,3,GND*%
%TO.N,GND*%
X103255000Y-148850000D03*
%TO.P,U2,4,Y*%
%TO.N,Net-(U2-Y)*%
X100745000Y-148850000D03*
%TO.P,U2,5,VCC*%
%TO.N,+5V*%
X100745000Y-146950000D03*
%TD*%
D16*
%TO.P,C24,1*%
%TO.N,+3.3V*%
X128250000Y-128000000D03*
D17*
%TO.P,C24,2*%
%TO.N,GND*%
X130750000Y-128000000D03*
%TD*%
D19*
%TO.P,U1,1,GPIO1/D0/A0*%
%TO.N,BTN*%
X107625529Y-146774674D03*
D20*
X106790529Y-146774674D03*
D19*
%TO.P,U1,2,GPIO2/DA/A1*%
%TO.N,unconnected-(U1-GPIO2{slash}DA{slash}A1-Pad2)*%
X107625529Y-144234674D03*
D20*
%TO.N,unconnected-(U1-GPIO2{slash}DA{slash}A1-Pad2)_1*%
X106790529Y-144234674D03*
D19*
%TO.P,U1,3,GPIO3/D2/A2*%
%TO.N,unconnected-(U1-GPIO3{slash}D2{slash}A2-Pad3)_1*%
X107625529Y-141694674D03*
D20*
%TO.N,unconnected-(U1-GPIO3{slash}D2{slash}A2-Pad3)*%
X106790529Y-141694674D03*
D19*
%TO.P,U1,4,GPIO4/D3/A3*%
%TO.N,LIGHTSOUT*%
X107625529Y-139154674D03*
D20*
X106790529Y-139154674D03*
D19*
%TO.P,U1,5,GPIO5/D4/I2C_SDA*%
%TO.N,unconnected-(U1-GPIO5{slash}D4{slash}I2C_SDA-Pad5)*%
X107625529Y-136614674D03*
D20*
%TO.N,unconnected-(U1-GPIO5{slash}D4{slash}I2C_SDA-Pad5)_1*%
X106790529Y-136614674D03*
D19*
%TO.P,U1,6,GPIO9/D5/I2C_SCL*%
%TO.N,unconnected-(U1-GPIO9{slash}D5{slash}I2C_SCL-Pad6)*%
X107625529Y-134074674D03*
D20*
%TO.N,unconnected-(U1-GPIO9{slash}D5{slash}I2C_SCL-Pad6)_1*%
X106790529Y-134074674D03*
D19*
%TO.P,U1,7,U0TXD/D6/TX*%
%TO.N,unconnected-(U1-U0TXD{slash}D6{slash}TX-Pad7)_1*%
X107625529Y-131534674D03*
D20*
%TO.N,unconnected-(U1-U0TXD{slash}D6{slash}TX-Pad7)*%
X106790529Y-131534674D03*
D21*
%TO.P,U1,8,U0RXD/D7/RX*%
%TO.N,unconnected-(U1-U0RXD{slash}D7{slash}RX-Pad8)_1*%
X123700529Y-131534674D03*
D19*
%TO.N,unconnected-(U1-U0RXD{slash}D7{slash}RX-Pad8)*%
X122865529Y-131534674D03*
D21*
%TO.P,U1,9,GPIO7/D8/A8/SCK*%
%TO.N,SCK*%
X123700529Y-134074674D03*
D19*
X122865529Y-134074674D03*
D21*
%TO.P,U1,10,GPIO8/D9/A9/MISO*%
%TO.N,SD*%
X123700529Y-136614674D03*
D19*
X122865529Y-136614674D03*
D21*
%TO.P,U1,11,GPIO9/D10/A10/MOSI*%
%TO.N,WS*%
X123700529Y-139154674D03*
D19*
X122865529Y-139154674D03*
D21*
%TO.P,U1,12,VCC_3V3*%
%TO.N,+3.3V*%
X123700529Y-141694674D03*
D19*
X122865529Y-141694674D03*
D21*
%TO.P,U1,13,GND*%
%TO.N,GND*%
X123700529Y-144234674D03*
D19*
X122865529Y-144234674D03*
D21*
%TO.P,U1,14,VBUS*%
%TO.N,+5V*%
X123700529Y-146774674D03*
D19*
X122865529Y-146774674D03*
%TD*%
D22*
%TO.P,R1,1*%
%TO.N,Net-(U2-Y)*%
X83006529Y-147774673D03*
D23*
%TO.P,R1,2*%
%TO.N,LIGHTS*%
X97484529Y-147774673D03*
%TD*%
D22*
%TO.P,R3,1*%
%TO.N,BTN*%
X148000000Y-133761000D03*
D23*
%TO.P,R3,2*%
%TO.N,+5V*%
X148000000Y-148239000D03*
%TD*%
D16*
%TO.P,C23,1*%
%TO.N,+3.3V*%
X100245530Y-127274673D03*
D17*
%TO.P,C23,2*%
%TO.N,GND*%
X100245530Y-132274673D03*
%TD*%
D24*
%TO.N,GND*%
X162745530Y-70774674D03*
X140245531Y-115774674D03*
X90345529Y-45074675D03*
X157845531Y-90074674D03*
X72745529Y-70774674D03*
X112845531Y-135174675D03*
X117745529Y-115774674D03*
X101760000Y-140800000D03*
X67845529Y-90074674D03*
X135345529Y-45074674D03*
X90345529Y-90074675D03*
X72745529Y-115774674D03*
X162745530Y-115774674D03*
X95245529Y-115774674D03*
X112845530Y-90074673D03*
X135345529Y-90074674D03*
X112845531Y-45074675D03*
X117745529Y-70774673D03*
X140245530Y-70774672D03*
X95245528Y-70774674D03*
%TO.N,+5V*%
X98840000Y-140800000D03*
%TO.N,Net-(D23-DOUT)*%
X117745531Y-135174675D03*
X135345530Y-138274675D03*
%TD*%
D25*
%TO.N,LIGHTSOUT*%
X104500000Y-146948362D02*
X104500000Y-141700000D01*
X103548362Y-147900000D02*
X104500000Y-146948362D01*
X106790529Y-139154674D02*
X107625529Y-139154674D01*
X103255000Y-147900000D02*
X103548362Y-147900000D01*
X104500000Y-141700000D02*
X104500000Y-141445203D01*
X104500000Y-141445203D02*
X106790529Y-139154674D01*
%TO.N,+5V*%
X98840000Y-140800000D02*
X98840000Y-145045000D01*
X98840000Y-145045000D02*
X100745000Y-146950000D01*
%TO.N,Net-(D23-DOUT)*%
X117745531Y-135174675D02*
X132245530Y-135174675D01*
X132245530Y-135174675D02*
X135345530Y-138274675D01*
%TO.N,SCK*%
X77296530Y-126263674D02*
X115054529Y-126263674D01*
X76245529Y-127314675D02*
X77296530Y-126263674D01*
X115054529Y-126263674D02*
X122865529Y-134074674D01*
%TO.N,SD*%
X109300000Y-135200000D02*
X110714673Y-136614673D01*
X110714673Y-136614673D02*
X122865529Y-136614673D01*
X84245530Y-127314674D02*
X92130856Y-135200000D01*
X92130856Y-135200000D02*
X109300000Y-135200000D01*
%TO.N,WS*%
X75194529Y-125825674D02*
X75194529Y-127750014D01*
X95600000Y-136600000D02*
X96677674Y-137677674D01*
X110922326Y-137677674D02*
X111300000Y-137300000D01*
X84044515Y-136600000D02*
X95600000Y-136600000D01*
X121010855Y-137300000D02*
X122865529Y-139154674D01*
X76245529Y-124774674D02*
X75194529Y-125825674D01*
X75194529Y-127750014D02*
X84044515Y-136600000D01*
X111300000Y-137300000D02*
X121010855Y-137300000D01*
X96677674Y-137677674D02*
X110922326Y-137677674D01*
%TO.N,Net-(U2-Y)*%
X84081856Y-148850000D02*
X83006529Y-147774673D01*
X100745000Y-148850000D02*
X84081856Y-148850000D01*
%TO.N,BTN*%
X147510999Y-133761000D02*
X148000000Y-133761000D01*
X154250000Y-128000001D02*
X153760999Y-128000001D01*
X153760999Y-128000001D02*
X148000000Y-133761000D01*
X141750000Y-128000001D02*
X147510999Y-133761000D01*
%TO.N,LIGHTSOUT*%
X103255000Y-147900000D02*
X103933528Y-147900000D01*
%TD*%
%TA.AperFunction,Conductor*%
%TO.N,GND*%
G36*
X99027669Y-126883859D02*
G01*
X99073424Y-126936663D01*
X99084630Y-126988174D01*
X99084630Y-127982943D01*
X99084631Y-127982949D01*
X99091038Y-128042556D01*
X99141332Y-128177401D01*
X99141336Y-128177408D01*
X99227582Y-128292617D01*
X99227585Y-128292620D01*
X99342794Y-128378866D01*
X99342801Y-128378870D01*
X99477647Y-128429164D01*
X99477646Y-128429164D01*
X99484574Y-128429908D01*
X99537257Y-128435573D01*
X100953802Y-128435572D01*
X101013413Y-128429164D01*
X101148261Y-128378869D01*
X101263476Y-128292619D01*
X101349726Y-128177404D01*
X101400021Y-128042556D01*
X101406430Y-127982946D01*
X101406429Y-126988173D01*
X101426113Y-126921135D01*
X101478917Y-126875380D01*
X101530429Y-126864174D01*
X114754432Y-126864174D01*
X114821471Y-126883859D01*
X114842113Y-126900493D01*
X121601766Y-133660146D01*
X121635251Y-133721469D01*
X121634689Y-133774196D01*
X121634878Y-133774226D01*
X121634675Y-133775505D01*
X121634662Y-133776761D01*
X121634116Y-133779034D01*
X121603029Y-133975313D01*
X121603029Y-134174034D01*
X121634116Y-134370311D01*
X121647615Y-134411857D01*
X121649610Y-134481698D01*
X121613529Y-134541531D01*
X121550828Y-134572359D01*
X121529684Y-134574175D01*
X118325297Y-134574175D01*
X118258258Y-134554490D01*
X118256406Y-134553277D01*
X118124716Y-134465284D01*
X118124703Y-134465277D01*
X117979032Y-134404939D01*
X117979020Y-134404936D01*
X117824376Y-134374175D01*
X117824373Y-134374175D01*
X117666689Y-134374175D01*
X117666686Y-134374175D01*
X117512041Y-134404936D01*
X117512029Y-134404939D01*
X117366358Y-134465277D01*
X117366345Y-134465284D01*
X117235242Y-134552885D01*
X117235238Y-134552888D01*
X117123744Y-134664382D01*
X117123741Y-134664386D01*
X117036140Y-134795489D01*
X117036133Y-134795502D01*
X116975795Y-134941173D01*
X116975792Y-134941185D01*
X116945031Y-135095828D01*
X116945031Y-135253521D01*
X116975792Y-135408164D01*
X116975795Y-135408176D01*
X117036133Y-135553847D01*
X117036140Y-135553860D01*
X117123741Y-135684963D01*
X117123744Y-135684967D01*
X117239549Y-135800772D01*
X117238046Y-135802274D01*
X117271962Y-135852061D01*
X117273835Y-135921905D01*
X117237650Y-135981675D01*
X117174896Y-136012394D01*
X117153964Y-136014173D01*
X111014771Y-136014173D01*
X110947732Y-135994488D01*
X110927090Y-135977854D01*
X109787590Y-134838355D01*
X109787588Y-134838352D01*
X109668717Y-134719481D01*
X109668716Y-134719480D01*
X109561315Y-134657472D01*
X109561315Y-134657471D01*
X109561312Y-134657471D01*
X109531785Y-134640423D01*
X109379057Y-134599499D01*
X109220943Y-134599499D01*
X109213347Y-134599499D01*
X109213331Y-134599500D01*
X108953145Y-134599500D01*
X108886106Y-134579815D01*
X108840351Y-134527011D01*
X108830407Y-134457853D01*
X108835214Y-134437181D01*
X108843443Y-134411857D01*
X108856942Y-134370310D01*
X108888029Y-134174035D01*
X108888029Y-133975313D01*
X108856942Y-133779038D01*
X108795534Y-133590042D01*
X108795534Y-133590041D01*
X108716573Y-133435073D01*
X108705316Y-133412980D01*
X108588510Y-133252210D01*
X108447993Y-133111693D01*
X108368467Y-133053914D01*
X108361704Y-133048634D01*
X108357529Y-133045135D01*
X108257476Y-132945082D01*
X108191788Y-132906234D01*
X108184006Y-132899712D01*
X108170039Y-132878747D01*
X108152850Y-132860337D01*
X108151000Y-132850166D01*
X108145269Y-132841564D01*
X108144853Y-132816376D01*
X108140346Y-132791595D01*
X108144287Y-132782040D01*
X108144117Y-132771704D01*
X108157385Y-132750290D01*
X108166991Y-132727006D01*
X108177403Y-132717983D01*
X108180918Y-132712312D01*
X108187656Y-132709099D01*
X108200533Y-132697942D01*
X108257476Y-132664266D01*
X108353677Y-132568063D01*
X108368468Y-132555432D01*
X108447993Y-132497655D01*
X108588510Y-132357138D01*
X108705316Y-132196368D01*
X108795534Y-132019306D01*
X108856942Y-131830310D01*
X108888029Y-131634035D01*
X108888029Y-131435313D01*
X108856942Y-131239038D01*
X108795534Y-131050042D01*
X108795534Y-131050041D01*
X108749564Y-130959823D01*
X108705316Y-130872980D01*
X108588510Y-130712210D01*
X108447993Y-130571693D01*
X108368466Y-130513913D01*
X108353676Y-130501282D01*
X108257476Y-130405082D01*
X108257475Y-130405081D01*
X108257472Y-130405079D01*
X108115486Y-130321109D01*
X108115483Y-130321108D01*
X107957081Y-130275087D01*
X107957075Y-130275086D01*
X107920070Y-130272174D01*
X107920063Y-130272174D01*
X105660995Y-130272174D01*
X105660987Y-130272174D01*
X105623982Y-130275086D01*
X105623976Y-130275087D01*
X105465574Y-130321108D01*
X105465571Y-130321109D01*
X105323585Y-130405079D01*
X105323576Y-130405086D01*
X105206941Y-130521721D01*
X105206934Y-130521730D01*
X105122964Y-130663716D01*
X105122963Y-130663719D01*
X105076942Y-130822121D01*
X105076941Y-130822127D01*
X105074029Y-130859132D01*
X105074029Y-132210215D01*
X105076941Y-132247220D01*
X105076942Y-132247226D01*
X105122963Y-132405628D01*
X105122964Y-132405631D01*
X105206934Y-132547617D01*
X105206941Y-132547626D01*
X105323576Y-132664261D01*
X105323579Y-132664263D01*
X105323582Y-132664266D01*
X105380525Y-132697942D01*
X105428208Y-132749012D01*
X105440711Y-132817753D01*
X105414065Y-132882343D01*
X105380525Y-132911406D01*
X105323582Y-132945082D01*
X105323576Y-132945086D01*
X105206941Y-133061721D01*
X105206934Y-133061730D01*
X105122964Y-133203716D01*
X105122963Y-133203719D01*
X105076942Y-133362121D01*
X105076941Y-133362127D01*
X105074029Y-133399132D01*
X105074029Y-134475500D01*
X105054344Y-134542539D01*
X105001540Y-134588294D01*
X104950029Y-134599500D01*
X92430953Y-134599500D01*
X92363914Y-134579815D01*
X92343272Y-134563181D01*
X89963433Y-132183342D01*
X99085130Y-132183342D01*
X99085130Y-132366003D01*
X99113702Y-132546401D01*
X99170146Y-132720116D01*
X99253065Y-132882851D01*
X99265997Y-132900651D01*
X99839130Y-132327518D01*
X99839130Y-132328177D01*
X99866825Y-132431538D01*
X99920329Y-132524209D01*
X99995994Y-132599874D01*
X100088665Y-132653378D01*
X100192026Y-132681073D01*
X100192683Y-132681073D01*
X99619549Y-133254204D01*
X99637347Y-133267135D01*
X99800086Y-133350056D01*
X99973801Y-133406500D01*
X100154200Y-133435073D01*
X100336860Y-133435073D01*
X100517258Y-133406500D01*
X100690973Y-133350056D01*
X100853708Y-133267138D01*
X100871509Y-133254204D01*
X100298378Y-132681073D01*
X100299034Y-132681073D01*
X100402395Y-132653378D01*
X100495066Y-132599874D01*
X100570731Y-132524209D01*
X100624235Y-132431538D01*
X100651930Y-132328177D01*
X100651930Y-132327520D01*
X101225061Y-132900651D01*
X101237995Y-132882851D01*
X101320913Y-132720116D01*
X101377357Y-132546401D01*
X101405930Y-132366003D01*
X101405930Y-132183342D01*
X101377357Y-132002944D01*
X101320913Y-131829229D01*
X101237992Y-131666490D01*
X101225061Y-131648693D01*
X101225061Y-131648692D01*
X100651930Y-132221824D01*
X100651930Y-132221169D01*
X100624235Y-132117808D01*
X100570731Y-132025137D01*
X100495066Y-131949472D01*
X100402395Y-131895968D01*
X100299034Y-131868273D01*
X100298377Y-131868273D01*
X100871508Y-131295140D01*
X100853708Y-131282208D01*
X100690973Y-131199289D01*
X100517258Y-131142845D01*
X100336860Y-131114273D01*
X100154200Y-131114273D01*
X99973801Y-131142845D01*
X99800086Y-131199289D01*
X99637343Y-131282212D01*
X99637338Y-131282216D01*
X99619550Y-131295138D01*
X99619550Y-131295141D01*
X100192684Y-131868273D01*
X100192026Y-131868273D01*
X100088665Y-131895968D01*
X99995994Y-131949472D01*
X99920329Y-132025137D01*
X99866825Y-132117808D01*
X99839130Y-132221169D01*
X99839130Y-132221825D01*
X99265998Y-131648693D01*
X99265995Y-131648693D01*
X99253073Y-131666481D01*
X99253069Y-131666486D01*
X99170146Y-131829229D01*
X99113702Y-132002944D01*
X99085130Y-132183342D01*
X89963433Y-132183342D01*
X85499297Y-127719206D01*
X85465812Y-127657883D01*
X85464505Y-127612127D01*
X85467440Y-127593600D01*
X85473623Y-127554557D01*
X85496029Y-127413096D01*
X85496029Y-127216251D01*
X85465238Y-127021849D01*
X85464103Y-127017120D01*
X85467594Y-126947338D01*
X85508259Y-126890520D01*
X85573185Y-126864708D01*
X85584677Y-126864174D01*
X98960630Y-126864174D01*
X99027669Y-126883859D01*
G37*
%TD.AperFunction*%
%TA.AperFunction,Conductor*%
G36*
X142347891Y-41699804D02*
G01*
X142414855Y-41719739D01*
X142436323Y-41737357D01*
X166965405Y-66964421D01*
X166998027Y-67026207D01*
X167000497Y-67049621D01*
X167499675Y-116867610D01*
X167484441Y-116928411D01*
X149104250Y-150492238D01*
X149094690Y-150507079D01*
X148837200Y-150850400D01*
X148781229Y-150892221D01*
X148738000Y-150900000D01*
X82175585Y-150900000D01*
X82108546Y-150880315D01*
X82065367Y-150832816D01*
X81889801Y-150492238D01*
X80192511Y-147199679D01*
X80138289Y-147094495D01*
X80110717Y-147041008D01*
X81820229Y-147041008D01*
X81820229Y-148508343D01*
X81820230Y-148508349D01*
X81826637Y-148567956D01*
X81876931Y-148702801D01*
X81876935Y-148702808D01*
X81963181Y-148818017D01*
X81963184Y-148818020D01*
X82078393Y-148904266D01*
X82078400Y-148904270D01*
X82213246Y-148954564D01*
X82213245Y-148954564D01*
X82220173Y-148955308D01*
X82272856Y-148960973D01*
X83292231Y-148960972D01*
X83359270Y-148980656D01*
X83379912Y-148997291D01*
X83596995Y-149214374D01*
X83597005Y-149214385D01*
X83601335Y-149218715D01*
X83601336Y-149218716D01*
X83713140Y-149330520D01*
X83799951Y-149380639D01*
X83799953Y-149380641D01*
X83838007Y-149402611D01*
X83850071Y-149409577D01*
X84002799Y-149450501D01*
X84002802Y-149450501D01*
X84168509Y-149450501D01*
X84168525Y-149450500D01*
X99772727Y-149450500D01*
X99839766Y-149470185D01*
X99860408Y-149486819D01*
X99887174Y-149513585D01*
X99887178Y-149513588D01*
X99887180Y-149513590D01*
X100028103Y-149596931D01*
X100028104Y-149596931D01*
X100028107Y-149596933D01*
X100185320Y-149642608D01*
X100185323Y-149642608D01*
X100185325Y-149642609D01*
X100222060Y-149645500D01*
X100222068Y-149645500D01*
X101267932Y-149645500D01*
X101267940Y-149645500D01*
X101304675Y-149642609D01*
X101304677Y-149642608D01*
X101304679Y-149642608D01*
X101461892Y-149596933D01*
X101461893Y-149596932D01*
X101461897Y-149596931D01*
X101602820Y-149513590D01*
X101718590Y-149397820D01*
X101801931Y-149256897D01*
X101801932Y-149256893D01*
X101801933Y-149256892D01*
X101847514Y-149100001D01*
X102153005Y-149100001D01*
X102198528Y-149256692D01*
X102198530Y-149256695D01*
X102281806Y-149397508D01*
X102281812Y-149397516D01*
X102397483Y-149513187D01*
X102397491Y-149513193D01*
X102538302Y-149596468D01*
X102538307Y-149596470D01*
X102695399Y-149642110D01*
X102695405Y-149642111D01*
X102732112Y-149644999D01*
X103004999Y-149644999D01*
X103505000Y-149644999D01*
X103777876Y-149644999D01*
X103777897Y-149644998D01*
X103814597Y-149642110D01*
X103971692Y-149596470D01*
X103971697Y-149596468D01*
X104112508Y-149513193D01*
X104112516Y-149513187D01*
X104228187Y-149397516D01*
X104228193Y-149397508D01*
X104311469Y-149256695D01*
X104311471Y-149256692D01*
X104356994Y-149100001D01*
X104356993Y-149100000D01*
X103505000Y-149100000D01*
X103505000Y-149644999D01*
X103004999Y-149644999D01*
X103005000Y-149644998D01*
X103005000Y-149100000D01*
X102153007Y-149100000D01*
X102153005Y-149100001D01*
X101847514Y-149100001D01*
X101847608Y-149099679D01*
X101847609Y-149099673D01*
X101850309Y-149065368D01*
X101850309Y-149065367D01*
X101850499Y-149062952D01*
X101850500Y-149062932D01*
X101850500Y-148637067D01*
X101850499Y-148637052D01*
X101847609Y-148600326D01*
X101847608Y-148600320D01*
X101801933Y-148443107D01*
X101801931Y-148443104D01*
X101801931Y-148443103D01*
X101718590Y-148302180D01*
X101718588Y-148302178D01*
X101718585Y-148302174D01*
X101602825Y-148186414D01*
X101602817Y-148186408D01*
X101461895Y-148103068D01*
X101461892Y-148103066D01*
X101304679Y-148057391D01*
X101304673Y-148057390D01*
X101267947Y-148054500D01*
X101267940Y-148054500D01*
X100222060Y-148054500D01*
X100222052Y-148054500D01*
X100185326Y-148057390D01*
X100185320Y-148057391D01*
X100028107Y-148103066D01*
X100028104Y-148103068D01*
X99887182Y-148186408D01*
X99887174Y-148186414D01*
X99860408Y-148213181D01*
X99799085Y-148246666D01*
X99772727Y-148249500D01*
X98748269Y-148249500D01*
X98681230Y-148229815D01*
X98635475Y-148177011D01*
X98625531Y-148107853D01*
X98630338Y-148087183D01*
X98639048Y-148060375D01*
X98641618Y-148052466D01*
X98670829Y-147868037D01*
X98670829Y-147681309D01*
X98641618Y-147496880D01*
X98583916Y-147319292D01*
X98499144Y-147152916D01*
X98389388Y-147001851D01*
X98257351Y-146869814D01*
X98106286Y-146760058D01*
X97988414Y-146700000D01*
X97939912Y-146675287D01*
X97939911Y-146675286D01*
X97939910Y-146675286D01*
X97762322Y-146617584D01*
X97762320Y-146617583D01*
X97762318Y-146617583D01*
X97618351Y-146594781D01*
X97577893Y-146588373D01*
X97391165Y-146588373D01*
X97350707Y-146594781D01*
X97206739Y-146617583D01*
X97029145Y-146675287D01*
X96862771Y-146760058D01*
X96711705Y-146869815D01*
X96579671Y-147001849D01*
X96469914Y-147152915D01*
X96385143Y-147319289D01*
X96327439Y-147496883D01*
X96303137Y-147650320D01*
X96298229Y-147681309D01*
X96298229Y-147868037D01*
X96303968Y-147904269D01*
X96327439Y-148052462D01*
X96327440Y-148052467D01*
X96338720Y-148087183D01*
X96340715Y-148157024D01*
X96304634Y-148216856D01*
X96241933Y-148247684D01*
X96220789Y-148249500D01*
X84381953Y-148249500D01*
X84352512Y-148240855D01*
X84322526Y-148234332D01*
X84317510Y-148230577D01*
X84314914Y-148229815D01*
X84294272Y-148213181D01*
X84229147Y-148148056D01*
X84195662Y-148086733D01*
X84192828Y-148060375D01*
X84192828Y-147041002D01*
X84192827Y-147040996D01*
X84192826Y-147040989D01*
X84186420Y-146981390D01*
X84174712Y-146950000D01*
X84136126Y-146846544D01*
X84136122Y-146846537D01*
X84049876Y-146731328D01*
X84049873Y-146731325D01*
X83934664Y-146645079D01*
X83934657Y-146645075D01*
X83799811Y-146594781D01*
X83799812Y-146594781D01*
X83740212Y-146588374D01*
X83740210Y-146588373D01*
X83740202Y-146588373D01*
X83740193Y-146588373D01*
X82272858Y-146588373D01*
X82272852Y-146588374D01*
X82213245Y-146594781D01*
X82078400Y-146645075D01*
X82078393Y-146645079D01*
X81963184Y-146731325D01*
X81963181Y-146731328D01*
X81876935Y-146846537D01*
X81876931Y-146846544D01*
X81826637Y-146981390D01*
X81820230Y-147040989D01*
X81820230Y-147040996D01*
X81820229Y-147041008D01*
X80110717Y-147041008D01*
X78159291Y-143255454D01*
X77690096Y-142345267D01*
X77662511Y-142291755D01*
X88339600Y-142291755D01*
X88339600Y-142750000D01*
X89175263Y-142750000D01*
X89174799Y-142750464D01*
X89121295Y-142843135D01*
X89093600Y-142946496D01*
X89093600Y-143053504D01*
X89121295Y-143156865D01*
X89174799Y-143249536D01*
X89175263Y-143250000D01*
X88339600Y-143250000D01*
X88339600Y-143708244D01*
X88346001Y-143767772D01*
X88346003Y-143767779D01*
X88396245Y-143902486D01*
X88396249Y-143902493D01*
X88482409Y-144017587D01*
X88482412Y-144017590D01*
X88597506Y-144103750D01*
X88597513Y-144103754D01*
X88732220Y-144153996D01*
X88732227Y-144153998D01*
X88791755Y-144160399D01*
X88791772Y-144160400D01*
X89250000Y-144160400D01*
X89250000Y-143324737D01*
X89250464Y-143325201D01*
X89343135Y-143378705D01*
X89446496Y-143406400D01*
X89553504Y-143406400D01*
X89656865Y-143378705D01*
X89749536Y-143325201D01*
X89750000Y-143324737D01*
X89750000Y-144160400D01*
X90208228Y-144160400D01*
X90208244Y-144160399D01*
X90267772Y-144153998D01*
X90267779Y-144153996D01*
X90402486Y-144103754D01*
X90402493Y-144103750D01*
X90517587Y-144017590D01*
X90517590Y-144017587D01*
X90603750Y-143902493D01*
X90603754Y-143902486D01*
X90653996Y-143767779D01*
X90653998Y-143767772D01*
X90660399Y-143708244D01*
X90660400Y-143708227D01*
X90660400Y-143416790D01*
X90680085Y-143349751D01*
X90732889Y-143303996D01*
X90802047Y-143294052D01*
X90865603Y-143323077D01*
X90902330Y-143378470D01*
X90924152Y-143445631D01*
X91007109Y-143608444D01*
X91114515Y-143756276D01*
X91243724Y-143885485D01*
X91391556Y-143992891D01*
X91554369Y-144075848D01*
X91728155Y-144132315D01*
X91795835Y-144143034D01*
X91908630Y-144160900D01*
X91908635Y-144160900D01*
X92091370Y-144160900D01*
X92191631Y-144145019D01*
X92271845Y-144132315D01*
X92445631Y-144075848D01*
X92608444Y-143992891D01*
X92756276Y-143885485D01*
X92885485Y-143756276D01*
X92992891Y-143608444D01*
X93075848Y-143445631D01*
X93132315Y-143271845D01*
X93158664Y-143105484D01*
X93160900Y-143091370D01*
X93160900Y-142908629D01*
X93132315Y-142728158D01*
X93132315Y-142728155D01*
X93075848Y-142554369D01*
X92992891Y-142391556D01*
X92885485Y-142243724D01*
X92756276Y-142114515D01*
X92608444Y-142007109D01*
X92445631Y-141924152D01*
X92271845Y-141867685D01*
X92271843Y-141867684D01*
X92271841Y-141867684D01*
X92091370Y-141839100D01*
X92091365Y-141839100D01*
X91908635Y-141839100D01*
X91908630Y-141839100D01*
X91728158Y-141867684D01*
X91554366Y-141924153D01*
X91391555Y-142007109D01*
X91243721Y-142114517D01*
X91114517Y-142243721D01*
X91007109Y-142391555D01*
X90924153Y-142554364D01*
X90920492Y-142565633D01*
X90902407Y-142621295D01*
X90902331Y-142621528D01*
X90862893Y-142679203D01*
X90798534Y-142706401D01*
X90729688Y-142694486D01*
X90678212Y-142647242D01*
X90660400Y-142583209D01*
X90660400Y-142291772D01*
X90660399Y-142291755D01*
X90653998Y-142232227D01*
X90653996Y-142232220D01*
X90603754Y-142097513D01*
X90603750Y-142097506D01*
X90517590Y-141982412D01*
X90517587Y-141982409D01*
X90402493Y-141896249D01*
X90402486Y-141896245D01*
X90267779Y-141846003D01*
X90267772Y-141846001D01*
X90208244Y-141839600D01*
X89750000Y-141839600D01*
X89750000Y-142675263D01*
X89749536Y-142674799D01*
X89656865Y-142621295D01*
X89553504Y-142593600D01*
X89446496Y-142593600D01*
X89343135Y-142621295D01*
X89250464Y-142674799D01*
X89250000Y-142675263D01*
X89250000Y-141839600D01*
X88791755Y-141839600D01*
X88732227Y-141846001D01*
X88732220Y-141846003D01*
X88597513Y-141896245D01*
X88597506Y-141896249D01*
X88482412Y-141982409D01*
X88482409Y-141982412D01*
X88396249Y-142097506D01*
X88396245Y-142097513D01*
X88346003Y-142232220D01*
X88346001Y-142232227D01*
X88339600Y-142291755D01*
X77662511Y-142291755D01*
X76879027Y-140771882D01*
X76852877Y-140721153D01*
X98039500Y-140721153D01*
X98039500Y-140878846D01*
X98070261Y-141033489D01*
X98070264Y-141033501D01*
X98130602Y-141179172D01*
X98130609Y-141179185D01*
X98218602Y-141310874D01*
X98239480Y-141377551D01*
X98239500Y-141379765D01*
X98239500Y-144958330D01*
X98239499Y-144958348D01*
X98239499Y-145124054D01*
X98239498Y-145124054D01*
X98280423Y-145276785D01*
X98309358Y-145326900D01*
X98309359Y-145326904D01*
X98309360Y-145326904D01*
X98358669Y-145412312D01*
X98359479Y-145413714D01*
X98359481Y-145413717D01*
X98478349Y-145532585D01*
X98478355Y-145532590D01*
X99603181Y-146657416D01*
X99636666Y-146718739D01*
X99639500Y-146745097D01*
X99639500Y-147162947D01*
X99642390Y-147199673D01*
X99642391Y-147199679D01*
X99688066Y-147356892D01*
X99688068Y-147356895D01*
X99771408Y-147497817D01*
X99771414Y-147497825D01*
X99887174Y-147613585D01*
X99887178Y-147613588D01*
X99887180Y-147613590D01*
X100028103Y-147696931D01*
X100028104Y-147696931D01*
X100028107Y-147696933D01*
X100185320Y-147742608D01*
X100185323Y-147742608D01*
X100185325Y-147742609D01*
X100222060Y-147745500D01*
X100222068Y-147745500D01*
X101267932Y-147745500D01*
X101267940Y-147745500D01*
X101304675Y-147742609D01*
X101304677Y-147742608D01*
X101304679Y-147742608D01*
X101461892Y-147696933D01*
X101461893Y-147696932D01*
X101461897Y-147696931D01*
X101602820Y-147613590D01*
X101718590Y-147497820D01*
X101801931Y-147356897D01*
X101801932Y-147356893D01*
X101801933Y-147356892D01*
X101847608Y-147199679D01*
X101847609Y-147199673D01*
X101849146Y-147180146D01*
X101850500Y-147162940D01*
X101850500Y-146737060D01*
X101847609Y-146700325D01*
X101847514Y-146699998D01*
X102153005Y-146699998D01*
X102153007Y-146700000D01*
X103005000Y-146700000D01*
X103005000Y-146155000D01*
X102732124Y-146155000D01*
X102732102Y-146155001D01*
X102695402Y-146157889D01*
X102538307Y-146203529D01*
X102538302Y-146203531D01*
X102397491Y-146286806D01*
X102397483Y-146286812D01*
X102281812Y-146402483D01*
X102281806Y-146402491D01*
X102198530Y-146543304D01*
X102198528Y-146543307D01*
X102153005Y-146699998D01*
X101847514Y-146699998D01*
X101801933Y-146543107D01*
X101801931Y-146543104D01*
X101801931Y-146543103D01*
X101718590Y-146402180D01*
X101718588Y-146402178D01*
X101718585Y-146402174D01*
X101602825Y-146286414D01*
X101602817Y-146286408D01*
X101461895Y-146203068D01*
X101461892Y-146203066D01*
X101304679Y-146157391D01*
X101304673Y-146157390D01*
X101267947Y-146154500D01*
X101267940Y-146154500D01*
X100850097Y-146154500D01*
X100783058Y-146134815D01*
X100762416Y-146118181D01*
X99476819Y-144832584D01*
X99443334Y-144771261D01*
X99440500Y-144744903D01*
X99440500Y-141379765D01*
X99460185Y-141312726D01*
X99461398Y-141310874D01*
X99549390Y-141179185D01*
X99549390Y-141179184D01*
X99549394Y-141179179D01*
X99609737Y-141033497D01*
X99640500Y-140878842D01*
X99640500Y-140721158D01*
X99640500Y-140721155D01*
X99640499Y-140721153D01*
X99632655Y-140681721D01*
X99609737Y-140566503D01*
X99609735Y-140566498D01*
X99549397Y-140420827D01*
X99549390Y-140420814D01*
X99461789Y-140289711D01*
X99461786Y-140289707D01*
X99350292Y-140178213D01*
X99350288Y-140178210D01*
X99219185Y-140090609D01*
X99219172Y-140090602D01*
X99073501Y-140030264D01*
X99073489Y-140030261D01*
X98918845Y-139999500D01*
X98918842Y-139999500D01*
X98761158Y-139999500D01*
X98761155Y-139999500D01*
X98606510Y-140030261D01*
X98606498Y-140030264D01*
X98460827Y-140090602D01*
X98460814Y-140090609D01*
X98329711Y-140178210D01*
X98329707Y-140178213D01*
X98218213Y-140289707D01*
X98218210Y-140289711D01*
X98130609Y-140420814D01*
X98130602Y-140420827D01*
X98070264Y-140566498D01*
X98070261Y-140566510D01*
X98039500Y-140721153D01*
X76852877Y-140721153D01*
X70207098Y-127829068D01*
X74594027Y-127829068D01*
X74634952Y-127981799D01*
X74663887Y-128031914D01*
X74663888Y-128031918D01*
X74663889Y-128031918D01*
X74714008Y-128118728D01*
X74714010Y-128118731D01*
X74832878Y-128237599D01*
X74832884Y-128237604D01*
X83559654Y-136964374D01*
X83559664Y-136964385D01*
X83563994Y-136968715D01*
X83563995Y-136968716D01*
X83675799Y-137080520D01*
X83740885Y-137118097D01*
X83812730Y-137159577D01*
X83965457Y-137200500D01*
X83965458Y-137200500D01*
X95299903Y-137200500D01*
X95366942Y-137220185D01*
X95387584Y-137236819D01*
X96192813Y-138042048D01*
X96192823Y-138042059D01*
X96197153Y-138046389D01*
X96197154Y-138046390D01*
X96308958Y-138158194D01*
X96395769Y-138208313D01*
X96395771Y-138208315D01*
X96433825Y-138230285D01*
X96445889Y-138237251D01*
X96598617Y-138278174D01*
X104959422Y-138278174D01*
X105026461Y-138297859D01*
X105072216Y-138350663D01*
X105082160Y-138419821D01*
X105078498Y-138436770D01*
X105076942Y-138442124D01*
X105076941Y-138442127D01*
X105074029Y-138479132D01*
X105074029Y-139830215D01*
X105076941Y-139867215D01*
X105076942Y-139867222D01*
X105084630Y-139893686D01*
X105090657Y-139914431D01*
X105090456Y-139984300D01*
X105059261Y-140036705D01*
X104593624Y-140502343D01*
X104131286Y-140964681D01*
X104131284Y-140964683D01*
X104076835Y-141019132D01*
X104019478Y-141076488D01*
X104019477Y-141076489D01*
X104010366Y-141092272D01*
X104010365Y-141092274D01*
X103940424Y-141213414D01*
X103940423Y-141213418D01*
X103899499Y-141366146D01*
X103899499Y-141366148D01*
X103899499Y-141534249D01*
X103899500Y-141534262D01*
X103899500Y-146031000D01*
X103879815Y-146098039D01*
X103827011Y-146143794D01*
X103775500Y-146155000D01*
X103505000Y-146155000D01*
X103505000Y-146826000D01*
X103485315Y-146893039D01*
X103432511Y-146938794D01*
X103381000Y-146950000D01*
X103255000Y-146950000D01*
X103255000Y-146980500D01*
X103235315Y-147047539D01*
X103182511Y-147093294D01*
X103131000Y-147104500D01*
X102732052Y-147104500D01*
X102695326Y-147107390D01*
X102695320Y-147107391D01*
X102538107Y-147153066D01*
X102538106Y-147153067D01*
X102538103Y-147153069D01*
X102490215Y-147181390D01*
X102487944Y-147182733D01*
X102424824Y-147200000D01*
X102153007Y-147200000D01*
X102153005Y-147200001D01*
X102198529Y-147356691D01*
X102198532Y-147356700D01*
X102201305Y-147361388D01*
X102218488Y-147429112D01*
X102201307Y-147487627D01*
X102198067Y-147493104D01*
X102152391Y-147650320D01*
X102152390Y-147650326D01*
X102149500Y-147687052D01*
X102149500Y-148112947D01*
X102152390Y-148149673D01*
X102152391Y-148149679D01*
X102198067Y-148306892D01*
X102198070Y-148306901D01*
X102201308Y-148312376D01*
X102218486Y-148380101D01*
X102201308Y-148438605D01*
X102198534Y-148443294D01*
X102198529Y-148443308D01*
X102153005Y-148599998D01*
X102153007Y-148600000D01*
X102424824Y-148600000D01*
X102487943Y-148617266D01*
X102538103Y-148646931D01*
X102538105Y-148646931D01*
X102538106Y-148646932D01*
X102538107Y-148646933D01*
X102695320Y-148692608D01*
X102695323Y-148692608D01*
X102695325Y-148692609D01*
X102732060Y-148695500D01*
X102732068Y-148695500D01*
X103777932Y-148695500D01*
X103777940Y-148695500D01*
X103814675Y-148692609D01*
X103814677Y-148692608D01*
X103814679Y-148692608D01*
X103960573Y-148650221D01*
X103960573Y-148650220D01*
X103971897Y-148646931D01*
X104024220Y-148615986D01*
X104026437Y-148614795D01*
X104046774Y-148610505D01*
X104085176Y-148600000D01*
X104356993Y-148600000D01*
X104356994Y-148599998D01*
X104315718Y-148457926D01*
X104315917Y-148388057D01*
X104347110Y-148335653D01*
X104414048Y-148268716D01*
X104493105Y-148131784D01*
X104510721Y-148066041D01*
X131155000Y-148066041D01*
X131155000Y-148317000D01*
X131855000Y-148317000D01*
X131855000Y-148817000D01*
X131155000Y-148817000D01*
X131155000Y-149067958D01*
X131194387Y-149265974D01*
X131194390Y-149265983D01*
X131271652Y-149452513D01*
X131271659Y-149452526D01*
X131383829Y-149620399D01*
X131383832Y-149620403D01*
X131526596Y-149763167D01*
X131526600Y-149763170D01*
X131694473Y-149875340D01*
X131694486Y-149875347D01*
X131881016Y-149952609D01*
X131881025Y-149952612D01*
X131930000Y-149962353D01*
X131930000Y-149176618D01*
X131980446Y-149227064D01*
X132054555Y-149269851D01*
X132137213Y-149292000D01*
X132222787Y-149292000D01*
X132305445Y-149269851D01*
X132379554Y-149227064D01*
X132430000Y-149176618D01*
X132430000Y-149962352D01*
X132478974Y-149952612D01*
X132478983Y-149952609D01*
X132665513Y-149875347D01*
X132665526Y-149875340D01*
X132833399Y-149763170D01*
X132833403Y-149763167D01*
X132976167Y-149620403D01*
X132976170Y-149620399D01*
X133088340Y-149452526D01*
X133088347Y-149452513D01*
X133165609Y-149265983D01*
X133165612Y-149265974D01*
X133204999Y-149067958D01*
X133205000Y-149067955D01*
X133205000Y-148817000D01*
X132505000Y-148817000D01*
X132505000Y-148317000D01*
X133205000Y-148317000D01*
X133205000Y-148066045D01*
X133204999Y-148066041D01*
X139795000Y-148066041D01*
X139795000Y-148317000D01*
X140495000Y-148317000D01*
X140495000Y-148817000D01*
X139795000Y-148817000D01*
X139795000Y-149067958D01*
X139834387Y-149265974D01*
X139834390Y-149265983D01*
X139911652Y-149452513D01*
X139911659Y-149452526D01*
X140023829Y-149620399D01*
X140023832Y-149620403D01*
X140166596Y-149763167D01*
X140166600Y-149763170D01*
X140334473Y-149875340D01*
X140334486Y-149875347D01*
X140521016Y-149952609D01*
X140521025Y-149952612D01*
X140570000Y-149962353D01*
X140570000Y-149176618D01*
X140620446Y-149227064D01*
X140694555Y-149269851D01*
X140777213Y-149292000D01*
X140862787Y-149292000D01*
X140945445Y-149269851D01*
X141019554Y-149227064D01*
X141070000Y-149176618D01*
X141070000Y-149962352D01*
X141118974Y-149952612D01*
X141118983Y-149952609D01*
X141305513Y-149875347D01*
X141305526Y-149875340D01*
X141473399Y-149763170D01*
X141473403Y-149763167D01*
X141616167Y-149620403D01*
X141616170Y-149620399D01*
X141728340Y-149452526D01*
X141728347Y-149452513D01*
X141805609Y-149265983D01*
X141805612Y-149265974D01*
X141844999Y-149067958D01*
X141845000Y-149067955D01*
X141845000Y-148817000D01*
X141145000Y-148817000D01*
X141145000Y-148317000D01*
X141845000Y-148317000D01*
X141845000Y-148145636D01*
X146813700Y-148145636D01*
X146813700Y-148332363D01*
X146841573Y-148508349D01*
X146842911Y-148516793D01*
X146900613Y-148694381D01*
X146985385Y-148860757D01*
X147095141Y-149011822D01*
X147227178Y-149143859D01*
X147378243Y-149253615D01*
X147544619Y-149338387D01*
X147722207Y-149396089D01*
X147906636Y-149425300D01*
X147906637Y-149425300D01*
X148093363Y-149425300D01*
X148093364Y-149425300D01*
X148277793Y-149396089D01*
X148455381Y-149338387D01*
X148621757Y-149253615D01*
X148772822Y-149143859D01*
X148904859Y-149011822D01*
X149014615Y-148860757D01*
X149099387Y-148694381D01*
X149157089Y-148516793D01*
X149186300Y-148332364D01*
X149186300Y-148145636D01*
X149157089Y-147961207D01*
X149099387Y-147783619D01*
X149014615Y-147617243D01*
X148904859Y-147466178D01*
X148772822Y-147334141D01*
X148621757Y-147224385D01*
X148455381Y-147139613D01*
X148277793Y-147081911D01*
X148277791Y-147081910D01*
X148277789Y-147081910D01*
X148149018Y-147061514D01*
X148093364Y-147052700D01*
X147906636Y-147052700D01*
X147863883Y-147059471D01*
X147722210Y-147081910D01*
X147544616Y-147139614D01*
X147378242Y-147224385D01*
X147227176Y-147334142D01*
X147095142Y-147466176D01*
X146985385Y-147617242D01*
X146900614Y-147783616D01*
X146842910Y-147961210D01*
X146813700Y-148145636D01*
X141845000Y-148145636D01*
X141845000Y-148066045D01*
X141844999Y-148066041D01*
X141805612Y-147868025D01*
X141805609Y-147868016D01*
X141728347Y-147681486D01*
X141728340Y-147681473D01*
X141616170Y-147513600D01*
X141616167Y-147513596D01*
X141473403Y-147370832D01*
X141473399Y-147370829D01*
X141305526Y-147258659D01*
X141305513Y-147258652D01*
X141118984Y-147181390D01*
X141118977Y-147181388D01*
X141070000Y-147171645D01*
X141070000Y-147957382D01*
X141019554Y-147906936D01*
X140945445Y-147864149D01*
X140862787Y-147842000D01*
X140777213Y-147842000D01*
X140694555Y-147864149D01*
X140620446Y-147906936D01*
X140570000Y-147957382D01*
X140570000Y-147171646D01*
X140569999Y-147171645D01*
X140521022Y-147181388D01*
X140521015Y-147181390D01*
X140334486Y-147258652D01*
X140334473Y-147258659D01*
X140166600Y-147370829D01*
X140166596Y-147370832D01*
X140023832Y-147513596D01*
X140023829Y-147513600D01*
X139911659Y-147681473D01*
X139911652Y-147681486D01*
X139834390Y-147868016D01*
X139834387Y-147868025D01*
X139795000Y-148066041D01*
X133204999Y-148066041D01*
X133165612Y-147868025D01*
X133165609Y-147868016D01*
X133088347Y-147681486D01*
X133088340Y-147681473D01*
X132976170Y-147513600D01*
X132976167Y-147513596D01*
X132833403Y-147370832D01*
X132833399Y-147370829D01*
X132665526Y-147258659D01*
X132665513Y-147258652D01*
X132478984Y-147181390D01*
X132478977Y-147181388D01*
X132430000Y-147171645D01*
X132430000Y-147957382D01*
X132379554Y-147906936D01*
X132305445Y-147864149D01*
X132222787Y-147842000D01*
X132137213Y-147842000D01*
X132054555Y-147864149D01*
X131980446Y-147906936D01*
X131930000Y-147957382D01*
X131930000Y-147171646D01*
X131929999Y-147171645D01*
X131881022Y-147181388D01*
X131881015Y-147181390D01*
X131694486Y-147258652D01*
X131694473Y-147258659D01*
X131526600Y-147370829D01*
X131526596Y-147370832D01*
X131383832Y-147513596D01*
X131383829Y-147513600D01*
X131271659Y-147681473D01*
X131271652Y-147681486D01*
X131194390Y-147868016D01*
X131194387Y-147868025D01*
X131155000Y-148066041D01*
X104510721Y-148066041D01*
X104534028Y-147979057D01*
X104534028Y-147820943D01*
X104534028Y-147814930D01*
X104553713Y-147747891D01*
X104570347Y-147727249D01*
X104700458Y-147597138D01*
X104868679Y-147428917D01*
X104891126Y-147416662D01*
X104890728Y-147415866D01*
X104890734Y-147415863D01*
X104891132Y-147416659D01*
X104899527Y-147412076D01*
X104929988Y-147395442D01*
X104929997Y-147395442D01*
X104930006Y-147395438D01*
X104966586Y-147398057D01*
X104999680Y-147400423D01*
X104999687Y-147400428D01*
X104999697Y-147400429D01*
X105029808Y-147422974D01*
X105055615Y-147442292D01*
X105055619Y-147442301D01*
X105055626Y-147442306D01*
X105055637Y-147442337D01*
X105075428Y-147482012D01*
X105122963Y-147645628D01*
X105122964Y-147645631D01*
X105122965Y-147645633D01*
X105141747Y-147677392D01*
X105206934Y-147787617D01*
X105206941Y-147787626D01*
X105323576Y-147904261D01*
X105323585Y-147904268D01*
X105362816Y-147927469D01*
X105465570Y-147988238D01*
X105507345Y-148000375D01*
X105623976Y-148034260D01*
X105623979Y-148034260D01*
X105623981Y-148034261D01*
X105660995Y-148037174D01*
X105661003Y-148037174D01*
X107920055Y-148037174D01*
X107920063Y-148037174D01*
X107957077Y-148034261D01*
X107957079Y-148034260D01*
X107957081Y-148034260D01*
X107998852Y-148022123D01*
X108115488Y-147988238D01*
X108257476Y-147904266D01*
X108353677Y-147808063D01*
X108368468Y-147795432D01*
X108447993Y-147737655D01*
X108588510Y-147597138D01*
X108705316Y-147436368D01*
X108795534Y-147259306D01*
X108795747Y-147258652D01*
X108814803Y-147200001D01*
X108856942Y-147070310D01*
X108888029Y-146874035D01*
X108888029Y-146675313D01*
X108856942Y-146479038D01*
X108795534Y-146290042D01*
X108795534Y-146290041D01*
X108728198Y-146157889D01*
X108705316Y-146112980D01*
X108588510Y-145952210D01*
X108447993Y-145811693D01*
X108368466Y-145753913D01*
X108361704Y-145748634D01*
X108357529Y-145745135D01*
X108257476Y-145645082D01*
X108191788Y-145606234D01*
X108184006Y-145599712D01*
X108170039Y-145578747D01*
X108152850Y-145560337D01*
X108151000Y-145550166D01*
X108145269Y-145541564D01*
X108144853Y-145516376D01*
X108140346Y-145491595D01*
X108144287Y-145482040D01*
X108144117Y-145471704D01*
X108157385Y-145450290D01*
X108166991Y-145427006D01*
X108177403Y-145417983D01*
X108180918Y-145412312D01*
X108187656Y-145409099D01*
X108200533Y-145397942D01*
X108201027Y-145397650D01*
X108257476Y-145364266D01*
X108353677Y-145268063D01*
X108368468Y-145255432D01*
X108447993Y-145197655D01*
X108588510Y-145057138D01*
X108705316Y-144896368D01*
X108795534Y-144719306D01*
X108856942Y-144530310D01*
X108888029Y-144334035D01*
X108888029Y-144135313D01*
X108856942Y-143939038D01*
X108801295Y-143767772D01*
X108795535Y-143750044D01*
X108795534Y-143750041D01*
X108723386Y-143608444D01*
X108705316Y-143572980D01*
X108588510Y-143412210D01*
X108447993Y-143271693D01*
X108417496Y-143249536D01*
X108368467Y-143213914D01*
X108361704Y-143208634D01*
X108357529Y-143205135D01*
X108257476Y-143105082D01*
X108191788Y-143066234D01*
X108184006Y-143059712D01*
X108170039Y-143038747D01*
X108152850Y-143020337D01*
X108151000Y-143010166D01*
X108145269Y-143001564D01*
X108144853Y-142976376D01*
X108140346Y-142951595D01*
X108144287Y-142942040D01*
X108144117Y-142931704D01*
X108157385Y-142910290D01*
X108166991Y-142887006D01*
X108177403Y-142877983D01*
X108180918Y-142872312D01*
X108187656Y-142869099D01*
X108200533Y-142857942D01*
X108228088Y-142841646D01*
X108257476Y-142824266D01*
X108353677Y-142728063D01*
X108368468Y-142715432D01*
X108447993Y-142657655D01*
X108588510Y-142517138D01*
X108705316Y-142356368D01*
X108795534Y-142179306D01*
X108856942Y-141990310D01*
X108888029Y-141794035D01*
X108888029Y-141595313D01*
X108856942Y-141399038D01*
X108795534Y-141210042D01*
X108795534Y-141210041D01*
X108727485Y-141076489D01*
X108705316Y-141032980D01*
X108588510Y-140872210D01*
X108447993Y-140731693D01*
X108368466Y-140673913D01*
X108361704Y-140668634D01*
X108357529Y-140665135D01*
X108257476Y-140565082D01*
X108191788Y-140526234D01*
X108184006Y-140519712D01*
X108170039Y-140498747D01*
X108152850Y-140480337D01*
X108151000Y-140470166D01*
X108145269Y-140461564D01*
X108144853Y-140436376D01*
X108140346Y-140411595D01*
X108144287Y-140402040D01*
X108144117Y-140391704D01*
X108157385Y-140370290D01*
X108166991Y-140347006D01*
X108177403Y-140337983D01*
X108180918Y-140332312D01*
X108187656Y-140329099D01*
X108200533Y-140317942D01*
X108257476Y-140284266D01*
X108353677Y-140188063D01*
X108368468Y-140175432D01*
X108447993Y-140117655D01*
X108588510Y-139977138D01*
X108705316Y-139816368D01*
X108795534Y-139639306D01*
X108856942Y-139450310D01*
X108888029Y-139254035D01*
X108888029Y-139055313D01*
X108856942Y-138859038D01*
X108795534Y-138670042D01*
X108795534Y-138670041D01*
X108747742Y-138576246D01*
X108705316Y-138492980D01*
X108705314Y-138492977D01*
X108705313Y-138492975D01*
X108692297Y-138475060D01*
X108668816Y-138409254D01*
X108684641Y-138341200D01*
X108734746Y-138292505D01*
X108792614Y-138278174D01*
X110835657Y-138278174D01*
X110835673Y-138278175D01*
X110843269Y-138278175D01*
X111001380Y-138278175D01*
X111001383Y-138278175D01*
X111154111Y-138237251D01*
X111204230Y-138208313D01*
X111291042Y-138158194D01*
X111402846Y-138046390D01*
X111402847Y-138046388D01*
X111424155Y-138025080D01*
X111512418Y-137936818D01*
X111573741Y-137903334D01*
X111600099Y-137900500D01*
X120710758Y-137900500D01*
X120777797Y-137920185D01*
X120798439Y-137936819D01*
X121601766Y-138740146D01*
X121635251Y-138801469D01*
X121634689Y-138854196D01*
X121634878Y-138854226D01*
X121634675Y-138855505D01*
X121634662Y-138856761D01*
X121634116Y-138859034D01*
X121603029Y-139055313D01*
X121603029Y-139254034D01*
X121634116Y-139450311D01*
X121695522Y-139639303D01*
X121695523Y-139639306D01*
X121785742Y-139816368D01*
X121902548Y-139977138D01*
X121902550Y-139977140D01*
X122043068Y-140117658D01*
X122122589Y-140175432D01*
X122129353Y-140180713D01*
X122133527Y-140184211D01*
X122233582Y-140284266D01*
X122299266Y-140323111D01*
X122307051Y-140329636D01*
X122321017Y-140350600D01*
X122338208Y-140369012D01*
X122340057Y-140379180D01*
X122345789Y-140387784D01*
X122346203Y-140412971D01*
X122350711Y-140437753D01*
X122346768Y-140447308D01*
X122346939Y-140457644D01*
X122333672Y-140479055D01*
X122324065Y-140502343D01*
X122313651Y-140511366D01*
X122310138Y-140517037D01*
X122303400Y-140520249D01*
X122290525Y-140531406D01*
X122233582Y-140565082D01*
X122233575Y-140565087D01*
X122137383Y-140661278D01*
X122122590Y-140673913D01*
X122043065Y-140731692D01*
X121902550Y-140872207D01*
X121785742Y-141032979D01*
X121695523Y-141210041D01*
X121695522Y-141210044D01*
X121634116Y-141399036D01*
X121603029Y-141595313D01*
X121603029Y-141794034D01*
X121634116Y-141990311D01*
X121695522Y-142179303D01*
X121695523Y-142179306D01*
X121780086Y-142345267D01*
X121785742Y-142356368D01*
X121902548Y-142517138D01*
X121902550Y-142517140D01*
X122043068Y-142657658D01*
X122072723Y-142679203D01*
X122110158Y-142706401D01*
X122122589Y-142715432D01*
X122129315Y-142720681D01*
X122133508Y-142724192D01*
X122233582Y-142824266D01*
X122299737Y-142863390D01*
X122307504Y-142869894D01*
X122321491Y-142890871D01*
X122338699Y-142909301D01*
X122340544Y-142919447D01*
X122346265Y-142928027D01*
X122346690Y-142953238D01*
X122351202Y-142978043D01*
X122347269Y-142987574D01*
X122347444Y-142997886D01*
X122334172Y-143019323D01*
X122324557Y-143042632D01*
X122314172Y-143051630D01*
X122310666Y-143057294D01*
X122303920Y-143060512D01*
X122291016Y-143071695D01*
X122233899Y-143105474D01*
X122233886Y-143105484D01*
X122161889Y-143177480D01*
X122161889Y-143177481D01*
X122781434Y-143797026D01*
X122693958Y-143820466D01*
X122592599Y-143878985D01*
X122509840Y-143961744D01*
X122451321Y-144063103D01*
X122427881Y-144150579D01*
X121813259Y-143535956D01*
X121813258Y-143535957D01*
X121786172Y-143573238D01*
X121695986Y-143750236D01*
X121634604Y-143939150D01*
X121634604Y-143939153D01*
X121603529Y-144135352D01*
X121603529Y-144333995D01*
X121634604Y-144530194D01*
X121634604Y-144530197D01*
X121695986Y-144719111D01*
X121786170Y-144896106D01*
X121813259Y-144933389D01*
X121813260Y-144933390D01*
X122427881Y-144318768D01*
X122451321Y-144406245D01*
X122509840Y-144507604D01*
X122592599Y-144590363D01*
X122693958Y-144648882D01*
X122781433Y-144672321D01*
X122161889Y-145291865D01*
X122233889Y-145363866D01*
X122233893Y-145363869D01*
X122291015Y-145397651D01*
X122338698Y-145448720D01*
X122351202Y-145517462D01*
X122324557Y-145582051D01*
X122307504Y-145599453D01*
X122299733Y-145605959D01*
X122233582Y-145645082D01*
X122133519Y-145745143D01*
X122129313Y-145748666D01*
X122128127Y-145749183D01*
X122122590Y-145753913D01*
X122043065Y-145811692D01*
X121902550Y-145952207D01*
X121785742Y-146112979D01*
X121695523Y-146290041D01*
X121695522Y-146290044D01*
X121634116Y-146479036D01*
X121603029Y-146675313D01*
X121603029Y-146874034D01*
X121634116Y-147070311D01*
X121695522Y-147259303D01*
X121695523Y-147259306D01*
X121782045Y-147429112D01*
X121785742Y-147436368D01*
X121902548Y-147597138D01*
X121902550Y-147597140D01*
X122043068Y-147737658D01*
X122122589Y-147795432D01*
X122137380Y-147808064D01*
X122233582Y-147904266D01*
X122233583Y-147904267D01*
X122233585Y-147904268D01*
X122272816Y-147927469D01*
X122375570Y-147988238D01*
X122417345Y-148000375D01*
X122533976Y-148034260D01*
X122533979Y-148034260D01*
X122533981Y-148034261D01*
X122570995Y-148037174D01*
X122571003Y-148037174D01*
X124830055Y-148037174D01*
X124830063Y-148037174D01*
X124867077Y-148034261D01*
X124867079Y-148034260D01*
X124867081Y-148034260D01*
X124908852Y-148022123D01*
X125025488Y-147988238D01*
X125167476Y-147904266D01*
X125284121Y-147787621D01*
X125368093Y-147645633D01*
X125412407Y-147493104D01*
X125414115Y-147487226D01*
X125414116Y-147487220D01*
X125417028Y-147450215D01*
X125417029Y-147450208D01*
X125417029Y-146099140D01*
X125414116Y-146062126D01*
X125368093Y-145903715D01*
X125284121Y-145761727D01*
X125284119Y-145761725D01*
X125284116Y-145761721D01*
X125167481Y-145645086D01*
X125167478Y-145645084D01*
X125167476Y-145645082D01*
X125110040Y-145611114D01*
X125062358Y-145560045D01*
X125049855Y-145491304D01*
X125076501Y-145426714D01*
X125110043Y-145397650D01*
X125167166Y-145363867D01*
X125167172Y-145363863D01*
X125283718Y-145247317D01*
X125283725Y-145247308D01*
X125367631Y-145105430D01*
X125367632Y-145105427D01*
X125413617Y-144947147D01*
X125413618Y-144947141D01*
X125416528Y-144910162D01*
X125416529Y-144910147D01*
X125416529Y-144585638D01*
X125416528Y-143736041D01*
X131155000Y-143736041D01*
X131155000Y-144137000D01*
X131855000Y-144137000D01*
X131855000Y-144637000D01*
X131155000Y-144637000D01*
X131155000Y-145037958D01*
X131194387Y-145235974D01*
X131194390Y-145235983D01*
X131271652Y-145422513D01*
X131271659Y-145422526D01*
X131383829Y-145590399D01*
X131383832Y-145590403D01*
X131526596Y-145733167D01*
X131526600Y-145733170D01*
X131694473Y-145845340D01*
X131694486Y-145845347D01*
X131881016Y-145922609D01*
X131881025Y-145922612D01*
X131930000Y-145932353D01*
X131930000Y-145146618D01*
X131980446Y-145197064D01*
X132054555Y-145239851D01*
X132137213Y-145262000D01*
X132222787Y-145262000D01*
X132305445Y-145239851D01*
X132379554Y-145197064D01*
X132430000Y-145146618D01*
X132430000Y-145932352D01*
X132478974Y-145922612D01*
X132478983Y-145922609D01*
X132665513Y-145845347D01*
X132665526Y-145845340D01*
X132833399Y-145733170D01*
X132833403Y-145733167D01*
X132976167Y-145590403D01*
X132976170Y-145590399D01*
X133088341Y-145422525D01*
X133091782Y-145414217D01*
X133135620Y-145359811D01*
X133201913Y-145337742D01*
X133268344Y-145354275D01*
X133343471Y-145397650D01*
X133387861Y-145423279D01*
X133387865Y-145423281D01*
X133534234Y-145462500D01*
X133534236Y-145462500D01*
X133685764Y-145462500D01*
X133685766Y-145462500D01*
X133832135Y-145423281D01*
X133963365Y-145347515D01*
X134070515Y-145240365D01*
X134146281Y-145109135D01*
X134185500Y-144962766D01*
X134185500Y-144811234D01*
X138814500Y-144811234D01*
X138814500Y-144962766D01*
X138819061Y-144979787D01*
X138853719Y-145109136D01*
X138862334Y-145124057D01*
X138929485Y-145240365D01*
X139036635Y-145347515D01*
X139123471Y-145397650D01*
X139167861Y-145423279D01*
X139167865Y-145423281D01*
X139314234Y-145462500D01*
X139314236Y-145462500D01*
X139465764Y-145462500D01*
X139465766Y-145462500D01*
X139612135Y-145423281D01*
X139731653Y-145354276D01*
X139799552Y-145337803D01*
X139865579Y-145360655D01*
X139908215Y-145414212D01*
X139911655Y-145422519D01*
X139911659Y-145422526D01*
X140023829Y-145590399D01*
X140023832Y-145590403D01*
X140166596Y-145733167D01*
X140166600Y-145733170D01*
X140334473Y-145845340D01*
X140334486Y-145845347D01*
X140521016Y-145922609D01*
X140521025Y-145922612D01*
X140570000Y-145932353D01*
X140570000Y-145146618D01*
X140620446Y-145197064D01*
X140694555Y-145239851D01*
X140777213Y-145262000D01*
X140862787Y-145262000D01*
X140945445Y-145239851D01*
X141019554Y-145197064D01*
X141070000Y-145146618D01*
X141070000Y-145932352D01*
X141118974Y-145922612D01*
X141118983Y-145922609D01*
X141305513Y-145845347D01*
X141305526Y-145845340D01*
X141473399Y-145733170D01*
X141473403Y-145733167D01*
X141616167Y-145590403D01*
X141616170Y-145590399D01*
X141728340Y-145422526D01*
X141728347Y-145422513D01*
X141805609Y-145235983D01*
X141805612Y-145235974D01*
X141844999Y-145037958D01*
X141845000Y-145037955D01*
X141845000Y-144637000D01*
X141145000Y-144637000D01*
X141145000Y-144137000D01*
X141845000Y-144137000D01*
X141845000Y-143736045D01*
X141844999Y-143736041D01*
X141805612Y-143538025D01*
X141805609Y-143538016D01*
X141728347Y-143351486D01*
X141728340Y-143351473D01*
X141616170Y-143183600D01*
X141616167Y-143183596D01*
X141473403Y-143040832D01*
X141473399Y-143040829D01*
X141305526Y-142928659D01*
X141305513Y-142928652D01*
X141118984Y-142851390D01*
X141118977Y-142851388D01*
X141070000Y-142841645D01*
X141070000Y-143627382D01*
X141019554Y-143576936D01*
X140945445Y-143534149D01*
X140862787Y-143512000D01*
X140777213Y-143512000D01*
X140694555Y-143534149D01*
X140620446Y-143576936D01*
X140570000Y-143627382D01*
X140570000Y-142841646D01*
X140569999Y-142841645D01*
X140521022Y-142851388D01*
X140521015Y-142851390D01*
X140334486Y-142928652D01*
X140334473Y-142928659D01*
X140166600Y-143040829D01*
X140166596Y-143040832D01*
X140023832Y-143183596D01*
X140023829Y-143183600D01*
X139911659Y-143351473D01*
X139911652Y-143351486D01*
X139834390Y-143538016D01*
X139834387Y-143538025D01*
X139795000Y-143736041D01*
X139795000Y-144241521D01*
X139775315Y-144308560D01*
X139722511Y-144354315D01*
X139653353Y-144364259D01*
X139620096Y-144352750D01*
X139619649Y-144353831D01*
X139612137Y-144350720D01*
X139612136Y-144350719D01*
X139612135Y-144350719D01*
X139465766Y-144311500D01*
X139314234Y-144311500D01*
X139167863Y-144350719D01*
X139036635Y-144426485D01*
X139036632Y-144426487D01*
X138929487Y-144533632D01*
X138929485Y-144533635D01*
X138853719Y-144664863D01*
X138818511Y-144796265D01*
X138814500Y-144811234D01*
X134185500Y-144811234D01*
X134146281Y-144664865D01*
X134070515Y-144533635D01*
X133963365Y-144426485D01*
X133891671Y-144385092D01*
X133832136Y-144350719D01*
X133731555Y-144323769D01*
X133685766Y-144311500D01*
X133534234Y-144311500D01*
X133387865Y-144350719D01*
X133387864Y-144350719D01*
X133387862Y-144350720D01*
X133380351Y-144353831D01*
X133379471Y-144351706D01*
X133323090Y-144365380D01*
X133257065Y-144342523D01*
X133213879Y-144287598D01*
X133205000Y-144241521D01*
X133205000Y-143736045D01*
X133204999Y-143736041D01*
X133165612Y-143538025D01*
X133165609Y-143538016D01*
X133088347Y-143351486D01*
X133088340Y-143351473D01*
X132976170Y-143183600D01*
X132976167Y-143183596D01*
X132833403Y-143040832D01*
X132833399Y-143040829D01*
X132665526Y-142928659D01*
X132665513Y-142928652D01*
X132478984Y-142851390D01*
X132478977Y-142851388D01*
X132430000Y-142841645D01*
X132430000Y-143627382D01*
X132379554Y-143576936D01*
X132305445Y-143534149D01*
X132222787Y-143512000D01*
X132137213Y-143512000D01*
X132054555Y-143534149D01*
X131980446Y-143576936D01*
X131930000Y-143627382D01*
X131930000Y-142841646D01*
X131929999Y-142841645D01*
X131881022Y-142851388D01*
X131881015Y-142851390D01*
X131694486Y-142928652D01*
X131694473Y-142928659D01*
X131526600Y-143040829D01*
X131526596Y-143040832D01*
X131383832Y-143183596D01*
X131383829Y-143183600D01*
X131271659Y-143351473D01*
X131271652Y-143351486D01*
X131194390Y-143538016D01*
X131194387Y-143538025D01*
X131155000Y-143736041D01*
X125416528Y-143736041D01*
X125416528Y-143729954D01*
X125416528Y-143559204D01*
X125416527Y-143559182D01*
X125413618Y-143522207D01*
X125367631Y-143363916D01*
X125283725Y-143222039D01*
X125283718Y-143222030D01*
X125167172Y-143105484D01*
X125167163Y-143105477D01*
X125110042Y-143071696D01*
X125062358Y-143020627D01*
X125049855Y-142951885D01*
X125076501Y-142887296D01*
X125110043Y-142858232D01*
X125167470Y-142824270D01*
X125167471Y-142824268D01*
X125167476Y-142824266D01*
X125284121Y-142707621D01*
X125368093Y-142565633D01*
X125414116Y-142407222D01*
X125417029Y-142370208D01*
X125417029Y-141019140D01*
X125414116Y-140982126D01*
X125409048Y-140964683D01*
X125368094Y-140823719D01*
X125368093Y-140823716D01*
X125368093Y-140823715D01*
X125284121Y-140681727D01*
X125284119Y-140681725D01*
X125284116Y-140681721D01*
X125167481Y-140565086D01*
X125167473Y-140565080D01*
X125110533Y-140531406D01*
X125062850Y-140480337D01*
X125050346Y-140411595D01*
X125076991Y-140347006D01*
X125110533Y-140317942D01*
X125167476Y-140284266D01*
X125284121Y-140167621D01*
X125368093Y-140025633D01*
X125414116Y-139867222D01*
X125417029Y-139830208D01*
X125417029Y-138479140D01*
X125414116Y-138442126D01*
X125414115Y-138442124D01*
X125414115Y-138442121D01*
X125368094Y-138283719D01*
X125368093Y-138283716D01*
X125368093Y-138283715D01*
X125284121Y-138141727D01*
X125284119Y-138141725D01*
X125284116Y-138141721D01*
X125167481Y-138025086D01*
X125167473Y-138025080D01*
X125110533Y-137991406D01*
X125062850Y-137940337D01*
X125050346Y-137871595D01*
X125076991Y-137807006D01*
X125110533Y-137777942D01*
X125167476Y-137744266D01*
X125284121Y-137627621D01*
X125368093Y-137485633D01*
X125414116Y-137327222D01*
X125417029Y-137290208D01*
X125417029Y-135939140D01*
X125414649Y-135908903D01*
X125429013Y-135840528D01*
X125478064Y-135790770D01*
X125538267Y-135775175D01*
X131945433Y-135775175D01*
X132012472Y-135794860D01*
X132033114Y-135811494D01*
X134510955Y-138289335D01*
X134544440Y-138350658D01*
X134544891Y-138352824D01*
X134575791Y-138508166D01*
X134575794Y-138508176D01*
X134636132Y-138653847D01*
X134636139Y-138653860D01*
X134723740Y-138784963D01*
X134723743Y-138784967D01*
X134835237Y-138896461D01*
X134835241Y-138896464D01*
X134966344Y-138984065D01*
X134966357Y-138984072D01*
X135112028Y-139044410D01*
X135112033Y-139044412D01*
X135266683Y-139075174D01*
X135266686Y-139075175D01*
X135266688Y-139075175D01*
X135424374Y-139075175D01*
X135424375Y-139075174D01*
X135579027Y-139044412D01*
X135724709Y-138984069D01*
X135855819Y-138896464D01*
X135967319Y-138784964D01*
X136054924Y-138653854D01*
X136115267Y-138508172D01*
X136146030Y-138353517D01*
X136146030Y-138195833D01*
X136146030Y-138195830D01*
X136146029Y-138195828D01*
X136135268Y-138141730D01*
X136115267Y-138041178D01*
X136073498Y-137940337D01*
X136054927Y-137895502D01*
X136054920Y-137895489D01*
X135967319Y-137764386D01*
X135967316Y-137764382D01*
X135855822Y-137652888D01*
X135855818Y-137652885D01*
X135724715Y-137565284D01*
X135724702Y-137565277D01*
X135579031Y-137504939D01*
X135579021Y-137504936D01*
X135423679Y-137474036D01*
X135361768Y-137441651D01*
X135360190Y-137440100D01*
X132733120Y-134813030D01*
X132733118Y-134813027D01*
X132614247Y-134694156D01*
X132614239Y-134694150D01*
X132521180Y-134640423D01*
X132521178Y-134640422D01*
X132477320Y-134615100D01*
X132477319Y-134615099D01*
X132464793Y-134611742D01*
X132324587Y-134574174D01*
X132166473Y-134574174D01*
X132158877Y-134574174D01*
X132158861Y-134574175D01*
X125541029Y-134574175D01*
X125473990Y-134554490D01*
X125428235Y-134501686D01*
X125417029Y-134450175D01*
X125417029Y-133399147D01*
X125417028Y-133399132D01*
X125414116Y-133362127D01*
X125414115Y-133362121D01*
X125368094Y-133203719D01*
X125368093Y-133203716D01*
X125368093Y-133203715D01*
X125284121Y-133061727D01*
X125284119Y-133061725D01*
X125284116Y-133061721D01*
X125167481Y-132945086D01*
X125167473Y-132945080D01*
X125110533Y-132911406D01*
X125062850Y-132860337D01*
X125050346Y-132791595D01*
X125076991Y-132727006D01*
X125110533Y-132697942D01*
X125167476Y-132664266D01*
X125284121Y-132547621D01*
X125368093Y-132405633D01*
X125414116Y-132247222D01*
X125417029Y-132210208D01*
X125417029Y-130859140D01*
X125414116Y-130822126D01*
X125397748Y-130765789D01*
X125368094Y-130663719D01*
X125368093Y-130663716D01*
X125368093Y-130663715D01*
X125284121Y-130521727D01*
X125284119Y-130521725D01*
X125284116Y-130521721D01*
X125167481Y-130405086D01*
X125167472Y-130405079D01*
X125025486Y-130321109D01*
X125025483Y-130321108D01*
X124867081Y-130275087D01*
X124867075Y-130275086D01*
X124830070Y-130272174D01*
X124830063Y-130272174D01*
X122570995Y-130272174D01*
X122570987Y-130272174D01*
X122533982Y-130275086D01*
X122533976Y-130275087D01*
X122375574Y-130321108D01*
X122375571Y-130321109D01*
X122233585Y-130405079D01*
X122233575Y-130405087D01*
X122137383Y-130501278D01*
X122122590Y-130513913D01*
X122043065Y-130571692D01*
X121902550Y-130712207D01*
X121785742Y-130872979D01*
X121695523Y-131050041D01*
X121695522Y-131050044D01*
X121634116Y-131239036D01*
X121625230Y-131295140D01*
X121603029Y-131435313D01*
X121603029Y-131634035D01*
X121605226Y-131647905D01*
X121596269Y-131717198D01*
X121551272Y-131770649D01*
X121484520Y-131791287D01*
X121417206Y-131772561D01*
X121395071Y-131754981D01*
X116931825Y-127291735D01*
X127089100Y-127291735D01*
X127089100Y-128708270D01*
X127089101Y-128708276D01*
X127095508Y-128767883D01*
X127145802Y-128902728D01*
X127145806Y-128902735D01*
X127232052Y-129017944D01*
X127232055Y-129017947D01*
X127347264Y-129104193D01*
X127347271Y-129104197D01*
X127482117Y-129154491D01*
X127482116Y-129154491D01*
X127489044Y-129155235D01*
X127541727Y-129160900D01*
X128958272Y-129160899D01*
X129017883Y-129154491D01*
X129152731Y-129104196D01*
X129267946Y-129017946D01*
X129354196Y-128902731D01*
X129404491Y-128767883D01*
X129410900Y-128708273D01*
X129410899Y-128416709D01*
X129430583Y-128349673D01*
X129483387Y-128303918D01*
X129552546Y-128293974D01*
X129616101Y-128322999D01*
X129652829Y-128378392D01*
X129674614Y-128445439D01*
X129757535Y-128608178D01*
X129770467Y-128625978D01*
X130343600Y-128052845D01*
X130343600Y-128053504D01*
X130371295Y-128156865D01*
X130424799Y-128249536D01*
X130500464Y-128325201D01*
X130593135Y-128378705D01*
X130696496Y-128406400D01*
X130697153Y-128406400D01*
X130124019Y-128979531D01*
X130141817Y-128992462D01*
X130304556Y-129075383D01*
X130478271Y-129131827D01*
X130658670Y-129160400D01*
X130841330Y-129160400D01*
X131021728Y-129131827D01*
X131195443Y-129075383D01*
X131358178Y-128992465D01*
X131375979Y-128979531D01*
X130802848Y-128406400D01*
X130803504Y-128406400D01*
X130906865Y-128378705D01*
X130999536Y-128325201D01*
X131075201Y-128249536D01*
X131128705Y-128156865D01*
X131156400Y-128053504D01*
X131156400Y-128052847D01*
X131729531Y-128625978D01*
X131742465Y-128608178D01*
X131825383Y-128445443D01*
X131881827Y-128271728D01*
X131910400Y-128091330D01*
X131910400Y-127908673D01*
X131909241Y-127901357D01*
X131909241Y-127901354D01*
X131906939Y-127886822D01*
X140312000Y-127886822D01*
X140312000Y-128113179D01*
X140347407Y-128336734D01*
X140417354Y-128552006D01*
X140496973Y-128708264D01*
X140520112Y-128753677D01*
X140653155Y-128936795D01*
X140813206Y-129096846D01*
X140996324Y-129229889D01*
X141091605Y-129278437D01*
X141197994Y-129332646D01*
X141197996Y-129332646D01*
X141197999Y-129332648D01*
X141313388Y-129370140D01*
X141413266Y-129402593D01*
X141636822Y-129438001D01*
X141636827Y-129438001D01*
X141863178Y-129438001D01*
X141964791Y-129421906D01*
X142086733Y-129402593D01*
X142177966Y-129372948D01*
X142247804Y-129370954D01*
X142303963Y-129403199D01*
X146777381Y-133876617D01*
X146810866Y-133937940D01*
X146813700Y-133964298D01*
X146813700Y-134494670D01*
X146813701Y-134494676D01*
X146820108Y-134554283D01*
X146870402Y-134689128D01*
X146870406Y-134689135D01*
X146956652Y-134804344D01*
X146956655Y-134804347D01*
X147071864Y-134890593D01*
X147071871Y-134890597D01*
X147206717Y-134940891D01*
X147206716Y-134940891D01*
X147209386Y-134941178D01*
X147266327Y-134947300D01*
X148733672Y-134947299D01*
X148793283Y-134940891D01*
X148928131Y-134890596D01*
X149043346Y-134804346D01*
X149129596Y-134689131D01*
X149179891Y-134554283D01*
X149186300Y-134494673D01*
X149186299Y-133475295D01*
X149205983Y-133408257D01*
X149222613Y-133387620D01*
X153139254Y-129470979D01*
X153200575Y-129437496D01*
X153240186Y-129435373D01*
X153264627Y-129438001D01*
X155235372Y-129438000D01*
X155294983Y-129431592D01*
X155429831Y-129381297D01*
X155545046Y-129295047D01*
X155631296Y-129179832D01*
X155681591Y-129044984D01*
X155688000Y-128985374D01*
X155687999Y-127014629D01*
X155681591Y-126955018D01*
X155675389Y-126938390D01*
X155631297Y-126820172D01*
X155631293Y-126820165D01*
X155545047Y-126704956D01*
X155545044Y-126704953D01*
X155429835Y-126618707D01*
X155429828Y-126618703D01*
X155294982Y-126568409D01*
X155294983Y-126568409D01*
X155235383Y-126562002D01*
X155235381Y-126562001D01*
X155235373Y-126562001D01*
X155235364Y-126562001D01*
X153264629Y-126562001D01*
X153264623Y-126562002D01*
X153205016Y-126568409D01*
X153070171Y-126618703D01*
X153070164Y-126618707D01*
X152954955Y-126704953D01*
X152954952Y-126704956D01*
X152868706Y-126820165D01*
X152868702Y-126820172D01*
X152818408Y-126955018D01*
X152812305Y-127011793D01*
X152812001Y-127014624D01*
X152812000Y-127014636D01*
X152812000Y-128048402D01*
X152792315Y-128115441D01*
X152775681Y-128136083D01*
X148373382Y-132538381D01*
X148312059Y-132571866D01*
X148285701Y-132574700D01*
X147266329Y-132574700D01*
X147266320Y-132574701D01*
X147241886Y-132577328D01*
X147173127Y-132564921D01*
X147140953Y-132541719D01*
X144506720Y-129907486D01*
X146824500Y-129907486D01*
X146824500Y-130092513D01*
X146853445Y-130275265D01*
X146910619Y-130451232D01*
X146910620Y-130451235D01*
X146994622Y-130616096D01*
X147103379Y-130765787D01*
X147234213Y-130896621D01*
X147383904Y-131005378D01*
X147464763Y-131046577D01*
X147548764Y-131089379D01*
X147548767Y-131089380D01*
X147625381Y-131114273D01*
X147724736Y-131146555D01*
X147907486Y-131175500D01*
X147907487Y-131175500D01*
X148092513Y-131175500D01*
X148092514Y-131175500D01*
X148275264Y-131146555D01*
X148451235Y-131089379D01*
X148616096Y-131005378D01*
X148765787Y-130896621D01*
X148896621Y-130765787D01*
X149005378Y-130616096D01*
X149089379Y-130451235D01*
X149146555Y-130275264D01*
X149175500Y-130092514D01*
X149175500Y-129907486D01*
X149146555Y-129724736D01*
X149089379Y-129548765D01*
X149089379Y-129548764D01*
X149032941Y-129437999D01*
X149005378Y-129383904D01*
X148896621Y-129234213D01*
X148765787Y-129103379D01*
X148616096Y-128994622D01*
X148611857Y-128992462D01*
X148451235Y-128910620D01*
X148451232Y-128910619D01*
X148275265Y-128853445D01*
X148183889Y-128838972D01*
X148092514Y-128824500D01*
X147907486Y-128824500D01*
X147846569Y-128834148D01*
X147724734Y-128853445D01*
X147548767Y-128910619D01*
X147548764Y-128910620D01*
X147383903Y-128994622D01*
X147314588Y-129044983D01*
X147234213Y-129103379D01*
X147234211Y-129103381D01*
X147234210Y-129103381D01*
X147103381Y-129234210D01*
X147103381Y-129234211D01*
X147103379Y-129234213D01*
X147059182Y-129295045D01*
X146994622Y-129383903D01*
X146910620Y-129548764D01*
X146910619Y-129548767D01*
X146853445Y-129724734D01*
X146824500Y-129907486D01*
X144506720Y-129907486D01*
X143153198Y-128553964D01*
X143119713Y-128492641D01*
X143122947Y-128427967D01*
X143152592Y-128336734D01*
X143171905Y-128214792D01*
X143188000Y-128113179D01*
X143188000Y-127886822D01*
X143152592Y-127663267D01*
X143082645Y-127447995D01*
X143028436Y-127341606D01*
X142979888Y-127246325D01*
X142846845Y-127063207D01*
X142686794Y-126903156D01*
X142503676Y-126770113D01*
X142302005Y-126667355D01*
X142086733Y-126597408D01*
X141863178Y-126562001D01*
X141863173Y-126562001D01*
X141636827Y-126562001D01*
X141636822Y-126562001D01*
X141413266Y-126597408D01*
X141197994Y-126667355D01*
X140996323Y-126770113D01*
X140813203Y-126903158D01*
X140653157Y-127063204D01*
X140520112Y-127246324D01*
X140417354Y-127447995D01*
X140347407Y-127663267D01*
X140312000Y-127886822D01*
X131906939Y-127886822D01*
X131881827Y-127728271D01*
X131825383Y-127554556D01*
X131742462Y-127391817D01*
X131729531Y-127374020D01*
X131729531Y-127374019D01*
X131156400Y-127947151D01*
X131156400Y-127946496D01*
X131128705Y-127843135D01*
X131075201Y-127750464D01*
X130999536Y-127674799D01*
X130906865Y-127621295D01*
X130803504Y-127593600D01*
X130802847Y-127593600D01*
X131375978Y-127020467D01*
X131358178Y-127007535D01*
X131195443Y-126924616D01*
X131021728Y-126868172D01*
X130841330Y-126839600D01*
X130658670Y-126839600D01*
X130478271Y-126868172D01*
X130304556Y-126924616D01*
X130141813Y-127007539D01*
X130141808Y-127007543D01*
X130124020Y-127020465D01*
X130124020Y-127020468D01*
X130697154Y-127593600D01*
X130696496Y-127593600D01*
X130593135Y-127621295D01*
X130500464Y-127674799D01*
X130424799Y-127750464D01*
X130371295Y-127843135D01*
X130343600Y-127946496D01*
X130343600Y-127947152D01*
X129770468Y-127374020D01*
X129770465Y-127374020D01*
X129757543Y-127391808D01*
X129757539Y-127391813D01*
X129674616Y-127554557D01*
X129652830Y-127621608D01*
X129613392Y-127679283D01*
X129549033Y-127706481D01*
X129480187Y-127694566D01*
X129428711Y-127647321D01*
X129410899Y-127583289D01*
X129410899Y-127291729D01*
X129410898Y-127291723D01*
X129410897Y-127291716D01*
X129404491Y-127232117D01*
X129398576Y-127216257D01*
X129359340Y-127111059D01*
X129356039Y-127102211D01*
X129354196Y-127097269D01*
X129354194Y-127097266D01*
X129354193Y-127097264D01*
X129267947Y-126982055D01*
X129267944Y-126982052D01*
X129152735Y-126895806D01*
X129152728Y-126895802D01*
X129017882Y-126845508D01*
X129017883Y-126845508D01*
X128958283Y-126839101D01*
X128958281Y-126839100D01*
X128958273Y-126839100D01*
X128958264Y-126839100D01*
X127541729Y-126839100D01*
X127541723Y-126839101D01*
X127482116Y-126845508D01*
X127347271Y-126895802D01*
X127347264Y-126895806D01*
X127232055Y-126982052D01*
X127232052Y-126982055D01*
X127145806Y-127097264D01*
X127145802Y-127097271D01*
X127095508Y-127232117D01*
X127093981Y-127246325D01*
X127089101Y-127291723D01*
X127089100Y-127291735D01*
X116931825Y-127291735D01*
X115542119Y-125902029D01*
X115542117Y-125902026D01*
X115423246Y-125783155D01*
X115423245Y-125783154D01*
X115328584Y-125728502D01*
X115328583Y-125728501D01*
X115286312Y-125704096D01*
X115230410Y-125689117D01*
X115133586Y-125663173D01*
X114975472Y-125663173D01*
X114967876Y-125663173D01*
X114967860Y-125663174D01*
X85389063Y-125663174D01*
X85322024Y-125643489D01*
X85276269Y-125590685D01*
X85266325Y-125521527D01*
X85288746Y-125466288D01*
X85315050Y-125430083D01*
X85315049Y-125430083D01*
X85315053Y-125430079D01*
X85404413Y-125254699D01*
X85465238Y-125067500D01*
X85496029Y-124873096D01*
X85496029Y-124676251D01*
X85465238Y-124481847D01*
X85437016Y-124394991D01*
X85404413Y-124294649D01*
X85404411Y-124294646D01*
X85404411Y-124294644D01*
X85349537Y-124186948D01*
X85315052Y-124119268D01*
X85199357Y-123960028D01*
X85060175Y-123820846D01*
X84900934Y-123705150D01*
X84725554Y-123615790D01*
X84725553Y-123615789D01*
X84723764Y-123614878D01*
X84672968Y-123566904D01*
X84656173Y-123499083D01*
X84678710Y-123432948D01*
X84723765Y-123393908D01*
X84900670Y-123303771D01*
X84935654Y-123278352D01*
X84935655Y-123278352D01*
X84374939Y-122717636D01*
X84438522Y-122700599D01*
X84552536Y-122634773D01*
X84645628Y-122541681D01*
X84711454Y-122427667D01*
X84728491Y-122364084D01*
X85289207Y-122924800D01*
X85289207Y-122924799D01*
X85314624Y-122889817D01*
X85316128Y-122886865D01*
X140312500Y-122886865D01*
X140312500Y-123113132D01*
X140347895Y-123336610D01*
X140417818Y-123551809D01*
X140520542Y-123753417D01*
X140572084Y-123824358D01*
X140572085Y-123824359D01*
X141168092Y-123228352D01*
X141196132Y-123296047D01*
X141264531Y-123398413D01*
X141351586Y-123485468D01*
X141453952Y-123553867D01*
X141521645Y-123581906D01*
X140925638Y-124177912D01*
X140996585Y-124229458D01*
X141198189Y-124332180D01*
X141413388Y-124402103D01*
X141413387Y-124402103D01*
X141636867Y-124437499D01*
X141863133Y-124437499D01*
X142086611Y-124402103D01*
X142301810Y-124332180D01*
X142503406Y-124229462D01*
X142503412Y-124229458D01*
X142574359Y-124177912D01*
X142574360Y-124177912D01*
X141978353Y-123581906D01*
X142046048Y-123553867D01*
X142148414Y-123485468D01*
X142235469Y-123398413D01*
X142303868Y-123296047D01*
X142331907Y-123228352D01*
X142927913Y-123824359D01*
X142927913Y-123824358D01*
X142979459Y-123753411D01*
X142979463Y-123753405D01*
X143082181Y-123551809D01*
X143152104Y-123336610D01*
X143187500Y-123113132D01*
X143187500Y-122886865D01*
X152812500Y-122886865D01*
X152812500Y-123113132D01*
X152847895Y-123336610D01*
X152917818Y-123551809D01*
X153020542Y-123753417D01*
X153072084Y-123824358D01*
X153072085Y-123824359D01*
X153668092Y-123228352D01*
X153696132Y-123296047D01*
X153764531Y-123398413D01*
X153851586Y-123485468D01*
X153953952Y-123553867D01*
X154021645Y-123581906D01*
X153425638Y-124177912D01*
X153496585Y-124229458D01*
X153698189Y-124332180D01*
X153913388Y-124402103D01*
X153913387Y-124402103D01*
X154136867Y-124437499D01*
X154363133Y-124437499D01*
X154586611Y-124402103D01*
X154801810Y-124332180D01*
X155003406Y-124229462D01*
X155003412Y-124229458D01*
X155074359Y-124177912D01*
X155074360Y-124177912D01*
X154478353Y-123581906D01*
X154546048Y-123553867D01*
X154648414Y-123485468D01*
X154735469Y-123398413D01*
X154803868Y-123296047D01*
X154831907Y-123228352D01*
X155427913Y-123824359D01*
X155427913Y-123824358D01*
X155479459Y-123753411D01*
X155479463Y-123753405D01*
X155582181Y-123551809D01*
X155652104Y-123336610D01*
X155687500Y-123113132D01*
X155687500Y-122886865D01*
X155652104Y-122663387D01*
X155582181Y-122448188D01*
X155479459Y-122246584D01*
X155427913Y-122175638D01*
X155427913Y-122175637D01*
X154831907Y-122771644D01*
X154803868Y-122703951D01*
X154735469Y-122601585D01*
X154648414Y-122514530D01*
X154546048Y-122446131D01*
X154478353Y-122418091D01*
X155074360Y-121822084D01*
X155074359Y-121822083D01*
X155003418Y-121770541D01*
X154801810Y-121667817D01*
X154586611Y-121597894D01*
X154586612Y-121597894D01*
X154363133Y-121562499D01*
X154136867Y-121562499D01*
X153913388Y-121597894D01*
X153698189Y-121667817D01*
X153496587Y-121770538D01*
X153425639Y-121822084D01*
X154021646Y-122418091D01*
X153953952Y-122446131D01*
X153851586Y-122514530D01*
X153764531Y-122601585D01*
X153696132Y-122703951D01*
X153668092Y-122771644D01*
X153072085Y-122175638D01*
X153020539Y-122246586D01*
X152917818Y-122448188D01*
X152847895Y-122663387D01*
X152812500Y-122886865D01*
X143187500Y-122886865D01*
X143152104Y-122663387D01*
X143082181Y-122448188D01*
X142979459Y-122246584D01*
X142927913Y-122175638D01*
X142927913Y-122175637D01*
X142331907Y-122771644D01*
X142303868Y-122703951D01*
X142235469Y-122601585D01*
X142148414Y-122514530D01*
X142046048Y-122446131D01*
X141978353Y-122418091D01*
X142574360Y-121822084D01*
X142574359Y-121822083D01*
X142503418Y-121770541D01*
X142301810Y-121667817D01*
X142086611Y-121597894D01*
X142086612Y-121597894D01*
X141863133Y-121562499D01*
X141636867Y-121562499D01*
X141413388Y-121597894D01*
X141198189Y-121667817D01*
X140996587Y-121770538D01*
X140925639Y-121822084D01*
X141521646Y-122418091D01*
X141453952Y-122446131D01*
X141351586Y-122514530D01*
X141264531Y-122601585D01*
X141196132Y-122703951D01*
X141168092Y-122771644D01*
X140572085Y-122175638D01*
X140520539Y-122246586D01*
X140417818Y-122448188D01*
X140347895Y-122663387D01*
X140312500Y-122886865D01*
X85316128Y-122886865D01*
X85347295Y-122825698D01*
X85347296Y-122825696D01*
X85403946Y-122714512D01*
X85464750Y-122527379D01*
X85495529Y-122333056D01*
X85495529Y-122136291D01*
X85464750Y-121941968D01*
X85464749Y-121941964D01*
X85453604Y-121907663D01*
X85453603Y-121907661D01*
X85403947Y-121754838D01*
X85314625Y-121579532D01*
X85289207Y-121544547D01*
X85289206Y-121544547D01*
X84728491Y-122105263D01*
X84711454Y-122041681D01*
X84645628Y-121927667D01*
X84552536Y-121834575D01*
X84438522Y-121768749D01*
X84374938Y-121751711D01*
X84935654Y-121190994D01*
X84935654Y-121190993D01*
X84900674Y-121165579D01*
X84725364Y-121076255D01*
X84553908Y-121020545D01*
X84553907Y-121020545D01*
X84538232Y-121015452D01*
X84343911Y-120984674D01*
X84147147Y-120984674D01*
X83952823Y-121015452D01*
X83765690Y-121076256D01*
X83590392Y-121165573D01*
X83590388Y-121165576D01*
X83555402Y-121190994D01*
X83555401Y-121190994D01*
X84116119Y-121751711D01*
X84052536Y-121768749D01*
X83938522Y-121834575D01*
X83845430Y-121927667D01*
X83779604Y-122041681D01*
X83762566Y-122105264D01*
X83201849Y-121544546D01*
X83201849Y-121544547D01*
X83176431Y-121579533D01*
X83176428Y-121579537D01*
X83087111Y-121754835D01*
X83026307Y-121941968D01*
X82995529Y-122136291D01*
X82995529Y-122333056D01*
X83026307Y-122527379D01*
X83087110Y-122714509D01*
X83176434Y-122889819D01*
X83201848Y-122924799D01*
X83201849Y-122924799D01*
X83762566Y-122364082D01*
X83779604Y-122427667D01*
X83845430Y-122541681D01*
X83938522Y-122634773D01*
X84052536Y-122700599D01*
X84116119Y-122717636D01*
X83555402Y-123278351D01*
X83555402Y-123278352D01*
X83590387Y-123303770D01*
X83767293Y-123393908D01*
X83818089Y-123441883D01*
X83834884Y-123509704D01*
X83812347Y-123575838D01*
X83767293Y-123614878D01*
X83590123Y-123705150D01*
X83499270Y-123771159D01*
X83430883Y-123820846D01*
X83430881Y-123820848D01*
X83430880Y-123820848D01*
X83291703Y-123960025D01*
X83291703Y-123960026D01*
X83291701Y-123960028D01*
X83242014Y-124028415D01*
X83176005Y-124119268D01*
X83086646Y-124294644D01*
X83025819Y-124481847D01*
X82995029Y-124676251D01*
X82995029Y-124873096D01*
X83025819Y-125067500D01*
X83086646Y-125254703D01*
X83176007Y-125430083D01*
X83202312Y-125466288D01*
X83225793Y-125532094D01*
X83209968Y-125600148D01*
X83159863Y-125648843D01*
X83101995Y-125663174D01*
X77389063Y-125663174D01*
X77322024Y-125643489D01*
X77276269Y-125590685D01*
X77266325Y-125521527D01*
X77288746Y-125466288D01*
X77315050Y-125430083D01*
X77315049Y-125430083D01*
X77315053Y-125430079D01*
X77404413Y-125254699D01*
X77465238Y-125067500D01*
X77496029Y-124873096D01*
X77496029Y-124676251D01*
X77465238Y-124481847D01*
X77437016Y-124394991D01*
X77404413Y-124294649D01*
X77404411Y-124294646D01*
X77404411Y-124294644D01*
X77315052Y-124119268D01*
X77199357Y-123960028D01*
X77060175Y-123820846D01*
X76906221Y-123708991D01*
X76863557Y-123653662D01*
X76857578Y-123584048D01*
X76890184Y-123522253D01*
X76951023Y-123487896D01*
X76979108Y-123484674D01*
X77043357Y-123484674D01*
X77043373Y-123484673D01*
X77102901Y-123478272D01*
X77102908Y-123478270D01*
X77237615Y-123428028D01*
X77237622Y-123428024D01*
X77352716Y-123341864D01*
X77352719Y-123341861D01*
X77438879Y-123226767D01*
X77438883Y-123226760D01*
X77489125Y-123092053D01*
X77489127Y-123092046D01*
X77495528Y-123032518D01*
X77495529Y-123032501D01*
X77495529Y-122484674D01*
X76678541Y-122484674D01*
X76711454Y-122427667D01*
X76745529Y-122300500D01*
X76745529Y-122168848D01*
X76711454Y-122041681D01*
X76678541Y-121984674D01*
X77495529Y-121984674D01*
X77495529Y-121436846D01*
X77495528Y-121436829D01*
X77489127Y-121377301D01*
X77489125Y-121377294D01*
X77453429Y-121281586D01*
X77438883Y-121242587D01*
X77438879Y-121242580D01*
X77352719Y-121127486D01*
X77352716Y-121127483D01*
X77237622Y-121041323D01*
X77237615Y-121041319D01*
X77102908Y-120991077D01*
X77102901Y-120991075D01*
X77043373Y-120984674D01*
X76495529Y-120984674D01*
X76495529Y-121801662D01*
X76438522Y-121768749D01*
X76311355Y-121734674D01*
X76179703Y-121734674D01*
X76052536Y-121768749D01*
X75995529Y-121801662D01*
X75995529Y-120984674D01*
X75447684Y-120984674D01*
X75388156Y-120991075D01*
X75388149Y-120991077D01*
X75253442Y-121041319D01*
X75253435Y-121041323D01*
X75138341Y-121127483D01*
X75138338Y-121127486D01*
X75052178Y-121242580D01*
X75052174Y-121242587D01*
X75001932Y-121377294D01*
X75001930Y-121377301D01*
X74995529Y-121436829D01*
X74995529Y-121984674D01*
X75812517Y-121984674D01*
X75779604Y-122041681D01*
X75745529Y-122168848D01*
X75745529Y-122300500D01*
X75779604Y-122427667D01*
X75812517Y-122484674D01*
X74995529Y-122484674D01*
X74995529Y-123032518D01*
X75001930Y-123092046D01*
X75001932Y-123092053D01*
X75052174Y-123226760D01*
X75052178Y-123226767D01*
X75138338Y-123341861D01*
X75138341Y-123341864D01*
X75253435Y-123428024D01*
X75253442Y-123428028D01*
X75388149Y-123478270D01*
X75388156Y-123478272D01*
X75447684Y-123484673D01*
X75447701Y-123484674D01*
X75511950Y-123484674D01*
X75578989Y-123504359D01*
X75624744Y-123557163D01*
X75634688Y-123626321D01*
X75605663Y-123689877D01*
X75584836Y-123708991D01*
X75430883Y-123820846D01*
X75430881Y-123820848D01*
X75430880Y-123820848D01*
X75291703Y-123960025D01*
X75291703Y-123960026D01*
X75291701Y-123960028D01*
X75242014Y-124028415D01*
X75176005Y-124119268D01*
X75086646Y-124294644D01*
X75025819Y-124481847D01*
X74995029Y-124676251D01*
X74995029Y-124873096D01*
X75026552Y-125072127D01*
X75025850Y-125077552D01*
X75027763Y-125082679D01*
X75021420Y-125111834D01*
X75017597Y-125141421D01*
X75013765Y-125147024D01*
X75012911Y-125150952D01*
X74991761Y-125179206D01*
X74825815Y-125345152D01*
X74825814Y-125345152D01*
X74825813Y-125345153D01*
X74714010Y-125456956D01*
X74714009Y-125456958D01*
X74676731Y-125521527D01*
X74663890Y-125543768D01*
X74663888Y-125543770D01*
X74634954Y-125593883D01*
X74634953Y-125593884D01*
X74620227Y-125648843D01*
X74594028Y-125746617D01*
X74594028Y-125904731D01*
X74594028Y-125904733D01*
X74594029Y-125914727D01*
X74594029Y-127663344D01*
X74594028Y-127663362D01*
X74594028Y-127829068D01*
X74594027Y-127829068D01*
X70207098Y-127829068D01*
X69158707Y-125795305D01*
X67299291Y-122188241D01*
X67299290Y-122188237D01*
X66939530Y-121490343D01*
X66939528Y-121490341D01*
X66639070Y-120907486D01*
X146824500Y-120907486D01*
X146824500Y-121092513D01*
X146853445Y-121275265D01*
X146910619Y-121451232D01*
X146910620Y-121451235D01*
X146994622Y-121616096D01*
X147103379Y-121765787D01*
X147234213Y-121896621D01*
X147383904Y-122005378D01*
X147455153Y-122041681D01*
X147548764Y-122089379D01*
X147548767Y-122089380D01*
X147636750Y-122117967D01*
X147724736Y-122146555D01*
X147907486Y-122175500D01*
X147907487Y-122175500D01*
X148092513Y-122175500D01*
X148092514Y-122175500D01*
X148275264Y-122146555D01*
X148451235Y-122089379D01*
X148616096Y-122005378D01*
X148765787Y-121896621D01*
X148896621Y-121765787D01*
X149005378Y-121616096D01*
X149089379Y-121451235D01*
X149146555Y-121275264D01*
X149175500Y-121092514D01*
X149175500Y-120907486D01*
X149146555Y-120724736D01*
X149089379Y-120548765D01*
X149089379Y-120548764D01*
X149005377Y-120383903D01*
X148896621Y-120234213D01*
X148765787Y-120103379D01*
X148616096Y-119994622D01*
X148451235Y-119910620D01*
X148451232Y-119910619D01*
X148275265Y-119853445D01*
X148183889Y-119838972D01*
X148092514Y-119824500D01*
X147907486Y-119824500D01*
X147846569Y-119834148D01*
X147724734Y-119853445D01*
X147548767Y-119910619D01*
X147548764Y-119910620D01*
X147383903Y-119994622D01*
X147298499Y-120056672D01*
X147234213Y-120103379D01*
X147234211Y-120103381D01*
X147234210Y-120103381D01*
X147103381Y-120234210D01*
X147103381Y-120234211D01*
X147103379Y-120234213D01*
X147056672Y-120298499D01*
X146994622Y-120383903D01*
X146910620Y-120548764D01*
X146910619Y-120548767D01*
X146853445Y-120724734D01*
X146824500Y-120907486D01*
X66639070Y-120907486D01*
X63813782Y-115426735D01*
X63800000Y-115369919D01*
X63800000Y-65652990D01*
X63819685Y-65585951D01*
X63838293Y-65563378D01*
X88963852Y-41534569D01*
X89025905Y-41502462D01*
X89050014Y-41500187D01*
X142347891Y-41699804D01*
G37*
%TD.AperFunction*%
%TD*%
M02*
