%TF.GenerationSoftware,KiCad,Pcbnew,9.0.6*%
%TF.CreationDate,2026-04-25T11:40:18+08:00*%
%TF.ProjectId,HexiLux-v1,48657869-4c75-4782-9d76-312e6b696361,rev?*%
%TF.SameCoordinates,Original*%
%TF.FileFunction,Drillmap*%
%TF.FilePolarity,Positive*%
%FSLAX45Y45*%
G04 Gerber Fmt 4.5, Leading zero omitted, Abs format (unit mm)*
G04 Created by KiCad (PCBNEW 9.0.6) date 2026-04-25 11:40:18*
%MOMM*%
%LPD*%
G01*
G04 APERTURE LIST*
%ADD10C,0.050000*%
%ADD11C,0.200000*%
%ADD12C,0.100000*%
%ADD13C,0.185000*%
G04 APERTURE END LIST*
D10*
X8065453Y-3167470D02*
X14993653Y-3167470D01*
X18457753Y-9167467D02*
X14993653Y-15167465D01*
X4601353Y-9167467D02*
X8065453Y-3167470D01*
X14993653Y-15167465D02*
X8065453Y-15167465D01*
X14993653Y-3167470D02*
X18457753Y-9167467D01*
X8065453Y-15167465D02*
X4601353Y-9167467D01*
D11*
D12*
X13328500Y-14456200D02*
X13393500Y-14521200D01*
X13393500Y-14456200D02*
X13328500Y-14521200D01*
X13906500Y-14456200D02*
X13971500Y-14521200D01*
X13971500Y-14456200D02*
X13906500Y-14521200D01*
D13*
X14892500Y-12100000D02*
G75*
G02*
X14707500Y-12100000I-92500J0D01*
G01*
X14707500Y-12100000D02*
G75*
G02*
X14892500Y-12100000I92500J0D01*
G01*
X14892500Y-13000000D02*
G75*
G02*
X14707500Y-13000000I-92500J0D01*
G01*
X14707500Y-13000000D02*
G75*
G02*
X14892500Y-13000000I92500J0D01*
G01*
D11*
X4859630Y-15481448D02*
X4859630Y-15281448D01*
X4859630Y-15281448D02*
X4907249Y-15281448D01*
X4907249Y-15281448D02*
X4935820Y-15290972D01*
X4935820Y-15290972D02*
X4954868Y-15310020D01*
X4954868Y-15310020D02*
X4964392Y-15329067D01*
X4964392Y-15329067D02*
X4973915Y-15367163D01*
X4973915Y-15367163D02*
X4973915Y-15395734D01*
X4973915Y-15395734D02*
X4964392Y-15433829D01*
X4964392Y-15433829D02*
X4954868Y-15452877D01*
X4954868Y-15452877D02*
X4935820Y-15471925D01*
X4935820Y-15471925D02*
X4907249Y-15481448D01*
X4907249Y-15481448D02*
X4859630Y-15481448D01*
X5059630Y-15481448D02*
X5059630Y-15348115D01*
X5059630Y-15386210D02*
X5069154Y-15367163D01*
X5069154Y-15367163D02*
X5078677Y-15357639D01*
X5078677Y-15357639D02*
X5097725Y-15348115D01*
X5097725Y-15348115D02*
X5116773Y-15348115D01*
X5183439Y-15481448D02*
X5183439Y-15348115D01*
X5183439Y-15281448D02*
X5173915Y-15290972D01*
X5173915Y-15290972D02*
X5183439Y-15300496D01*
X5183439Y-15300496D02*
X5192963Y-15290972D01*
X5192963Y-15290972D02*
X5183439Y-15281448D01*
X5183439Y-15281448D02*
X5183439Y-15300496D01*
X5307249Y-15481448D02*
X5288201Y-15471925D01*
X5288201Y-15471925D02*
X5278677Y-15452877D01*
X5278677Y-15452877D02*
X5278677Y-15281448D01*
X5412011Y-15481448D02*
X5392963Y-15471925D01*
X5392963Y-15471925D02*
X5383439Y-15452877D01*
X5383439Y-15452877D02*
X5383439Y-15281448D01*
X5640582Y-15481448D02*
X5640582Y-15281448D01*
X5640582Y-15281448D02*
X5707249Y-15424306D01*
X5707249Y-15424306D02*
X5773915Y-15281448D01*
X5773915Y-15281448D02*
X5773915Y-15481448D01*
X5954868Y-15481448D02*
X5954868Y-15376687D01*
X5954868Y-15376687D02*
X5945344Y-15357639D01*
X5945344Y-15357639D02*
X5926296Y-15348115D01*
X5926296Y-15348115D02*
X5888201Y-15348115D01*
X5888201Y-15348115D02*
X5869153Y-15357639D01*
X5954868Y-15471925D02*
X5935820Y-15481448D01*
X5935820Y-15481448D02*
X5888201Y-15481448D01*
X5888201Y-15481448D02*
X5869153Y-15471925D01*
X5869153Y-15471925D02*
X5859630Y-15452877D01*
X5859630Y-15452877D02*
X5859630Y-15433829D01*
X5859630Y-15433829D02*
X5869153Y-15414782D01*
X5869153Y-15414782D02*
X5888201Y-15405258D01*
X5888201Y-15405258D02*
X5935820Y-15405258D01*
X5935820Y-15405258D02*
X5954868Y-15395734D01*
X6050106Y-15348115D02*
X6050106Y-15548115D01*
X6050106Y-15357639D02*
X6069153Y-15348115D01*
X6069153Y-15348115D02*
X6107249Y-15348115D01*
X6107249Y-15348115D02*
X6126296Y-15357639D01*
X6126296Y-15357639D02*
X6135820Y-15367163D01*
X6135820Y-15367163D02*
X6145344Y-15386210D01*
X6145344Y-15386210D02*
X6145344Y-15443353D01*
X6145344Y-15443353D02*
X6135820Y-15462401D01*
X6135820Y-15462401D02*
X6126296Y-15471925D01*
X6126296Y-15471925D02*
X6107249Y-15481448D01*
X6107249Y-15481448D02*
X6069153Y-15481448D01*
X6069153Y-15481448D02*
X6050106Y-15471925D01*
X6231058Y-15462401D02*
X6240582Y-15471925D01*
X6240582Y-15471925D02*
X6231058Y-15481448D01*
X6231058Y-15481448D02*
X6221534Y-15471925D01*
X6221534Y-15471925D02*
X6231058Y-15462401D01*
X6231058Y-15462401D02*
X6231058Y-15481448D01*
X6231058Y-15357639D02*
X6240582Y-15367163D01*
X6240582Y-15367163D02*
X6231058Y-15376687D01*
X6231058Y-15376687D02*
X6221534Y-15367163D01*
X6221534Y-15367163D02*
X6231058Y-15357639D01*
X6231058Y-15357639D02*
X6231058Y-15376687D01*
D12*
X4533853Y-15777465D02*
X4598853Y-15842465D01*
X4598853Y-15777465D02*
X4533853Y-15842465D01*
D11*
X4897725Y-15701448D02*
X4916773Y-15701448D01*
X4916773Y-15701448D02*
X4935820Y-15710972D01*
X4935820Y-15710972D02*
X4945344Y-15720496D01*
X4945344Y-15720496D02*
X4954868Y-15739544D01*
X4954868Y-15739544D02*
X4964392Y-15777639D01*
X4964392Y-15777639D02*
X4964392Y-15825258D01*
X4964392Y-15825258D02*
X4954868Y-15863353D01*
X4954868Y-15863353D02*
X4945344Y-15882401D01*
X4945344Y-15882401D02*
X4935820Y-15891925D01*
X4935820Y-15891925D02*
X4916773Y-15901448D01*
X4916773Y-15901448D02*
X4897725Y-15901448D01*
X4897725Y-15901448D02*
X4878677Y-15891925D01*
X4878677Y-15891925D02*
X4869154Y-15882401D01*
X4869154Y-15882401D02*
X4859630Y-15863353D01*
X4859630Y-15863353D02*
X4850106Y-15825258D01*
X4850106Y-15825258D02*
X4850106Y-15777639D01*
X4850106Y-15777639D02*
X4859630Y-15739544D01*
X4859630Y-15739544D02*
X4869154Y-15720496D01*
X4869154Y-15720496D02*
X4878677Y-15710972D01*
X4878677Y-15710972D02*
X4897725Y-15701448D01*
X5050106Y-15882401D02*
X5059630Y-15891925D01*
X5059630Y-15891925D02*
X5050106Y-15901448D01*
X5050106Y-15901448D02*
X5040582Y-15891925D01*
X5040582Y-15891925D02*
X5050106Y-15882401D01*
X5050106Y-15882401D02*
X5050106Y-15901448D01*
X5231058Y-15701448D02*
X5192963Y-15701448D01*
X5192963Y-15701448D02*
X5173915Y-15710972D01*
X5173915Y-15710972D02*
X5164392Y-15720496D01*
X5164392Y-15720496D02*
X5145344Y-15749067D01*
X5145344Y-15749067D02*
X5135820Y-15787163D01*
X5135820Y-15787163D02*
X5135820Y-15863353D01*
X5135820Y-15863353D02*
X5145344Y-15882401D01*
X5145344Y-15882401D02*
X5154868Y-15891925D01*
X5154868Y-15891925D02*
X5173915Y-15901448D01*
X5173915Y-15901448D02*
X5212011Y-15901448D01*
X5212011Y-15901448D02*
X5231058Y-15891925D01*
X5231058Y-15891925D02*
X5240582Y-15882401D01*
X5240582Y-15882401D02*
X5250106Y-15863353D01*
X5250106Y-15863353D02*
X5250106Y-15815734D01*
X5250106Y-15815734D02*
X5240582Y-15796687D01*
X5240582Y-15796687D02*
X5231058Y-15787163D01*
X5231058Y-15787163D02*
X5212011Y-15777639D01*
X5212011Y-15777639D02*
X5173915Y-15777639D01*
X5173915Y-15777639D02*
X5154868Y-15787163D01*
X5154868Y-15787163D02*
X5145344Y-15796687D01*
X5145344Y-15796687D02*
X5135820Y-15815734D01*
X5431058Y-15701448D02*
X5335820Y-15701448D01*
X5335820Y-15701448D02*
X5326296Y-15796687D01*
X5326296Y-15796687D02*
X5335820Y-15787163D01*
X5335820Y-15787163D02*
X5354868Y-15777639D01*
X5354868Y-15777639D02*
X5402487Y-15777639D01*
X5402487Y-15777639D02*
X5421535Y-15787163D01*
X5421535Y-15787163D02*
X5431058Y-15796687D01*
X5431058Y-15796687D02*
X5440582Y-15815734D01*
X5440582Y-15815734D02*
X5440582Y-15863353D01*
X5440582Y-15863353D02*
X5431058Y-15882401D01*
X5431058Y-15882401D02*
X5421535Y-15891925D01*
X5421535Y-15891925D02*
X5402487Y-15901448D01*
X5402487Y-15901448D02*
X5354868Y-15901448D01*
X5354868Y-15901448D02*
X5335820Y-15891925D01*
X5335820Y-15891925D02*
X5326296Y-15882401D01*
X5564392Y-15701448D02*
X5583439Y-15701448D01*
X5583439Y-15701448D02*
X5602487Y-15710972D01*
X5602487Y-15710972D02*
X5612011Y-15720496D01*
X5612011Y-15720496D02*
X5621534Y-15739544D01*
X5621534Y-15739544D02*
X5631058Y-15777639D01*
X5631058Y-15777639D02*
X5631058Y-15825258D01*
X5631058Y-15825258D02*
X5621534Y-15863353D01*
X5621534Y-15863353D02*
X5612011Y-15882401D01*
X5612011Y-15882401D02*
X5602487Y-15891925D01*
X5602487Y-15891925D02*
X5583439Y-15901448D01*
X5583439Y-15901448D02*
X5564392Y-15901448D01*
X5564392Y-15901448D02*
X5545344Y-15891925D01*
X5545344Y-15891925D02*
X5535820Y-15882401D01*
X5535820Y-15882401D02*
X5526296Y-15863353D01*
X5526296Y-15863353D02*
X5516773Y-15825258D01*
X5516773Y-15825258D02*
X5516773Y-15777639D01*
X5516773Y-15777639D02*
X5526296Y-15739544D01*
X5526296Y-15739544D02*
X5535820Y-15720496D01*
X5535820Y-15720496D02*
X5545344Y-15710972D01*
X5545344Y-15710972D02*
X5564392Y-15701448D01*
X5716773Y-15901448D02*
X5716773Y-15768115D01*
X5716773Y-15787163D02*
X5726296Y-15777639D01*
X5726296Y-15777639D02*
X5745344Y-15768115D01*
X5745344Y-15768115D02*
X5773915Y-15768115D01*
X5773915Y-15768115D02*
X5792963Y-15777639D01*
X5792963Y-15777639D02*
X5802487Y-15796687D01*
X5802487Y-15796687D02*
X5802487Y-15901448D01*
X5802487Y-15796687D02*
X5812011Y-15777639D01*
X5812011Y-15777639D02*
X5831058Y-15768115D01*
X5831058Y-15768115D02*
X5859630Y-15768115D01*
X5859630Y-15768115D02*
X5878677Y-15777639D01*
X5878677Y-15777639D02*
X5888201Y-15796687D01*
X5888201Y-15796687D02*
X5888201Y-15901448D01*
X5983439Y-15901448D02*
X5983439Y-15768115D01*
X5983439Y-15787163D02*
X5992963Y-15777639D01*
X5992963Y-15777639D02*
X6012011Y-15768115D01*
X6012011Y-15768115D02*
X6040582Y-15768115D01*
X6040582Y-15768115D02*
X6059630Y-15777639D01*
X6059630Y-15777639D02*
X6069154Y-15796687D01*
X6069154Y-15796687D02*
X6069154Y-15901448D01*
X6069154Y-15796687D02*
X6078677Y-15777639D01*
X6078677Y-15777639D02*
X6097725Y-15768115D01*
X6097725Y-15768115D02*
X6126296Y-15768115D01*
X6126296Y-15768115D02*
X6145344Y-15777639D01*
X6145344Y-15777639D02*
X6154868Y-15796687D01*
X6154868Y-15796687D02*
X6154868Y-15901448D01*
X6545344Y-15691925D02*
X6373916Y-15949067D01*
X6802487Y-15701448D02*
X6821535Y-15701448D01*
X6821535Y-15701448D02*
X6840582Y-15710972D01*
X6840582Y-15710972D02*
X6850106Y-15720496D01*
X6850106Y-15720496D02*
X6859630Y-15739544D01*
X6859630Y-15739544D02*
X6869154Y-15777639D01*
X6869154Y-15777639D02*
X6869154Y-15825258D01*
X6869154Y-15825258D02*
X6859630Y-15863353D01*
X6859630Y-15863353D02*
X6850106Y-15882401D01*
X6850106Y-15882401D02*
X6840582Y-15891925D01*
X6840582Y-15891925D02*
X6821535Y-15901448D01*
X6821535Y-15901448D02*
X6802487Y-15901448D01*
X6802487Y-15901448D02*
X6783439Y-15891925D01*
X6783439Y-15891925D02*
X6773916Y-15882401D01*
X6773916Y-15882401D02*
X6764392Y-15863353D01*
X6764392Y-15863353D02*
X6754868Y-15825258D01*
X6754868Y-15825258D02*
X6754868Y-15777639D01*
X6754868Y-15777639D02*
X6764392Y-15739544D01*
X6764392Y-15739544D02*
X6773916Y-15720496D01*
X6773916Y-15720496D02*
X6783439Y-15710972D01*
X6783439Y-15710972D02*
X6802487Y-15701448D01*
X6954868Y-15882401D02*
X6964392Y-15891925D01*
X6964392Y-15891925D02*
X6954868Y-15901448D01*
X6954868Y-15901448D02*
X6945344Y-15891925D01*
X6945344Y-15891925D02*
X6954868Y-15882401D01*
X6954868Y-15882401D02*
X6954868Y-15901448D01*
X7088201Y-15701448D02*
X7107249Y-15701448D01*
X7107249Y-15701448D02*
X7126297Y-15710972D01*
X7126297Y-15710972D02*
X7135820Y-15720496D01*
X7135820Y-15720496D02*
X7145344Y-15739544D01*
X7145344Y-15739544D02*
X7154868Y-15777639D01*
X7154868Y-15777639D02*
X7154868Y-15825258D01*
X7154868Y-15825258D02*
X7145344Y-15863353D01*
X7145344Y-15863353D02*
X7135820Y-15882401D01*
X7135820Y-15882401D02*
X7126297Y-15891925D01*
X7126297Y-15891925D02*
X7107249Y-15901448D01*
X7107249Y-15901448D02*
X7088201Y-15901448D01*
X7088201Y-15901448D02*
X7069154Y-15891925D01*
X7069154Y-15891925D02*
X7059630Y-15882401D01*
X7059630Y-15882401D02*
X7050106Y-15863353D01*
X7050106Y-15863353D02*
X7040582Y-15825258D01*
X7040582Y-15825258D02*
X7040582Y-15777639D01*
X7040582Y-15777639D02*
X7050106Y-15739544D01*
X7050106Y-15739544D02*
X7059630Y-15720496D01*
X7059630Y-15720496D02*
X7069154Y-15710972D01*
X7069154Y-15710972D02*
X7088201Y-15701448D01*
X7231058Y-15720496D02*
X7240582Y-15710972D01*
X7240582Y-15710972D02*
X7259630Y-15701448D01*
X7259630Y-15701448D02*
X7307249Y-15701448D01*
X7307249Y-15701448D02*
X7326297Y-15710972D01*
X7326297Y-15710972D02*
X7335820Y-15720496D01*
X7335820Y-15720496D02*
X7345344Y-15739544D01*
X7345344Y-15739544D02*
X7345344Y-15758591D01*
X7345344Y-15758591D02*
X7335820Y-15787163D01*
X7335820Y-15787163D02*
X7221535Y-15901448D01*
X7221535Y-15901448D02*
X7345344Y-15901448D01*
X7526297Y-15701448D02*
X7431058Y-15701448D01*
X7431058Y-15701448D02*
X7421535Y-15796687D01*
X7421535Y-15796687D02*
X7431058Y-15787163D01*
X7431058Y-15787163D02*
X7450106Y-15777639D01*
X7450106Y-15777639D02*
X7497725Y-15777639D01*
X7497725Y-15777639D02*
X7516773Y-15787163D01*
X7516773Y-15787163D02*
X7526297Y-15796687D01*
X7526297Y-15796687D02*
X7535820Y-15815734D01*
X7535820Y-15815734D02*
X7535820Y-15863353D01*
X7535820Y-15863353D02*
X7526297Y-15882401D01*
X7526297Y-15882401D02*
X7516773Y-15891925D01*
X7516773Y-15891925D02*
X7497725Y-15901448D01*
X7497725Y-15901448D02*
X7450106Y-15901448D01*
X7450106Y-15901448D02*
X7431058Y-15891925D01*
X7431058Y-15891925D02*
X7421535Y-15882401D01*
X7707249Y-15701448D02*
X7669154Y-15701448D01*
X7669154Y-15701448D02*
X7650106Y-15710972D01*
X7650106Y-15710972D02*
X7640582Y-15720496D01*
X7640582Y-15720496D02*
X7621535Y-15749067D01*
X7621535Y-15749067D02*
X7612011Y-15787163D01*
X7612011Y-15787163D02*
X7612011Y-15863353D01*
X7612011Y-15863353D02*
X7621535Y-15882401D01*
X7621535Y-15882401D02*
X7631058Y-15891925D01*
X7631058Y-15891925D02*
X7650106Y-15901448D01*
X7650106Y-15901448D02*
X7688201Y-15901448D01*
X7688201Y-15901448D02*
X7707249Y-15891925D01*
X7707249Y-15891925D02*
X7716773Y-15882401D01*
X7716773Y-15882401D02*
X7726297Y-15863353D01*
X7726297Y-15863353D02*
X7726297Y-15815734D01*
X7726297Y-15815734D02*
X7716773Y-15796687D01*
X7716773Y-15796687D02*
X7707249Y-15787163D01*
X7707249Y-15787163D02*
X7688201Y-15777639D01*
X7688201Y-15777639D02*
X7650106Y-15777639D01*
X7650106Y-15777639D02*
X7631058Y-15787163D01*
X7631058Y-15787163D02*
X7621535Y-15796687D01*
X7621535Y-15796687D02*
X7612011Y-15815734D01*
X7802487Y-15701448D02*
X7802487Y-15739544D01*
X7878678Y-15701448D02*
X7878678Y-15739544D01*
X8173916Y-15977639D02*
X8164392Y-15968115D01*
X8164392Y-15968115D02*
X8145344Y-15939544D01*
X8145344Y-15939544D02*
X8135820Y-15920496D01*
X8135820Y-15920496D02*
X8126297Y-15891925D01*
X8126297Y-15891925D02*
X8116773Y-15844306D01*
X8116773Y-15844306D02*
X8116773Y-15806210D01*
X8116773Y-15806210D02*
X8126297Y-15758591D01*
X8126297Y-15758591D02*
X8135820Y-15730020D01*
X8135820Y-15730020D02*
X8145344Y-15710972D01*
X8145344Y-15710972D02*
X8164392Y-15682401D01*
X8164392Y-15682401D02*
X8173916Y-15672877D01*
X8240582Y-15720496D02*
X8250106Y-15710972D01*
X8250106Y-15710972D02*
X8269154Y-15701448D01*
X8269154Y-15701448D02*
X8316773Y-15701448D01*
X8316773Y-15701448D02*
X8335820Y-15710972D01*
X8335820Y-15710972D02*
X8345344Y-15720496D01*
X8345344Y-15720496D02*
X8354868Y-15739544D01*
X8354868Y-15739544D02*
X8354868Y-15758591D01*
X8354868Y-15758591D02*
X8345344Y-15787163D01*
X8345344Y-15787163D02*
X8231059Y-15901448D01*
X8231059Y-15901448D02*
X8354868Y-15901448D01*
X8592963Y-15901448D02*
X8592963Y-15701448D01*
X8678678Y-15901448D02*
X8678678Y-15796687D01*
X8678678Y-15796687D02*
X8669154Y-15777639D01*
X8669154Y-15777639D02*
X8650106Y-15768115D01*
X8650106Y-15768115D02*
X8621535Y-15768115D01*
X8621535Y-15768115D02*
X8602487Y-15777639D01*
X8602487Y-15777639D02*
X8592963Y-15787163D01*
X8802487Y-15901448D02*
X8783440Y-15891925D01*
X8783440Y-15891925D02*
X8773916Y-15882401D01*
X8773916Y-15882401D02*
X8764392Y-15863353D01*
X8764392Y-15863353D02*
X8764392Y-15806210D01*
X8764392Y-15806210D02*
X8773916Y-15787163D01*
X8773916Y-15787163D02*
X8783440Y-15777639D01*
X8783440Y-15777639D02*
X8802487Y-15768115D01*
X8802487Y-15768115D02*
X8831059Y-15768115D01*
X8831059Y-15768115D02*
X8850106Y-15777639D01*
X8850106Y-15777639D02*
X8859630Y-15787163D01*
X8859630Y-15787163D02*
X8869154Y-15806210D01*
X8869154Y-15806210D02*
X8869154Y-15863353D01*
X8869154Y-15863353D02*
X8859630Y-15882401D01*
X8859630Y-15882401D02*
X8850106Y-15891925D01*
X8850106Y-15891925D02*
X8831059Y-15901448D01*
X8831059Y-15901448D02*
X8802487Y-15901448D01*
X8983440Y-15901448D02*
X8964392Y-15891925D01*
X8964392Y-15891925D02*
X8954868Y-15872877D01*
X8954868Y-15872877D02*
X8954868Y-15701448D01*
X9135821Y-15891925D02*
X9116773Y-15901448D01*
X9116773Y-15901448D02*
X9078678Y-15901448D01*
X9078678Y-15901448D02*
X9059630Y-15891925D01*
X9059630Y-15891925D02*
X9050106Y-15872877D01*
X9050106Y-15872877D02*
X9050106Y-15796687D01*
X9050106Y-15796687D02*
X9059630Y-15777639D01*
X9059630Y-15777639D02*
X9078678Y-15768115D01*
X9078678Y-15768115D02*
X9116773Y-15768115D01*
X9116773Y-15768115D02*
X9135821Y-15777639D01*
X9135821Y-15777639D02*
X9145344Y-15796687D01*
X9145344Y-15796687D02*
X9145344Y-15815734D01*
X9145344Y-15815734D02*
X9050106Y-15834782D01*
X9221535Y-15891925D02*
X9240583Y-15901448D01*
X9240583Y-15901448D02*
X9278678Y-15901448D01*
X9278678Y-15901448D02*
X9297725Y-15891925D01*
X9297725Y-15891925D02*
X9307249Y-15872877D01*
X9307249Y-15872877D02*
X9307249Y-15863353D01*
X9307249Y-15863353D02*
X9297725Y-15844306D01*
X9297725Y-15844306D02*
X9278678Y-15834782D01*
X9278678Y-15834782D02*
X9250106Y-15834782D01*
X9250106Y-15834782D02*
X9231059Y-15825258D01*
X9231059Y-15825258D02*
X9221535Y-15806210D01*
X9221535Y-15806210D02*
X9221535Y-15796687D01*
X9221535Y-15796687D02*
X9231059Y-15777639D01*
X9231059Y-15777639D02*
X9250106Y-15768115D01*
X9250106Y-15768115D02*
X9278678Y-15768115D01*
X9278678Y-15768115D02*
X9297725Y-15777639D01*
X9373916Y-15977639D02*
X9383440Y-15968115D01*
X9383440Y-15968115D02*
X9402487Y-15939544D01*
X9402487Y-15939544D02*
X9412011Y-15920496D01*
X9412011Y-15920496D02*
X9421535Y-15891925D01*
X9421535Y-15891925D02*
X9431059Y-15844306D01*
X9431059Y-15844306D02*
X9431059Y-15806210D01*
X9431059Y-15806210D02*
X9421535Y-15758591D01*
X9421535Y-15758591D02*
X9412011Y-15730020D01*
X9412011Y-15730020D02*
X9402487Y-15710972D01*
X9402487Y-15710972D02*
X9383440Y-15682401D01*
X9383440Y-15682401D02*
X9373916Y-15672877D01*
X9735821Y-15977639D02*
X9726297Y-15968115D01*
X9726297Y-15968115D02*
X9707249Y-15939544D01*
X9707249Y-15939544D02*
X9697725Y-15920496D01*
X9697725Y-15920496D02*
X9688202Y-15891925D01*
X9688202Y-15891925D02*
X9678678Y-15844306D01*
X9678678Y-15844306D02*
X9678678Y-15806210D01*
X9678678Y-15806210D02*
X9688202Y-15758591D01*
X9688202Y-15758591D02*
X9697725Y-15730020D01*
X9697725Y-15730020D02*
X9707249Y-15710972D01*
X9707249Y-15710972D02*
X9726297Y-15682401D01*
X9726297Y-15682401D02*
X9735821Y-15672877D01*
X9812011Y-15768115D02*
X9812011Y-15901448D01*
X9812011Y-15787163D02*
X9821535Y-15777639D01*
X9821535Y-15777639D02*
X9840583Y-15768115D01*
X9840583Y-15768115D02*
X9869154Y-15768115D01*
X9869154Y-15768115D02*
X9888202Y-15777639D01*
X9888202Y-15777639D02*
X9897725Y-15796687D01*
X9897725Y-15796687D02*
X9897725Y-15901448D01*
X10021535Y-15901448D02*
X10002487Y-15891925D01*
X10002487Y-15891925D02*
X9992964Y-15882401D01*
X9992964Y-15882401D02*
X9983440Y-15863353D01*
X9983440Y-15863353D02*
X9983440Y-15806210D01*
X9983440Y-15806210D02*
X9992964Y-15787163D01*
X9992964Y-15787163D02*
X10002487Y-15777639D01*
X10002487Y-15777639D02*
X10021535Y-15768115D01*
X10021535Y-15768115D02*
X10050106Y-15768115D01*
X10050106Y-15768115D02*
X10069154Y-15777639D01*
X10069154Y-15777639D02*
X10078678Y-15787163D01*
X10078678Y-15787163D02*
X10088202Y-15806210D01*
X10088202Y-15806210D02*
X10088202Y-15863353D01*
X10088202Y-15863353D02*
X10078678Y-15882401D01*
X10078678Y-15882401D02*
X10069154Y-15891925D01*
X10069154Y-15891925D02*
X10050106Y-15901448D01*
X10050106Y-15901448D02*
X10021535Y-15901448D01*
X10145345Y-15768115D02*
X10221535Y-15768115D01*
X10173916Y-15701448D02*
X10173916Y-15872877D01*
X10173916Y-15872877D02*
X10183440Y-15891925D01*
X10183440Y-15891925D02*
X10202487Y-15901448D01*
X10202487Y-15901448D02*
X10221535Y-15901448D01*
X10440583Y-15768115D02*
X10440583Y-15968115D01*
X10440583Y-15777639D02*
X10459630Y-15768115D01*
X10459630Y-15768115D02*
X10497726Y-15768115D01*
X10497726Y-15768115D02*
X10516773Y-15777639D01*
X10516773Y-15777639D02*
X10526297Y-15787163D01*
X10526297Y-15787163D02*
X10535821Y-15806210D01*
X10535821Y-15806210D02*
X10535821Y-15863353D01*
X10535821Y-15863353D02*
X10526297Y-15882401D01*
X10526297Y-15882401D02*
X10516773Y-15891925D01*
X10516773Y-15891925D02*
X10497726Y-15901448D01*
X10497726Y-15901448D02*
X10459630Y-15901448D01*
X10459630Y-15901448D02*
X10440583Y-15891925D01*
X10650106Y-15901448D02*
X10631059Y-15891925D01*
X10631059Y-15891925D02*
X10621535Y-15872877D01*
X10621535Y-15872877D02*
X10621535Y-15701448D01*
X10812011Y-15901448D02*
X10812011Y-15796687D01*
X10812011Y-15796687D02*
X10802487Y-15777639D01*
X10802487Y-15777639D02*
X10783440Y-15768115D01*
X10783440Y-15768115D02*
X10745345Y-15768115D01*
X10745345Y-15768115D02*
X10726297Y-15777639D01*
X10812011Y-15891925D02*
X10792964Y-15901448D01*
X10792964Y-15901448D02*
X10745345Y-15901448D01*
X10745345Y-15901448D02*
X10726297Y-15891925D01*
X10726297Y-15891925D02*
X10716773Y-15872877D01*
X10716773Y-15872877D02*
X10716773Y-15853829D01*
X10716773Y-15853829D02*
X10726297Y-15834782D01*
X10726297Y-15834782D02*
X10745345Y-15825258D01*
X10745345Y-15825258D02*
X10792964Y-15825258D01*
X10792964Y-15825258D02*
X10812011Y-15815734D01*
X10878678Y-15768115D02*
X10954868Y-15768115D01*
X10907249Y-15701448D02*
X10907249Y-15872877D01*
X10907249Y-15872877D02*
X10916773Y-15891925D01*
X10916773Y-15891925D02*
X10935821Y-15901448D01*
X10935821Y-15901448D02*
X10954868Y-15901448D01*
X11097726Y-15891925D02*
X11078678Y-15901448D01*
X11078678Y-15901448D02*
X11040583Y-15901448D01*
X11040583Y-15901448D02*
X11021535Y-15891925D01*
X11021535Y-15891925D02*
X11012011Y-15872877D01*
X11012011Y-15872877D02*
X11012011Y-15796687D01*
X11012011Y-15796687D02*
X11021535Y-15777639D01*
X11021535Y-15777639D02*
X11040583Y-15768115D01*
X11040583Y-15768115D02*
X11078678Y-15768115D01*
X11078678Y-15768115D02*
X11097726Y-15777639D01*
X11097726Y-15777639D02*
X11107249Y-15796687D01*
X11107249Y-15796687D02*
X11107249Y-15815734D01*
X11107249Y-15815734D02*
X11012011Y-15834782D01*
X11278678Y-15901448D02*
X11278678Y-15701448D01*
X11278678Y-15891925D02*
X11259630Y-15901448D01*
X11259630Y-15901448D02*
X11221535Y-15901448D01*
X11221535Y-15901448D02*
X11202487Y-15891925D01*
X11202487Y-15891925D02*
X11192964Y-15882401D01*
X11192964Y-15882401D02*
X11183440Y-15863353D01*
X11183440Y-15863353D02*
X11183440Y-15806210D01*
X11183440Y-15806210D02*
X11192964Y-15787163D01*
X11192964Y-15787163D02*
X11202487Y-15777639D01*
X11202487Y-15777639D02*
X11221535Y-15768115D01*
X11221535Y-15768115D02*
X11259630Y-15768115D01*
X11259630Y-15768115D02*
X11278678Y-15777639D01*
X11354868Y-15977639D02*
X11364392Y-15968115D01*
X11364392Y-15968115D02*
X11383440Y-15939544D01*
X11383440Y-15939544D02*
X11392964Y-15920496D01*
X11392964Y-15920496D02*
X11402487Y-15891925D01*
X11402487Y-15891925D02*
X11412011Y-15844306D01*
X11412011Y-15844306D02*
X11412011Y-15806210D01*
X11412011Y-15806210D02*
X11402487Y-15758591D01*
X11402487Y-15758591D02*
X11392964Y-15730020D01*
X11392964Y-15730020D02*
X11383440Y-15710972D01*
X11383440Y-15710972D02*
X11364392Y-15682401D01*
X11364392Y-15682401D02*
X11354868Y-15672877D01*
D13*
X4598853Y-16073965D02*
G75*
G02*
X4413853Y-16073965I-92500J0D01*
G01*
X4413853Y-16073965D02*
G75*
G02*
X4598853Y-16073965I92500J0D01*
G01*
D11*
X4964392Y-16165448D02*
X4850106Y-16165448D01*
X4907249Y-16165448D02*
X4907249Y-15965448D01*
X4907249Y-15965448D02*
X4888201Y-15994020D01*
X4888201Y-15994020D02*
X4869154Y-16013067D01*
X4869154Y-16013067D02*
X4850106Y-16022591D01*
X5050106Y-16146401D02*
X5059630Y-16155925D01*
X5059630Y-16155925D02*
X5050106Y-16165448D01*
X5050106Y-16165448D02*
X5040582Y-16155925D01*
X5040582Y-16155925D02*
X5050106Y-16146401D01*
X5050106Y-16146401D02*
X5050106Y-16165448D01*
X5173915Y-16051163D02*
X5154868Y-16041639D01*
X5154868Y-16041639D02*
X5145344Y-16032115D01*
X5145344Y-16032115D02*
X5135820Y-16013067D01*
X5135820Y-16013067D02*
X5135820Y-16003544D01*
X5135820Y-16003544D02*
X5145344Y-15984496D01*
X5145344Y-15984496D02*
X5154868Y-15974972D01*
X5154868Y-15974972D02*
X5173915Y-15965448D01*
X5173915Y-15965448D02*
X5212011Y-15965448D01*
X5212011Y-15965448D02*
X5231058Y-15974972D01*
X5231058Y-15974972D02*
X5240582Y-15984496D01*
X5240582Y-15984496D02*
X5250106Y-16003544D01*
X5250106Y-16003544D02*
X5250106Y-16013067D01*
X5250106Y-16013067D02*
X5240582Y-16032115D01*
X5240582Y-16032115D02*
X5231058Y-16041639D01*
X5231058Y-16041639D02*
X5212011Y-16051163D01*
X5212011Y-16051163D02*
X5173915Y-16051163D01*
X5173915Y-16051163D02*
X5154868Y-16060687D01*
X5154868Y-16060687D02*
X5145344Y-16070210D01*
X5145344Y-16070210D02*
X5135820Y-16089258D01*
X5135820Y-16089258D02*
X5135820Y-16127353D01*
X5135820Y-16127353D02*
X5145344Y-16146401D01*
X5145344Y-16146401D02*
X5154868Y-16155925D01*
X5154868Y-16155925D02*
X5173915Y-16165448D01*
X5173915Y-16165448D02*
X5212011Y-16165448D01*
X5212011Y-16165448D02*
X5231058Y-16155925D01*
X5231058Y-16155925D02*
X5240582Y-16146401D01*
X5240582Y-16146401D02*
X5250106Y-16127353D01*
X5250106Y-16127353D02*
X5250106Y-16089258D01*
X5250106Y-16089258D02*
X5240582Y-16070210D01*
X5240582Y-16070210D02*
X5231058Y-16060687D01*
X5231058Y-16060687D02*
X5212011Y-16051163D01*
X5431058Y-15965448D02*
X5335820Y-15965448D01*
X5335820Y-15965448D02*
X5326296Y-16060687D01*
X5326296Y-16060687D02*
X5335820Y-16051163D01*
X5335820Y-16051163D02*
X5354868Y-16041639D01*
X5354868Y-16041639D02*
X5402487Y-16041639D01*
X5402487Y-16041639D02*
X5421535Y-16051163D01*
X5421535Y-16051163D02*
X5431058Y-16060687D01*
X5431058Y-16060687D02*
X5440582Y-16079734D01*
X5440582Y-16079734D02*
X5440582Y-16127353D01*
X5440582Y-16127353D02*
X5431058Y-16146401D01*
X5431058Y-16146401D02*
X5421535Y-16155925D01*
X5421535Y-16155925D02*
X5402487Y-16165448D01*
X5402487Y-16165448D02*
X5354868Y-16165448D01*
X5354868Y-16165448D02*
X5335820Y-16155925D01*
X5335820Y-16155925D02*
X5326296Y-16146401D01*
X5564392Y-15965448D02*
X5583439Y-15965448D01*
X5583439Y-15965448D02*
X5602487Y-15974972D01*
X5602487Y-15974972D02*
X5612011Y-15984496D01*
X5612011Y-15984496D02*
X5621534Y-16003544D01*
X5621534Y-16003544D02*
X5631058Y-16041639D01*
X5631058Y-16041639D02*
X5631058Y-16089258D01*
X5631058Y-16089258D02*
X5621534Y-16127353D01*
X5621534Y-16127353D02*
X5612011Y-16146401D01*
X5612011Y-16146401D02*
X5602487Y-16155925D01*
X5602487Y-16155925D02*
X5583439Y-16165448D01*
X5583439Y-16165448D02*
X5564392Y-16165448D01*
X5564392Y-16165448D02*
X5545344Y-16155925D01*
X5545344Y-16155925D02*
X5535820Y-16146401D01*
X5535820Y-16146401D02*
X5526296Y-16127353D01*
X5526296Y-16127353D02*
X5516773Y-16089258D01*
X5516773Y-16089258D02*
X5516773Y-16041639D01*
X5516773Y-16041639D02*
X5526296Y-16003544D01*
X5526296Y-16003544D02*
X5535820Y-15984496D01*
X5535820Y-15984496D02*
X5545344Y-15974972D01*
X5545344Y-15974972D02*
X5564392Y-15965448D01*
X5716773Y-16165448D02*
X5716773Y-16032115D01*
X5716773Y-16051163D02*
X5726296Y-16041639D01*
X5726296Y-16041639D02*
X5745344Y-16032115D01*
X5745344Y-16032115D02*
X5773915Y-16032115D01*
X5773915Y-16032115D02*
X5792963Y-16041639D01*
X5792963Y-16041639D02*
X5802487Y-16060687D01*
X5802487Y-16060687D02*
X5802487Y-16165448D01*
X5802487Y-16060687D02*
X5812011Y-16041639D01*
X5812011Y-16041639D02*
X5831058Y-16032115D01*
X5831058Y-16032115D02*
X5859630Y-16032115D01*
X5859630Y-16032115D02*
X5878677Y-16041639D01*
X5878677Y-16041639D02*
X5888201Y-16060687D01*
X5888201Y-16060687D02*
X5888201Y-16165448D01*
X5983439Y-16165448D02*
X5983439Y-16032115D01*
X5983439Y-16051163D02*
X5992963Y-16041639D01*
X5992963Y-16041639D02*
X6012011Y-16032115D01*
X6012011Y-16032115D02*
X6040582Y-16032115D01*
X6040582Y-16032115D02*
X6059630Y-16041639D01*
X6059630Y-16041639D02*
X6069154Y-16060687D01*
X6069154Y-16060687D02*
X6069154Y-16165448D01*
X6069154Y-16060687D02*
X6078677Y-16041639D01*
X6078677Y-16041639D02*
X6097725Y-16032115D01*
X6097725Y-16032115D02*
X6126296Y-16032115D01*
X6126296Y-16032115D02*
X6145344Y-16041639D01*
X6145344Y-16041639D02*
X6154868Y-16060687D01*
X6154868Y-16060687D02*
X6154868Y-16165448D01*
X6545344Y-15955925D02*
X6373916Y-16213067D01*
X6802487Y-15965448D02*
X6821535Y-15965448D01*
X6821535Y-15965448D02*
X6840582Y-15974972D01*
X6840582Y-15974972D02*
X6850106Y-15984496D01*
X6850106Y-15984496D02*
X6859630Y-16003544D01*
X6859630Y-16003544D02*
X6869154Y-16041639D01*
X6869154Y-16041639D02*
X6869154Y-16089258D01*
X6869154Y-16089258D02*
X6859630Y-16127353D01*
X6859630Y-16127353D02*
X6850106Y-16146401D01*
X6850106Y-16146401D02*
X6840582Y-16155925D01*
X6840582Y-16155925D02*
X6821535Y-16165448D01*
X6821535Y-16165448D02*
X6802487Y-16165448D01*
X6802487Y-16165448D02*
X6783439Y-16155925D01*
X6783439Y-16155925D02*
X6773916Y-16146401D01*
X6773916Y-16146401D02*
X6764392Y-16127353D01*
X6764392Y-16127353D02*
X6754868Y-16089258D01*
X6754868Y-16089258D02*
X6754868Y-16041639D01*
X6754868Y-16041639D02*
X6764392Y-16003544D01*
X6764392Y-16003544D02*
X6773916Y-15984496D01*
X6773916Y-15984496D02*
X6783439Y-15974972D01*
X6783439Y-15974972D02*
X6802487Y-15965448D01*
X6954868Y-16146401D02*
X6964392Y-16155925D01*
X6964392Y-16155925D02*
X6954868Y-16165448D01*
X6954868Y-16165448D02*
X6945344Y-16155925D01*
X6945344Y-16155925D02*
X6954868Y-16146401D01*
X6954868Y-16146401D02*
X6954868Y-16165448D01*
X7088201Y-15965448D02*
X7107249Y-15965448D01*
X7107249Y-15965448D02*
X7126297Y-15974972D01*
X7126297Y-15974972D02*
X7135820Y-15984496D01*
X7135820Y-15984496D02*
X7145344Y-16003544D01*
X7145344Y-16003544D02*
X7154868Y-16041639D01*
X7154868Y-16041639D02*
X7154868Y-16089258D01*
X7154868Y-16089258D02*
X7145344Y-16127353D01*
X7145344Y-16127353D02*
X7135820Y-16146401D01*
X7135820Y-16146401D02*
X7126297Y-16155925D01*
X7126297Y-16155925D02*
X7107249Y-16165448D01*
X7107249Y-16165448D02*
X7088201Y-16165448D01*
X7088201Y-16165448D02*
X7069154Y-16155925D01*
X7069154Y-16155925D02*
X7059630Y-16146401D01*
X7059630Y-16146401D02*
X7050106Y-16127353D01*
X7050106Y-16127353D02*
X7040582Y-16089258D01*
X7040582Y-16089258D02*
X7040582Y-16041639D01*
X7040582Y-16041639D02*
X7050106Y-16003544D01*
X7050106Y-16003544D02*
X7059630Y-15984496D01*
X7059630Y-15984496D02*
X7069154Y-15974972D01*
X7069154Y-15974972D02*
X7088201Y-15965448D01*
X7221535Y-15965448D02*
X7354868Y-15965448D01*
X7354868Y-15965448D02*
X7269154Y-16165448D01*
X7421535Y-15984496D02*
X7431058Y-15974972D01*
X7431058Y-15974972D02*
X7450106Y-15965448D01*
X7450106Y-15965448D02*
X7497725Y-15965448D01*
X7497725Y-15965448D02*
X7516773Y-15974972D01*
X7516773Y-15974972D02*
X7526297Y-15984496D01*
X7526297Y-15984496D02*
X7535820Y-16003544D01*
X7535820Y-16003544D02*
X7535820Y-16022591D01*
X7535820Y-16022591D02*
X7526297Y-16051163D01*
X7526297Y-16051163D02*
X7412011Y-16165448D01*
X7412011Y-16165448D02*
X7535820Y-16165448D01*
X7650106Y-16051163D02*
X7631058Y-16041639D01*
X7631058Y-16041639D02*
X7621535Y-16032115D01*
X7621535Y-16032115D02*
X7612011Y-16013067D01*
X7612011Y-16013067D02*
X7612011Y-16003544D01*
X7612011Y-16003544D02*
X7621535Y-15984496D01*
X7621535Y-15984496D02*
X7631058Y-15974972D01*
X7631058Y-15974972D02*
X7650106Y-15965448D01*
X7650106Y-15965448D02*
X7688201Y-15965448D01*
X7688201Y-15965448D02*
X7707249Y-15974972D01*
X7707249Y-15974972D02*
X7716773Y-15984496D01*
X7716773Y-15984496D02*
X7726297Y-16003544D01*
X7726297Y-16003544D02*
X7726297Y-16013067D01*
X7726297Y-16013067D02*
X7716773Y-16032115D01*
X7716773Y-16032115D02*
X7707249Y-16041639D01*
X7707249Y-16041639D02*
X7688201Y-16051163D01*
X7688201Y-16051163D02*
X7650106Y-16051163D01*
X7650106Y-16051163D02*
X7631058Y-16060687D01*
X7631058Y-16060687D02*
X7621535Y-16070210D01*
X7621535Y-16070210D02*
X7612011Y-16089258D01*
X7612011Y-16089258D02*
X7612011Y-16127353D01*
X7612011Y-16127353D02*
X7621535Y-16146401D01*
X7621535Y-16146401D02*
X7631058Y-16155925D01*
X7631058Y-16155925D02*
X7650106Y-16165448D01*
X7650106Y-16165448D02*
X7688201Y-16165448D01*
X7688201Y-16165448D02*
X7707249Y-16155925D01*
X7707249Y-16155925D02*
X7716773Y-16146401D01*
X7716773Y-16146401D02*
X7726297Y-16127353D01*
X7726297Y-16127353D02*
X7726297Y-16089258D01*
X7726297Y-16089258D02*
X7716773Y-16070210D01*
X7716773Y-16070210D02*
X7707249Y-16060687D01*
X7707249Y-16060687D02*
X7688201Y-16051163D01*
X7802487Y-15965448D02*
X7802487Y-16003544D01*
X7878678Y-15965448D02*
X7878678Y-16003544D01*
X8173916Y-16241639D02*
X8164392Y-16232115D01*
X8164392Y-16232115D02*
X8145344Y-16203544D01*
X8145344Y-16203544D02*
X8135820Y-16184496D01*
X8135820Y-16184496D02*
X8126297Y-16155925D01*
X8126297Y-16155925D02*
X8116773Y-16108306D01*
X8116773Y-16108306D02*
X8116773Y-16070210D01*
X8116773Y-16070210D02*
X8126297Y-16022591D01*
X8126297Y-16022591D02*
X8135820Y-15994020D01*
X8135820Y-15994020D02*
X8145344Y-15974972D01*
X8145344Y-15974972D02*
X8164392Y-15946401D01*
X8164392Y-15946401D02*
X8173916Y-15936877D01*
X8240582Y-15984496D02*
X8250106Y-15974972D01*
X8250106Y-15974972D02*
X8269154Y-15965448D01*
X8269154Y-15965448D02*
X8316773Y-15965448D01*
X8316773Y-15965448D02*
X8335820Y-15974972D01*
X8335820Y-15974972D02*
X8345344Y-15984496D01*
X8345344Y-15984496D02*
X8354868Y-16003544D01*
X8354868Y-16003544D02*
X8354868Y-16022591D01*
X8354868Y-16022591D02*
X8345344Y-16051163D01*
X8345344Y-16051163D02*
X8231059Y-16165448D01*
X8231059Y-16165448D02*
X8354868Y-16165448D01*
X8592963Y-16165448D02*
X8592963Y-15965448D01*
X8678678Y-16165448D02*
X8678678Y-16060687D01*
X8678678Y-16060687D02*
X8669154Y-16041639D01*
X8669154Y-16041639D02*
X8650106Y-16032115D01*
X8650106Y-16032115D02*
X8621535Y-16032115D01*
X8621535Y-16032115D02*
X8602487Y-16041639D01*
X8602487Y-16041639D02*
X8592963Y-16051163D01*
X8802487Y-16165448D02*
X8783440Y-16155925D01*
X8783440Y-16155925D02*
X8773916Y-16146401D01*
X8773916Y-16146401D02*
X8764392Y-16127353D01*
X8764392Y-16127353D02*
X8764392Y-16070210D01*
X8764392Y-16070210D02*
X8773916Y-16051163D01*
X8773916Y-16051163D02*
X8783440Y-16041639D01*
X8783440Y-16041639D02*
X8802487Y-16032115D01*
X8802487Y-16032115D02*
X8831059Y-16032115D01*
X8831059Y-16032115D02*
X8850106Y-16041639D01*
X8850106Y-16041639D02*
X8859630Y-16051163D01*
X8859630Y-16051163D02*
X8869154Y-16070210D01*
X8869154Y-16070210D02*
X8869154Y-16127353D01*
X8869154Y-16127353D02*
X8859630Y-16146401D01*
X8859630Y-16146401D02*
X8850106Y-16155925D01*
X8850106Y-16155925D02*
X8831059Y-16165448D01*
X8831059Y-16165448D02*
X8802487Y-16165448D01*
X8983440Y-16165448D02*
X8964392Y-16155925D01*
X8964392Y-16155925D02*
X8954868Y-16136877D01*
X8954868Y-16136877D02*
X8954868Y-15965448D01*
X9135821Y-16155925D02*
X9116773Y-16165448D01*
X9116773Y-16165448D02*
X9078678Y-16165448D01*
X9078678Y-16165448D02*
X9059630Y-16155925D01*
X9059630Y-16155925D02*
X9050106Y-16136877D01*
X9050106Y-16136877D02*
X9050106Y-16060687D01*
X9050106Y-16060687D02*
X9059630Y-16041639D01*
X9059630Y-16041639D02*
X9078678Y-16032115D01*
X9078678Y-16032115D02*
X9116773Y-16032115D01*
X9116773Y-16032115D02*
X9135821Y-16041639D01*
X9135821Y-16041639D02*
X9145344Y-16060687D01*
X9145344Y-16060687D02*
X9145344Y-16079734D01*
X9145344Y-16079734D02*
X9050106Y-16098782D01*
X9221535Y-16155925D02*
X9240583Y-16165448D01*
X9240583Y-16165448D02*
X9278678Y-16165448D01*
X9278678Y-16165448D02*
X9297725Y-16155925D01*
X9297725Y-16155925D02*
X9307249Y-16136877D01*
X9307249Y-16136877D02*
X9307249Y-16127353D01*
X9307249Y-16127353D02*
X9297725Y-16108306D01*
X9297725Y-16108306D02*
X9278678Y-16098782D01*
X9278678Y-16098782D02*
X9250106Y-16098782D01*
X9250106Y-16098782D02*
X9231059Y-16089258D01*
X9231059Y-16089258D02*
X9221535Y-16070210D01*
X9221535Y-16070210D02*
X9221535Y-16060687D01*
X9221535Y-16060687D02*
X9231059Y-16041639D01*
X9231059Y-16041639D02*
X9250106Y-16032115D01*
X9250106Y-16032115D02*
X9278678Y-16032115D01*
X9278678Y-16032115D02*
X9297725Y-16041639D01*
X9373916Y-16241639D02*
X9383440Y-16232115D01*
X9383440Y-16232115D02*
X9402487Y-16203544D01*
X9402487Y-16203544D02*
X9412011Y-16184496D01*
X9412011Y-16184496D02*
X9421535Y-16155925D01*
X9421535Y-16155925D02*
X9431059Y-16108306D01*
X9431059Y-16108306D02*
X9431059Y-16070210D01*
X9431059Y-16070210D02*
X9421535Y-16022591D01*
X9421535Y-16022591D02*
X9412011Y-15994020D01*
X9412011Y-15994020D02*
X9402487Y-15974972D01*
X9402487Y-15974972D02*
X9383440Y-15946401D01*
X9383440Y-15946401D02*
X9373916Y-15936877D01*
X9735821Y-16241639D02*
X9726297Y-16232115D01*
X9726297Y-16232115D02*
X9707249Y-16203544D01*
X9707249Y-16203544D02*
X9697725Y-16184496D01*
X9697725Y-16184496D02*
X9688202Y-16155925D01*
X9688202Y-16155925D02*
X9678678Y-16108306D01*
X9678678Y-16108306D02*
X9678678Y-16070210D01*
X9678678Y-16070210D02*
X9688202Y-16022591D01*
X9688202Y-16022591D02*
X9697725Y-15994020D01*
X9697725Y-15994020D02*
X9707249Y-15974972D01*
X9707249Y-15974972D02*
X9726297Y-15946401D01*
X9726297Y-15946401D02*
X9735821Y-15936877D01*
X9812011Y-16032115D02*
X9812011Y-16165448D01*
X9812011Y-16051163D02*
X9821535Y-16041639D01*
X9821535Y-16041639D02*
X9840583Y-16032115D01*
X9840583Y-16032115D02*
X9869154Y-16032115D01*
X9869154Y-16032115D02*
X9888202Y-16041639D01*
X9888202Y-16041639D02*
X9897725Y-16060687D01*
X9897725Y-16060687D02*
X9897725Y-16165448D01*
X10021535Y-16165448D02*
X10002487Y-16155925D01*
X10002487Y-16155925D02*
X9992964Y-16146401D01*
X9992964Y-16146401D02*
X9983440Y-16127353D01*
X9983440Y-16127353D02*
X9983440Y-16070210D01*
X9983440Y-16070210D02*
X9992964Y-16051163D01*
X9992964Y-16051163D02*
X10002487Y-16041639D01*
X10002487Y-16041639D02*
X10021535Y-16032115D01*
X10021535Y-16032115D02*
X10050106Y-16032115D01*
X10050106Y-16032115D02*
X10069154Y-16041639D01*
X10069154Y-16041639D02*
X10078678Y-16051163D01*
X10078678Y-16051163D02*
X10088202Y-16070210D01*
X10088202Y-16070210D02*
X10088202Y-16127353D01*
X10088202Y-16127353D02*
X10078678Y-16146401D01*
X10078678Y-16146401D02*
X10069154Y-16155925D01*
X10069154Y-16155925D02*
X10050106Y-16165448D01*
X10050106Y-16165448D02*
X10021535Y-16165448D01*
X10145345Y-16032115D02*
X10221535Y-16032115D01*
X10173916Y-15965448D02*
X10173916Y-16136877D01*
X10173916Y-16136877D02*
X10183440Y-16155925D01*
X10183440Y-16155925D02*
X10202487Y-16165448D01*
X10202487Y-16165448D02*
X10221535Y-16165448D01*
X10440583Y-16032115D02*
X10440583Y-16232115D01*
X10440583Y-16041639D02*
X10459630Y-16032115D01*
X10459630Y-16032115D02*
X10497726Y-16032115D01*
X10497726Y-16032115D02*
X10516773Y-16041639D01*
X10516773Y-16041639D02*
X10526297Y-16051163D01*
X10526297Y-16051163D02*
X10535821Y-16070210D01*
X10535821Y-16070210D02*
X10535821Y-16127353D01*
X10535821Y-16127353D02*
X10526297Y-16146401D01*
X10526297Y-16146401D02*
X10516773Y-16155925D01*
X10516773Y-16155925D02*
X10497726Y-16165448D01*
X10497726Y-16165448D02*
X10459630Y-16165448D01*
X10459630Y-16165448D02*
X10440583Y-16155925D01*
X10650106Y-16165448D02*
X10631059Y-16155925D01*
X10631059Y-16155925D02*
X10621535Y-16136877D01*
X10621535Y-16136877D02*
X10621535Y-15965448D01*
X10812011Y-16165448D02*
X10812011Y-16060687D01*
X10812011Y-16060687D02*
X10802487Y-16041639D01*
X10802487Y-16041639D02*
X10783440Y-16032115D01*
X10783440Y-16032115D02*
X10745345Y-16032115D01*
X10745345Y-16032115D02*
X10726297Y-16041639D01*
X10812011Y-16155925D02*
X10792964Y-16165448D01*
X10792964Y-16165448D02*
X10745345Y-16165448D01*
X10745345Y-16165448D02*
X10726297Y-16155925D01*
X10726297Y-16155925D02*
X10716773Y-16136877D01*
X10716773Y-16136877D02*
X10716773Y-16117829D01*
X10716773Y-16117829D02*
X10726297Y-16098782D01*
X10726297Y-16098782D02*
X10745345Y-16089258D01*
X10745345Y-16089258D02*
X10792964Y-16089258D01*
X10792964Y-16089258D02*
X10812011Y-16079734D01*
X10878678Y-16032115D02*
X10954868Y-16032115D01*
X10907249Y-15965448D02*
X10907249Y-16136877D01*
X10907249Y-16136877D02*
X10916773Y-16155925D01*
X10916773Y-16155925D02*
X10935821Y-16165448D01*
X10935821Y-16165448D02*
X10954868Y-16165448D01*
X11097726Y-16155925D02*
X11078678Y-16165448D01*
X11078678Y-16165448D02*
X11040583Y-16165448D01*
X11040583Y-16165448D02*
X11021535Y-16155925D01*
X11021535Y-16155925D02*
X11012011Y-16136877D01*
X11012011Y-16136877D02*
X11012011Y-16060687D01*
X11012011Y-16060687D02*
X11021535Y-16041639D01*
X11021535Y-16041639D02*
X11040583Y-16032115D01*
X11040583Y-16032115D02*
X11078678Y-16032115D01*
X11078678Y-16032115D02*
X11097726Y-16041639D01*
X11097726Y-16041639D02*
X11107249Y-16060687D01*
X11107249Y-16060687D02*
X11107249Y-16079734D01*
X11107249Y-16079734D02*
X11012011Y-16098782D01*
X11278678Y-16165448D02*
X11278678Y-15965448D01*
X11278678Y-16155925D02*
X11259630Y-16165448D01*
X11259630Y-16165448D02*
X11221535Y-16165448D01*
X11221535Y-16165448D02*
X11202487Y-16155925D01*
X11202487Y-16155925D02*
X11192964Y-16146401D01*
X11192964Y-16146401D02*
X11183440Y-16127353D01*
X11183440Y-16127353D02*
X11183440Y-16070210D01*
X11183440Y-16070210D02*
X11192964Y-16051163D01*
X11192964Y-16051163D02*
X11202487Y-16041639D01*
X11202487Y-16041639D02*
X11221535Y-16032115D01*
X11221535Y-16032115D02*
X11259630Y-16032115D01*
X11259630Y-16032115D02*
X11278678Y-16041639D01*
X11354868Y-16241639D02*
X11364392Y-16232115D01*
X11364392Y-16232115D02*
X11383440Y-16203544D01*
X11383440Y-16203544D02*
X11392964Y-16184496D01*
X11392964Y-16184496D02*
X11402487Y-16155925D01*
X11402487Y-16155925D02*
X11412011Y-16108306D01*
X11412011Y-16108306D02*
X11412011Y-16070210D01*
X11412011Y-16070210D02*
X11402487Y-16022591D01*
X11402487Y-16022591D02*
X11392964Y-15994020D01*
X11392964Y-15994020D02*
X11383440Y-15974972D01*
X11383440Y-15974972D02*
X11364392Y-15946401D01*
X11364392Y-15946401D02*
X11354868Y-15936877D01*
M02*
